<svg width="44" height="44" viewBox="0 0 44 44" fill="none" xmlns="http://www.w3.org/2000/svg">
<path d="M9.28125 33.6764H34.9844C35.3393 33.6764 35.627 33.3875 35.627 33.0311V20.1248C35.627 19.7684 35.3393 19.4795 34.9844 19.4795H9.28125C8.92636 19.4795 8.63867 19.7684 8.63867 20.1248V33.0311C8.63867 33.3875 8.92636 33.6764 9.28125 33.6764ZM34.3418 32.3857H9.92383V20.7701H34.3418V32.3857Z" fill="#414141"/>
<path d="M12.9531 33.6764H31.3125C31.6674 33.6764 31.9551 33.3875 31.9551 33.0311V20.1248C31.9551 19.7684 31.6674 19.4795 31.3125 19.4795H12.9531C12.5982 19.4795 12.3105 19.7684 12.3105 20.1248V33.0311C12.3105 33.3875 12.5982 33.6764 12.9531 33.6764ZM30.6699 32.3857H13.5957V20.7701H30.6699V32.3857Z" fill="#414141"/>
<path d="M18.4609 43.817H25.8047C26.1596 43.817 26.4473 43.5281 26.4473 43.1717V33.0311C26.4473 32.6747 26.1596 32.3857 25.8047 32.3857H18.4609C18.1061 32.3857 17.8184 32.6747 17.8184 33.0311V43.1717C17.8184 43.5281 18.1061 43.817 18.4609 43.817ZM25.1621 42.5264H19.1035V33.6764H25.1621V42.5264Z" fill="#414141"/>
<path d="M4.69141 35.5201H9.28125C9.63614 35.5201 9.92383 35.2312 9.92383 34.8748V18.2811C9.92383 17.9247 9.63614 17.6357 9.28125 17.6357H4.69141C4.33652 17.6357 4.04883 17.9247 4.04883 18.2811V34.8748C4.04883 35.2312 4.33652 35.5201 4.69141 35.5201ZM8.63867 34.2295H5.33398V18.9264H8.63867V34.2295Z" fill="#414141"/>
<path d="M34.9844 35.5201H39.5742C39.9291 35.5201 40.2168 35.2312 40.2168 34.8748V18.2811C40.2168 17.9247 39.9291 17.6357 39.5742 17.6357H34.9844C34.6295 17.6357 34.3418 17.9247 34.3418 18.2811V34.8748C34.3418 35.2312 34.6295 35.5201 34.9844 35.5201ZM38.9316 34.2295H35.627V18.9264H38.9316V34.2295Z" fill="#414141"/>
<path d="M9.28125 20.7701H34.9844C35.3393 20.7701 35.627 20.4812 35.627 20.1248V0.76543C35.627 0.409033 35.3393 0.120117 34.9844 0.120117H14.9112C14.7408 0.120117 14.5773 0.188059 14.4568 0.309102L8.82685 5.96296C8.70633 6.084 8.63867 6.2481 8.63867 6.41929V20.1248C8.63867 20.4812 8.92636 20.7701 9.28125 20.7701ZM34.3418 19.4795H9.92383V6.68654L15.1773 1.41074H34.3418V19.4795Z" fill="#414141"/>
<path d="M23.9688 5.09824H31.3125C31.6674 5.09824 31.9551 4.80933 31.9551 4.45293C31.9551 4.09653 31.6674 3.80762 31.3125 3.80762H23.9688C23.6139 3.80762 23.3262 4.09653 23.3262 4.45293C23.3262 4.80933 23.6139 5.09824 23.9688 5.09824Z" fill="#414141"/>
<path d="M23.9688 7.86387H31.3125C31.6674 7.86387 31.9551 7.57495 31.9551 7.21855C31.9551 6.86216 31.6674 6.57324 31.3125 6.57324H23.9688C23.6139 6.57324 23.3262 6.86216 23.3262 7.21855C23.3262 7.57495 23.6139 7.86387 23.9688 7.86387Z" fill="#414141"/>
<path d="M16.625 10.6295H31.3125C31.6674 10.6295 31.9551 10.3406 31.9551 9.98418C31.9551 9.62778 31.6674 9.33887 31.3125 9.33887H16.625C16.2701 9.33887 15.9824 9.62778 15.9824 9.98418C15.9824 10.3406 16.2701 10.6295 16.625 10.6295Z" fill="#414141"/>
<path d="M16.625 13.3951H31.3125C31.6674 13.3951 31.9551 13.1062 31.9551 12.7498C31.9551 12.3934 31.6674 12.1045 31.3125 12.1045H16.625C16.2701 12.1045 15.9824 12.3934 15.9824 12.7498C15.9824 13.1062 16.2701 13.3951 16.625 13.3951Z" fill="#414141"/>
<path d="M16.3484 18.0039C16.4648 18.0039 16.5817 17.9889 16.6963 17.9583C17.0721 17.8581 17.3872 17.6003 17.5611 17.251L17.8616 16.6473C17.8766 16.6172 17.9094 16.602 17.9422 16.61L21.0588 17.3925C21.4036 17.4789 21.7521 17.2686 21.8381 16.923C21.9242 16.5773 21.7148 16.2269 21.3706 16.1404L18.2539 15.358C17.6323 15.2021 16.9985 15.4948 16.7121 16.0701L16.4115 16.6739C16.402 16.6931 16.3868 16.7055 16.3663 16.7109C16.3457 16.7164 16.3266 16.7131 16.3091 16.7013L14.714 15.6335C14.1781 15.2746 13.4584 15.3462 13.003 15.8037C12.9754 15.8313 12.9305 15.8313 12.9028 15.8036C12.652 15.5516 12.245 15.5517 11.9941 15.8037C11.7433 16.0557 11.7433 16.4643 11.9942 16.7162C12.523 17.2471 13.383 17.2471 13.9118 16.7162C13.9357 16.6922 13.9732 16.6886 14.0012 16.7073L15.5962 17.7751C15.8209 17.9258 16.0832 18.0039 16.3484 18.0039Z" fill="#414141"/>
<path d="M1.01953 43.817H43.2461C43.601 43.817 43.8887 43.5281 43.8887 43.1717C43.8887 42.8153 43.601 42.5264 43.2461 42.5264H1.01953C0.664646 42.5264 0.376953 42.8153 0.376953 43.1717C0.376953 43.5281 0.664646 43.817 1.01953 43.817Z" fill="#414141"/>
</svg>
