<svg width="51" height="44" viewBox="0 0 51 44" fill="none" xmlns="http://www.w3.org/2000/svg">
<path d="M38.4871 0.531413L34.7369 4.8337L24.4023 7.60554L24.2835 7.1804C24.2214 6.93744 23.9733 6.75663 23.7235 6.77229L12.6593 7.48647C12.3465 7.51553 12.1043 7.86224 12.1842 8.16671L13.8642 14.4756C13.9425 14.788 14.3385 14.9732 14.6278 14.8327L24.5551 9.90126C24.7798 9.7923 24.9074 9.51388 24.8435 9.27204L24.6738 8.65986L29.9175 7.24845C30.1729 8.18261 30.4947 9.3657 30.8338 10.6325C28.7002 11.7423 28.3748 14.0364 28.8993 16.0741L35.6532 41.3095C35.7314 41.5795 36.044 41.7563 36.315 41.6837L46.8023 38.8779C47.0852 38.8073 47.2741 38.4781 47.1926 38.1976L40.4386 12.9791C39.7934 10.6417 38.255 8.76348 36.0605 9.22102C35.7427 8.06363 35.4803 7.09939 35.1441 5.95606C36.0257 5.7083 36.9212 5.46732 37.8083 5.22488C39.2653 4.83367 40.2353 5.05979 40.9986 5.68401C41.7619 6.30824 42.3326 7.43062 42.7295 8.91498L49.2119 33.1472C49.2829 33.4233 49.5983 33.6097 49.8738 33.5384C50.1493 33.4672 50.3352 33.1511 50.264 32.8751L43.7816 8.6259C43.3528 7.02225 42.713 5.68069 41.6774 4.83377C40.4116 3.88891 38.8731 3.83764 37.5368 4.18756L36.4847 4.45964L39.3016 1.2457C39.5122 1.02519 39.4284 0.649408 39.2114 0.45331C38.9312 0.250947 38.7215 0.332004 38.4871 0.531413ZM34.109 6.22815C34.4859 7.49675 34.7636 8.5187 35.1441 9.90126C35.2219 10.1786 35.5475 10.3581 35.8229 10.2753C37.8159 9.72882 38.9578 11.6511 39.4035 13.2513L46.0047 37.9596L36.5696 40.4933L34.8726 34.1845L39.0641 33.0621C39.3396 32.991 39.5256 32.6749 39.4544 32.3989L35.5175 17.6726C35.4462 17.4105 35.1556 17.2295 34.8896 17.2815C34.8781 17.2869 34.8668 17.2924 34.8556 17.2984L30.6471 18.4037L29.9514 15.785C29.4002 13.9198 30.0001 12.1057 31.5635 11.4147C31.8524 11.3518 32.0514 11.0195 31.9708 10.7344C31.6015 9.35526 31.2654 8.08973 30.9865 7.06137L34.109 6.22815ZM23.3502 7.89465C23.4654 8.31823 23.5657 8.70762 23.6726 9.13598L14.7465 13.5573L13.389 8.54079L23.3502 7.89465ZM7.0968 18.2567C6.90593 18.3927 6.79703 18.6538 6.87267 18.8799C7.67141 21.2676 7.77357 22.9104 7.27994 24.5596C6.87186 25.9231 5.89439 27.4313 4.54783 29.253C4.35291 27.9295 4.00937 26.8947 3.6145 26.0901C3.43704 25.703 2.76418 25.7258 2.61329 26.1241C0.73049 30.5087 -0.119853 33.5922 0.458142 36.2421C1.03614 38.8921 3.04914 40.9064 6.56722 43.1121C6.94201 43.3373 7.49521 42.9009 7.36479 42.4829C6.31285 39.5356 6.2012 38.0236 6.44843 36.7012C6.62119 35.7771 7.08467 34.5631 7.48358 33.3513C7.72848 33.9992 7.92479 34.6889 7.92479 35.5789C7.93811 36.0209 8.61675 36.2476 8.89206 35.902C10.1815 34.1503 10.8274 32.3406 10.7927 30.5284C12.1679 31.8481 13.1577 33.0019 13.5418 34.3716C14.0303 36.1137 13.8045 38.4659 12.7442 42.5169C12.6306 42.956 13.2565 43.3619 13.6096 43.0781C17.6658 39.7721 19.678 36.9085 19.8205 33.6403C19.9618 30.4014 18.2966 26.9384 15.3914 22.349C15.2125 22.0222 14.9564 22.0273 14.7623 22.0587C14.6095 22.1396 14.4712 22.262 14.4373 22.4461C14.2073 23.6949 14.5459 25.2749 14.1696 26.5152C12.2146 22.832 10.1973 20.3062 7.73812 18.3018C7.41926 18.0936 7.26479 18.1472 7.0968 18.2567V18.2567ZM34.6011 18.4888L38.2665 32.1439L34.6011 33.1302L30.9356 19.4581L34.6011 18.4888ZM8.28116 20.2743C10.323 22.2159 12.085 24.6078 13.8472 28.1987C14.0281 28.5536 14.6335 28.5536 14.8145 28.1987C15.2994 26.9727 15.5506 25.9615 15.5781 24.7807C17.6908 28.3672 18.84 31.1691 18.7345 33.5893C18.6245 36.1111 17.164 38.4476 14.1187 41.1735C14.817 38.1054 15.082 35.8232 14.5939 34.0825C14.0142 32.0155 12.5677 30.556 10.4193 28.6408C10.073 28.3399 9.42487 28.7395 9.53691 29.185C9.93597 30.8113 9.66848 32.4104 8.7563 34.0654C8.54173 33.1103 8.22918 32.2557 7.87388 31.5317C7.66768 31.1527 6.98467 31.2339 6.87267 31.6507C6.35236 33.7712 5.68318 34.9627 5.39631 36.4971C5.16574 37.7305 5.36169 39.3051 5.95631 41.3776C3.36544 39.5824 1.93591 37.9726 1.51026 36.021C1.07671 34.0332 1.76147 31.3645 3.17328 27.8246C3.44394 28.5485 3.64844 29.3764 3.64844 30.6814C3.64821 31.129 4.33676 31.3712 4.61571 31.0215C6.51109 28.5688 7.76582 26.7576 8.33206 24.8657C8.67566 23.2418 8.55678 21.5926 8.28119 20.2743H8.28116Z" fill="#414141"/>
</svg>
