<svg width="46" height="41" viewBox="0 0 46 41" fill="none" xmlns="http://www.w3.org/2000/svg">
<path d="M35.6369 15.2944H24.1031C23.8015 15.2944 23.5 15.5197 23.5 15.895V20.5498C23.5 20.8501 23.7262 21.1504 24.1031 21.1504H35.6369C35.9385 21.1504 36.24 20.9252 36.24 20.5498V15.895C36.1646 15.5947 35.9385 15.2944 35.6369 15.2944ZM35.0338 19.9492H24.7062V16.4206H35.1092V19.9492H35.0338Z" fill="#414141"/>
<path d="M42.1951 4.55855V1.10501C42.1951 0.729625 41.969 0.504395 41.5921 0.504395H24.1028C23.8013 0.504395 23.4998 0.729625 23.4998 1.10501V4.7087C20.6351 12.4416 20.4844 12.6669 20.4844 12.817V39.169C20.4844 39.4693 20.7105 39.7696 21.0875 39.7696H38.5767H45.5121C45.8136 39.7696 46.1151 39.5444 46.1151 39.169V12.817C46.1151 12.5167 46.1905 12.817 42.1951 4.55855ZM24.5551 5.23424H40.7628L38.1998 12.2164H21.9921L24.5551 5.23424ZM39.4059 12.2164L41.6675 6.13516L44.6075 12.2164H39.4059ZM24.7059 1.63055H41.0644V4.10809H24.7059V1.63055ZM21.6905 13.3425H38.049V38.5684H21.6905V13.3425ZM39.1798 38.5684V13.3425H44.9844V38.5684H39.1798Z" fill="#414141"/>
<path d="M12.4186 22.9523C12.8709 22.7271 13.3232 22.4268 13.7002 22.1265C14.7555 21.0754 15.2078 19.6489 14.9063 18.2225C14.8309 17.9972 14.6802 17.8471 14.454 17.772C13.0217 17.4717 11.514 17.9221 10.534 18.9732C10.0063 19.4988 9.554 20.2495 9.40323 21.0003C8.87554 20.3997 7.97092 19.7991 6.53861 19.4237L6.23707 20.5498C8.19707 21.0754 8.87553 22.0514 9.10169 22.7271C4.50323 22.9523 0.884766 26.7812 0.884766 31.436C0.884766 36.316 4.88015 40.2951 9.78015 40.2951C14.6802 40.2951 18.6755 36.316 18.6755 31.436C18.6755 27.4569 16.0371 24.0785 12.4186 22.9523ZM11.2878 19.724C11.9663 19.0483 12.8709 18.748 13.8509 18.8231C13.9263 19.724 13.6248 20.7 12.9463 21.3757C12.2678 22.0514 11.3632 22.3517 10.3832 22.2766C10.3078 21.3006 10.6094 20.3997 11.2878 19.724ZM9.78015 39.1689C5.48323 39.1689 2.01553 35.7154 2.01553 31.436C2.01553 27.1566 5.48323 23.7031 9.78015 23.7031C14.0771 23.7031 17.5448 27.1566 17.5448 31.436C17.5448 35.7154 14.0771 39.1689 9.78015 39.1689Z" fill="#414141"/>
<path d="M10.1562 36.316L10.2316 37.4421C12.9455 37.2169 15.207 35.1898 15.7347 32.5621L14.6039 32.3369C14.227 34.5141 12.3424 36.0908 10.1562 36.316Z" fill="#414141"/>
</svg>
