<svg width="53" height="53" viewBox="0 0 53 53" fill="none" xmlns="http://www.w3.org/2000/svg">
<path d="M28.3932 14.7246L30.4193 17.2957L33.2349 17.2812L31.242 13.2298L32.3286 12.6563C32.9307 12.3373 32.9205 11.4665 32.3204 11.1581L31.2248 10.5946L33.1824 6.51475L30.3668 6.52864L28.3599 9.13043C28.1534 9.03531 27.9286 8.97892 27.6947 8.97892L19.5945 9.01945L22.775 0.775391L18.8311 0.795135L13.2333 9.05128L12.484 9.05501C10.3463 9.0654 8.27998 9.85162 6.66597 11.2684C6.20146 11.6753 6.20638 12.4051 6.67311 12.8067C8.28896 14.1967 10.3474 14.9621 12.4692 14.9621L13.263 14.9581L18.9405 23.1571L22.8841 23.1374L19.6237 14.9264L27.7217 14.886C27.9542 14.8848 28.1836 14.8251 28.3932 14.7246ZM31.4931 16.1964L30.9385 16.1991L29.375 14.2152L29.6562 14.0667L30.2833 13.7369L31.4931 16.1964ZM30.897 7.61984L31.451 7.61716L30.2609 10.0979L29.3472 9.62863L30.897 7.61984ZM19.4031 1.88633L21.189 1.87725L18.4319 9.0235L14.5508 9.04275L19.4031 1.88633ZM21.2875 22.0515L19.5014 22.0606L14.5796 14.9528L18.4607 14.9333L21.2875 22.0515ZM12.5074 13.8682C12.4532 13.8682 12.415 13.8682 12.4691 13.8682C10.6349 13.8682 8.85427 13.2174 7.44496 12.0338C8.85352 10.8267 10.641 10.158 12.4892 10.1489L27.7023 10.0727C27.9108 10.0727 31.4555 11.9401 31.4014 11.9123C27.6578 13.8853 27.8866 13.7915 27.7163 13.7921L12.5074 13.8682Z" fill="#414141"/>
<path d="M16.2838 11.4423L16.2891 12.5361L20.603 12.5148L20.5977 11.4209L16.2838 11.4423Z" fill="#414141"/>
<path d="M13.358 11.4569L13.3633 12.5508L14.7087 12.5441L14.7034 11.4502L13.358 11.4569Z" fill="#414141"/>
<path d="M0.541016 52.824H24.0676V37.7899H23.7144L13.7222 29.8126C13.7834 29.6462 13.8217 29.4683 13.8217 29.2805H12.74C12.74 29.8639 11.8686 29.8637 11.8686 29.2805C11.8686 28.6683 12.688 28.8717 12.8452 28.8399V27.2535H13.695L14.0681 23.3579H10.5406L10.9135 27.2535H11.7636V27.8467C11.1932 28.0675 10.787 28.6271 10.787 29.2805C10.787 29.4692 10.8254 29.6479 10.8873 29.815L0.894061 37.7899H0.541016V52.824ZM11.7321 24.4518H12.8765L12.7131 26.1597H11.8952L11.7321 24.4518ZM11.606 30.635C12.0505 30.8707 12.5413 30.8807 13.0052 30.6336L21.969 37.7899H20.1308V39.5653H18.4421V38.4618C18.4421 37.4761 17.6491 36.6741 16.6742 36.6741C15.6995 36.6741 14.9065 37.476 14.9065 38.4618V39.5653H9.70218V38.4618C9.70218 37.4761 8.90917 36.6741 7.93425 36.6741C6.95959 36.6741 6.16653 37.476 6.16653 38.4618V39.5653H4.47756V37.7899H2.64041L11.606 30.635ZM17.3605 38.4618V39.5653H15.9881V38.4618C15.9881 38.0791 16.2957 37.7679 16.6742 37.7679C17.0526 37.7679 17.3605 38.0791 17.3605 38.4618ZM8.62054 38.4618V39.5653H7.24817V38.4618C7.24817 38.0791 7.55578 37.7679 7.93425 37.7679C8.31271 37.7679 8.62054 38.0791 8.62054 38.4618ZM1.62265 38.8838H3.39588V40.6592C9.36892 40.6592 14.5674 40.6592 21.2124 40.6592V38.8838H22.9859V51.7301H1.62265V38.8838Z" fill="#414141"/>
<path d="M4.64609 42.4897H3.56445V49.8828H4.64609V42.4897Z" fill="#414141"/>
<path d="M7.92538 42.4897H6.84375V49.8828H7.92538V42.4897Z" fill="#414141"/>
<path d="M11.2047 42.4897H10.123V49.8828H11.2047V42.4897Z" fill="#414141"/>
<path d="M14.4859 42.4897H13.4043V49.8828H14.4859V42.4897Z" fill="#414141"/>
<path d="M17.7652 42.4897H16.6836V49.8828H17.7652V42.4897Z" fill="#414141"/>
<path d="M21.0445 42.4897H19.9629V49.8828H21.0445V42.4897Z" fill="#414141"/>
<path d="M30.6118 42.2375C31.6909 42.2375 32.5835 41.4392 32.7576 40.3972C32.8999 40.3972 37.4944 40.3972 37.3035 40.3972C37.55 41.4497 38.4815 42.2375 39.5965 42.2375C40.7116 42.2375 41.6431 41.4497 41.8895 40.3972H45.7054C45.9519 41.4497 46.8834 42.2375 47.9984 42.2375C49.1135 42.2375 50.045 41.4497 50.2914 40.3972H52.4596V27.2007H33.4898V30.5157H29.4738L27.168 34.6604V40.3972H28.4659C28.64 41.4392 29.5326 42.2375 30.6118 42.2375ZM39.5965 41.1436C38.8906 41.1436 38.3162 40.5627 38.3162 39.8489C38.3162 39.135 38.8906 38.5541 39.5965 38.5541C40.3023 38.5541 40.8767 39.135 40.8767 39.8489C40.8767 40.5627 40.3023 41.1436 39.5965 41.1436ZM47.9984 41.1436C47.2926 41.1436 46.7182 40.5627 46.7182 39.8489C46.7182 39.135 47.2926 38.5541 47.9984 38.5541C48.7043 38.5541 49.2787 39.135 49.2787 39.8489C49.2787 40.5627 48.7043 41.1436 47.9984 41.1436ZM34.5715 30.5157V28.2946H51.378V39.3033H50.2922C50.0468 38.2493 49.1145 37.4603 47.9984 37.4603C46.8823 37.4603 45.95 38.2493 45.7045 39.3033H41.8903C41.6448 38.2493 40.7125 37.4603 39.5964 37.4603C38.4803 37.4603 37.548 38.2493 37.3025 39.3033H34.5714V30.5157H34.5715ZM30.6118 41.1436C30.0047 41.1436 29.5109 40.6442 29.5109 40.0302C29.5109 39.4163 30.0047 38.9166 30.6118 38.9166C31.2188 38.9166 31.7127 39.4163 31.7127 40.0302C31.7127 40.6442 31.2188 41.1436 30.6118 41.1436ZM30.1066 31.6096H33.4899V34.2657H28.6289L30.1066 31.6096ZM28.2497 35.3596H33.4899V39.3033H32.663C32.3641 38.4441 31.5621 37.8227 30.6118 37.8227C29.6615 37.8227 28.8594 38.4441 28.5606 39.3033H28.2497V35.3596Z" fill="#414141"/>
<path d="M48.984 29.9688H47.9023V35.3481H48.984V29.9688Z" fill="#414141"/>
<path d="M45.3394 29.9688H44.2578V35.3481H45.3394V29.9688Z" fill="#414141"/>
<path d="M41.693 29.9688H40.6113V35.3481H41.693V29.9688Z" fill="#414141"/>
<path d="M38.0465 29.9688H36.9648V35.3481H38.0465V29.9688Z" fill="#414141"/>
<path d="M46.7251 26.6475C46.63 25.7659 46.4816 24.8817 46.2841 24.019L45.2305 24.2658C45.4182 25.0862 45.5592 25.9275 45.6498 26.766L46.7251 26.6475Z" fill="#414141"/>
<path d="M42.9082 18.3427C43.4379 19.2624 43.903 20.2292 44.2898 21.2165L45.2954 20.8132C44.8885 19.7754 44.3999 18.759 43.8431 17.792L42.9082 18.3427Z" fill="#414141"/>
<path d="M41.9603 15.0231C41.2689 14.1517 40.5068 13.3249 39.6956 12.5659L38.9609 13.3693C39.7333 14.0914 40.4587 14.8784 41.1168 15.7079L41.9603 15.0231Z" fill="#414141"/>
<path d="M34.219 8.79492L33.75 9.7804C34.6959 10.2408 35.6172 10.7784 36.4884 11.3785L37.0974 10.4742C36.1816 9.84368 35.2132 9.27885 34.219 8.79492Z" fill="#414141"/>
<path d="M2.7854 24.2617C2.54852 25.3513 2.39088 26.4706 2.31641 27.5887L3.39539 27.6625C3.4664 26.5982 3.61642 25.5332 3.84167 24.4967L2.7854 24.2617Z" fill="#414141"/>
<path d="M3.90003 34.0206C3.66159 32.9868 3.4981 31.9242 3.41389 30.8618L2.33594 30.9489C2.42414 32.0655 2.59607 33.1826 2.8469 34.269L3.90003 34.0206Z" fill="#414141"/>
<path d="M6.10133 18.5449L5.16069 18.0049C4.61382 18.9783 4.13611 20.0006 3.74023 21.043L4.75005 21.435C5.12635 20.4437 5.58112 19.4713 6.10133 18.5449Z" fill="#414141"/>
<path d="M7.86253 15.8902C8.02045 15.687 8.18178 15.4864 8.3471 15.2886L7.52057 14.583C7.34735 14.7905 7.17753 15.0012 7.01172 15.2152L7.86253 15.8902Z" fill="#414141"/>
<path d="M36.583 46.8057C35.7163 47.4095 34.7981 47.9522 33.8535 48.4184L34.3283 49.4012C35.3207 48.9112 36.2858 48.341 37.1966 47.7067L36.583 46.8057Z" fill="#414141"/>
<path d="M31.241 50.6443L30.9173 49.6006C29.9165 49.9179 28.8811 50.1617 27.8398 50.3254L28.0062 51.4065C29.1005 51.2342 30.1887 50.9778 31.241 50.6443Z" fill="#414141"/>
<path d="M41.1887 42.4517C40.5345 43.2849 39.8134 44.0756 39.0449 44.8021L39.7838 45.6011C40.5908 44.8381 41.3487 44.0073 42.0358 43.1316L41.1887 42.4517Z" fill="#414141"/>
</svg>
