<svg width="55" height="35" viewBox="0 0 55 35" fill="none" xmlns="http://www.w3.org/2000/svg">
<path d="M27.4995 16.3937C31.4074 16.3937 34.4384 11.757 34.4384 7.76842C34.4384 3.69691 31.3255 0.384766 27.4995 0.384766C23.6734 0.384766 20.5605 3.69691 20.5605 7.76842C20.5605 11.757 23.5916 16.3937 27.4995 16.3937ZM27.4995 1.48586C30.7162 1.48586 33.3333 4.30441 33.3333 7.76842C33.3333 11.1761 30.7311 15.2926 27.4995 15.2926C24.2679 15.2926 21.6657 11.1761 21.6657 7.76842C21.6657 4.30441 24.2828 1.48586 27.4995 1.48586Z" fill="#414141"/>
<path d="M34.8825 24.4458H31.703C31.3979 24.4458 31.1504 24.692 31.1504 24.9963V27.5858C31.1504 27.8902 31.3979 28.1364 31.703 28.1364H34.8825C35.1875 28.1364 35.4351 27.8902 35.4351 27.5858V24.9963C35.4351 24.692 35.1875 24.4458 34.8825 24.4458ZM34.3299 27.0353H32.2555V25.5469H34.3299V27.0353Z" fill="#414141"/>
<path d="M11.7946 15.6683C15.0833 15.6683 17.6344 11.779 17.6344 8.43333C17.6344 5.01045 15.0148 2.22607 11.7946 2.22607C8.57476 2.22607 5.95508 5.01045 5.95508 8.43333C5.95508 11.779 8.50588 15.6683 11.7946 15.6683ZM11.7946 3.32717C14.4054 3.32717 16.5293 5.61795 16.5293 8.43333C16.5293 11.2114 14.4175 14.5672 11.7946 14.5672C9.17207 14.5672 7.0602 11.2114 7.0602 8.43333C7.0602 5.61795 9.18413 3.32717 11.7946 3.32717Z" fill="#414141"/>
<path d="M43.2051 15.6683C46.4938 15.6683 49.0446 11.779 49.0446 8.43333C49.0446 5.01045 46.4249 2.22607 43.2051 2.22607C39.9849 2.22607 37.3652 5.01045 37.3652 8.43333C37.3652 11.779 39.9164 15.6683 43.2051 15.6683ZM43.2051 3.32717C45.8155 3.32717 47.9395 5.61795 47.9395 8.43333C47.9395 11.2114 45.8276 14.5672 43.2051 14.5672C40.5822 14.5672 38.4704 11.2114 38.4704 8.43333C38.4704 5.61795 40.5943 3.32717 43.2051 3.32717Z" fill="#414141"/>
<path d="M49.8458 16.8057L48.8026 16.3594L48.1104 15.3261C47.9628 15.1066 47.6819 15.0218 47.4362 15.1243L43.2062 16.9003L38.9732 15.1255C38.7291 15.023 38.446 15.1078 38.2994 15.3274L37.6099 16.3583L36.5681 16.8057C35.9903 17.0539 35.4567 17.3809 34.9715 17.7718L34.1801 17.4287L33.3289 16.1583C33.1816 15.9393 32.9007 15.8545 32.6548 15.9564L27.4998 18.1205L22.3449 15.9564C22.0992 15.8545 21.818 15.9393 21.6708 16.1583L20.8195 17.4287L20.0282 17.7718C19.543 17.3809 19.0094 17.054 18.4319 16.8063L17.3898 16.3583L16.7002 15.3274C16.5536 15.1078 16.2708 15.023 16.0264 15.1255L11.7935 16.9003L7.56343 15.1243C7.31809 15.0218 7.03625 15.1066 6.88931 15.3261L6.19705 16.3594L5.15227 16.8063C2.59797 17.9087 0.947266 20.4095 0.947266 23.1781V30.0352C0.947266 30.3396 1.19482 30.5858 1.49983 30.5858H5.99718C5.9994 30.5858 6.00127 30.5871 6.00349 30.5871C6.00571 30.5871 6.00758 30.5858 6.0098 30.5858H11.7926H14.5125V33.8612C14.5125 34.1656 14.7601 34.4118 15.0651 34.4118H20.4896C20.4951 34.4119 20.4998 34.4149 20.5053 34.4149C20.5109 34.4149 20.5155 34.4119 20.5211 34.4118H27.4778C27.4853 34.4121 27.4923 34.4149 27.4998 34.4149C27.5074 34.4149 27.5143 34.4121 27.5218 34.4118H34.6198C34.6254 34.4119 34.63 34.4149 34.6355 34.4149C34.6411 34.4149 34.6457 34.4119 34.6513 34.4118H39.9346C40.2396 34.4118 40.4871 34.1656 40.4871 33.8612V30.5858H43.2071H48.9899C48.9921 30.5858 48.9939 30.5871 48.9962 30.5871C48.9984 30.5871 49.0003 30.5858 49.0025 30.5858H53.4998C53.8048 30.5858 54.0524 30.3396 54.0524 30.0352V23.1781C54.0524 20.4095 52.4017 17.9087 49.8458 16.8057ZM47.4448 16.3159L47.6949 16.6894L45.324 18.637L45.2541 18.5752C45.2536 18.5747 45.2534 18.5742 45.2529 18.5737L44.2285 17.666L47.4448 16.3159ZM43.2065 18.2357L44.1846 19.1026L43.8111 19.7603H42.5988L42.2281 19.1026L43.2065 18.2357ZM38.9656 16.3171L42.1845 17.6668L41.1613 18.5737H41.1612L41.087 18.6396L38.7157 16.6908L38.9656 16.3171ZM32.6633 17.148L33.0751 17.7627L30.057 20.2437L29.8961 20.1013C29.8942 20.0996 29.8915 20.0995 29.8896 20.0978L28.955 19.27L28.5221 18.8863L32.6633 17.148ZM28.828 20.6321L28.707 20.8471L28.3015 21.565H26.6982L26.2927 20.8471L26.1716 20.6321L27.4998 19.4551L28.828 20.6321ZM22.3363 17.148L26.4775 18.8863L26.0447 19.27L25.1101 20.0978C25.1082 20.0995 25.1055 20.0997 25.1036 20.1013L24.9427 20.2437L21.9245 17.7627L22.3363 17.148ZM16.0341 16.3171L16.284 16.6908L13.9127 18.6396L13.8384 18.5737H13.8384L12.8151 17.6668L16.0341 16.3171ZM11.7931 18.2357L12.7716 19.1026L12.4009 19.7603H11.1885L10.815 19.1026L11.7931 18.2357ZM7.55486 16.3159L10.7711 17.666L9.7467 18.5737C9.74623 18.5742 9.74603 18.5747 9.74555 18.5752L9.67561 18.637L7.3048 16.6894L7.55486 16.3159ZM6.55605 29.4847V26.3371C6.55605 26.0327 6.3085 25.7865 6.00349 25.7865C5.69849 25.7865 5.45093 26.0327 5.45093 26.3371V29.4847H2.05239V23.1781C2.05239 20.8493 3.44126 18.7446 5.58962 17.8182L6.47778 17.4381L9.33665 19.7887C9.35851 19.8066 9.38437 19.8149 9.40802 19.829C9.43539 19.8454 9.46154 19.8645 9.49073 19.8758C9.51815 19.8862 9.5464 19.8894 9.5748 19.8954C9.60479 19.9017 9.63407 19.9092 9.66454 19.9106C9.67255 19.911 9.68025 19.9147 9.6883 19.9147C9.70576 19.9147 9.72238 19.9071 9.73976 19.9055C9.77606 19.9022 9.81125 19.8968 9.84644 19.8864C9.87096 19.8791 9.89369 19.8697 9.91718 19.859C9.93261 19.8519 9.94939 19.8493 9.96427 19.8407L10.2885 20.4114L9.37664 25.8998C9.35854 26.0087 9.37346 26.12 9.4198 26.22L10.9293 29.4847H6.55605ZM10.4945 25.9125L11.3337 20.8614H12.2562L13.0906 25.9125L11.7926 28.7196L10.4945 25.9125ZM15.4432 21.7801C15.3257 22.0085 15.2166 22.2423 15.1197 22.4833C14.9632 22.861 14.8344 23.2622 14.7366 23.6767C14.5881 24.3051 14.5125 24.9468 14.5125 25.584V29.4847H12.6555L14.165 26.22C14.2113 26.12 14.2262 26.0087 14.2085 25.9004L13.3017 20.4108L13.6237 19.8394C13.64 19.8488 13.6582 19.8519 13.6751 19.8595C13.6969 19.8693 13.7179 19.8781 13.7406 19.8849C13.7786 19.8965 13.8167 19.9023 13.856 19.9055C13.8711 19.9067 13.8855 19.9134 13.9006 19.9134C13.9072 19.9134 13.9136 19.9103 13.9202 19.9101C13.9603 19.9087 13.999 19.9 14.038 19.89C14.0564 19.8852 14.0751 19.884 14.0931 19.8773C14.1494 19.8565 14.2034 19.8279 14.252 19.7881L17.1119 17.4385L17.9948 17.8182C18.3068 17.9517 18.6045 18.1118 18.8857 18.2959C18.8688 18.305 18.8533 18.3158 18.8365 18.3249C18.7562 18.3682 18.6802 18.4171 18.6018 18.4629C18.4575 18.547 18.314 18.6319 18.1759 18.724C18.0917 18.7801 18.0113 18.8405 17.9295 18.8995C17.8037 18.9901 17.6794 19.0821 17.5595 19.1795C17.4781 19.2455 17.3995 19.3141 17.3209 19.383C17.2077 19.4823 17.0971 19.5838 16.9898 19.689C16.9143 19.763 16.8403 19.8379 16.7678 19.9148C16.6645 20.0243 16.5652 20.1371 16.4681 20.2521C16.4009 20.3317 16.3337 20.411 16.2696 20.4932C16.1741 20.6155 16.0844 20.7422 15.9959 20.8701C15.9393 20.9518 15.8809 21.0321 15.8272 21.1159C15.7352 21.2599 15.651 21.4091 15.5678 21.5593C15.5267 21.6332 15.482 21.7047 15.4432 21.7801ZM21.0579 33.3107V29.3955C21.0579 29.0911 20.8104 28.8449 20.5053 28.8449C20.2003 28.8449 19.9528 29.0911 19.9528 29.3955V33.3107H15.6177V30.0352V25.584C15.6177 25.0322 15.683 24.4753 15.8119 23.9299C15.8966 23.5723 16.0071 23.2268 16.1432 22.8984C16.8523 21.1354 18.2088 19.7514 19.9677 18.9996L21.0943 18.5106L24.6047 21.3967C24.7072 21.4809 24.8316 21.5226 24.9563 21.5226C25.0877 21.5226 25.2194 21.4765 25.3239 21.3834L25.3262 21.3814L25.3957 21.5045L25.7979 22.2193L25.0065 26.996L24.6942 28.8804C24.6941 28.8808 24.6942 28.8813 24.6941 28.8818L24.6938 28.8835C24.6853 28.9359 24.6852 28.9889 24.6916 29.0409C24.6917 29.0419 24.6915 29.0428 24.6916 29.0438C24.6987 29.0988 24.7137 29.1528 24.7373 29.2037L26.6356 33.3107H21.0579ZM27.4998 32.5451L25.8124 28.8938L26.6066 24.0995L26.8441 22.6661H28.1555L28.3931 24.0995L29.1873 28.8938L27.4998 32.5451ZM39.382 30.0352V33.3107H35.1881V29.3955C35.1881 29.0911 34.9406 28.8449 34.6355 28.8449C34.3305 28.8449 34.083 29.0911 34.083 29.3955V33.3107H28.364L30.2623 29.2037C30.2859 29.1528 30.3009 29.0988 30.3081 29.0438C30.3082 29.0428 30.3079 29.0419 30.308 29.0409C30.3145 28.9889 30.3144 28.9359 30.3058 28.8835L30.3055 28.8818C30.3055 28.8813 30.3056 28.8808 30.3055 28.8804L29.9931 26.996L29.2017 22.2193L29.604 21.5045L29.6735 21.3814L29.6758 21.3834C29.7805 21.4765 29.9116 21.5226 30.0433 21.5226C30.1681 21.5226 30.2928 21.4809 30.395 21.3967L33.9054 18.5106L35.0367 19.0015C36.7909 19.7514 38.1474 21.1354 38.8586 22.9034C38.9926 23.2268 39.103 23.5723 39.1878 23.9299C39.3166 24.4753 39.382 25.0322 39.382 25.584V30.0352ZM40.4871 29.4847V25.584C40.4871 24.9468 40.4116 24.3051 40.2631 23.6767C40.1653 23.2622 40.0364 22.861 39.8822 22.4883C39.785 22.2466 39.6757 22.0121 39.5578 21.7834C39.5188 21.7076 39.4741 21.6361 39.4329 21.5618C39.3497 21.4116 39.2655 21.2622 39.1735 21.1184C39.1193 21.0335 39.0604 20.9526 39.0032 20.8701C38.9153 20.7429 38.8262 20.6169 38.7314 20.4954C38.6663 20.4117 38.598 20.3314 38.5298 20.2505C38.4339 20.1369 38.3361 20.0256 38.2343 19.9175C38.1603 19.839 38.0847 19.7623 38.0076 19.6869C37.9024 19.5839 37.7942 19.4843 37.6835 19.3871C37.6024 19.3158 37.5213 19.245 37.4373 19.177C37.3209 19.0827 37.2005 18.9935 37.0788 18.9054C36.9935 18.8437 36.9094 18.7808 36.8215 18.7222C36.6891 18.634 36.5515 18.5527 36.4134 18.4719C36.3296 18.4227 36.2481 18.3704 36.1622 18.3241C36.1458 18.3152 36.1307 18.3046 36.1142 18.2959C36.3951 18.1112 36.6928 17.9517 37.0051 17.8175L37.8878 17.4385L40.7477 19.7881C40.7961 19.8278 40.85 19.8563 40.9062 19.8771C40.9252 19.8841 40.945 19.8856 40.9646 19.8905C41.0024 19.9 41.0397 19.9085 41.0784 19.9099C41.0854 19.9102 41.0921 19.9134 41.099 19.9134C41.115 19.9134 41.1302 19.9064 41.1461 19.905C41.1842 19.9017 41.2212 19.8962 41.2581 19.8851C41.2812 19.8781 41.3027 19.8692 41.3249 19.8591C41.3417 19.8517 41.3599 19.8487 41.3759 19.8394L41.6979 20.4108L40.7912 25.9004C40.7734 26.0087 40.7883 26.12 40.8347 26.22L42.3441 29.4847H40.4871ZM41.909 25.9125L42.7435 20.8614H43.666L44.5052 25.9125L43.2071 28.7196L41.909 25.9125ZM52.9473 29.4847H49.5487V26.3371C49.5487 26.0327 49.3012 25.7865 48.9962 25.7865C48.6912 25.7865 48.4436 26.0327 48.4436 26.3371V29.4847H44.0704L45.5799 26.22C45.6262 26.12 45.6411 26.0087 45.623 25.8998L44.7112 20.4114L45.0354 19.8407C45.0503 19.8493 45.067 19.8519 45.0824 19.8589C45.106 19.8697 45.1288 19.8791 45.1534 19.8864C45.1885 19.8968 45.2236 19.9022 45.2598 19.9055C45.2772 19.9071 45.2939 19.9147 45.3114 19.9147C45.3194 19.9147 45.3271 19.911 45.3352 19.9106C45.3656 19.9091 45.3949 19.9018 45.425 19.8954C45.4534 19.8894 45.4817 19.8862 45.5091 19.8757C45.538 19.8645 45.5638 19.8456 45.5909 19.8294C45.6148 19.8152 45.641 19.8069 45.663 19.7887L48.5219 17.4381L49.4088 17.8175C51.5584 18.7446 52.9473 20.8493 52.9473 23.1781V29.4847Z" fill="#414141"/>
</svg>
