<svg width="39" height="43" viewBox="0 0 39 43" fill="none" xmlns="http://www.w3.org/2000/svg">
<path d="M38.1743 0H21.1075C20.8066 0 20.5917 0.215 20.5917 0.516V5.289C20.5917 5.59 20.8066 5.805 21.1075 5.805H28.3298V9.589H15.39V6.364C15.39 6.192 15.304 6.02 15.175 5.934C15.0461 5.848 14.8741 5.805 14.7021 5.848L13.4984 6.278L12.2947 5.848C12.1658 5.805 12.0798 5.805 11.9508 5.848L10.7471 6.278L9.54342 5.848C9.41445 5.805 9.32847 5.805 9.19951 5.848L7.99581 6.278L6.79211 5.848C6.62015 5.805 6.44819 5.805 6.31922 5.934C6.19026 6.02 6.10428 6.192 6.10428 6.364V9.589H0.945559C0.644634 9.589 0.429688 9.804 0.429688 10.105V34.916V40.291C0.429688 41.796 1.63339 43 3.13801 43H35.38C36.8846 43 38.0883 41.796 38.0883 40.291V34.916V10.105C38.0883 9.804 37.8734 9.589 37.5725 9.589H30.9091V5.805H38.1313C38.4322 5.805 38.6472 5.59 38.6472 5.289V0.516C38.6902 0.215 38.4322 0 38.1743 0ZM15.7339 14.19C15.7769 14.19 15.8629 14.233 15.9058 14.233C15.9488 14.233 15.9918 14.276 16.0348 14.276C16.0778 14.319 16.1638 14.319 16.2068 14.362C16.2498 14.405 16.2927 14.405 16.3357 14.448C16.3787 14.491 16.4217 14.534 16.4647 14.577C16.5077 14.62 16.5507 14.62 16.5937 14.663C16.6367 14.706 16.6796 14.749 16.7226 14.792C16.7656 14.835 16.7656 14.878 16.8086 14.921C16.8516 14.964 16.8516 15.05 16.8946 15.093C16.8946 15.136 16.9376 15.179 16.9806 15.222C17.0236 15.308 17.0236 15.351 17.0665 15.437C17.0665 15.48 17.1095 15.523 17.1095 15.566C17.1525 15.695 17.1525 15.781 17.1525 15.91C17.1525 16.383 16.9806 16.813 16.6367 17.157C16.5507 17.243 16.4647 17.329 16.3787 17.372C16.3357 17.372 16.3357 17.415 16.2927 17.415C16.2068 17.458 16.1638 17.501 16.0778 17.501C16.0348 17.501 15.9918 17.544 15.9488 17.544C15.9058 17.544 15.8199 17.587 15.7769 17.587C15.7339 17.587 15.6909 17.587 15.6479 17.587C15.6049 17.587 15.5619 17.587 15.4759 17.587V14.104C15.5189 14.104 15.5619 14.104 15.6479 14.104C15.6049 14.19 15.6909 14.19 15.7339 14.19ZM5.88933 17.63C5.84634 17.63 5.76036 17.587 5.71737 17.587C5.67438 17.587 5.63139 17.544 5.5884 17.544C5.54542 17.501 5.45944 17.501 5.41645 17.458C5.37346 17.415 5.33047 17.415 5.28748 17.372C5.24449 17.329 5.2015 17.286 5.15851 17.243C5.11552 17.2 5.07253 17.2 5.02954 17.157C4.98655 17.114 4.94356 17.071 4.90058 16.985C4.85759 16.942 4.85759 16.899 4.8146 16.899C4.77161 16.856 4.72862 16.77 4.72862 16.727C4.72862 16.684 4.68563 16.641 4.68563 16.598C4.64264 16.512 4.64264 16.469 4.59965 16.383C4.59965 16.34 4.55666 16.297 4.55666 16.297C4.51367 16.168 4.51367 16.082 4.51367 15.953C4.51367 15.48 4.68563 15.05 5.02954 14.706C5.11552 14.62 5.2015 14.534 5.28748 14.491C5.33047 14.491 5.37346 14.448 5.37346 14.448C5.41645 14.405 5.50243 14.362 5.5884 14.362C5.63139 14.362 5.67438 14.319 5.71737 14.319C5.76036 14.319 5.84634 14.276 5.88933 14.276C5.93232 14.276 5.97531 14.276 6.0183 14.276C6.06129 14.276 6.14727 14.276 6.19026 14.276V17.63C6.14727 17.63 6.10428 17.63 6.0183 17.63C5.97531 17.63 5.93232 17.63 5.88933 17.63ZM7.222 7.095L7.90983 7.31C8.0388 7.353 8.12477 7.353 8.25374 7.31L9.45744 6.88L10.6611 7.31C10.7901 7.353 10.8761 7.353 11.0051 7.31L12.2088 6.88L13.4125 7.31C13.5414 7.353 13.6274 7.353 13.7564 7.31L14.4442 7.095V10.105V13.631V17.63H7.222V13.631V10.105V7.095ZM35.466 41.968H3.22399C2.32122 41.968 1.54741 41.237 1.54741 40.291V35.432H37.1426V40.291C37.1426 41.237 36.3688 41.968 35.466 41.968ZM37.1426 34.4H1.54741V10.621H6.19026V13.115C6.10428 13.115 6.0183 13.158 5.88933 13.158C5.80335 13.158 5.76036 13.158 5.67438 13.201C5.54542 13.244 5.45944 13.244 5.37346 13.287C5.33047 13.287 5.24449 13.33 5.2015 13.33C5.07253 13.373 4.98655 13.459 4.85759 13.502C4.8146 13.545 4.77161 13.545 4.72862 13.588C4.59965 13.674 4.42769 13.803 4.29873 13.932C3.78285 14.448 3.48193 15.136 3.48193 15.91C3.48193 17.458 4.72862 18.705 6.27623 18.705H15.39C16.1208 18.705 16.8086 18.404 17.3675 17.888C17.8833 17.372 18.1843 16.684 18.1843 15.91C18.1843 15.738 18.1843 15.523 18.1413 15.351C18.1413 15.308 18.0983 15.222 18.0983 15.179C18.0553 15.05 18.0553 14.921 17.9693 14.835C17.9263 14.792 17.9263 14.706 17.8833 14.663C17.8404 14.577 17.7974 14.448 17.7114 14.362C17.6684 14.319 17.6254 14.233 17.5824 14.19C17.4964 14.104 17.4535 14.018 17.3675 13.932C17.3245 13.889 17.2385 13.846 17.1955 13.803C17.1095 13.717 17.0236 13.674 16.9376 13.588C16.8946 13.545 16.8086 13.502 16.7226 13.459C16.6367 13.416 16.5507 13.373 16.4647 13.33C16.3787 13.287 16.2927 13.287 16.2498 13.244C16.1638 13.201 16.0778 13.158 15.9488 13.158C15.8628 13.158 15.7769 13.158 15.6909 13.115C15.6049 13.115 15.5189 13.072 15.433 13.072V10.578H37.1426V34.4ZM29.8774 9.546H29.3615V5.805H29.8774V9.546ZM37.6584 4.773H30.3932H28.8456H21.6234V1.032H22.8701L22.3542 1.548C22.1823 1.72 22.1823 2.064 22.3542 2.279C22.4402 2.365 22.5692 2.451 22.6982 2.451C22.8271 2.451 22.9561 2.408 23.0421 2.279L24.1598 1.161C24.2028 1.118 24.2028 1.075 24.2458 1.032H25.0196L22.8701 3.182C22.6552 3.397 22.6552 3.698 22.8701 3.913C22.9561 3.999 23.0851 4.085 23.214 4.085C23.343 4.085 23.472 4.042 23.5579 3.913L26.4382 1.032H37.6584V4.773Z" fill="#414141"/>
<path d="M7.22235 24.811H4.29907C3.99815 24.811 3.7832 25.026 3.7832 25.327V27.735C3.7832 28.036 3.99815 28.251 4.29907 28.251H7.22235C7.52327 28.251 7.73822 28.036 7.73822 27.735V25.327C7.73822 25.069 7.52327 24.811 7.22235 24.811ZM6.70648 27.219H4.81495V25.843H6.70648V27.219Z" fill="#414141"/>
<path d="M12.3806 24.811H9.45728C9.15635 24.811 8.94141 25.026 8.94141 25.327V27.735C8.94141 28.036 9.15635 28.251 9.45728 28.251H12.3806C12.6815 28.251 12.8964 28.036 12.8964 27.735V25.327C12.8964 25.069 12.6385 24.811 12.3806 24.811ZM11.8647 27.219H9.97315V25.843H11.8647V27.219Z" fill="#414141"/>
<path d="M17.4958 24.811H14.5725C14.2716 24.811 14.0566 25.026 14.0566 25.327V27.735C14.0566 28.036 14.2716 28.251 14.5725 28.251H17.4958C17.7967 28.251 18.0117 28.036 18.0117 27.735V25.327C18.0117 25.069 17.7967 24.811 17.4958 24.811ZM16.9799 27.219H15.0884V25.843H16.9799V27.219Z" fill="#414141"/>
<path d="M7.22235 20.2959H4.29907C3.99815 20.2959 3.7832 20.5109 3.7832 20.8119V23.2199C3.7832 23.5209 3.99815 23.7359 4.29907 23.7359H7.22235C7.52327 23.7359 7.73822 23.5209 7.73822 23.2199V20.8119C7.73822 20.5109 7.52327 20.2959 7.22235 20.2959ZM6.70648 22.7039H4.81495V21.3279H6.70648V22.7039Z" fill="#414141"/>
<path d="M12.3806 20.2959H9.45728C9.15635 20.2959 8.94141 20.5109 8.94141 20.8119V23.2199C8.94141 23.5209 9.15635 23.7359 9.45728 23.7359H12.3806C12.6815 23.7359 12.8964 23.5209 12.8964 23.2199V20.8119C12.8964 20.5109 12.6385 20.2959 12.3806 20.2959ZM11.8647 22.7039H9.97315V21.3279H11.8647V22.7039Z" fill="#414141"/>
<path d="M17.4958 20.2959H14.5725C14.2716 20.2959 14.0566 20.5109 14.0566 20.8119V23.2199C14.0566 23.5209 14.2716 23.7359 14.5725 23.7359H17.4958C17.7967 23.7359 18.0117 23.5209 18.0117 23.2199V20.8119C18.0117 20.5109 17.7967 20.2959 17.4958 20.2959ZM16.9799 22.7039H15.0884V21.3279H16.9799V22.7039Z" fill="#414141"/>
<path d="M7.22235 29.5405H4.29907C3.99815 29.5405 3.7832 29.7555 3.7832 30.0565V32.4645C3.7832 32.7655 3.99815 32.9805 4.29907 32.9805H7.22235C7.52327 32.9805 7.73822 32.7655 7.73822 32.4645V30.0565C7.73822 29.7555 7.52327 29.5405 7.22235 29.5405ZM6.70648 31.9055H4.81495V30.5295H6.70648V31.9055Z" fill="#414141"/>
<path d="M12.3806 29.5405H9.45728C9.15635 29.5405 8.94141 29.7555 8.94141 30.0565V32.4645C8.94141 32.7655 9.15635 32.9805 9.45728 32.9805H12.3806C12.6815 32.9805 12.8964 32.7655 12.8964 32.4645V30.0565C12.8964 29.7555 12.6385 29.5405 12.3806 29.5405ZM11.8647 31.9055H9.97315V30.5295H11.8647V31.9055Z" fill="#414141"/>
<path d="M17.4958 29.5405H14.5725C14.2716 29.5405 14.0566 29.7555 14.0566 30.0565V32.4645C14.0566 32.7655 14.2716 32.9805 14.5725 32.9805H17.4958C17.7967 32.9805 18.0117 32.7655 18.0117 32.4645V30.0565C18.0117 29.7555 17.7967 29.5405 17.4958 29.5405ZM16.9799 31.9055H15.0884V30.5295H16.9799V31.9055Z" fill="#414141"/>
<path d="M23.2152 27.9069H25.8382C26.1392 27.9069 26.3542 27.6919 26.3542 27.3909V24.8109C26.3542 24.5099 26.1392 24.2949 25.8382 24.2949H23.2152C22.9142 24.2949 22.6992 24.5099 22.6992 24.8109V27.3909C22.6992 27.6919 22.9142 27.9069 23.2152 27.9069ZM23.7312 25.3699H25.3222V26.9179H23.7312V25.3699Z" fill="#414141"/>
<path d="M30.3929 24.3384H27.7699C27.4689 24.3384 27.2539 24.5534 27.2539 24.8544V27.4344C27.2539 27.7354 27.4689 27.9504 27.7699 27.9504H30.3929C30.6939 27.9504 30.9089 27.7354 30.9089 27.4344V24.8544C30.9089 24.5534 30.6509 24.3384 30.3929 24.3384ZM29.8769 26.8754H28.2859V25.3704H29.8769V26.8754Z" fill="#414141"/>
<path d="M34.9515 24.3384H32.3285C32.0275 24.3384 31.8125 24.5534 31.8125 24.8544V27.4344C31.8125 27.7354 32.0275 27.9504 32.3285 27.9504H34.9515C35.2525 27.9504 35.4675 27.7354 35.4675 27.4344V24.8544C35.4675 24.5534 35.2525 24.3384 34.9515 24.3384ZM34.4355 26.8754H32.8445V25.3704H34.4355V26.8754Z" fill="#414141"/>
<path d="M23.2152 32.9382H25.8382C26.1392 32.9382 26.3542 32.7232 26.3542 32.4222V29.8422C26.3542 29.5412 26.1392 29.3262 25.8382 29.3262H23.2152C22.9142 29.3262 22.6992 29.5412 22.6992 29.8422V32.4222C22.6992 32.7232 22.9142 32.9382 23.2152 32.9382ZM23.7312 30.3582H25.3222V31.9062H23.7312V30.3582Z" fill="#414141"/>
<path d="M30.3929 29.3262H27.7699C27.4689 29.3262 27.2539 29.5412 27.2539 29.8422V32.4222C27.2539 32.7232 27.4689 32.9382 27.7699 32.9382H30.3929C30.6939 32.9382 30.9089 32.7232 30.9089 32.4222V29.8422C30.9089 29.5842 30.6509 29.3262 30.3929 29.3262ZM29.8769 31.9062H28.2859V30.3582H29.8769V31.9062Z" fill="#414141"/>
<path d="M34.9515 29.3262H32.3285C32.0275 29.3262 31.8125 29.5412 31.8125 29.8422V32.4222C31.8125 32.7232 32.0275 32.9382 32.3285 32.9382H34.9515C35.2525 32.9382 35.4675 32.7232 35.4675 32.4222V29.8422C35.4675 29.5842 35.2525 29.3262 34.9515 29.3262ZM34.4355 31.9062H32.8445V30.3582H34.4355V31.9062Z" fill="#414141"/>
<path d="M19.3466 36.7651C18.2719 36.7651 17.4121 37.6251 17.4121 38.7001C17.4121 39.7751 18.2719 40.6351 19.3466 40.6351C20.4214 40.6351 21.2811 39.7751 21.2811 38.7001C21.2811 37.6251 20.4214 36.7651 19.3466 36.7651ZM19.3466 39.6031C18.8308 39.6031 18.4439 39.2161 18.4439 38.7001C18.4439 38.1841 18.8308 37.7971 19.3466 37.7971C19.8625 37.7971 20.2494 38.1841 20.2494 38.7001C20.2494 39.2161 19.8625 39.6031 19.3466 39.6031Z" fill="#414141"/>
<path d="M23.2151 22.532H34.9512C35.2521 22.532 35.467 22.317 35.467 22.016V12.642C35.467 12.341 35.2521 12.126 34.9512 12.126H23.2151C22.9142 12.126 22.6992 12.341 22.6992 12.642V22.016C22.6992 22.274 22.9142 22.532 23.2151 22.532ZM23.731 13.158H30.3943L28.9327 14.62C28.7177 14.835 28.7177 15.136 28.9327 15.351C29.0186 15.437 29.1476 15.523 29.2766 15.523C29.4055 15.523 29.5345 15.48 29.6205 15.351L31.8559 13.115H32.6727L29.0616 16.77C28.8467 16.985 28.8467 17.286 29.0616 17.501C29.1476 17.587 29.2766 17.673 29.4055 17.673C29.5345 17.673 29.6635 17.63 29.7495 17.501L33.9624 13.287C34.0054 13.244 34.0054 13.201 34.0484 13.158H34.3923V21.5H23.731V13.158Z" fill="#414141"/>
<path d="M8.68384 11.1799H13.0687C13.3697 11.1799 13.5846 10.9649 13.5846 10.6639C13.5846 10.3629 13.3697 10.1479 13.0687 10.1479H8.68384C8.38292 10.1479 8.16797 10.3629 8.16797 10.6639C8.16797 10.9649 8.38292 11.1799 8.68384 11.1799Z" fill="#414141"/>
<path d="M8.68397 12.9426H11.307C11.608 12.9426 11.823 12.7276 11.823 12.4266C11.823 12.1256 11.608 11.9106 11.307 11.9106H8.68397C8.38297 11.9106 8.16797 12.1256 8.16797 12.4266C8.16797 12.7276 8.38297 12.9426 8.68397 12.9426Z" fill="#414141"/>
</svg>
