<svg width="40" height="41" viewBox="0 0 40 41" fill="none" xmlns="http://www.w3.org/2000/svg">
<path d="M30.552 9.65964L31.407 9.29323C30.3078 6.85048 28.4146 4.77414 26.0329 3.4917L25.6055 4.28559C27.8039 5.4459 29.5139 7.4001 30.552 9.65964Z" fill="#414141"/>
<path d="M20.1677 19.0038C22.7936 19.0038 24.931 16.8664 24.931 14.2404C24.931 11.6145 22.7936 9.47705 20.1677 9.47705C17.5417 9.47705 15.4043 11.6145 15.4043 14.2404C15.4043 16.8664 17.5417 19.0038 20.1677 19.0038ZM20.1677 10.332C22.3051 10.332 24.015 12.0419 24.015 14.1793C24.015 16.3167 22.3051 18.0267 20.1677 18.0267C18.0303 18.0267 16.3203 16.3167 16.3203 14.1793C16.3203 12.0419 18.0303 10.332 20.1677 10.332Z" fill="#414141"/>
<path d="M20.1694 16.9273C21.6351 16.9273 22.8565 15.7059 22.8565 14.2402C22.8565 12.7746 21.6351 11.5532 20.1694 11.5532C18.7038 11.5532 17.4824 12.7746 17.4824 14.2402C17.4824 15.7059 18.7038 16.9273 20.1694 16.9273ZM20.1694 12.4693C21.1465 12.4693 21.9404 13.2631 21.9404 14.2402C21.9404 15.2173 21.1465 16.0112 20.1694 16.0112C19.1923 16.0112 18.3985 15.2173 18.3985 14.2402C18.3985 13.2631 19.1923 12.4693 20.1694 12.4693Z" fill="#414141"/>
<path d="M38.7336 12.347L39.161 9.84322H33.6038V9.90429C31.7107 4.28597 26.3977 0.133301 20.1687 0.133301C13.9397 0.133301 8.68777 4.16384 6.79464 9.78216H1.23739L1.66487 12.286H0.199219V40.1333H40.1992V12.347H38.7336ZM38.0618 10.7593L37.8175 12.347H34.1534C34.0924 11.7974 33.9702 11.2478 33.8481 10.7593H38.0618ZM20.1687 1.04933C27.4359 1.04933 33.2985 6.973 33.2985 14.1791C33.2985 21.3852 27.4359 27.3699 20.1687 27.3699C12.9015 27.3699 7.03891 21.4463 7.03891 14.2402C7.03891 7.03406 12.9015 1.04933 20.1687 1.04933ZM2.27555 10.7593H6.55036C6.42823 11.3089 6.30609 11.7974 6.24502 12.347H2.5809L2.27555 10.7593ZM39.2832 39.2783H1.11525V13.2631C2.94731 13.2631 4.22975 13.2631 6.18395 13.2631C6.18395 13.5684 6.12288 13.9348 6.12288 14.2402C6.12288 21.9959 12.413 28.286 20.1687 28.286C27.9244 28.286 34.2145 21.9959 34.2145 14.2402C34.2145 13.9348 34.2145 13.5684 34.1534 13.2631C36.0465 13.2631 37.3901 13.2631 39.2221 13.2631V39.2783H39.2832Z" fill="#414141"/>
</svg>
