<svg width="43" height="43" viewBox="0 0 43 43" fill="none" xmlns="http://www.w3.org/2000/svg">
<path d="M13.7656 40.3001C13.7656 40.7201 13.4844 41.0001 13.0625 41.0001C12.6406 41.0001 12.3594 40.7201 12.3594 40.3001V32.6001H10.9531V40.3001C10.9531 41.4901 11.8672 42.4001 13.0625 42.4001C14.2578 42.4001 15.1719 41.4901 15.1719 40.3001V38.9001H13.7656V40.3001Z" fill="#414141" fill-opacity="0.7"/>
<path d="M11.6562 20C5.46875 20 0.40625 25.04 0.40625 31.2C0.40625 30.43 1.03906 29.8 1.8125 29.8C2.58594 29.8 3.21875 30.43 3.21875 31.2C3.21875 30.43 3.85156 29.8 4.625 29.8C5.39844 29.8 6.03125 30.43 6.03125 31.2C6.03125 30.43 6.66406 29.8 7.4375 29.8C8.21094 29.8 8.84375 30.43 8.84375 31.2C8.84375 30.43 9.47656 29.8 10.25 29.8C11.0234 29.8 11.6562 30.43 11.6562 31.2C11.6562 30.43 12.2891 29.8 13.0625 29.8C13.8359 29.8 14.4688 30.43 14.4688 31.2C14.4688 30.43 15.1016 29.8 15.875 29.8C16.6484 29.8 17.2812 30.43 17.2812 31.2C17.2812 30.43 17.9141 29.8 18.6875 29.8C19.4609 29.8 20.0938 30.43 20.0938 31.2C20.0938 30.43 20.7266 29.8 21.5 29.8C22.2734 29.8 22.9062 30.43 22.9062 31.2C22.9062 25.04 17.8438 20 11.6562 20ZM3.21875 28.75C2.9375 28.54 2.58594 28.47 2.23437 28.4C3.14844 25.25 5.60937 22.8 8.77344 21.82C6.3125 24.06 5.60938 26.86 5.46875 28.47C5.11719 28.47 4.90625 28.4 4.625 28.4C4.13281 28.4 3.64062 28.54 3.21875 28.75ZM14.4688 28.75C14.0469 28.54 13.5547 28.4 13.0625 28.4C12.5703 28.4 12.0781 28.54 11.6562 28.75C11.2344 28.54 10.7422 28.4 10.25 28.4C9.75781 28.4 9.26562 28.54 8.84375 28.75C8.42188 28.54 7.92969 28.4 7.4375 28.4C7.22656 28.4 7.01563 28.4 6.80469 28.47C7.08594 26.65 8.07031 23.43 11.6562 21.54C15.1719 23.43 16.1562 26.72 16.4375 28.47C16.2969 28.4 16.0859 28.4 15.875 28.4C15.3828 28.4 14.8906 28.54 14.4688 28.75ZM20.0938 28.75C19.6719 28.54 19.1797 28.4 18.6875 28.4C18.4062 28.4 18.125 28.47 17.9141 28.54C17.7031 26.93 17 24.13 14.6094 21.89C17.7031 22.87 20.1641 25.32 21.0781 28.47C20.7266 28.47 20.375 28.54 20.0938 28.75Z" fill="#414141" fill-opacity="0.7"/>
<path d="M42.5938 14.3999H38.375V5.9999H35.5625V0.399902H8.14062C6.17188 0.399902 4.625 1.9399 4.625 3.8999V20.6999C5.04688 20.4199 5.53906 20.1399 6.03125 19.9299V6.6999C6.59375 7.1199 7.36719 7.3999 8.14062 7.3999H36.9688V14.3999H34.1562C31.8359 14.3999 29.9375 16.2899 29.9375 18.5999C29.9375 20.9099 31.8359 22.7999 34.1562 22.7999H36.9688V29.7999H24.2422C24.3125 30.2899 24.3125 30.7099 24.3125 31.1999H38.375V22.7999H42.5938V14.3999ZM34.1562 5.9999H8.14062C6.94531 5.9999 6.03125 5.0899 6.03125 3.8999C6.03125 2.7099 6.94531 1.7999 8.14062 1.7999H34.1562V5.9999ZM41.1875 21.3999H34.1562C32.6094 21.3999 31.3438 20.1399 31.3438 18.5999C31.3438 17.0599 32.6094 15.7999 34.1562 15.7999H41.1875V21.3999Z" fill="#414141" fill-opacity="0.7"/>
<path d="M34.1562 20.0002C34.9329 20.0002 35.5625 19.3734 35.5625 18.6002C35.5625 17.827 34.9329 17.2002 34.1562 17.2002C33.3796 17.2002 32.75 17.827 32.75 18.6002C32.75 19.3734 33.3796 20.0002 34.1562 20.0002Z" fill="#414141" fill-opacity="0.7"/>
<path d="M32.75 3.2002H7.4375V4.60019H32.75V3.2002Z" fill="#414141" fill-opacity="0.7"/>
</svg>
