<svg width="41" height="40" viewBox="0 0 41 40" fill="none" xmlns="http://www.w3.org/2000/svg">
<path d="M39.6104 0.879883H1.39039C1.11955 0.879883 0.900391 1.09815 0.900391 1.36788V5.08888C0.900391 5.35862 1.11955 5.57688 1.39039 5.57688H2.702V39.4319C2.702 39.7016 2.92116 39.9199 3.192 39.9199H37.8088C38.0796 39.9199 38.2988 39.7016 38.2988 39.4319V5.57688H39.6104C39.8812 5.57688 40.1004 5.35862 40.1004 5.08888V1.36788C40.1004 1.09815 39.8812 0.879883 39.6104 0.879883ZM3.682 16.1299H8.5753V38.9439H3.682V16.1299ZM20.0104 16.1299V38.9439H9.5553V16.1299H20.0104ZM31.4455 16.1299V38.9439H20.9904V16.1299H31.4455ZM32.4255 38.9439V16.1299H37.3188V38.9439H32.4255ZM37.3188 7.79004H35.2841C35.0133 7.79004 34.7941 8.00831 34.7941 8.27804C34.7941 8.54777 35.0133 8.76604 35.2841 8.76604H37.3188V15.1539H24.5616V14.1617C24.5616 13.8919 24.3424 13.6737 24.0716 13.6737C23.8007 13.6737 23.5816 13.8919 23.5816 14.1617V15.1539H3.682V12.4184H5.71665C5.98749 12.4184 6.20665 12.2001 6.20665 11.9304C6.20665 11.6607 5.98749 11.4424 5.71665 11.4424H3.682V5.57688H16.5933V6.53477C16.5933 6.80451 16.8125 7.02277 17.0833 7.02277C17.3542 7.02277 17.5733 6.80451 17.5733 6.53477V5.57688H37.3188V7.79004ZM39.1204 4.60088H1.88039V1.85588H39.1204V4.60088Z" fill="#414141"/>
<path d="M22.8923 28.553C23.1632 28.553 23.3823 28.3347 23.3823 28.065V26.0539C23.3823 25.7842 23.1632 25.5659 22.8923 25.5659C22.6215 25.5659 22.4023 25.7842 22.4023 26.0539V28.065C22.4023 28.3347 22.6215 28.553 22.8923 28.553Z" fill="#414141"/>
<path d="M18.1091 28.553C18.38 28.553 18.5991 28.3347 18.5991 28.065V26.0539C18.5991 25.7842 18.38 25.5659 18.1091 25.5659C17.8383 25.5659 17.6191 25.7842 17.6191 26.0539V28.065C17.6191 28.3347 17.8383 28.553 18.1091 28.553Z" fill="#414141"/>
<path d="M12.0847 33.2797L13.9385 35.1955C14.0346 35.2946 14.1629 35.3446 14.2911 35.3446C14.4136 35.3446 14.5361 35.2993 14.6313 35.2078C14.8261 35.021 14.8318 34.7122 14.6438 34.5178L12.79 32.602C12.602 32.4085 12.2924 32.4028 12.0971 32.5896C11.9024 32.7764 11.8966 33.0852 12.0847 33.2797Z" fill="#414141"/>
<path d="M16.7312 34.3536C16.8274 34.4527 16.9557 34.5027 17.0839 34.5027C17.2064 34.5027 17.3289 34.4574 17.4241 34.3659C17.6189 34.1791 17.6246 33.8703 17.4366 33.6759L13.708 29.8219C13.5199 29.6284 13.2103 29.6222 13.0151 29.8095C12.8203 29.9963 12.8146 30.3052 13.0026 30.4996L16.7312 34.3536Z" fill="#414141"/>
<path d="M8.38184 7.79004H5.85719C5.58635 7.79004 5.36719 8.0083 5.36719 8.27804C5.36719 8.54777 5.58635 8.76604 5.85719 8.76604H8.38184C8.65268 8.76604 8.87184 8.54777 8.87184 8.27804C8.87184 8.0083 8.65268 7.79004 8.38184 7.79004Z" fill="#414141"/>
<path d="M15.5244 11.4424H12.9998C12.7289 11.4424 12.5098 11.6606 12.5098 11.9304C12.5098 12.2001 12.7289 12.4184 12.9998 12.4184H13.7864V13.188C13.7864 13.4578 14.0056 13.676 14.2764 13.676C14.5473 13.676 14.7664 13.4578 14.7664 13.188V12.4184H15.5244C15.7953 12.4184 16.0144 12.2001 16.0144 11.9304C16.0144 11.6606 15.7953 11.4424 15.5244 11.4424Z" fill="#414141"/>
<path d="M15.6658 7.79004C15.3949 7.79004 15.1758 8.0083 15.1758 8.27804C15.1758 8.54777 15.3949 8.76604 15.6658 8.76604H18.1899C18.4608 8.76604 18.6799 8.54777 18.6799 8.27804C18.6799 8.0083 18.4608 7.79004 18.1899 7.79004H15.6658Z" fill="#414141"/>
<path d="M22.8084 12.4184H25.3325C25.6034 12.4184 25.8225 12.2001 25.8225 11.9304C25.8225 11.6606 25.6034 11.4424 25.3325 11.4424H22.8084C22.5375 11.4424 22.3184 11.6606 22.3184 11.9304C22.3184 12.2001 22.5375 12.4184 22.8084 12.4184Z" fill="#414141"/>
<path d="M25.4763 8.76604H26.2487V9.69772C26.2487 9.96745 26.4678 10.1857 26.7387 10.1857C27.0095 10.1857 27.2287 9.96745 27.2287 9.69772V8.76604H28.0005C28.2713 8.76604 28.4905 8.54777 28.4905 8.27804C28.4905 8.0083 28.2713 7.79004 28.0005 7.79004H25.4763C25.2055 7.79004 24.9863 8.0083 24.9863 8.27804C24.9863 8.54777 25.2055 8.76604 25.4763 8.76604Z" fill="#414141"/>
<path d="M32.6189 12.4184H35.1431C35.4139 12.4184 35.6331 12.2001 35.6331 11.9304C35.6331 11.6606 35.4139 11.4424 35.1431 11.4424H32.6189C32.3481 11.4424 32.1289 11.6606 32.1289 11.9304C32.1289 12.2001 32.3481 12.4184 32.6189 12.4184Z" fill="#414141"/>
</svg>
