<svg width="31" height="45" viewBox="0 0 31 45" fill="none" xmlns="http://www.w3.org/2000/svg">
<path d="M0.911406 44.3122H27.2831C27.543 44.3122 27.7531 44.1007 27.7531 43.8402V41.4915H30.0904C30.3503 41.4915 30.5604 41.2801 30.5604 41.0195V3.0051C30.5604 2.74456 30.3503 2.5331 30.0904 2.5331H9.72062V1.36018C9.72062 1.09964 9.51053 0.888184 9.25062 0.888184C8.99071 0.888184 8.78062 1.09964 8.78062 1.36018V2.9985C8.78062 3.00086 8.77921 3.00274 8.77921 3.00558C8.77921 3.00841 8.78062 3.00982 8.78062 3.01266V5.81917C8.78062 5.82153 8.77921 5.82342 8.77921 5.82625C8.77921 5.82908 8.78062 5.8305 8.78062 5.83333V9.60083C8.78062 10.2201 8.53669 10.7992 8.09395 11.2306C7.65168 11.6621 7.06606 11.8924 6.45036 11.8702C5.24246 11.8334 4.25922 10.7638 4.25922 9.48566V2.77052C4.25922 2.25321 4.67846 1.83218 5.19358 1.83218H6.44143C6.95702 1.83218 7.37579 2.25321 7.37579 2.77052V3.0051V9.54702C7.37579 9.85949 7.22304 10.1441 6.99368 10.3088C6.97441 10.322 6.95514 10.3357 6.93493 10.3471C6.91566 10.3584 6.89592 10.3683 6.87618 10.3782C6.83341 10.398 6.7897 10.415 6.74458 10.4273C6.73612 10.4297 6.72813 10.433 6.7192 10.4349C6.68113 10.4438 6.64118 10.4467 6.6017 10.4504C6.57538 10.4528 6.54906 10.457 6.52274 10.4575C6.48749 10.4575 6.45224 10.4523 6.41652 10.4485C6.3855 10.4448 6.35448 10.4434 6.3244 10.4363C6.31077 10.4334 6.29808 10.4282 6.28492 10.4245C6.24403 10.4127 6.20408 10.3976 6.16507 10.3796C6.14392 10.3692 6.12277 10.3589 6.10256 10.3466C6.08282 10.3353 6.06402 10.3216 6.04475 10.3088C5.81539 10.1441 5.66264 9.85996 5.66264 9.5475V7.99367C5.66264 7.73313 5.45255 7.52167 5.19264 7.52167C4.93273 7.52167 4.72264 7.73313 4.72264 7.99367V9.5475C4.72264 9.55977 4.72546 9.57157 4.72593 9.58431C4.72593 9.5895 4.72264 9.59422 4.72264 9.59989C4.72264 9.65794 4.7358 9.71317 4.74144 9.77028C4.74614 9.81182 4.74755 9.85382 4.75507 9.89441C4.77105 9.99165 4.7969 10.0846 4.82792 10.1771C4.8298 10.1828 4.83168 10.1885 4.83356 10.1937C4.92474 10.4547 5.07373 10.6907 5.27536 10.887C5.30027 10.9116 5.32236 10.9394 5.34868 10.9626C5.35902 10.9715 5.36654 10.9833 5.37735 10.9923C5.41918 11.0267 5.46524 11.0532 5.50942 11.0834C5.54373 11.1075 5.57663 11.1329 5.61235 11.1547C5.64901 11.1764 5.68755 11.1929 5.72515 11.2118C5.78249 11.2406 5.83983 11.2698 5.90046 11.2925C5.93195 11.3038 5.96438 11.3109 5.99681 11.3208C6.05274 11.3378 6.10679 11.3586 6.16507 11.3699C6.17494 11.3718 6.18481 11.3708 6.19468 11.3727C6.28774 11.3897 6.38221 11.3977 6.47809 11.4001C6.49078 11.4006 6.50394 11.4039 6.51663 11.4039C6.51757 11.4039 6.51851 11.4039 6.51898 11.4039C6.51945 11.4039 6.52086 11.4039 6.52133 11.4039C6.53496 11.4039 6.54859 11.4001 6.56222 11.4001C6.65622 11.3977 6.74975 11.3902 6.8414 11.3732C6.85174 11.3713 6.86208 11.3722 6.87242 11.3704C6.93305 11.3586 6.98945 11.3373 7.04726 11.3194C7.07687 11.3104 7.10695 11.3043 7.13609 11.2934C7.19813 11.2708 7.25594 11.241 7.31422 11.2118C7.35135 11.1934 7.38895 11.1768 7.42514 11.1556C7.46133 11.1339 7.4947 11.1079 7.52901 11.0839C7.57272 11.0536 7.61878 11.0272 7.66014 10.9932C7.67095 10.9843 7.678 10.9729 7.68834 10.964C7.71513 10.9404 7.73769 10.912 7.76307 10.8866C7.96423 10.6902 8.11228 10.4552 8.20346 10.1946C8.20534 10.1889 8.20722 10.1833 8.2091 10.1776C8.24059 10.0851 8.26597 9.99212 8.28195 9.89489C8.28947 9.8543 8.29088 9.81229 8.29558 9.77075C8.30122 9.71364 8.31438 9.65842 8.31438 9.60036V9.54844V3.0051V2.77052C8.31626 1.73259 7.47543 0.888184 6.4419 0.888184H5.19405C4.16052 0.888184 3.31969 1.73259 3.31969 2.77052V5.3533H0.911406C0.651496 5.3533 0.441406 5.56476 0.441406 5.8253V43.8402C0.441406 44.1007 0.651496 44.3122 0.911406 44.3122ZM29.6204 3.4771V40.5475H27.7531V5.8253C27.7531 5.56476 27.543 5.3533 27.2831 5.3533H9.72062V3.4771H29.6204ZM1.38141 6.2973H3.31922V9.48425C3.31922 11.2675 4.71136 12.7604 6.42216 12.8123C6.45553 12.8133 6.4889 12.8137 6.52133 12.8137C7.3584 12.8137 8.14612 12.4937 8.74913 11.9061C9.37564 11.2953 9.72062 10.4759 9.72062 9.59894V6.2973H26.8131V41.0124C26.8131 41.0148 26.8117 41.0167 26.8117 41.0195C26.8117 41.0223 26.8131 41.0238 26.8131 41.0266V43.3682H1.38141V6.2973Z" fill="currentColor"/>
<path d="M3.79031 17.0343H22.9057C23.1656 17.0343 23.3757 16.8229 23.3757 16.5623C23.3757 16.3018 23.1656 16.0903 22.9057 16.0903H3.79031C3.5304 16.0903 3.32031 16.3018 3.32031 16.5623C3.32031 16.8229 3.5304 17.0343 3.79031 17.0343Z" fill="currentColor"/>
<path d="M3.79031 19.3849H20.5651C20.825 19.3849 21.0351 19.1735 21.0351 18.9129C21.0351 18.6524 20.825 18.4409 20.5651 18.4409H3.79031C3.5304 18.4409 3.32031 18.6524 3.32031 18.9129C3.32031 19.1735 3.5304 19.3849 3.79031 19.3849Z" fill="currentColor"/>
<path d="M3.79031 21.735H12.607C12.867 21.735 13.077 21.5236 13.077 21.263C13.077 21.0025 12.867 20.791 12.607 20.791H3.79031C3.5304 20.791 3.32031 21.0025 3.32031 21.263C3.32031 21.5236 3.5304 21.735 3.79031 21.735Z" fill="currentColor"/>
<path d="M17.7564 23.1421H3.79031C3.5304 23.1421 3.32031 23.3535 3.32031 23.6141C3.32031 23.8746 3.5304 24.0861 3.79031 24.0861H17.7564C18.0163 24.0861 18.2264 23.8746 18.2264 23.6141C18.2264 23.3535 18.0163 23.1421 17.7564 23.1421Z" fill="currentColor"/>
<path d="M8.86161 25.4927H3.79031C3.5304 25.4927 3.32031 25.7041 3.32031 25.9647C3.32031 26.2252 3.5304 26.4367 3.79031 26.4367H8.86161C9.12152 26.4367 9.33161 26.2252 9.33161 25.9647C9.33161 25.7041 9.12152 25.4927 8.86161 25.4927Z" fill="currentColor"/>
<path d="M24.4011 40.5361H19.3294C19.0695 40.5361 18.8594 40.7476 18.8594 41.0081C18.8594 41.2687 19.0695 41.4801 19.3294 41.4801H24.4011C24.6611 41.4801 24.8711 41.2687 24.8711 41.0081C24.8711 40.7476 24.6611 40.5361 24.4011 40.5361Z" fill="currentColor"/>
<path d="M11.961 25.4927H11.2395C10.9796 25.4927 10.7695 25.7041 10.7695 25.9647C10.7695 26.2252 10.9796 26.4367 11.2395 26.4367H11.961C12.2209 26.4367 12.431 26.2252 12.431 25.9647C12.431 25.7041 12.2204 25.4927 11.961 25.4927Z" fill="currentColor"/>
</svg>
