<svg width="13" height="16" viewBox="0 0 13 16" fill="none" xmlns="http://www.w3.org/2000/svg">
  <path d="M1.90001 10.2093C1.84232 9.90162 2.07838 9.61719 2.39145 9.61719H10.2387C10.5517 9.61719 10.7878 9.90163 10.7301 10.2093L9.82298 15.0474C9.77864 15.2839 9.57215 15.4552 9.33154 15.4552H3.29858C3.05798 15.4552 2.85149 15.2839 2.80715 15.0474L1.90001 10.2093Z" stroke="#FF0000" stroke-linecap="round" stroke-linejoin="round"/>
  <mask id="path-2-inside-1" fill="white">
    <path fill-rule="evenodd" clip-rule="evenodd" d="M10.503 10.202C11.7174 9.9465 12.6316 8.83124 12.6316 7.49413C12.6316 6.17784 11.7457 5.07654 10.5595 4.79884C10.2535 3.57309 9.06445 2.65918 7.64426 2.65918C7.1668 2.65918 6.71546 2.76248 6.31502 2.9462C5.91458 2.76248 5.46324 2.65918 4.98577 2.65918C3.56543 2.65918 2.37627 3.57329 2.07044 4.79924C0.885123 5.0776 0 6.17847 0 7.49413C0 8.8304 0.913077 9.9451 2.12638 10.2015V10.257H10.503V10.202Z"/>
  </mask>
  <path d="M10.503 10.202L10.2971 9.2234C9.83432 9.32076 9.50299 9.72904 9.50299 10.202H10.503ZM10.5595 4.79884L9.58926 5.04104C9.68005 5.4047 9.96658 5.68707 10.3315 5.77251L10.5595 4.79884ZM6.31502 2.9462L5.89802 3.8551C6.16275 3.97656 6.46728 3.97656 6.73201 3.8551L6.31502 2.9462ZM2.07044 4.79924L2.29907 5.77275C2.66378 5.6871 2.95003 5.40478 3.04071 5.04128L2.07044 4.79924ZM2.12638 10.2015H3.12638C3.12638 9.7289 2.79552 9.32082 2.33313 9.22311L2.12638 10.2015ZM2.12638 10.257H1.12638C1.12638 10.8093 1.57409 11.257 2.12638 11.257V10.257ZM10.503 10.257V11.257C11.0553 11.257 11.503 10.8093 11.503 10.257H10.503ZM10.7089 11.1806C12.4019 10.8244 13.6316 9.28781 13.6316 7.49413H11.6316C11.6316 8.37466 11.0329 9.06861 10.2971 9.2234L10.7089 11.1806ZM13.6316 7.49413C13.6316 5.72793 12.4399 4.21203 10.7874 3.82517L10.3315 5.77251C11.0515 5.94106 11.6316 6.62775 11.6316 7.49413H13.6316ZM11.5297 4.55664C11.1031 2.84767 9.48321 1.65918 7.64426 1.65918V3.65918C8.64569 3.65918 9.40391 4.29851 9.58926 5.04104L11.5297 4.55664ZM7.64426 1.65918C7.02187 1.65918 6.42839 1.79396 5.89802 2.03729L6.73201 3.8551C7.00253 3.73099 7.31172 3.65918 7.64426 3.65918V1.65918ZM6.73201 2.03729C6.20165 1.79396 5.60816 1.65918 4.98577 1.65918V3.65918C5.31832 3.65918 5.6275 3.73099 5.89802 3.8551L6.73201 2.03729ZM4.98577 1.65918C3.14663 1.65918 1.52657 2.84793 1.10018 4.55719L3.04071 5.04128C3.22596 4.29865 3.98422 3.65918 4.98577 3.65918V1.65918ZM1.84181 3.82572C0.190613 4.2135 -1 5.72877 -1 7.49413H1C1 6.62818 1.57963 5.94171 2.29907 5.77275L1.84181 3.82572ZM-1 7.49413C-1 9.28671 0.228173 10.8224 1.91962 11.1799L2.33313 9.22311C1.59798 9.06775 1 8.37409 1 7.49413H-1ZM3.12638 10.257V10.2015H1.12638V10.257H3.12638ZM10.503 9.25704H2.12638V11.257H10.503V9.25704ZM9.50299 10.202V10.257H11.503V10.202H9.50299Z" fill="#FF0000" mask="url(#path-2-inside-1)"/>
  <circle cx="6.31535" cy="1.66203" r="1.16203" stroke="#FF0000" stroke-linecap="round" stroke-linejoin="round"/>
  <line x1="6.28223" y1="12.2007" x2="6.28223" y2="13.3281" stroke="#FF0000" stroke-linecap="round" stroke-linejoin="round"/>
  <path d="M8.44043 11.7495L7.91005 13.8281" stroke="#FF0000" stroke-linecap="round" stroke-linejoin="round"/>
  <path d="M4.18359 11.7241L4.71902 13.828" stroke="#FF0000" stroke-linecap="round" stroke-linejoin="round"/>
</svg>
