<svg width="20" height="20" viewBox="0 0 20 20" fill="none" xmlns="http://www.w3.org/2000/svg">
<path d="M18.6946 12.5983C18.4069 12.3775 17.5149 11.7823 15.9701 10.7611C15.6889 10.5754 15.469 10.4299 15.3714 10.3644C14.9119 10.0553 14.4225 9.89835 13.9176 9.89835C13.5332 9.89835 12.643 10.0063 11.9675 10.914C11.5326 10.4981 11.0417 10.015 10.609 9.57771L10.5929 9.56115L10.5759 9.54507C10.1327 9.11811 9.6433 8.63379 9.22151 8.20467C9.83157 7.76283 10.0816 7.23243 10.1821 6.83475C10.2791 6.45099 10.3558 5.68251 9.7783 4.84611C9.71238 4.75083 9.56595 4.53483 9.37841 4.25859C8.34219 2.73267 7.73822 1.85163 7.5137 1.56675C6.855 0.729871 6.08708 0.553711 5.55876 0.553711C5.12724 0.553711 4.78062 0.669871 4.52765 0.754591L4.44446 0.782431C3.83076 0.983791 3.19978 1.24251 2.25041 2.17947C0.418054 3.98811 0.123243 6.11547 1.3217 8.87523C2.46835 11.515 5.20946 14.2632 5.51838 14.5678C5.8273 14.8723 8.61268 17.5769 11.2881 18.7085C12.4182 19.1861 13.4179 19.4187 14.3442 19.4187C15.7448 19.4187 16.9647 18.8866 18.0744 17.7922C19.023 16.8562 19.2855 16.2339 19.4905 15.6267L19.5182 15.5453C19.6744 15.092 20.1495 13.7129 18.6946 12.5983ZM17.6445 15.0197C17.5156 15.4018 17.3865 15.7556 16.6986 16.4345C16.0608 17.0638 15.3571 17.4989 14.3442 17.4989C13.7181 17.4989 12.974 17.3328 12.0546 16.944C9.64646 15.9257 6.89441 13.2101 6.89441 13.2101C6.89441 13.2101 4.1426 10.4945 3.11051 8.11875C2.07868 5.74275 2.59459 4.55523 3.62668 3.53667C4.31457 2.85795 4.67335 2.73051 5.0606 2.60331C5.27976 2.53131 5.42984 2.47323 5.559 2.47323C5.70203 2.47323 5.82 2.54403 5.97787 2.74467C6.27633 3.12339 7.89657 5.52963 8.17046 5.92659C8.41443 6.28011 8.3293 6.53787 7.89851 6.76107C7.29673 7.07187 6.31816 7.69659 6.5507 8.11851C6.82362 8.61339 9.21689 10.9183 9.21689 10.9183C9.21689 10.9183 11.553 13.2804 12.0546 13.5495C12.0986 13.5732 12.1446 13.5843 12.1925 13.5843C12.6087 13.5843 13.1475 12.7522 13.4304 12.2196C13.5734 11.9506 13.7303 11.8181 13.9176 11.8181C14.0258 11.8181 14.1445 11.8627 14.2761 11.9513C14.6782 12.2215 17.1172 13.8202 17.5013 14.1149C17.8883 14.4113 17.7985 14.5644 17.6445 15.0197Z" fill="currentColor"/>
</svg>
