<svg width="21" height="22" viewBox="0 0 21 22" fill="none" xmlns="http://www.w3.org/2000/svg">
<path d="M20.9632 7.56107L18.2439 2.92713L18.2204 2.89361C18.1897 2.8558 17.4518 1.96098 16.3202 1.47857L13.0154 0.0227709C12.937 -0.0118207 12.8457 -0.00672578 12.7713 0.0361786C12.6967 0.0793511 12.6474 0.155238 12.6385 0.240779C12.6312 0.313448 12.4329 2.02185 10.4796 2.02292C10.4742 2.02319 10.4446 2.02533 10.3961 2.02533C9.89199 2.02533 8.69225 1.85023 8.44438 0.227907C8.43171 0.145853 8.3816 0.0739879 8.30859 0.033765C8.23557 -0.00618969 8.14828 -0.0107482 8.07122 0.0219664L4.43561 1.58342C4.38253 1.60031 3.13699 2.00737 2.73662 2.94912L0.0361826 7.60344C0.000349164 7.66484 -0.00934996 7.73805 0.00924032 7.80697C0.0278306 7.87588 0.0730939 7.93461 0.135061 7.96973L3.43632 9.86074C3.55567 9.92939 3.70844 9.89694 3.78926 9.78486L4.62879 8.62429L4.73979 21.734C4.74114 21.8812 4.8613 22 5.00922 22H15.7331C15.8821 22 16.0025 21.8801 16.0025 21.7318V8.17165L17.1616 9.66231C17.2424 9.76662 17.386 9.79692 17.5027 9.73444L20.8584 7.93246C20.9228 7.89787 20.9702 7.83861 20.9898 7.76916C21.0098 7.69863 21.0001 7.62382 20.9632 7.56107ZM17.448 9.15416L16.0217 7.31946C16.0095 7.14597 15.981 6.39756 16.311 5.69929L15.8236 5.47055C15.4667 6.2254 15.4653 7.00492 15.4804 7.29694C15.4702 7.3251 15.4637 7.35513 15.4637 7.38623V21.4632H5.27675L5.1609 7.79919C5.16036 7.74422 5.14204 7.693 5.11214 7.64983L5.16063 7.64822C5.15848 7.58494 5.10675 6.0924 4.88771 5.49281L4.38119 5.67623C4.5388 6.10742 4.60858 7.25886 4.62205 7.66619L4.65816 7.66484L3.49397 9.2743L0.637268 7.6383L3.21189 3.20145L3.22805 3.16873C3.52469 2.44714 4.58972 2.09639 4.62448 2.08406L7.97935 0.644616C8.33391 2.04973 9.43478 2.56083 10.3961 2.56083C10.461 2.56083 10.5041 2.55788 10.5087 2.55735C12.3241 2.55467 12.9166 1.28014 13.0987 0.645421L16.1052 1.96929C17.0401 2.36803 17.694 3.10465 17.7902 3.21647L20.3572 7.5911L17.448 9.15416Z" fill="currentColor"/>
</svg>
