<svg width="14" height="24" viewBox="0 0 14 24" fill="none" xmlns="http://www.w3.org/2000/svg">
<path d="M12.5247 0H1.47532C0.661788 0 0 0.661327 0 1.4743V21.859C0 22.672 0.661788 23.3333 1.47532 23.3333H12.5247C13.3382 23.3333 14 22.672 14 21.859V1.4743C14 0.661327 13.3382 0 12.5247 0ZM13.1738 21.8593C13.1738 22.2171 12.8824 22.508 12.5247 22.508H1.47532C1.1173 22.508 0.826202 22.2168 0.826202 21.8593V1.47457C0.826202 1.1168 1.11758 0.825903 1.47532 0.825903H12.5247C12.8827 0.825903 13.1738 1.11707 13.1738 1.47457V21.8593Z" fill="currentColor"/>
<path d="M6.99805 20.6911C7.29145 20.6911 7.52929 20.4535 7.52929 20.1603C7.52929 19.8671 7.29145 19.6294 6.99805 19.6294C6.70465 19.6294 6.4668 19.8671 6.4668 20.1603C6.4668 20.4535 6.70465 20.6911 6.99805 20.6911Z" fill="currentColor"/>
</svg>
