<svg width="27" height="22" viewBox="0 0 27 22" fill="none" xmlns="http://www.w3.org/2000/svg">
<path d="M1.62524 21.9998C1.58561 21.9998 1.54598 21.9946 1.507 21.9833C1.39334 21.951 1.29731 21.8731 1.24135 21.7679L0.0517878 19.5268C-0.0605704 19.3152 0.0158593 19.0516 0.223374 18.9348L0.941072 18.5302L0.54673 17.6946C0.452445 17.4951 0.519294 17.2562 0.702855 17.1358L1.4898 16.6204L1.08413 15.761C0.990501 15.5633 1.05561 15.3259 1.23656 15.2049L2.04375 14.6643L1.6383 13.7357C1.59845 13.6444 1.5904 13.5423 1.61566 13.4462L2.44375 10.2669C1.12964 9.0466 0.606611 7.14007 1.1107 5.32704C1.45997 4.07106 2.2713 3.02781 3.39575 2.38959C4.5202 1.75158 5.82343 1.59472 7.0659 1.94761C9.62901 2.67625 11.1278 5.3772 10.4077 7.96904C9.89641 9.80891 8.39808 11.2823 6.70509 11.6481L4.21884 20.3965C4.18792 20.5051 4.11671 20.5978 4.02025 20.655L1.84516 21.9398C1.77766 21.9794 1.70167 21.9998 1.62524 21.9998ZM1.02186 19.4923L1.79552 20.9498L3.42994 19.9842L5.94297 11.1417C5.99044 10.9745 6.13089 10.8513 6.30138 10.8273C7.77619 10.6201 9.11992 9.3469 9.56892 7.73144C10.1594 5.60666 8.9307 3.39213 6.82986 2.79505C5.81145 2.50575 4.74361 2.63423 3.8221 3.15717C2.90059 3.68011 2.23537 4.53526 1.94903 5.56508C1.51223 7.13611 2.00652 8.78722 3.20805 9.77195C3.34088 9.88085 3.39836 10.0584 3.35503 10.2256L2.49667 13.5214L2.989 14.6485C3.07457 14.8447 3.00794 15.0746 2.83091 15.193L2.03308 15.7274L2.44049 16.5904C2.53477 16.7898 2.46792 17.0289 2.28436 17.1492L1.4972 17.6647L1.90287 18.524C2.00194 18.7335 1.92268 18.9847 1.72214 19.0978L1.02186 19.4923Z" fill="currentColor"/>
<path d="M6.18023 6.60756C6.04305 6.60756 5.90369 6.58886 5.76542 6.5497C5.3689 6.4375 5.03988 6.17658 4.8389 5.81512C4.63879 5.45475 4.58958 5.03719 4.70085 4.63921C4.93035 3.81772 5.78066 3.3368 6.59634 3.56758C6.99286 3.67978 7.32188 3.9407 7.52286 4.30217C7.72298 4.66253 7.77219 5.08009 7.66092 5.47807C7.47039 6.1603 6.85176 6.60756 6.18023 6.60756ZM6.18088 4.38973C5.88953 4.38973 5.6217 4.58289 5.53918 4.87813C5.49127 5.04951 5.51239 5.22925 5.5984 5.38435C5.68507 5.54077 5.82791 5.65364 6.00015 5.70248C6.35486 5.80192 6.72307 5.59489 6.82259 5.23937C6.87049 5.06799 6.84937 4.88825 6.76336 4.73315C6.67669 4.57673 6.53385 4.46387 6.36161 4.41503C6.30151 4.39787 6.24054 4.38973 6.18088 4.38973Z" fill="currentColor"/>
<path d="M20.1675 18.7486C20.0521 18.7486 19.941 18.7022 19.8594 18.6194L12.4529 11.1297C12.282 10.9568 11.8874 10.4972 11.8769 9.93336L11.4297 5.07177C11.4284 5.05813 11.4277 5.04471 11.4277 5.03107C11.4277 4.43421 11.6054 3.98827 12.0039 3.58522C12.3917 3.19296 12.8228 3.00244 13.3219 3.00244H13.4343C13.4478 3.00244 13.4613 3.0031 13.4748 3.00442L18.2822 3.45652C18.8397 3.46708 19.2941 3.86617 19.4655 4.03909L26.8722 11.5288C27.042 11.7006 27.042 11.9792 26.8722 12.151L20.4756 18.6194C20.394 18.7022 20.2829 18.7486 20.1675 18.7486ZM12.2989 5.01149L12.746 9.87C12.7473 9.88364 12.7479 9.89706 12.7479 9.9107C12.7479 10.0759 12.874 10.3102 13.0693 10.5078L20.1675 17.686L25.9485 11.8401L18.8495 4.66125C18.6544 4.46391 18.4227 4.33631 18.2598 4.33631C18.2463 4.33631 18.2328 4.33565 18.2193 4.33433L13.3221 3.88245C13.0589 3.88245 12.8427 3.98277 12.6203 4.20739C12.3876 4.44301 12.302 4.65531 12.2989 5.01149Z" fill="currentColor"/>
<path d="M9.92917 8.44582C8.99873 8.44582 8.11794 8.1431 7.38261 7.57022C7.19208 7.42194 7.15658 7.14562 7.30356 6.95312C7.45033 6.76061 7.72425 6.72497 7.91435 6.87326C8.49617 7.32646 9.19297 7.56582 9.92939 7.56582C10.5201 7.56582 11.0996 7.40654 11.605 7.10514C11.812 6.98128 12.079 7.0508 12.2014 7.26046C12.3238 7.46968 12.2547 7.73962 12.0476 7.86304C11.4081 8.2443 10.6754 8.44582 9.92917 8.44582Z" fill="currentColor"/>
<path d="M6.19984 4.3899C6.18939 4.3899 6.17894 4.38968 6.16827 4.3888C5.92831 4.37142 5.74779 4.16088 5.76478 3.91866C5.92003 1.72129 7.74977 0 9.93074 0C11.8772 0 13.5928 1.39349 14.0098 3.31344C14.0614 3.55082 13.9129 3.78556 13.678 3.83748C13.4419 3.88962 13.2107 3.73936 13.1593 3.50198C12.8292 1.98265 11.4713 0.880005 9.93074 0.880005C8.20465 0.880005 6.75662 2.24203 6.63381 3.98114C6.61748 4.2128 6.4263 4.3899 6.19984 4.3899Z" fill="currentColor"/>
<path d="M16.8788 11.0202C16.7673 11.0202 16.6561 10.9773 16.5709 10.8915C16.4009 10.7197 16.4009 10.4412 16.5707 10.2692L18.6898 8.12613C18.8599 7.95409 19.1358 7.95409 19.3059 8.12591C19.4759 8.29773 19.4759 8.57625 19.3061 8.74829L17.1869 10.8913C17.1018 10.9771 16.9901 11.0202 16.8788 11.0202Z" fill="currentColor"/>
<path d="M19.3378 13.5056C19.2263 13.5056 19.1151 13.4627 19.0299 13.3769C18.8599 13.2051 18.8599 12.9266 19.0297 12.7547L21.1488 10.6115C21.3189 10.4394 21.5948 10.4394 21.7648 10.6113C21.9349 10.7831 21.9349 11.0616 21.7651 11.2336L19.6459 13.3767C19.5608 13.4625 19.4491 13.5056 19.3378 13.5056Z" fill="currentColor"/>
</svg>
