<svg width="30" height="18" viewBox="0 0 30 18" fill="none" xmlns="http://www.w3.org/2000/svg">
<path d="M19.2707 15.8302H10.0352V14.0899L10.149 13.9727C10.1694 13.9516 12.143 11.9001 12.143 10.0398C12.143 8.73029 14.5129 7.71104 18.1282 6.3054C19.6826 5.70185 22.0312 4.78877 22.1903 4.34136C22.2566 3.56891 20.1987 1.97645 18.7858 1.14713L17.7373 0.532545L22.6256 0L22.7488 0.0999602C23.138 0.41604 26.5572 3.2487 26.6431 5.26754C26.6628 5.7377 26.5043 6.14994 26.1836 6.46085L26.0794 6.5615L25.9365 6.56874C25.9055 6.56943 22.868 6.73833 20.9013 9.04533C19.5923 10.5799 19.0326 12.7173 19.237 15.3993L19.2707 15.8302ZM10.808 15.0305H18.4409C18.3093 12.3209 18.944 10.1273 20.3286 8.50865C22.2673 6.2406 25.0358 5.84627 25.7394 5.78147C25.8376 5.64877 25.8799 5.49435 25.8712 5.3027C25.814 3.95462 23.4491 1.70931 22.3935 0.829322L20.1468 1.0744C21.3372 1.88511 23.0588 3.268 22.9569 4.42857C22.882 5.27375 21.3429 5.91004 18.3996 7.05441C16.3483 7.85168 12.9155 9.18562 12.9155 10.0398C12.9155 11.9707 11.2662 13.9141 10.8077 14.418V15.0305H10.808Z" fill="currentColor"/>
<path d="M11.7264 13.1949L10.9765 13.0022C11.2728 11.7613 10.772 9.91446 9.78503 8.61015C9.04046 7.62538 8.12207 7.08249 7.19868 7.08249C4.31964 7.08249 0.771279 3.89929 0.622099 3.76348L0.490234 3.64387V2.13379H5.38588L8.73344 4.73309H10.9805C11.6291 2.13379 14.1182 2.13379 16.7469 2.13379C19.6093 2.13379 22.0101 4.74757 22.111 4.85925L21.5476 5.40592C21.525 5.3818 19.2713 2.93347 16.7469 2.93347C13.8489 2.93347 12.0534 3.04273 11.6714 5.20462L11.6135 5.53277H8.47571L5.12781 2.93347H1.26277V3.27712C1.92077 3.84172 4.89804 6.28316 7.19902 6.28316C8.36449 6.28316 9.49932 6.93462 10.3941 8.1169C11.5322 9.62354 12.081 11.7117 11.7264 13.1949Z" fill="currentColor"/>
<path d="M4.79175 17.9999C2.14946 17.9999 0 15.7739 0 13.0385C0 10.3041 2.14946 8.0791 4.79175 8.0791C6.46803 8.0791 7.99513 8.96702 8.87556 10.4533L9.13895 10.8976L4.90163 12.1988C4.75146 12.2454 4.41813 12.4108 4.34654 12.619C4.30958 12.7279 4.3472 12.872 4.46109 13.0457C4.47174 13.0585 4.78409 13.4083 7.26188 13.4083C7.89856 13.4083 8.54756 13.3859 9.11864 13.357L9.59315 13.3329L9.51923 13.8189C9.14794 16.2413 7.15998 17.9999 4.79175 17.9999ZM4.79175 8.87912C2.57602 8.87912 0.772873 10.7453 0.772873 13.0388C0.772873 15.3331 2.57602 17.2006 4.79175 17.2006C6.61621 17.2006 8.17095 15.9566 8.65378 14.1787C8.20624 14.196 7.73106 14.2084 7.26188 14.2084C4.63791 14.2084 4.04951 13.8458 3.82008 13.4924C3.49808 12.9978 3.53337 12.5963 3.62028 12.3474C3.84439 11.7039 4.59795 11.4581 4.68319 11.4322L7.92287 10.4371C7.16298 9.45303 6.02581 8.87912 4.79175 8.87912Z" fill="currentColor"/>
<path d="M4.13797 6.17282L0.628906 5.61925L0.975217 3.79102L1.73277 3.94406L1.54197 4.954L4.25419 5.38245L4.13797 6.17282Z" fill="currentColor"/>
<path d="M25.2965 12.1402L23.0254 6.97119L22.3221 7.30226L24.5932 12.4713L25.2965 12.1402Z" fill="currentColor"/>
<path d="M25.2078 17.9999C22.5655 17.9999 20.416 15.7739 20.416 13.0384C20.416 12.0323 20.7074 11.062 21.2582 10.2323L21.396 10.0241L24.297 10.4974L28.1571 9.12549L28.3252 9.27577C29.3898 10.2219 30.0002 11.5938 30.0002 13.0384C30.0005 15.7739 27.8511 17.9999 25.2078 17.9999ZM21.7646 10.8948C21.3874 11.5421 21.1889 12.278 21.1889 13.0387C21.1889 15.333 22.992 17.2005 25.2078 17.2005C27.4245 17.2005 29.2276 15.333 29.2276 13.0387C29.2276 11.9023 28.7764 10.8193 27.9829 10.0334L24.3666 11.3194L21.7646 10.8948Z" fill="currentColor"/>
<path d="M25.2046 14.3385C24.544 14.3385 24.0059 13.7825 24.0059 13.0983C24.0059 12.4141 24.5436 11.8574 25.2046 11.8574C25.8656 11.8574 26.4031 12.4141 26.4031 13.0983C26.4031 13.7825 25.866 14.3385 25.2046 14.3385ZM25.2046 12.6574C24.9695 12.6574 24.7787 12.8546 24.7787 13.0983C24.7787 13.3413 24.9695 13.5385 25.2046 13.5385C25.4394 13.5385 25.6302 13.3413 25.6302 13.0983C25.6305 12.855 25.4394 12.6574 25.2046 12.6574Z" fill="currentColor"/>
<path d="M24.3658 11.3195L20.5664 10.6994L20.8738 10.1872C21.8401 8.57614 23.5051 7.61377 25.3272 7.61377C26.6588 7.61377 27.9308 8.13632 28.9078 9.08456L29.3764 9.53886L24.3658 11.3195ZM21.8791 10.1035L24.2966 10.4981L27.8583 9.23312C27.116 8.70126 26.2379 8.41379 25.3269 8.41379C23.9752 8.41379 22.7242 9.03596 21.8791 10.1035Z" fill="currentColor"/>
<path d="M25.2277 16.5444C23.3596 16.5444 21.8398 14.9729 21.8398 13.0416C21.8398 12.0524 22.2564 11.1014 22.9817 10.432L23.1182 10.3055L24.295 10.4985L26.4022 9.74951L26.538 9.80914C27.7977 10.3572 28.6112 11.626 28.6112 13.042C28.6112 14.9729 27.0931 16.5444 25.2277 16.5444ZM23.3663 11.1558C22.8788 11.6663 22.6124 12.3295 22.6124 13.0416C22.6124 14.5321 23.7855 15.7447 25.2277 15.7447C26.6669 15.7447 27.839 14.5321 27.839 13.0416C27.839 11.9986 27.2669 11.0583 26.3692 10.6068L24.3643 11.3199L23.3663 11.1558Z" fill="currentColor"/>
<path d="M7.3774 14.2182C5.73576 14.2182 4.18668 14.0583 3.81839 13.493C3.49639 12.9976 3.53168 12.5961 3.6186 12.3472C3.8427 11.7037 4.59626 11.4579 4.6815 11.4321L10.8515 9.53662L11.0719 10.3036L4.90028 12.1993C4.7501 12.2459 4.41678 12.4113 4.34518 12.6195C4.30822 12.7284 4.34585 12.8725 4.45907 13.0462C4.7834 13.4433 7.74236 13.5305 10.9218 13.2341L10.991 14.0307C10.1213 14.1113 8.71869 14.2182 7.3774 14.2182Z" fill="currentColor"/>
<path d="M4.76252 16.5441C2.89444 16.5441 1.375 14.9726 1.375 13.0413C1.375 11.108 2.89444 9.53516 4.76252 9.53516C5.78481 9.53516 6.74382 10.0177 7.39349 10.8588L7.75179 11.3234L4.90038 12.1993C4.7502 12.2458 4.41688 12.4112 4.34528 12.6194C4.30832 12.7284 4.34595 12.8724 4.45983 13.0462C4.46982 13.0589 4.78284 13.407 7.26429 13.407L8.15604 13.3977L8.0315 13.9034C7.64923 15.4576 6.30461 16.5441 4.76252 16.5441ZM4.76252 10.3348C3.32067 10.3348 2.14754 11.5488 2.14754 13.0413C2.14754 14.5318 3.32067 15.7444 4.76252 15.7444C5.77815 15.7444 6.68189 15.1333 7.10812 14.2067C4.61468 14.1926 4.04426 13.8393 3.81849 13.4932C3.49649 12.9979 3.53179 12.5963 3.6187 12.3475C3.8428 11.7039 4.59636 11.4582 4.68161 11.4323L6.36155 10.9163C5.90702 10.5416 5.34792 10.3348 4.76252 10.3348Z" fill="currentColor"/>
</svg>
