<svg width="23" height="20" viewBox="0 0 23 20" fill="none" xmlns="http://www.w3.org/2000/svg">
<path d="M15.3333 4.99997C15.8388 4.99997 16.3329 4.85335 16.7531 4.57865C17.1734 4.30395 17.5009 3.9135 17.6944 3.45669C17.8878 2.99988 17.9384 2.49721 17.8398 2.01226C17.7412 1.52732 17.4978 1.08186 17.1404 0.73223C16.783 0.382601 16.3276 0.1445 15.8319 0.0480377C15.3362 -0.0484249 14.8223 0.0010832 14.3554 0.190301C13.8884 0.379519 13.4893 0.699949 13.2085 1.11107C12.9277 1.52219 12.7778 2.00554 12.7778 2.49999C12.7778 3.16303 13.047 3.79891 13.5263 4.26775C14.0055 4.73658 14.6556 4.99997 15.3333 4.99997ZM15.3333 1.24999C15.5861 1.24999 15.8331 1.32331 16.0432 1.46066C16.2534 1.59801 16.4171 1.79323 16.5138 2.02164C16.6106 2.25004 16.6359 2.50137 16.5866 2.74385C16.5373 2.98632 16.4156 3.20905 16.2369 3.38387C16.0582 3.55868 15.8305 3.67773 15.5826 3.72596C15.3348 3.77419 15.0778 3.74944 14.8443 3.65483C14.6109 3.56022 14.4113 3.40001 14.2709 3.19445C14.1305 2.98889 14.0556 2.74721 14.0556 2.49999C14.0559 2.16859 14.1907 1.85087 14.4302 1.61653C14.6698 1.38219 14.9946 1.25038 15.3333 1.24999V1.24999ZM5.11111 7.49996C5.11111 7.00551 4.96123 6.52216 4.68042 6.11104C4.39962 5.69992 4.00049 5.37949 3.53353 5.19027C3.06656 5.00106 2.55272 4.95155 2.05699 5.04801C1.56126 5.14447 1.10591 5.38257 0.748506 5.7322C0.391105 6.08183 0.147712 6.52729 0.0491054 7.01224C-0.0495012 7.49719 0.00110728 7.99985 0.194531 8.45666C0.387955 8.91348 0.715507 9.30392 1.13577 9.57862C1.55602 9.85333 2.05012 9.99995 2.55556 9.99995C3.23333 9.99995 3.88335 9.73656 4.36261 9.26772C4.84187 8.79888 5.11111 8.163 5.11111 7.49996ZM2.55556 8.74995C2.30284 8.74995 2.05579 8.67664 1.84566 8.53929C1.63553 8.40194 1.47176 8.20672 1.37504 7.97831C1.27833 7.74991 1.25303 7.49857 1.30233 7.2561C1.35163 7.01362 1.47333 6.7909 1.65203 6.61608C1.83073 6.44127 2.05841 6.32222 2.30627 6.27399C2.55414 6.22575 2.81106 6.25051 3.04454 6.34512C3.27802 6.43973 3.47759 6.59994 3.61799 6.8055C3.75839 7.01106 3.83333 7.25274 3.83333 7.49996C3.83295 7.83136 3.6982 8.14908 3.45865 8.38342C3.21911 8.61776 2.89433 8.74957 2.55556 8.74995V8.74995ZM20.4444 4.99997C19.939 4.99997 19.4449 5.1466 19.0247 5.4213C18.6044 5.696 18.2768 6.08645 18.0834 6.54326C17.89 7.00007 17.8394 7.50273 17.938 7.98768C18.0366 8.47263 18.28 8.91809 18.6374 9.26772C18.9948 9.61735 19.4502 9.85545 19.9459 9.95191C20.4416 10.0484 20.9554 9.99887 21.4224 9.80965C21.8894 9.62043 22.2885 9.3 22.5693 8.88888C22.8501 8.47776 23 7.99441 23 7.49996C23 6.83692 22.7308 6.20104 22.2515 5.7322C21.7722 5.26337 21.1222 4.99997 20.4444 4.99997V4.99997ZM20.4444 8.74995C20.1917 8.74995 19.9447 8.67664 19.7346 8.53929C19.5244 8.40194 19.3606 8.20672 19.2639 7.97831C19.1672 7.74991 19.1419 7.49857 19.1912 7.2561C19.2405 7.01362 19.3622 6.7909 19.5409 6.61608C19.7196 6.44127 19.9473 6.32222 20.1952 6.27399C20.443 6.22575 20.6999 6.25051 20.9334 6.34512C21.1669 6.43973 21.3665 6.59994 21.5069 6.8055C21.6473 7.01106 21.7222 7.25274 21.7222 7.49996C21.7218 7.83136 21.5871 8.14908 21.3475 8.38342C21.108 8.61776 20.7832 8.74957 20.4444 8.74995V8.74995ZM7.66667 4.99997C8.17211 4.99997 8.6662 4.85335 9.08646 4.57865C9.50672 4.30395 9.83427 3.9135 10.0277 3.45669C10.2211 2.99988 10.2717 2.49721 10.1731 2.01226C10.0745 1.52732 9.83112 1.08186 9.47372 0.73223C9.11632 0.382601 8.66096 0.1445 8.16523 0.0480377C7.6695 -0.0484249 7.15567 0.0010832 6.6887 0.190301C6.22173 0.379519 5.82261 0.699949 5.5418 1.11107C5.26099 1.52219 5.11111 2.00554 5.11111 2.49999C5.11111 3.16303 5.38036 3.79891 5.85962 4.26775C6.33888 4.73658 6.98889 4.99997 7.66667 4.99997ZM7.66667 1.24999C7.91939 1.24999 8.16643 1.32331 8.37656 1.46066C8.58669 1.59801 8.75047 1.79323 8.84718 2.02164C8.94389 2.25004 8.9692 2.50137 8.91989 2.74385C8.87059 2.98632 8.74889 3.20905 8.57019 3.38387C8.39149 3.55868 8.16381 3.67773 7.91595 3.72596C7.66809 3.77419 7.41117 3.74944 7.17768 3.65483C6.9442 3.56022 6.74464 3.40001 6.60423 3.19445C6.46383 2.98889 6.38889 2.74721 6.38889 2.49999C6.38928 2.16859 6.52403 1.85087 6.76357 1.61653C7.00312 1.38219 7.3279 1.25038 7.66667 1.24999V1.24999ZM16.5176 10.3424C16.3029 9.19368 15.6832 8.15504 14.7664 7.40727C13.8495 6.6595 12.6937 6.24997 11.5 6.24997C10.3063 6.24997 9.15045 6.6595 8.23363 7.40727C7.3168 8.15504 6.69709 9.19368 6.4824 10.3424C5.78991 10.5965 5.16224 10.995 4.64293 11.5102C4.12362 12.0254 3.72511 12.645 3.47505 13.3259C3.22498 14.0068 3.12935 14.7328 3.19478 15.4535C3.26022 16.1742 3.48516 16.8724 3.85399 17.4995C4.22282 18.1267 4.72672 18.6678 5.33072 19.0854C5.93472 19.503 6.62436 19.7871 7.3518 19.9178C8.07923 20.0486 8.82705 20.023 9.54336 19.8428C10.2597 19.6626 10.9273 19.3321 11.5 18.8742C12.0728 19.3287 12.7397 19.6562 13.4545 19.834C14.1694 20.0118 14.9152 20.0356 15.6404 19.9039C16.3656 19.7722 17.0529 19.488 17.6548 19.071C18.2568 18.654 18.759 18.1141 19.1268 17.4887C19.4946 16.8633 19.7193 16.1672 19.7852 15.4485C19.8511 14.7299 19.7568 14.0058 19.5087 13.3263C19.2606 12.6468 18.8647 12.028 18.3482 11.5129C17.8318 10.9977 17.2072 10.5983 16.5176 10.3424V10.3424ZM14.6944 18.7499C13.8211 18.7461 12.976 18.4464 12.303 17.9018L11.5 17.2673L10.6971 17.9018C10.0241 18.4464 9.17897 18.7461 8.30556 18.7499C7.41007 18.7518 6.5423 18.4462 5.85343 17.8865C5.16455 17.3268 4.69824 16.5484 4.53574 15.687C4.37323 14.8255 4.52483 13.9356 4.96412 13.1722C5.40341 12.4088 6.10255 11.8204 6.93973 11.5095L7.60935 11.2584L7.73912 10.5685C7.89976 9.70728 8.36414 8.9285 9.05137 8.36778C9.7386 7.80707 10.6051 7.49997 11.5 7.49997C12.3949 7.49997 13.2614 7.80707 13.9486 8.36778C14.6359 8.9285 15.1002 9.70728 15.2609 10.5685L15.3907 11.2584L16.0603 11.5095C16.8975 11.8204 17.5966 12.4088 18.0359 13.1722C18.4752 13.9356 18.6268 14.8255 18.4643 15.687C18.3018 16.5484 17.8354 17.3268 17.1466 17.8865C16.4577 18.4462 15.5899 18.7518 14.6944 18.7499V18.7499Z" fill="#999999"/>
</svg>
