<svg width="20" height="20" viewBox="0 0 20 20" fill="none" xmlns="http://www.w3.org/2000/svg">
<path d="M19.9633 7.87234C20.0414 7.60638 19.9893 7.31383 19.8593 7.04787L17.414 2.71277C17.1278 2.20745 16.4775 2.02128 15.9832 2.31383L14.1622 3.37766C13.9281 3.21809 13.668 3.08511 13.4078 2.95213V1.06383C13.4078 0.478723 12.9396 0 12.3673 0H7.7628C7.1905 0 6.72225 0.478723 6.72225 1.06383V2.89894C6.41008 3.03191 6.17595 3.19149 5.96784 3.32447L4.17288 2.26064C3.67862 1.96809 3.05428 2.12766 2.74212 2.63298L0.218765 6.94149C0.0626815 7.18085 0.0366676 7.4734 0.0886954 7.76596C0.166737 8.03191 0.322821 8.27128 0.556946 8.43085L2.29988 9.49468C2.27386 9.68085 2.27386 9.84043 2.27386 10C2.27386 10.133 2.27386 10.266 2.27386 10.4255L0.504918 11.4628C0.296807 11.6223 0.114709 11.8617 0.0366676 12.1277C-0.0413741 12.3936 0.0106538 12.6862 0.140723 12.9521L2.58603 17.2872C2.87218 17.7926 3.49652 17.9787 3.99078 17.6862L5.86379 16.6223C6.09791 16.7819 6.35805 16.9415 6.69623 17.1011V18.9362C6.69623 19.5213 7.16448 20 7.73679 20H12.3673C12.9396 20 13.4078 19.5213 13.4078 18.9362V17.0479C13.6419 16.9415 13.8761 16.8085 14.0842 16.6489L15.8531 17.7128C16.3474 18.0053 16.9977 17.8457 17.2839 17.3404L19.7812 13.0319C19.9113 12.7926 19.9633 12.5 19.8853 12.234C19.8072 11.9681 19.6512 11.7287 19.417 11.5691L17.6741 10.5053C17.7001 10.3191 17.7001 10.1596 17.7001 10C17.7001 9.86702 17.7001 9.70745 17.6741 9.57447L19.4431 8.53723C19.7032 8.40425 19.8853 8.16489 19.9633 7.87234ZM18.9488 7.60638L16.8937 8.82979C16.7116 8.93617 16.6075 9.14894 16.6335 9.33511C16.6596 9.57447 16.6596 9.78723 16.6596 10C16.6596 10.2394 16.6335 10.4787 16.6075 10.7447C16.5815 10.9574 16.6856 11.1702 16.8677 11.2766L18.8968 12.5266L16.3994 16.8351L14.3443 15.5851C14.1622 15.4787 13.9541 15.4787 13.772 15.6117C13.4338 15.8511 13.0696 16.0638 12.6794 16.2234C12.4973 16.3032 12.3673 16.4894 12.3673 16.7021V18.9362H7.73679V16.7553C7.73679 16.5426 7.60672 16.3298 7.39861 16.25C6.87833 16.0638 6.51413 15.7979 6.20197 15.5851C6.09791 15.5053 5.99386 15.4787 5.8898 15.4787C5.81176 15.4787 5.7077 15.5053 5.62966 15.5585L3.49652 16.7287L1.05121 12.3936L3.10631 11.1702C3.28841 11.0638 3.39246 10.8511 3.36645 10.6649C3.34044 10.4255 3.34044 10.2128 3.34044 10C3.34044 9.78723 3.36645 9.54787 3.39246 9.25532C3.41848 9.04255 3.31442 8.82979 3.13232 8.7234L1.10324 7.4734L3.62659 3.16489L5.7077 4.41489C5.8898 4.52128 6.12393 4.52128 6.28001 4.3883C6.61819 4.12234 6.93036 3.93617 7.39861 3.75C7.60672 3.67021 7.73679 3.48404 7.73679 3.24468V1.03723H12.3673V3.27128C12.3673 3.48404 12.4973 3.67021 12.6794 3.75C13.0957 3.93617 13.4859 4.14894 13.824 4.41489C13.9801 4.54787 14.2143 4.54787 14.3703 4.44149L16.4775 3.21809L18.9488 7.60638L19.4431 7.73936L18.9488 7.60638Z" fill="#999999"/>
<path d="M10.0016 5.93115C7.81645 5.93115 6.02148 7.76626 6.02148 10.0003C6.02148 12.2343 7.81645 14.0694 10.0016 14.0694C12.1868 14.0694 13.9817 12.2343 13.9817 10.0003C13.9817 7.76626 12.1868 5.93115 10.0016 5.93115ZM10.0016 13.0056C8.38875 13.0056 7.06204 11.6492 7.06204 10.0003C7.06204 8.35136 8.38875 6.99498 10.0016 6.99498C11.6145 6.99498 12.9412 8.35136 12.9412 10.0003C12.9412 11.6758 11.6145 13.0056 10.0016 13.0056Z" fill="#999999"/>
</svg>
