<svg width="20" height="20" viewBox="0 0 20 20" fill="none" xmlns="http://www.w3.org/2000/svg">
<path d="M10 0C4.47711 0 0 4.47711 0 10C0 15.5229 4.47711 20 10 20C15.5229 20 20 15.5229 20 10C20 4.47711 15.5229 0 10 0ZM10 19.2222C4.90667 19.2222 0.777778 15.0933 0.777778 10C0.777778 4.90667 4.90667 0.777778 10 0.777778C15.0933 0.777778 19.2222 4.90667 19.2222 10C19.2222 15.0933 15.0933 19.2222 10 19.2222Z" fill="currentColor"/>
<path d="M10.0004 10.7777C10.43 10.7777 10.7782 10.4295 10.7782 9.99995C10.7782 9.57039 10.43 9.22217 10.0004 9.22217C9.57088 9.22217 9.22266 9.57039 9.22266 9.99995C9.22266 10.4295 9.57088 10.7777 10.0004 10.7777Z" fill="currentColor"/>
<path d="M6.66645 10.7777C7.096 10.7777 7.44423 10.4295 7.44423 9.99995C7.44423 9.57039 7.096 9.22217 6.66645 9.22217C6.23689 9.22217 5.88867 9.57039 5.88867 9.99995C5.88867 10.4295 6.23689 10.7777 6.66645 10.7777Z" fill="currentColor"/>
<path d="M13.3325 10.7777C13.762 10.7777 14.1102 10.4295 14.1102 9.99995C14.1102 9.57039 13.762 9.22217 13.3325 9.22217C12.9029 9.22217 12.5547 9.57039 12.5547 9.99995C12.5547 10.4295 12.9029 10.7777 13.3325 10.7777Z" fill="currentColor"/>
</svg>
