<svg width="20" height="20" viewBox="0 0 20 20" fill="none" xmlns="http://www.w3.org/2000/svg">
<path fill-rule="evenodd" clip-rule="evenodd" d="M14.8458 12.0813C15.3249 12.0813 15.7148 11.6913 15.7148 11.212C15.7148 10.733 15.3249 10.343 14.8458 10.343C14.3667 10.343 13.9769 10.733 13.9769 11.212C13.9769 11.6913 14.3667 12.0813 14.8458 12.0813ZM18.9427 13.1072H14.0156L12.3264 11.212L14.0156 9.31704H18.9427V13.1072ZM19.4714 8.25961H19.1189V3.94064C19.1189 3.64912 18.8817 3.41181 18.5903 3.41181H17.5771V1.51685C17.5771 1.22534 17.3399 0.988024 17.0485 0.988024H14.5852C14.372 0.988024 14.1811 1.11516 14.0982 1.31149C14.0293 1.47543 14.0467 1.66118 14.1447 1.80925C14.243 1.95732 14.4077 2.04568 14.5852 2.04568H16.5198V3.41181H13.5643C13.3513 3.41181 13.1601 3.53895 13.0773 3.73528C13.0084 3.89899 13.0258 4.08496 13.124 4.23304C13.2222 4.38111 13.387 4.46947 13.5643 4.46947H18.0617V8.25961H13.7789C13.628 8.25961 13.4839 8.32395 13.3841 8.43655L11.2229 10.8601C11.0443 11.0606 11.0441 11.3634 11.2229 11.5641L13.3841 13.9879C13.4846 14.1003 13.6286 14.1646 13.7789 14.1646H18.0617V17.9548H7.43965C7.22665 17.9548 7.03524 18.0817 6.95242 18.278C6.88348 18.4417 6.90088 18.6279 6.99912 18.776C7.09758 18.9241 7.26211 19.0122 7.43965 19.0122H18.5903C18.8817 19.0122 19.1189 18.7751 19.1189 18.4834V14.1646H19.4714C19.7628 14.1646 20 13.9275 20 13.6358V8.78822C20 8.4967 19.7628 8.25961 19.4714 8.25961ZM13.313 0.0420858C13.2476 0.0143224 13.1786 0 13.1079 0C12.8947 0 12.7033 0.127139 12.6205 0.323906L4.64295 19.2658C4.58811 19.396 4.58722 19.5397 4.64053 19.6706C4.69383 19.8015 4.79471 19.9037 4.92489 19.9586C4.99009 19.9861 5.05925 20 5.12996 20C5.34317 20 5.53458 19.8731 5.6174 19.6765L13.5947 0.734408C13.7081 0.465588 13.5817 0.155122 13.313 0.0420858ZM3.65264 17.9548H2.73128C1.80837 17.9548 1.05727 17.2034 1.05727 16.2799V4.33395C1.26432 4.42209 1.49824 4.46947 1.72974 4.46947H9.77731C9.99075 4.46947 10.1819 4.34233 10.2645 4.146C10.3335 3.98228 10.3161 3.79631 10.2178 3.64824C10.1196 3.50017 9.95507 3.41181 9.77731 3.41181H1.72819C1.35815 3.41181 1.05727 3.1106 1.05727 2.74086V2.71839C1.05727 2.34755 1.35903 2.04568 1.72974 2.04568H10.7982C11.0115 2.04568 11.2026 1.91854 11.2855 1.72221C11.3544 1.5585 11.337 1.37253 11.2388 1.22445C11.1405 1.07638 10.976 0.988024 10.7982 0.988024H1.72974C0.77467 0.988024 0 1.76298 0 2.7153V16.2799C0 17.7866 1.22533 19.0122 2.73128 19.0122H3.65264C3.86586 19.0122 4.05705 18.8853 4.13965 18.6887C4.20859 18.525 4.19119 18.339 4.09295 18.191C3.99493 18.0429 3.83018 17.9548 3.65264 17.9548Z" fill="currentColor"/>
</svg>
