<svg width="24" height="20" viewBox="0 0 24 20" fill="none" xmlns="http://www.w3.org/2000/svg">
<path d="M21.6 0H2.4C1.76348 0 1.15303 0.24317 0.702944 0.676017C0.252856 1.10886 0 1.69593 0 2.30806V19.2339C0.000663385 19.386 0.0482274 19.5346 0.136678 19.6607C0.225128 19.7869 0.350492 19.885 0.496918 19.9427C0.643344 20.0003 0.804256 20.0149 0.959307 19.9846C1.11436 19.9543 1.25658 19.8805 1.368 19.7724L5.128 16.1565H23.2C23.4122 16.1565 23.6157 16.0754 23.7657 15.9311C23.9157 15.7868 24 15.5911 24 15.3871V2.30806C24 1.69593 23.7471 1.10886 23.2971 0.676017C22.847 0.24317 22.2365 0 21.6 0ZM22.4 14.6177H4.8C4.59013 14.6186 4.38901 14.6987 4.24 14.8409L1.6 17.3566V2.30806C1.6 2.10402 1.68429 1.90833 1.83431 1.76405C1.98434 1.61977 2.18783 1.53871 2.4 1.53871H21.6C21.8122 1.53871 22.0157 1.61977 22.1657 1.76405C22.3157 1.90833 22.4 2.10402 22.4 2.30806V14.6177Z" fill="#999999"/>
<path d="M7.60039 9.23238C8.26313 9.23238 8.80039 8.7157 8.80039 8.07835C8.80039 7.44099 8.26313 6.92432 7.60039 6.92432C6.93765 6.92432 6.40039 7.44099 6.40039 8.07835C6.40039 8.7157 6.93765 9.23238 7.60039 9.23238Z" fill="#999999"/>
<path d="M11.6004 9.23238C12.2631 9.23238 12.8004 8.7157 12.8004 8.07835C12.8004 7.44099 12.2631 6.92432 11.6004 6.92432C10.9376 6.92432 10.4004 7.44099 10.4004 8.07835C10.4004 8.7157 10.9376 9.23238 11.6004 9.23238Z" fill="#999999"/>
<path d="M15.6004 9.23238C16.2631 9.23238 16.8004 8.7157 16.8004 8.07835C16.8004 7.44099 16.2631 6.92432 15.6004 6.92432C14.9376 6.92432 14.4004 7.44099 14.4004 8.07835C14.4004 8.7157 14.9376 9.23238 15.6004 9.23238Z" fill="#999999"/>
</svg>
