<svg width="25" height="38" viewBox="0 0 25 38" fill="none" xmlns="http://www.w3.org/2000/svg">
<path d="M7.75688 0.191895L7.55102 0.39863C7.55055 0.399102 7.55008 0.399575 7.54914 0.400519L0.20727 7.77316C0.2068 7.77363 0.20633 7.7741 0.20539 7.77505L0 7.98178V37.0079H13.9237C14.3129 37.0079 14.6287 36.6907 14.6287 36.2999C14.6287 35.9091 14.3129 35.5919 13.9237 35.5919H1.41V8.98289H8.75375V1.60789H23.5V24.4999C23.5 24.8907 23.8158 25.2079 24.205 25.2079C24.5942 25.2079 24.91 24.8907 24.91 24.4999V0.191895H7.75688ZM7.34375 7.56689H2.40687L7.34375 2.60901V7.56689Z" fill="#C4C4C4"/>
<path d="M22.2373 31.3738L20.5035 33.115V25.9746C20.5035 25.5838 20.1877 25.2666 19.7985 25.2666C19.4094 25.2666 19.0935 25.5838 19.0935 25.9746V33.1155L17.3597 31.3743C17.0843 31.0977 16.6382 31.0977 16.3628 31.3743C16.0874 31.6509 16.0874 32.0988 16.3628 32.3754L19.3003 35.3254C19.3656 35.391 19.4441 35.4434 19.5306 35.4793C19.5344 35.4807 19.5381 35.4812 19.5414 35.4826C19.6213 35.5137 19.7078 35.5326 19.7985 35.5326C19.8892 35.5326 19.9757 35.5137 20.0556 35.4826C20.0594 35.4812 20.0631 35.4807 20.0664 35.4793C20.1534 35.4434 20.2319 35.3905 20.2967 35.3254L23.2342 32.3754C23.5096 32.0988 23.5096 31.6509 23.2342 31.3743C22.9588 31.0977 22.5128 31.0977 22.2373 31.3738Z" fill="#C4C4C4"/>
</svg>
