<svg width="74" height="48" viewBox="0 0 74 48" fill="none" xmlns="http://www.w3.org/2000/svg">
<path d="M73.2287 13.2969H1V46.5096H73.2287V13.2969Z" stroke="#999999" stroke-miterlimit="10"/>
<path d="M26.5978 6.90275H1V3.35059H32.684" stroke="#999999" stroke-miterlimit="10"/>
<path d="M41.0977 3.35059H73.2291V6.90275H47.0048" stroke="#999999" stroke-miterlimit="10"/>
<path d="M1.17969 31.1465H25.7929" stroke="#999999" stroke-miterlimit="10"/>
<path d="M49.332 31.1465H73.1398" stroke="#999999" stroke-miterlimit="10"/>
<path d="M1.17969 16.4053H25.7929" stroke="#999999" stroke-miterlimit="10"/>
<path d="M48.6162 16.4053H73.14" stroke="#999999" stroke-miterlimit="10"/>
<path d="M8.33954 19.4243H4.66992V27.7719H8.33954V19.4243Z" stroke="#999999" stroke-miterlimit="10"/>
<path d="M6.54883 19.4243V27.7719" stroke="#999999" stroke-miterlimit="10"/>
<path d="M4.58008 23.4204H8.24969" stroke="#999999" stroke-miterlimit="10"/>
<path d="M8.33954 35.0537H4.66992V43.4013H8.33954V35.0537Z" stroke="#999999" stroke-miterlimit="10"/>
<path d="M6.54883 35.0537V43.4013" stroke="#999999" stroke-miterlimit="10"/>
<path d="M4.58008 39.0498H8.24969" stroke="#999999" stroke-miterlimit="10"/>
<path d="M15.8581 19.4243H12.1885V27.7719H15.8581V19.4243Z" stroke="#999999" stroke-miterlimit="10"/>
<path d="M14.0684 19.4243V27.7719" stroke="#999999" stroke-miterlimit="10"/>
<path d="M12.1885 23.4204H15.8581" stroke="#999999" stroke-miterlimit="10"/>
<path d="M15.8581 35.0537H12.1885V43.4013H15.8581V35.0537Z" stroke="#999999" stroke-miterlimit="10"/>
<path d="M14.0684 35.0537V43.4013" stroke="#999999" stroke-miterlimit="10"/>
<path d="M12.1885 39.0498H15.8581" stroke="#999999" stroke-miterlimit="10"/>
<path d="M23.2878 19.4243H19.6182V27.7719H23.2878V19.4243Z" stroke="#999999" stroke-miterlimit="10"/>
<path d="M21.4971 19.4243V27.7719" stroke="#999999" stroke-miterlimit="10"/>
<path d="M19.6172 23.4204H23.2868" stroke="#999999" stroke-miterlimit="10"/>
<path d="M23.2878 35.0537H19.6182V43.4013H23.2878V35.0537Z" stroke="#999999" stroke-miterlimit="10"/>
<path d="M21.4971 35.0542V43.4018" stroke="#999999" stroke-miterlimit="10"/>
<path d="M19.6172 39.0498H23.2868" stroke="#999999" stroke-miterlimit="10"/>
<path d="M54.8806 19.4243H51.2109V27.7719H54.8806V19.4243Z" stroke="#999999" stroke-miterlimit="10"/>
<path d="M53.0908 19.4243V27.7719" stroke="#999999" stroke-miterlimit="10"/>
<path d="M51.2109 23.4204H54.8806" stroke="#999999" stroke-miterlimit="10"/>
<path d="M54.8806 35.0537H51.2109V43.4013H54.8806V35.0537Z" stroke="#999999" stroke-miterlimit="10"/>
<path d="M53.0908 35.0542V43.4018" stroke="#999999" stroke-miterlimit="10"/>
<path d="M51.2109 39.0498H54.8806" stroke="#999999" stroke-miterlimit="10"/>
<path d="M62.489 19.4243H58.8193V27.7719H62.489V19.4243Z" stroke="#999999" stroke-miterlimit="10"/>
<path d="M60.6992 19.4243V27.7719" stroke="#999999" stroke-miterlimit="10"/>
<path d="M58.7295 23.4204H62.4886" stroke="#999999" stroke-miterlimit="10"/>
<path d="M62.489 35.0537H58.8193V43.4013H62.489V35.0537Z" stroke="#999999" stroke-miterlimit="10"/>
<path d="M60.6992 35.0537V43.4013" stroke="#999999" stroke-miterlimit="10"/>
<path d="M58.7295 39.0498H62.4886" stroke="#999999" stroke-miterlimit="10"/>
<path d="M69.9176 19.4243H66.248V27.7719H69.9176V19.4243Z" stroke="#999999" stroke-miterlimit="10"/>
<path d="M68.0381 19.4243V27.7719" stroke="#999999" stroke-miterlimit="10"/>
<path d="M66.1582 23.4204H69.8278" stroke="#999999" stroke-miterlimit="10"/>
<path d="M69.9176 35.0537H66.248V43.4013H69.9176V35.0537Z" stroke="#999999" stroke-miterlimit="10"/>
<path d="M68.0381 35.0537V43.4013" stroke="#999999" stroke-miterlimit="10"/>
<path d="M66.1582 39.0498H69.8278" stroke="#999999" stroke-miterlimit="10"/>
<path d="M32.4154 42.2471H25.3447V46.4209H32.4154V42.2471Z" stroke="#999999" stroke-miterlimit="10"/>
<path d="M32.4154 29.7256H25.3447V33.2777H32.4154V29.7256Z" stroke="#999999" stroke-miterlimit="10"/>
<path d="M27.7614 13.2969H25.8818V29.6368H27.7614V13.2969Z" stroke="#999999" stroke-miterlimit="10"/>
<path d="M49.5049 13.2574V9.26123L24.8021 9.26123V13.2574L49.5049 13.2574Z" stroke="#999999" stroke-miterlimit="10"/>
<path d="M31.61 13.2969H29.7305V29.6368H31.61V13.2969Z" stroke="#999999" stroke-miterlimit="10"/>
<path d="M31.6104 33.2778H26.2402V42.1582H31.6104V33.2778Z" stroke="#999999" stroke-miterlimit="10"/>
<path d="M49.2426 42.2471H42.1719V46.4209H49.2426V42.2471Z" stroke="#999999" stroke-miterlimit="10"/>
<path d="M49.2426 29.7256H42.1719V33.2777H49.2426V29.7256Z" stroke="#999999" stroke-miterlimit="10"/>
<path d="M44.5885 13.2969H42.709V29.6368H44.5885V13.2969Z" stroke="#999999" stroke-miterlimit="10"/>
<path d="M48.4372 13.2969H46.5576V29.6368H48.4372V13.2969Z" stroke="#999999" stroke-miterlimit="10"/>
<path d="M48.4366 33.2778H43.0664V42.1582H48.4366V33.2778Z" stroke="#999999" stroke-miterlimit="10"/>
<path d="M22.3916 9.38951L36.9806 0.953125L51.838 9.38951H22.3916Z" stroke="#999999" stroke-miterlimit="10"/>
<path d="M1 13.297L22.3912 9.38965" stroke="#999999" stroke-miterlimit="10"/>
<path d="M73.587 13.1194L51.3008 9.30078" stroke="#999999" stroke-miterlimit="10"/>
<path d="M3.05859 6.90283V12.8527" stroke="#999999" stroke-miterlimit="10"/>
<path d="M71.4395 6.90283V12.8527" stroke="#999999" stroke-miterlimit="10"/>
<path d="M42.7081 24.2197H31.6992V28.8375H42.7081V24.2197Z" stroke="#999999" stroke-miterlimit="10"/>
<path d="M39.4869 43.0462H35.0117V33.9882C35.0117 32.7449 35.9962 31.7681 37.2493 31.7681C38.5023 31.7681 39.4869 32.7449 39.4869 33.9882V43.0462Z" stroke="#999999" stroke-miterlimit="10"/>
<path d="M39.4869 24.1312H35.0117V18.6254C35.0117 17.3821 35.9962 16.4053 37.2493 16.4053C38.5023 16.4053 39.4869 17.3821 39.4869 18.6254V24.1312Z" stroke="#999999" stroke-miterlimit="10"/>
</svg>
