<svg width="53" height="54" viewBox="0 0 53 54" fill="none" xmlns="http://www.w3.org/2000/svg">
<path d="M30.4649 15.4779C29.375 15.3673 28.2577 15.4226 27.1405 15.4779C26.3503 15.5332 25.7508 16.0583 25.5328 16.8321C25.2603 17.8546 25.0696 18.8772 24.8516 19.955C25.0696 19.9827 25.1513 19.9827 25.2331 19.9827C26.541 19.9827 27.8762 19.9827 29.1842 19.955C30.5194 19.8998 31.5549 19.0154 31.8547 17.7165C32.1544 16.5004 31.6639 15.6161 30.4649 15.4779Z" fill="#999999"/>
<path d="M10.2185 0C4.57789 0 0 4.58715 0 10.2392V53.1072H42.7815C48.4221 53.1072 53 48.52 53 42.868V0H10.2185ZM36.1054 43.3049C35.4514 43.5506 34.7429 43.6871 34.0617 43.7417C30.7918 43.9329 27.5219 44.0148 24.2792 44.2605C20.6278 44.5609 17.0036 45.107 13.5429 46.4176C12.6437 46.7725 11.7717 47.2094 10.7907 47.6736C10.927 47.1275 10.9815 46.6087 11.1995 46.1445C11.4992 45.4346 11.8807 44.752 12.2895 44.124C12.9707 43.0591 14.0334 42.5404 15.2324 42.2673C17.6848 41.7212 20.1373 41.3663 22.6442 41.2297C25.6416 41.0932 28.6663 40.984 31.6638 40.9567C33.6802 40.9567 35.6967 41.1205 37.7131 41.2024C37.8221 41.2024 37.9311 41.2297 38.1218 41.257C37.7131 42.24 37.0591 42.9499 36.1054 43.3049ZM35.4787 22.8811C37.7404 23.8368 38.8031 25.6935 38.4761 28.1509C38.1763 30.308 37.3044 32.192 35.8874 33.8848C34.5522 35.4958 32.7537 36.233 30.7645 36.5334C29.3748 36.7245 27.9851 36.8337 26.5681 36.861C22.4535 36.9156 18.3116 36.8883 14.1969 36.8883C14.0334 36.8883 13.8699 36.861 13.6247 36.861C13.7609 36.1238 13.8972 35.4412 14.0334 34.7313C15.2596 28.6151 16.4586 22.4989 17.6848 16.3827C17.9028 15.2359 18.1753 14.0891 18.5296 12.9969C19.2653 10.758 20.9275 9.58387 23.2165 9.36543C24.5517 9.22891 25.9141 9.22891 27.2766 9.22891C29.5111 9.2016 31.7183 9.22891 33.9527 9.25621C35.0427 9.28352 36.1326 9.47465 37.1409 9.91152C38.9393 10.676 39.8658 12.1505 40.1383 13.9799C40.6833 17.666 38.4761 21.1337 34.9337 22.3351C34.7974 22.3897 34.6884 22.417 34.4432 22.4989C34.8519 22.6354 35.1789 22.7446 35.4787 22.8811Z" fill="#999999"/>
<path d="M28.121 26.0345C27.0855 25.9793 26.0228 26.0069 24.9873 26.0069C23.7066 26.0069 23.7066 26.0069 23.4613 27.2506C23.2161 28.4667 22.9981 29.6828 22.7256 30.9541C24.3878 30.9541 25.941 31.0094 27.5215 30.9265C28.4479 30.8988 29.2109 30.4014 29.7559 29.5999C30.3009 28.826 30.4644 27.9968 30.0829 27.0848C29.6742 26.2557 28.9112 26.0898 28.121 26.0345Z" fill="#999999"/>
</svg>
