<svg width="54" height="68" viewBox="0 0 54 68" fill="none" xmlns="http://www.w3.org/2000/svg">
<path d="M12.3691 32.2031V34.5743" stroke="#999999" stroke-miterlimit="10"/>
<path d="M13.7449 38.5868V36.2156C13.7449 35.486 13.1947 34.3916 12.3695 34.3916C11.5443 34.3916 10.9941 35.486 10.9941 36.2156V38.5868" stroke="#999999" stroke-miterlimit="10"/>
<path d="M13.8364 41.8704V38.4048M10.8105 38.4048V41.8704V38.4048Z" stroke="#999999" stroke-miterlimit="10"/>
<path d="M10.8105 41.7793V50.8081" stroke="#999999" stroke-miterlimit="10"/>
<path d="M13.8359 48.0721V41.7793" stroke="#999999" stroke-miterlimit="10"/>
<path d="M25.4808 53.8174C25.3891 53.635 23.4636 50.443 20.3461 48.8926C20.2544 48.8926 20.2544 48.8926 20.1627 48.8926C19.9794 48.9838 15.9449 50.443 13.9277 55.003V55.0942V64.0319" stroke="#999999" stroke-miterlimit="10"/>
<path d="M25.2061 47.1602L20.1631 48.8018" stroke="#999999" stroke-miterlimit="10"/>
<path d="M20.0709 48.8013C20.0709 48.7101 18.8789 47.2509 16.3116 46.7949H16.2199C16.1282 46.7949 10.2599 48.6189 7.87598 56.6446V56.7358" stroke="#999999" stroke-miterlimit="10"/>
<path d="M12.0948 61.0222C12.2782 61.0222 12.3699 60.931 12.3699 60.8398V56.9182C12.3699 56.371 12.1865 55.915 11.9114 55.459L11.6363 55.003C11.5446 54.9118 11.2696 54.9118 11.1779 55.003L10.9028 55.459C10.6277 55.915 10.4443 56.4622 10.4443 56.9182V60.931C10.4443 61.0222 10.536 61.1134 10.7194 61.1134H12.0948V61.0222Z" stroke="#999999" stroke-miterlimit="10"/>
<path d="M20.2549 61.0224C20.4383 61.0224 20.53 60.9312 20.53 60.7488V57.8304C20.53 56.9184 20.1632 56.0064 19.5214 55.1856L18.8795 54.3648C18.7878 54.2736 18.6044 54.2736 18.5127 54.3648L17.8709 55.1856C17.2291 56.0064 16.8623 56.9184 16.8623 57.8304V60.7488C16.8623 60.9312 16.954 61.0224 17.1374 61.0224H20.2549Z" stroke="#999999" stroke-miterlimit="10"/>
<path d="M25.0221 34.0269C20.2542 35.2125 17.2284 38.5869 16.7699 43.5117C16.7699 43.5117 15.4862 44.6973 15.853 46.7949" stroke="#999999" stroke-miterlimit="10"/>
<path d="M19.5207 46.4302V46.1565C19.5207 45.1533 19.2457 44.1501 18.8789 43.2381C18.9706 43.1469 19.0623 43.1469 19.0623 43.0557L19.7041 42.6909L19.7958 41.9613C19.8875 41.2317 20.2543 40.6845 20.8961 40.2285C21.538 40.6845 21.9047 41.2317 21.9964 41.9613L22.0881 42.6909L22.7299 43.0557C22.8216 43.1469 22.9133 43.1469 22.9133 43.2381C22.4549 44.1501 22.2715 45.1533 22.2715 46.1565V46.4302" stroke="#999999" stroke-miterlimit="10"/>
<path d="M28.874 53.8174C28.9657 53.635 30.8912 50.443 34.0087 48.8926C34.1004 48.8926 34.1004 48.8926 34.1921 48.8926C34.3755 48.9838 38.4099 50.443 40.4271 55.003V55.0942V64.0319" stroke="#999999" stroke-miterlimit="10"/>
<path d="M29.1494 47.1602L34.1924 48.8018" stroke="#999999" stroke-miterlimit="10"/>
<path d="M34.2832 48.8013C34.2832 48.7101 35.4752 47.2509 38.0425 46.7949H38.1342C38.2259 46.7949 44.0942 48.6189 46.4781 56.6446V56.7358" stroke="#999999" stroke-miterlimit="10"/>
<path d="M42.1696 61.0222C41.9862 61.0222 41.8945 60.931 41.8945 60.8398V56.9182C41.8945 56.371 42.0779 55.915 42.353 55.459L42.6281 55.003C42.7198 54.9118 42.9948 54.9118 43.0865 55.003L43.3616 55.459C43.6367 55.915 43.82 56.4622 43.82 56.9182V60.931C43.82 61.0222 43.7284 61.1134 43.545 61.1134H42.1696V61.0222Z" stroke="#999999" stroke-miterlimit="10"/>
<path d="M34.0094 61.0224C33.8261 61.0224 33.7344 60.9312 33.7344 60.7488V57.8304C33.7344 56.9184 34.1011 56.0064 34.743 55.1856L35.3848 54.3648C35.4765 54.2736 35.6599 54.2736 35.7516 54.3648L36.3934 55.1856C37.0353 56.0064 37.402 56.9184 37.402 57.8304V60.7488C37.402 60.9312 37.3103 61.0224 37.127 61.0224H34.0094Z" stroke="#999999" stroke-miterlimit="10"/>
<path d="M29.332 34.0269C34.1 35.2125 37.1258 38.5869 37.5842 43.5117C37.5842 43.5117 38.8679 44.6973 38.5012 46.7949" stroke="#999999" stroke-miterlimit="10"/>
<path d="M34.8339 46.4302V46.1565C34.8339 45.1533 35.1089 44.1501 35.4757 43.2381C35.384 43.1469 35.2923 43.1469 35.2923 43.0557L34.6505 42.6909L34.5588 41.9613C34.4671 41.2317 34.1003 40.6845 33.4585 40.2285C32.8167 40.6845 32.4499 41.2317 32.3582 41.9613L32.1748 42.6909L31.533 43.0557C31.4413 43.1469 31.3496 43.1469 31.3496 43.2381C31.8081 44.1501 31.9914 45.1533 31.9914 46.1565V46.4302" stroke="#999999" stroke-miterlimit="10"/>
<path d="M24.1058 64.123H1.5498V67.4975H52.8052V64.123H30.1575" stroke="#999999" stroke-miterlimit="10"/>
<path d="M18.0537 64.123V67.4975H36.3003V64.123H18.0537Z" stroke="#999999" stroke-miterlimit="10"/>
<path d="M25.5732 18.7965V14.5101L26.8569 6.30203C26.8569 6.21083 26.9486 6.11963 27.132 6.11963C27.2237 6.11963 27.4071 6.21083 27.4071 6.30203L28.6908 14.5101V18.7965" stroke="#999999" stroke-miterlimit="10"/>
<path d="M29.3319 23.3566V18.5229M25.0225 18.5229V23.3566V18.5229Z" stroke="#999999" stroke-miterlimit="10"/>
<path d="M25.0225 26.4575V53.9089M29.3319 53.9089V26.4575V53.9089Z" stroke="#999999" stroke-miterlimit="10"/>
<path d="M31.0747 24.7246C31.2581 24.7246 31.3498 24.6334 31.3498 24.451V23.3566C31.3498 23.1742 31.2581 23.083 31.0747 23.083H23.2809C23.0975 23.083 23.0059 23.1742 23.0059 23.3566V24.451C23.0059 24.6334 23.0975 24.7246 23.2809 24.7246H31.0747Z" stroke="#999999" stroke-miterlimit="10"/>
<path d="M23.9229 24.542L25.0231 26.5484C25.0231 26.6396 25.1148 26.6396 25.2065 26.6396H28.9659C29.0576 26.6396 29.1493 26.5484 29.1493 26.5484L30.2496 24.542" stroke="#999999" stroke-miterlimit="10"/>
<path d="M23.9229 64.3968V53.5439H30.4329V64.3968" stroke="#999999" stroke-miterlimit="10"/>
<path d="M27.1318 6.39319V4.02197" stroke="#999999" stroke-miterlimit="10"/>
<path d="M25.9395 3.56604C26.1228 3.74844 26.3979 3.74844 26.673 3.74844C27.4065 3.74844 27.9567 3.20124 27.9567 2.47163C27.9567 1.74203 27.4065 1.19482 26.673 1.19482" stroke="#999999" stroke-miterlimit="10"/>
<path d="M24.4727 14.4189H29.7907" stroke="#999999" stroke-miterlimit="10"/>
<path d="M24.4727 18.6143H29.7907" stroke="#999999" stroke-miterlimit="10"/>
<path d="M47.5791 23.3566V19.0701L48.8628 10.8621C48.8628 10.7709 48.9545 10.6797 49.1378 10.6797C49.2295 10.6797 49.4129 10.7709 49.4129 10.8621L50.6966 19.0701V23.3566" stroke="#999999" stroke-miterlimit="10"/>
<path d="M51.3388 27.9166V23.083H47.0293V27.9166" stroke="#999999" stroke-miterlimit="10"/>
<path d="M47.0293 31.0176V53.4529M51.3388 53.4529V31.0176V53.4529Z" stroke="#999999" stroke-miterlimit="10"/>
<path d="M53.0806 29.2847C53.2639 29.2847 53.3556 29.1935 53.3556 29.0111V27.9167C53.3556 27.7343 53.2639 27.6431 53.0806 27.6431H45.2868C45.1034 27.6431 45.0117 27.7343 45.0117 27.9167V29.0111C45.0117 29.1935 45.1034 29.2847 45.2868 29.2847H53.0806Z" stroke="#999999" stroke-miterlimit="10"/>
<path d="M45.9287 29.1021L47.029 31.1085C47.029 31.1997 47.1207 31.1997 47.2124 31.1997H50.9717C51.0634 31.1997 51.1551 31.1085 51.1551 31.1085L52.2554 29.1021" stroke="#999999" stroke-miterlimit="10"/>
<path d="M49.1377 10.9532V8.58203" stroke="#999999" stroke-miterlimit="10"/>
<path d="M48.2207 8.67297C48.4041 8.85537 48.6792 8.85537 48.9542 8.85537C49.6878 8.85537 50.2379 8.30817 50.2379 7.57857C50.2379 6.84896 49.6878 6.30176 48.9542 6.30176" stroke="#999999" stroke-miterlimit="10"/>
<path d="M46.4785 18.979H51.7966" stroke="#999999" stroke-miterlimit="10"/>
<path d="M51.705 64.0322V53.2705H46.5703V64.0322" stroke="#999999" stroke-miterlimit="10"/>
<path d="M3.56738 23.2655V19.1614L4.85106 10.9534C4.85106 10.8622 4.94275 10.771 5.12613 10.771C5.21783 10.771 5.40121 10.8622 5.40121 10.9534L6.68488 19.1614V23.3567" stroke="#999999" stroke-miterlimit="10"/>
<path d="M7.32609 27.9166V23.083H3.0166V27.9166" stroke="#999999" stroke-miterlimit="10"/>
<path d="M3.0166 31.0176V53.4529M7.32609 53.4529V31.0176V53.4529Z" stroke="#999999" stroke-miterlimit="10"/>
<path d="M9.06883 29.2847C9.25221 29.2847 9.3439 29.1935 9.3439 29.0111V27.9167C9.3439 27.7343 9.25221 27.6431 9.06883 27.6431H1.27507C1.09169 27.6431 1 27.7343 1 27.9167V29.0111C1 29.1935 1.09169 29.2847 1.27507 29.2847H9.06883Z" stroke="#999999" stroke-miterlimit="10"/>
<path d="M1.91699 29.1021L3.01729 31.1085C3.01729 31.1997 3.10898 31.1997 3.20067 31.1997H6.96001C7.0517 31.1997 7.14339 31.1085 7.14339 31.1085L8.24369 29.1021" stroke="#999999" stroke-miterlimit="10"/>
<path d="M2.55859 64.0317V53.27C2.55859 53.27 7.6933 53.1788 7.6933 53.27V64.0317" stroke="#999999" stroke-miterlimit="10"/>
<path d="M5.12598 10.9532V8.58203" stroke="#999999" stroke-miterlimit="10"/>
<path d="M4.20898 8.67297C4.39237 8.85537 4.66744 8.85537 4.94251 8.85537C5.67604 8.85537 6.22619 8.30817 6.22619 7.57857C6.22619 6.84896 5.67604 6.30176 4.94251 6.30176" stroke="#999999" stroke-miterlimit="10"/>
<path d="M11.5439 31.9293C11.7273 32.1117 12.0024 32.1117 12.2775 32.1117C13.011 32.1117 13.5612 31.5645 13.5612 30.8349C13.5612 30.1053 13.011 29.5581 12.2775 29.5581" stroke="#999999" stroke-miterlimit="10"/>
<path d="M2.4668 18.979H7.78489" stroke="#999999" stroke-miterlimit="10"/>
<path d="M9.71094 38.3135H15.1207" stroke="#999999" stroke-miterlimit="10"/>
<path d="M9.71094 41.7793H15.1207" stroke="#999999" stroke-miterlimit="10"/>
<path d="M9.71094 41.688H15.1207" stroke="#999999" stroke-miterlimit="10"/>
<path d="M41.8945 32.2031V34.5743" stroke="#999999" stroke-miterlimit="10"/>
<path d="M40.5186 38.5868V36.2156C40.5186 35.486 41.0687 34.3916 41.8939 34.3916C42.7191 34.3916 43.2693 35.486 43.2693 36.2156V38.5868" stroke="#999999" stroke-miterlimit="10"/>
<path d="M40.4268 41.8704V38.4048M43.4526 38.4048V41.8704V38.4048Z" stroke="#999999" stroke-miterlimit="10"/>
<path d="M43.4531 41.7793V50.8081" stroke="#999999" stroke-miterlimit="10"/>
<path d="M40.4268 48.0721V41.7793" stroke="#999999" stroke-miterlimit="10"/>
<path d="M40.7021 31.9293C40.8855 32.1117 41.1606 32.1117 41.4357 32.1117C42.1692 32.1117 42.7194 31.5645 42.7194 30.8349C42.7194 30.1053 42.1692 29.5581 41.4357 29.5581" stroke="#999999" stroke-miterlimit="10"/>
<path d="M44.4607 38.3135H39.1426" stroke="#999999" stroke-miterlimit="10"/>
<path d="M44.4607 41.7793H39.1426" stroke="#999999" stroke-miterlimit="10"/>
<path d="M44.4607 41.688H39.1426" stroke="#999999" stroke-miterlimit="10"/>
</svg>
