<svg width="22" height="20" viewBox="0 0 22 20" fill="none" xmlns="http://www.w3.org/2000/svg">
<path d="M20.0184 1.95611C18.8391 0.794626 17.268 0.102384 15.6049 0.0113911C13.9417 -0.0796021 12.3029 0.43702 11.0008 1.46274C9.64833 0.395878 7.93354 -0.119195 6.20853 0.0232933C4.48352 0.165781 2.87923 0.955015 1.72511 2.22892C0.570984 3.50283 -0.0453751 5.16471 0.00260491 6.8733C0.0505849 8.58189 0.759262 10.2075 1.98311 11.4163L10.4377 19.7723C10.5863 19.9181 10.7873 20 10.9968 20C11.2063 20 11.4073 19.9181 11.5559 19.7723L20.0184 11.4163C21.2873 10.161 22 8.45981 22 6.6862C22 4.91259 21.2873 3.21144 20.0184 1.95611ZM18.9319 10.3121L11.0008 18.1434L3.06967 10.3121C2.09682 9.35148 1.55028 8.04862 1.55028 6.69012C1.55028 5.33162 2.09682 4.02876 3.06967 3.06815C4.04252 2.10755 5.36198 1.56788 6.7378 1.56788C8.11362 1.56788 9.43309 2.10755 10.4059 3.06815C10.5545 3.21401 10.7555 3.29588 10.9651 3.29588C11.1746 3.29588 11.3756 3.21401 11.5242 3.06815C12.0059 2.58788 12.5787 2.206 13.2099 1.9443C13.8411 1.68261 14.5183 1.54624 15.2028 1.54296C15.8874 1.53969 16.5659 1.66959 17.1996 1.92523C17.8333 2.18088 18.4098 2.55727 18.8962 3.03291C19.3826 3.50855 19.7693 4.07414 20.0344 4.69737C20.2994 5.32059 20.4375 5.98926 20.4408 6.6652C20.4441 7.34113 20.3126 8.01109 20.0537 8.63683C19.7948 9.26256 19.4136 9.83181 18.9319 10.3121Z" fill="currentColor"/>
</svg>
