<svg width="61" height="68" viewBox="0 0 61 68" fill="none" xmlns="http://www.w3.org/2000/svg">
<path d="M17.6429 47.936H25.4107C26.5957 47.0141 27.5173 45.6972 27.5173 44.2486C27.5173 40.8246 21.5926 38.7175 21.5926 36.2153C21.5926 38.8492 15.668 40.4295 15.668 44.2486C15.668 45.6972 16.4579 47.0141 17.6429 47.936Z" stroke="#999999" stroke-miterlimit="10"/>
<path d="M21.5928 36.6104V29.499" stroke="#999999" stroke-miterlimit="10"/>
<path d="M45.1591 44.6435H52.9269C54.1119 43.7216 55.0335 42.4047 55.0335 40.9561C55.0335 37.5321 49.1088 35.425 49.1088 32.9229C49.1088 35.5567 43.1842 37.137 43.1842 40.9561C43.0525 42.4047 43.8425 43.7216 45.1591 44.6435Z" stroke="#999999" stroke-miterlimit="10"/>
<path d="M48.9775 33.3184V26.207" stroke="#999999" stroke-miterlimit="10"/>
<path d="M31.072 8.42821H34.6268C35.1534 8.03313 35.5484 7.37467 35.5484 6.7162C35.5484 5.13589 32.9152 4.21404 32.9152 3.02881C32.9152 4.21404 30.1504 5.0042 30.1504 6.7162C30.1504 7.37467 30.5454 8.03313 31.072 8.42821Z" stroke="#999999" stroke-miterlimit="10"/>
<path d="M32.915 3.16062V0" stroke="#999999" stroke-miterlimit="10"/>
<path d="M31.9938 56.891H38.1818C39.235 56.1009 39.8933 55.0474 39.8933 53.8621C39.8933 51.0966 35.1536 49.3846 35.1536 47.4092C35.1536 49.5163 30.2822 50.8332 30.2822 53.8621C30.2822 55.179 30.9405 56.2326 31.9938 56.891Z" stroke="#999999" stroke-miterlimit="10"/>
<path d="M35.0215 47.8042V42.0098" stroke="#999999" stroke-miterlimit="10"/>
<path d="M12.3763 55.3107H16.4578C17.1161 54.7839 17.511 54.1254 17.511 53.3353C17.511 51.4916 14.3512 50.438 14.3512 49.1211C14.3512 50.438 11.1914 51.3599 11.1914 53.3353C11.3231 54.1254 11.718 54.7839 12.3763 55.3107Z" stroke="#999999" stroke-miterlimit="10"/>
<path d="M2.76386 66.9H7.50358C8.29353 66.3732 8.82017 65.5831 8.82017 64.6612C8.82017 62.5541 5.13372 61.2372 5.13372 59.7886C5.13372 61.3689 1.44727 62.4224 1.44727 64.6612C1.44727 65.5831 1.9739 66.3732 2.76386 66.9Z" stroke="#999999" stroke-miterlimit="10"/>
<path d="M5.13379 59.9201V55.5742" stroke="#999999" stroke-miterlimit="10"/>
<path d="M18.1693 39.7713C16.4577 37.2691 12.5079 35.4254 12.5079 33.3184C12.5079 36.2156 6.05664 37.9276 6.05664 42.1418C6.05664 43.7221 6.97825 45.1707 8.29484 46.2242H15.7994" stroke="#999999" stroke-miterlimit="10"/>
<path d="M12.376 33.7134V26.0752" stroke="#999999" stroke-miterlimit="10"/>
<path d="M45.291 52.2818V47.4092H52.6639V52.2818" stroke="#999999" stroke-miterlimit="10"/>
<path d="M52.663 47.2778H45.2901L44.6318 44.5122H53.7163L52.663 47.2778Z" stroke="#999999" stroke-miterlimit="10"/>
<path d="M55.4288 55.7061H42.3945V58.9984H55.4288V55.7061Z" stroke="#999999" stroke-miterlimit="10"/>
<path d="M54.6383 58.998H43.4473V67.163H54.6383V58.998Z" stroke="#999999" stroke-miterlimit="10"/>
<path d="M32.125 62.5539V56.8911H37.918V62.5539" stroke="#999999" stroke-miterlimit="10"/>
<path d="M18.0371 54.7842V48.0679H25.015V54.7842" stroke="#999999" stroke-miterlimit="10"/>
<path d="M26.8589 58.0762H16.3262V67.163H26.8589V58.0762Z" stroke="#999999" stroke-miterlimit="10"/>
<path d="M12.5077 55.8379V60.0521L8.82129 66.9001" stroke="#999999" stroke-miterlimit="10"/>
<path d="M14.3516 49.3848V45.8291" stroke="#999999" stroke-miterlimit="10"/>
<path d="M13.0345 55.3106H8.16309V46.3555H16.0626" stroke="#999999" stroke-miterlimit="10"/>
<path d="M33.9687 10.6673H31.4672C30.8089 10.6673 30.2822 10.1406 30.2822 9.48211C30.2822 8.82365 30.8089 8.29688 31.4672 8.29688H33.9687C34.627 8.29688 35.1536 8.82365 35.1536 9.48211C35.1536 10.1406 34.627 10.6673 33.9687 10.6673Z" stroke="#999999" stroke-miterlimit="10"/>
<path d="M33.9687 15.9349H31.4672C30.8089 15.9349 30.2822 15.4081 30.2822 14.7497C30.2822 14.0912 30.8089 13.5645 31.4672 13.5645H33.9687C34.627 13.5645 35.1536 14.0912 35.1536 14.7497C35.1536 15.4081 34.627 15.9349 33.9687 15.9349Z" stroke="#999999" stroke-miterlimit="10"/>
<path d="M39.1028 31.6063H25.9369C25.2786 31.6063 24.752 31.0795 24.752 30.4211C24.752 29.7626 25.2786 29.2358 25.9369 29.2358H39.1028C39.7611 29.2358 40.2877 29.7626 40.2877 30.4211C40.2877 31.0795 39.7611 31.6063 39.1028 31.6063Z" stroke="#999999" stroke-miterlimit="10"/>
<path d="M27.5176 42.4053H42.395C43.0533 42.4053 43.58 42.932 43.58 43.5905C43.58 44.249 43.0533 44.7757 42.395 44.7757H27.5176" stroke="#999999" stroke-miterlimit="10"/>
<path d="M34.1 10.667H31.4668V13.5642H34.1V10.667Z" stroke="#999999" stroke-miterlimit="10"/>
<path d="M25.2793 40.4299L26.5959 31.6064H38.8402L40.4201 42.1419H26.9909" stroke="#999999" stroke-miterlimit="10"/>
<path d="M37.9186 29.2359H27.5176L31.4673 15.8032H33.9689L37.9186 29.2359Z" stroke="#999999" stroke-miterlimit="10"/>
<path d="M28.5693 24.7583L32.7824 28.9725L36.8639 24.89" stroke="#999999" stroke-miterlimit="10"/>
<path d="M25.8047 37.1372C25.8047 35.8203 26.858 34.8984 28.0429 34.8984C29.2278 34.8984 30.2811 35.952 30.2811 37.1372" stroke="#999999" stroke-miterlimit="10"/>
<path d="M30.5449 37.1372C30.5449 35.8203 31.5982 34.8984 32.7831 34.8984C33.9681 34.8984 35.0213 35.952 35.0213 37.1372" stroke="#999999" stroke-miterlimit="10"/>
<path d="M28.4375 67.8217C28.4375 64.3977 31.334 61.5005 35.0205 61.5005C38.7069 61.5005 41.6034 64.266 41.6034 67.8217" stroke="#999999" stroke-miterlimit="10"/>
<path d="M35.0205 37.1372C35.0205 35.8203 36.0738 34.8984 37.2587 34.8984C38.4436 34.8984 39.4969 35.952 39.4969 37.1372" stroke="#999999" stroke-miterlimit="10"/>
<path d="M42.3945 55.4426C42.3945 53.4672 43.3161 52.0186 44.6327 52.0186C45.8177 52.0186 46.8709 53.5989 46.8709 55.4426" stroke="#999999" stroke-miterlimit="10"/>
<path d="M47.0029 55.4426C47.0029 53.4672 47.9245 52.0186 49.2411 52.0186C50.4261 52.0186 51.4793 53.5989 51.4793 55.4426" stroke="#999999" stroke-miterlimit="10"/>
<path d="M51.3477 55.4426C51.3477 53.4672 52.2693 52.0186 53.4542 52.0186C54.6391 52.0186 55.5607 53.5989 55.5607 55.4426" stroke="#999999" stroke-miterlimit="10"/>
<path d="M16.1943 57.8133C16.1943 56.2329 16.9843 54.916 17.9059 54.916C18.8275 54.916 19.6175 56.2329 19.6175 57.8133" stroke="#999999" stroke-miterlimit="10"/>
<path d="M19.8809 57.8133C19.8809 56.2329 20.6708 54.916 21.5924 54.916C22.514 54.916 23.304 56.2329 23.304 57.8133" stroke="#999999" stroke-miterlimit="10"/>
<path d="M23.4355 57.8133C23.4355 56.2329 24.2255 54.916 25.1471 54.916C26.0687 54.916 26.8587 56.2329 26.8587 57.8133" stroke="#999999" stroke-miterlimit="10"/>
<path d="M25.8047 40.8246C26.068 39.2443 26.9896 38.0591 28.0429 38.0591C29.3595 38.0591 30.2811 39.6394 30.2811 41.6148" stroke="#999999" stroke-miterlimit="10"/>
<path d="M30.5449 41.7466C30.5449 39.7712 31.5982 38.1909 32.7831 38.1909C33.9681 38.1909 35.0213 39.7712 35.0213 41.7466" stroke="#999999" stroke-miterlimit="10"/>
<path d="M35.0205 41.7466C35.0205 39.7712 36.0738 38.1909 37.2587 38.1909C38.4436 38.1909 39.4969 39.7712 39.4969 41.7466" stroke="#999999" stroke-miterlimit="10"/>
<path d="M43.4473 66.8996L46.2121 58.998L47.9237 66.8996L50.4252 58.998L51.8734 66.8996L53.98 58.998" stroke="#999999" stroke-miterlimit="10" stroke-linejoin="round"/>
<path d="M16.3262 66.8998L19.3543 58.7349L21.5925 66.8998L23.5674 58.7349L26.4639 66.8998" stroke="#999999" stroke-miterlimit="10" stroke-linejoin="round"/>
<path d="M0 67.2949H60.0365" stroke="#999999" stroke-miterlimit="10"/>
<path d="M8.29395 63.4758V55.5742" stroke="#999999" stroke-miterlimit="10"/>
</svg>
