<svg width="26" height="25" viewBox="0 0 26 25" fill="none" xmlns="http://www.w3.org/2000/svg">
<path d="M5.92716 20.8631C4.2881 20.8631 3.34494 18.9996 4.31548 17.6788L5.95064 15.4535C6.45517 14.7668 6.72726 13.937 6.72726 13.085V8.5555C6.72726 4.8658 9.57746 1.95117 13 1.95117C16.4225 1.95117 19.2727 4.8658 19.2727 8.5555V13.085C19.2727 13.937 19.5448 14.7668 20.0494 15.4535L21.6845 17.6788C22.6551 18.9997 21.7119 20.8631 20.0728 20.8631L5.92716 20.8631Z" stroke="#414141" stroke-width="2"/>
<path d="M10 22.9087C10.44 24.1247 11.6105 24.9999 12.9995 24.9999C14.3885 24.9999 15.5591 24.1247 16 22.9087H10Z" fill="#414141"/>
</svg>
