<svg width="24" height="24" viewBox="0 0 24 24" fill="none" xmlns="http://www.w3.org/2000/svg">
<path d="M12 23.9999C18.5714 23.9999 24 18.5714 24 12C24 5.42857 18.5621 0 11.9908 0C5.41934 0 0 5.42857 0 12C0 18.5714 5.42857 23.9999 12 23.9999ZM12 16C8.31335 16 5.51151 17.4193 4.35944 18.9032C2.71889 17.0783 1.72351 14.6636 1.72351 12C1.72351 6.30413 6.28571 1.71428 11.9908 1.71428C17.6865 1.71428 22.2765 6.30413 22.2857 12C22.2857 14.6636 21.2902 17.0875 19.6313 18.9124C18.4976 17.4193 15.6866 16 12 16ZM12 13.9815C14.2857 14 16.0645 12.0461 16.0645 9.49307C16.0645 7.09677 14.2672 5.10598 12 5.10598C9.7327 5.10598 7.91704 7.09677 7.93546 9.49307C7.94468 12.0461 9.71426 13.9631 12 13.9815Z" fill="currentColor"/>
</svg>
