<svg width="15" height="18" viewBox="0 0 15 18" fill="none" xmlns="http://www.w3.org/2000/svg">
<path d="M7.49971 17.6936C7.32567 17.6935 7.15878 17.625 7.03574 17.5031L2.39671 12.9102C1.70528 12.2511 1.15346 11.4621 0.773521 10.5893C0.393579 9.71654 0.19314 8.77747 0.183927 7.82705C0.174713 6.87663 0.356908 5.93392 0.719859 5.05406C1.08281 4.1742 1.61923 3.37485 2.29775 2.70275C2.97628 2.03064 3.78328 1.49928 4.67158 1.13973C5.55987 0.78018 6.51163 0.599659 7.47119 0.608724C8.43075 0.617789 9.37886 0.816258 10.2601 1.19252C11.1413 1.56879 11.9379 2.1153 12.6034 2.8001C13.274 3.46356 13.8061 4.25145 14.1691 5.11873C14.5321 5.986 14.719 6.91565 14.719 7.8545C14.719 8.79336 14.5321 9.72301 14.1691 10.5903C13.8061 11.4576 13.274 12.2455 12.6034 12.9089L7.96499 17.5031C7.90391 17.5636 7.83137 17.6116 7.75152 17.6443C7.67168 17.677 7.5861 17.6937 7.49971 17.6936ZM7.49971 2.0032C6.33188 2.00358 5.19038 2.34686 4.21947 2.98965C3.24857 3.63244 2.49184 4.54589 2.04494 5.61455C1.59804 6.68321 1.48103 7.85911 1.70869 8.99362C1.93635 10.1281 2.49847 11.1703 3.32399 11.9885L7.49971 16.1245L11.6748 11.9892C12.5005 11.1711 13.0628 10.1289 13.2906 8.9943C13.5184 7.85973 13.4015 6.68374 12.9547 5.61498C12.5078 4.54621 11.7511 3.63265 10.7801 2.98978C9.80919 2.3469 8.66761 2.00358 7.49971 2.0032Z" fill="#999999"/>
<path d="M7.5 10.7002C6.85103 10.7002 6.21664 10.5096 5.67704 10.1525C5.13744 9.79536 4.71687 9.28778 4.46852 8.69392C4.22017 8.10006 4.15519 7.44659 4.2818 6.81615C4.40841 6.18571 4.72092 5.60662 5.17981 5.1521C5.6387 4.69758 6.22336 4.38805 6.85986 4.26264C7.49636 4.13724 8.15611 4.2016 8.75568 4.44759C9.35525 4.69357 9.86771 5.11013 10.2283 5.64459C10.5888 6.17905 10.7813 6.80741 10.7813 7.4502C10.7802 8.31183 10.4342 9.13788 9.81905 9.74715C9.20392 10.3564 8.36992 10.6992 7.5 10.7002ZM7.5 5.5002C7.11062 5.5002 6.72998 5.61456 6.40622 5.82883C6.08246 6.0431 5.83012 6.34765 5.68111 6.70396C5.5321 7.06028 5.49312 7.45236 5.56908 7.83062C5.64505 8.20889 5.83255 8.55634 6.10789 8.82905C6.38322 9.10177 6.73402 9.28749 7.11592 9.36273C7.49782 9.43797 7.89367 9.39935 8.25341 9.25176C8.61315 9.10417 8.92063 8.85423 9.13696 8.53356C9.35329 8.21288 9.46875 7.83587 9.46875 7.4502C9.46875 6.93302 9.26133 6.43703 8.89212 6.07134C8.52291 5.70564 8.02215 5.5002 7.5 5.5002Z" fill="#999999"/>
</svg>
