<svg width="72" height="69" viewBox="0 0 72 69" fill="none" xmlns="http://www.w3.org/2000/svg">
<path d="M17.8184 49.7947L35.9936 38.7729L54.4402 49.7947H17.8184Z" stroke="#999999" stroke-miterlimit="10" stroke-linejoin="round"/>
<path d="M38.6173 13.5673H33.7344V8.32741C33.7344 7.06261 34.729 6.06885 35.995 6.06885H36.2663C37.5322 6.06885 38.5269 7.06261 38.5269 8.32741V13.5673H38.6173Z" stroke="#999999" stroke-miterlimit="10"/>
<path d="M45.6279 25.2347V21.9824L26.8197 21.9824V25.2347L45.6279 25.2347Z" stroke="#999999" stroke-miterlimit="10"/>
<path d="M23.7868 52.4146H21.2549V67.5017H23.7868V52.4146Z" stroke="#999999" stroke-miterlimit="10"/>
<path d="M45.5788 52.4146H43.0469V67.5017H45.5788V52.4146Z" stroke="#999999" stroke-miterlimit="10"/>
<path d="M51.0954 52.4146H48.5635V67.5017H51.0954V52.4146Z" stroke="#999999" stroke-miterlimit="10"/>
<path d="M29.2125 52.4146H26.6807V67.5017H29.2125V52.4146Z" stroke="#999999" stroke-miterlimit="10"/>
<path d="M34.7272 52.4146H32.1953V67.5017H34.7272V52.4146Z" stroke="#999999" stroke-miterlimit="10"/>
<path d="M40.153 52.4146H37.6211V67.5017H40.153V52.4146Z" stroke="#999999" stroke-miterlimit="10"/>
<path d="M30.9309 25.4023H28.3086V36.4241H30.9309V25.4023Z" stroke="#999999" stroke-miterlimit="10"/>
<path d="M39.7922 25.4023H37.1699V36.4241H39.7922V25.4023Z" stroke="#999999" stroke-miterlimit="10"/>
<path d="M44.3127 25.4023H41.6904V36.4241H44.3127V25.4023Z" stroke="#999999" stroke-miterlimit="10"/>
<path d="M35.3606 25.4023H32.7383V36.4241H35.3606V25.4023Z" stroke="#999999" stroke-miterlimit="10"/>
<path d="M52.1191 52.3885V49.7686L20.1994 49.7686V52.3885L52.1191 52.3885Z" stroke="#999999" stroke-miterlimit="10"/>
<path d="M28.4893 21.3368C28.4893 17.0907 31.9254 13.5674 36.2657 13.5674C40.6061 13.5674 44.0422 17.0004 44.0422 21.3368" stroke="#999999" stroke-miterlimit="10"/>
<path d="M36.1758 0.73877V5.97863" stroke="#999999" stroke-miterlimit="10"/>
<path d="M5.70215 55.5764L8.867 53.4082L12.2127 55.5764H5.70215Z" stroke="#999999" stroke-miterlimit="10" stroke-linejoin="round"/>
<path d="M24.4082 45.3501V41.2847L1.44043 41.2847V45.3501L24.4082 45.3501Z" stroke="#999999" stroke-miterlimit="10"/>
<path d="M14.1117 45.3677H3.71289V67.5016H14.1117V45.3677Z" stroke="#999999" stroke-miterlimit="10"/>
<path d="M20.6223 34.6172H18V41.1218H20.6223V34.6172Z" stroke="#999999" stroke-miterlimit="10"/>
<path d="M9.86122 62.5328H8.05273V58.4674C8.05273 58.0157 8.41443 57.564 8.95698 57.564C9.4091 57.564 9.86122 57.9253 9.86122 58.4674V62.5328Z" stroke="#999999" stroke-miterlimit="10"/>
<path d="M11.4895 55.7573H6.42578V62.7137H11.4895V55.7573Z" stroke="#999999" stroke-miterlimit="10"/>
<path d="M23.0642 31.9971H15.6494V41.1217H23.0642V31.9971Z" stroke="#999999" stroke-miterlimit="10"/>
<path d="M15.6494 31.6357C15.6494 29.5578 17.2771 27.9316 19.3568 27.9316C21.4366 27.9316 23.0642 29.5578 23.0642 31.6357" stroke="#999999" stroke-miterlimit="10"/>
<path d="M19.3564 23.0532V28.2931" stroke="#999999" stroke-miterlimit="10"/>
<path d="M66.557 55.5764L63.3018 53.4082L59.9561 55.5764H66.557Z" stroke="#999999" stroke-miterlimit="10" stroke-linejoin="round"/>
<path d="M70.7441 45.311V41.2456L47.7764 41.2456V45.311L70.7441 45.311Z" stroke="#999999" stroke-miterlimit="10"/>
<path d="M58.0875 67.4824H68.4863V45.3485H58.0875V67.4824Z" stroke="#999999" stroke-miterlimit="10"/>
<path d="M51.5984 41.041H54.2207V34.5364H51.5984V41.041Z" stroke="#999999" stroke-miterlimit="10"/>
<path d="M60.7097 62.6855H65.7734V55.7292H60.7097V62.6855Z" stroke="#999999" stroke-miterlimit="10"/>
<path d="M49.1565 41.0918H56.5713V31.9672H49.1565V41.0918Z" stroke="#999999" stroke-miterlimit="10"/>
<path d="M56.6101 31.6357C56.6101 29.5578 54.9825 27.9316 52.9027 27.9316C50.823 27.9316 49.1953 29.5578 49.1953 31.6357" stroke="#999999" stroke-miterlimit="10"/>
<path d="M52.9033 23.0532V28.2931" stroke="#999999" stroke-miterlimit="10"/>
<path d="M64.2059 62.7135H62.3975V58.6481C62.3975 58.1963 62.7592 57.7446 63.3017 57.7446C63.7538 57.7446 64.2059 58.106 64.2059 58.6481V62.7135Z" stroke="#999999" stroke-miterlimit="10"/>
<path d="M31.7445 41.2125H24.6914V36.5146H47.84V41.2125H40.2444" stroke="#999999" stroke-miterlimit="10"/>
<path d="M3.80273 49.9756H14.1111" stroke="#999999" stroke-miterlimit="10"/>
<path d="M58.0576 49.9756H68.366" stroke="#999999" stroke-miterlimit="10"/>
<path d="M1 67.502H71.0788" stroke="#999999" stroke-miterlimit="10"/>
</svg>
