<svg width="18" height="18" viewBox="0 0 18 18" fill="none" xmlns="http://www.w3.org/2000/svg">
<path d="M3.1167 2.18971L3.1167 2.18971C4.7498 0.774602 6.83908 -0.00300626 8.99999 8.73464e-06C13.9707 8.73464e-06 18 4.0293 18 9C18 10.9224 17.397 12.7044 16.371 14.166L13.5 9H16.2V8.99941C16.2 5.02296 12.9764 1.79942 8.99999 1.79942C7.1412 1.79942 5.35443 2.51829 4.01357 3.80561L3.11627 2.19011L3.1167 2.18971ZM14.8833 15.8103C13.2502 17.2254 11.1609 18.003 8.99999 18C4.0293 18 0 13.9707 0 9C0 7.0776 0.602999 5.2956 1.629 3.83401L4.5 9H1.8V9.00059C1.8 12.977 5.02354 16.2006 8.99999 16.2006C10.8588 16.2006 12.6456 15.4817 13.9864 14.1944L14.8837 15.8099L14.8833 15.8103Z" fill="#C4C4C4"/>
</svg>
