<svg width="16" height="16" viewBox="0 0 16 16" fill="none" xmlns="http://www.w3.org/2000/svg">
<path d="M6.7141 13.3142C7.93675 13.3142 9.09617 12.9798 10.087 12.3945L13.2701 15.5506C13.5758 15.8537 13.9974 16 14.419 16C15.3254 16 16 15.3103 16 14.4219C16 14.0039 15.8524 13.6068 15.5468 13.2933L12.3952 10.1685C13.0487 9.15481 13.4282 7.94252 13.4282 6.6571C13.4282 2.99935 10.4032 0 6.7141 0C3.02502 0 0 2.99935 0 6.6571C0 10.3148 3.02502 13.3142 6.7141 13.3142ZM6.7141 11.0464C4.27932 11.0464 2.28723 9.07121 2.28723 6.6571C2.28723 4.24299 4.27932 2.2678 6.7141 2.2678C9.14888 2.2678 11.141 4.24299 11.141 6.6571C11.141 9.07121 9.14888 11.0464 6.7141 11.0464Z" fill="currentColor"/>
</svg>
