<svg width="20" height="21" viewBox="0 0 20 21" fill="none" xmlns="http://www.w3.org/2000/svg">
<path d="M8.70272 0.499279L8.93856 0.501141C13.3067 0.598033 16.8493 4.20386 16.8967 8.68948C16.8943 10.6911 16.1602 12.6164 14.8432 14.0943H13.8769L14.7055 14.9435L19.3678 19.7216C19.5328 19.9003 19.5252 20.1838 19.3513 20.353L19.3499 20.3544C19.1735 20.5274 18.8978 20.5285 18.7201 20.3577L13.9882 15.4987L13.6942 15.1968L13.3469 15.4354C11.9764 16.3768 10.3602 16.878 8.70755 16.8751L8.70272 16.8751C4.22478 16.9105 0.549443 13.2562 0.500028 8.6872C0.54944 4.11823 4.22479 0.463915 8.70272 0.499279ZM1.40337 8.69301C1.45044 12.7365 4.70859 15.9935 8.7068 15.9614C12.7036 15.9915 15.9596 12.7351 16.0066 8.69301L15.6737 8.68913L16.0067 8.68719L15.6737 8.68525L16.0066 8.68138C15.9596 4.63927 12.7036 1.38289 8.7068 1.41299C4.70855 1.38084 1.4504 4.63784 1.40337 8.68138L1.62241 8.68393L1.40335 8.68302L1.81926 8.68718H1.40333V8.68719H1.4033L1.40337 8.69301Z" stroke="currentColor"/>
</svg>
