<svg width="77" height="74" viewBox="0 0 77 74" fill="none" xmlns="http://www.w3.org/2000/svg">
<path d="M54.2315 22.3702H24.0543C23.8317 22.3702 23.6183 22.2818 23.461 22.1245C23.3036 21.9671 23.2152 21.7537 23.2152 21.5312C23.2152 21.3087 23.3036 21.0953 23.461 20.9379C23.6183 20.7806 23.8317 20.6922 24.0543 20.6922H54.2315C54.4541 20.6922 54.6675 20.7806 54.8248 20.9379C54.9822 21.0953 55.0706 21.3087 55.0706 21.5312C55.0706 21.7537 54.9822 21.9671 54.8248 22.1245C54.6675 22.2818 54.4541 22.3702 54.2315 22.3702Z" fill="#FF0000" stroke="white" stroke-width="0.2"/>
<path d="M54.2315 32.0051H24.0543C23.8317 32.0051 23.6183 31.9167 23.461 31.7594C23.3036 31.602 23.2152 31.3886 23.2152 31.1661C23.2152 30.9436 23.3036 30.7301 23.461 30.5728C23.6183 30.4154 23.8317 30.3271 24.0543 30.3271H54.2315C54.4541 30.3271 54.6675 30.4154 54.8248 30.5728C54.9822 30.7301 55.0706 30.9436 55.0706 31.1661C55.0706 31.3886 54.9822 31.602 54.8248 31.7594C54.6675 31.9167 54.4541 32.0051 54.2315 32.0051Z" fill="#FF0000" stroke="white" stroke-width="0.2"/>
<path d="M54.2315 40.0349H24.0543C23.8317 40.0349 23.6183 39.9465 23.461 39.7891C23.3036 39.6318 23.2152 39.4184 23.2152 39.1959C23.2152 38.9733 23.3036 38.7599 23.461 38.6026C23.6183 38.4452 23.8317 38.3568 24.0543 38.3568H54.2315C54.4541 38.3568 54.6675 38.4452 54.8248 38.6026C54.9822 38.7599 55.0706 38.9733 55.0706 39.1959C55.0706 39.4184 54.9822 39.6318 54.8248 39.7891C54.6675 39.9465 54.4541 40.0349 54.2315 40.0349Z" fill="#FF0000" stroke="white" stroke-width="0.2"/>
<mask id="path-4-inside-1" fill="white">
<path d="M77 53.1483C77.0001 52.2087 76.7332 51.2884 76.2302 50.4948C75.7273 49.7012 75.0091 49.0671 74.1596 48.6664C73.31 48.2658 72.3641 48.1151 71.4321 48.232C70.5002 48.3488 69.6207 48.7285 68.8962 49.3265C68.1718 49.9246 67.6323 50.7164 67.3408 51.6096C67.0492 52.5028 67.0175 53.4606 67.2495 54.3711C67.4815 55.2816 67.9676 56.1074 68.6509 56.752C69.3343 57.3966 70.1868 57.8335 71.109 58.0117V67.1621H64.1585V11.8968C64.1585 11.6477 64.0596 11.4087 63.8835 11.2325C63.7074 11.0564 63.4685 10.9574 63.2195 10.9574H54.5276V0.93942C54.5276 0.69027 54.4286 0.451325 54.2525 0.275149C54.0764 0.0989742 53.8376 0 53.5886 0H24.6963C24.4473 0 24.2085 0.0989742 24.0324 0.275149C23.8562 0.451325 23.7573 0.69027 23.7573 0.93942V10.9574H15.0646C14.8156 10.9574 14.5767 11.0564 14.4006 11.2325C14.2245 11.4087 14.1256 11.6477 14.1256 11.8968V36.9793L0.526323 43.6353C0.368434 43.7125 0.235398 43.8326 0.142352 43.9818C0.049305 44.131 -1.59463e-05 44.3033 3.86743e-09 44.4792V57.7234C3.86743e-09 59.1905 0.40065 60.8285 1.15813 62.4603C2.12846 64.55 3.57455 66.3542 5.12441 67.4104L14.553 73.837C14.7089 73.9432 14.8931 74 15.0817 74C15.2703 74 15.4545 73.9432 15.6103 73.837L22.6471 69.0409H76.061C76.31 69.0409 76.5489 68.9419 76.725 68.7658C76.9011 68.5896 77 68.3507 77 68.1015C77 67.8523 76.9011 67.6134 76.725 67.4372C76.5489 67.2611 76.31 67.1621 76.061 67.1621H72.9871V58.0117C74.1158 57.7921 75.1332 57.187 75.8652 56.2999C76.5973 55.4127 76.9984 54.2986 77 53.1483ZM25.6354 1.87884H52.6495V10.9574H25.6354V1.87884ZM62.2813 12.8362V67.1621H52.9225V62.6735C52.9225 62.4244 52.8235 62.1854 52.6474 62.0093C52.4713 61.8331 52.2325 61.7341 51.9834 61.7341H47.304V47.4706C47.304 47.2214 47.205 46.9825 47.0289 46.8063C46.8528 46.6301 46.614 46.5312 46.365 46.5312H31.9187C31.6696 46.5312 31.4308 46.6301 31.2547 46.8063C31.0786 46.9825 30.9797 47.2214 30.9797 47.4706V61.7341H29.3249C29.8511 60.4609 30.1355 59.1008 30.1637 57.7234V44.4997C30.1637 44.324 30.1144 44.1519 30.0216 44.0028C29.9287 43.8537 29.7959 43.7336 29.6383 43.6562L16.0036 36.9632V12.8362H62.2813ZM28.4133 63.613H51.0438V67.1621H25.3823C26.5489 66.2786 27.5971 65.0227 28.4133 63.613ZM40.0807 61.6781V48.4105H45.4259V61.7346H32.8577V48.4105H38.2026V61.6781H40.0807ZM15.0814 71.924L6.18191 65.8577C4.90374 64.9867 3.6935 63.4603 2.86152 61.6687C2.22721 60.3031 1.87805 58.9019 1.87805 57.7234V45.0654L15.0812 38.6025L28.2856 45.0845V57.7236C28.2856 60.5431 26.3147 64.2682 23.9817 65.8578L15.0814 71.924ZM68.9742 53.1483C68.9741 52.5401 69.1544 51.9455 69.4921 51.4398C69.8299 50.934 70.3099 50.5398 70.8716 50.3071C71.4333 50.0743 72.0514 50.0134 72.6476 50.132C73.2439 50.2506 73.7917 50.5435 74.2216 50.9736C74.6515 51.4037 74.9443 51.9516 75.0629 52.5481C75.1815 53.1447 75.1206 53.763 74.888 54.3249C74.6553 54.8868 74.2613 55.3671 73.7558 55.7051C73.2503 56.043 72.656 56.2233 72.0481 56.2233C71.2331 56.2224 70.4518 55.8981 69.8756 55.3216C69.2993 54.7452 68.9752 53.9636 68.9742 53.1483Z"/>
</mask>
<path d="M77 53.1483C77.0001 52.2087 76.7332 51.2884 76.2302 50.4948C75.7273 49.7012 75.0091 49.0671 74.1596 48.6664C73.31 48.2658 72.3641 48.1151 71.4321 48.232C70.5002 48.3488 69.6207 48.7285 68.8962 49.3265C68.1718 49.9246 67.6323 50.7164 67.3408 51.6096C67.0492 52.5028 67.0175 53.4606 67.2495 54.3711C67.4815 55.2816 67.9676 56.1074 68.6509 56.752C69.3343 57.3966 70.1868 57.8335 71.109 58.0117V67.1621H64.1585V11.8968C64.1585 11.6477 64.0596 11.4087 63.8835 11.2325C63.7074 11.0564 63.4685 10.9574 63.2195 10.9574H54.5276V0.93942C54.5276 0.69027 54.4286 0.451325 54.2525 0.275149C54.0764 0.0989742 53.8376 0 53.5886 0H24.6963C24.4473 0 24.2085 0.0989742 24.0324 0.275149C23.8562 0.451325 23.7573 0.69027 23.7573 0.93942V10.9574H15.0646C14.8156 10.9574 14.5767 11.0564 14.4006 11.2325C14.2245 11.4087 14.1256 11.6477 14.1256 11.8968V36.9793L0.526323 43.6353C0.368434 43.7125 0.235398 43.8326 0.142352 43.9818C0.049305 44.131 -1.59463e-05 44.3033 3.86743e-09 44.4792V57.7234C3.86743e-09 59.1905 0.40065 60.8285 1.15813 62.4603C2.12846 64.55 3.57455 66.3542 5.12441 67.4104L14.553 73.837C14.7089 73.9432 14.8931 74 15.0817 74C15.2703 74 15.4545 73.9432 15.6103 73.837L22.6471 69.0409H76.061C76.31 69.0409 76.5489 68.9419 76.725 68.7658C76.9011 68.5896 77 68.3507 77 68.1015C77 67.8523 76.9011 67.6134 76.725 67.4372C76.5489 67.2611 76.31 67.1621 76.061 67.1621H72.9871V58.0117C74.1158 57.7921 75.1332 57.187 75.8652 56.2999C76.5973 55.4127 76.9984 54.2986 77 53.1483ZM25.6354 1.87884H52.6495V10.9574H25.6354V1.87884ZM62.2813 12.8362V67.1621H52.9225V62.6735C52.9225 62.4244 52.8235 62.1854 52.6474 62.0093C52.4713 61.8331 52.2325 61.7341 51.9834 61.7341H47.304V47.4706C47.304 47.2214 47.205 46.9825 47.0289 46.8063C46.8528 46.6301 46.614 46.5312 46.365 46.5312H31.9187C31.6696 46.5312 31.4308 46.6301 31.2547 46.8063C31.0786 46.9825 30.9797 47.2214 30.9797 47.4706V61.7341H29.3249C29.8511 60.4609 30.1355 59.1008 30.1637 57.7234V44.4997C30.1637 44.324 30.1144 44.1519 30.0216 44.0028C29.9287 43.8537 29.7959 43.7336 29.6383 43.6562L16.0036 36.9632V12.8362H62.2813ZM28.4133 63.613H51.0438V67.1621H25.3823C26.5489 66.2786 27.5971 65.0227 28.4133 63.613ZM40.0807 61.6781V48.4105H45.4259V61.7346H32.8577V48.4105H38.2026V61.6781H40.0807ZM15.0814 71.924L6.18191 65.8577C4.90374 64.9867 3.6935 63.4603 2.86152 61.6687C2.22721 60.3031 1.87805 58.9019 1.87805 57.7234V45.0654L15.0812 38.6025L28.2856 45.0845V57.7236C28.2856 60.5431 26.3147 64.2682 23.9817 65.8578L15.0814 71.924ZM68.9742 53.1483C68.9741 52.5401 69.1544 51.9455 69.4921 51.4398C69.8299 50.934 70.3099 50.5398 70.8716 50.3071C71.4333 50.0743 72.0514 50.0134 72.6476 50.132C73.2439 50.2506 73.7917 50.5435 74.2216 50.9736C74.6515 51.4037 74.9443 51.9516 75.0629 52.5481C75.1815 53.1447 75.1206 53.763 74.888 54.3249C74.6553 54.8868 74.2613 55.3671 73.7558 55.7051C73.2503 56.043 72.656 56.2233 72.0481 56.2233C71.2331 56.2224 70.4518 55.8981 69.8756 55.3216C69.2993 54.7452 68.9752 53.9636 68.9742 53.1483Z" fill="#FF0000" stroke="white" stroke-width="0.4" mask="url(#path-4-inside-1)"/>
<path d="M13.2998 57.8231L13.3696 57.8912L13.4395 57.8231L20.4512 50.9814H20.4513L20.4804 50.9533C20.6399 50.7993 20.854 50.7147 21.0757 50.7181C21.2973 50.7214 21.5087 50.8125 21.6635 50.9713C21.8184 51.1301 21.9041 51.3437 21.9019 51.5656C21.8998 51.7873 21.81 51.9992 21.6522 52.1549C21.6522 52.155 21.6521 52.1551 21.652 52.1551L13.9559 59.6646L14.0257 59.7362L13.9559 59.6646C13.7992 59.8176 13.5889 59.9031 13.37 59.9031C13.1511 59.9031 12.9409 59.8176 12.7842 59.6646L12.7842 59.6646L8.51203 55.4966C8.51197 55.4966 8.51191 55.4965 8.51185 55.4965C8.35408 55.3407 8.2643 55.1288 8.26215 54.9071C8.25999 54.6852 8.34571 54.4716 8.50054 54.3128C8.65537 54.154 8.86673 54.063 9.08842 54.0596C9.31002 54.0562 9.52396 54.1407 9.68351 54.2947C9.68357 54.2947 9.68364 54.2948 9.6837 54.2948L13.2998 57.8231Z" fill="#FF0000" stroke="white" stroke-width="0.2"/>
</svg>
