<svg width="70" height="70" viewBox="0 0 70 70" fill="none" xmlns="http://www.w3.org/2000/svg">
<mask id="path-1-inside-1" fill="white">
<path fill-rule="evenodd" clip-rule="evenodd" d="M9.9813 39.8642C10.0189 40.4666 9.55862 40.9857 8.95249 41.0231L1.16613 41.5027C0.861456 41.5192 0.566437 41.4146 0.346513 41.2079C0.125517 41.0012 0 40.7128 0 40.4111V29.2834C0 28.9817 0.125517 28.6933 0.346513 28.4866C0.566437 28.28 0.862529 28.171 1.16613 28.1918L8.00414 28.6121C8.68 25.647 9.8472 22.8427 11.4832 20.2525L6.35203 15.7184C6.12567 15.5181 5.99264 15.2335 5.98299 14.9317C5.97441 14.6305 6.09134 14.3389 6.3059 14.1258L14.2124 6.27518C14.4259 6.06155 14.7134 5.93819 15.0224 5.95634C15.3249 5.96596 15.6103 6.09947 15.8109 6.32538L20.3445 11.4326C22.9503 9.8069 25.7654 8.64532 28.7381 7.96974L28.3154 1.16104C28.2972 0.859833 28.4034 0.564499 28.6115 0.344467C28.8185 0.124969 29.1082 0 29.4118 0H40.5882C40.8907 0 41.1804 0.124435 41.3885 0.343933C41.5956 0.563431 41.7028 0.858765 41.6846 1.15944L41.2716 7.97081C44.2282 8.64639 47.0282 9.8053 49.619 11.4246L54.217 6.3195C54.4176 6.09573 54.703 5.96436 55.0044 5.95634C55.3231 5.94193 55.5977 6.06422 55.8112 6.27625L63.6962 14.1269C63.9097 14.3389 64.0256 14.6289 64.0181 14.929C64.0095 15.2287 63.8786 15.5122 63.6544 15.713L58.5436 20.2937C60.1442 22.8502 61.2975 25.6246 61.9819 28.5646L68.8414 28.1913C69.1418 28.1747 69.4368 28.2826 69.6567 28.4893C69.8756 28.696 70 28.9828 70 29.2834V40.4111C70 40.7117 69.8756 40.9985 69.6567 41.2052C69.4518 41.398 69.1815 41.5048 68.9015 41.5048C68.8811 41.5048 68.8617 41.5043 68.8414 41.5032L61.0443 41.0781C60.4382 41.045 59.9747 40.5291 60.008 39.9261C60.0402 39.3227 60.553 38.8586 61.1644 38.8938L67.8029 39.2559V30.4386L61.1644 30.8002C60.612 30.8247 60.1324 30.4541 60.0262 29.9184C59.374 26.6062 58.0866 23.5098 56.2006 20.7145C55.8959 20.2627 55.971 19.656 56.3776 19.2918L61.3243 14.8586L55.0785 8.63945L50.6253 13.5832C50.2595 13.9912 49.6469 14.0655 49.192 13.7589C46.3577 11.8491 43.2348 10.5578 39.9102 9.92012C39.3684 9.81651 38.9887 9.32838 39.0219 8.78044L39.421 2.1875H30.5801L30.9899 8.77884C31.0242 9.32785 30.6434 9.81705 30.0995 9.92065C26.7566 10.5573 23.6155 11.8529 20.764 13.7701C20.3091 14.0762 19.6933 14.0019 19.3264 13.588L14.9376 8.64426L8.68429 14.8537L13.6503 19.2426C14.0622 19.6074 14.1395 20.22 13.8305 20.6744C11.9016 23.506 10.6014 26.6324 9.96414 29.9665C9.86222 30.5075 9.35694 30.891 8.81732 30.8536L2.19709 30.4466V39.2474L8.81732 38.8399C9.43418 38.7955 9.94376 39.2618 9.9813 39.8642ZM25.5091 47.1734L17.7559 51.678C12.9111 53.7272 9.78391 58.4269 9.78391 63.673V68.9062C9.78391 69.5102 10.2752 70 10.8825 70H59.1175C59.7248 70 60.2161 69.5102 60.2161 68.9062V63.673C60.2161 58.4301 57.0942 53.7331 52.2538 51.6823L44.8505 47.1812C44.7892 47.0686 42.03 42.0239 42.0889 42.1378C43.5132 40.5327 44.5775 38.4255 45.1204 36.1111C49.6146 26.2591 46.1439 17.852 39.8866 14.8788C34.5281 12.352 26.8895 13.0638 25.2204 19.79C23.9548 20.7942 21.409 24.3712 24.9389 35.9458C24.9411 35.9576 24.9429 35.9694 24.9457 35.981C25.4978 38.4386 26.6463 40.6613 28.2028 42.3308C28.1965 42.3421 28.1615 42.4047 28.104 42.5076C27.6194 43.3744 25.5357 47.102 25.5091 47.1734ZM40.3404 43.7199C38.7443 44.8709 36.9155 45.4995 35.0547 45.4995C33.2535 45.4995 31.5229 44.9325 29.9708 43.8613L29.6037 44.8283L35.1832 50.1434L40.7549 44.8162L40.3404 43.7199ZM35.1384 64.112L36.0728 62.7683L35.811 57.1308H34.4668L34.2051 62.7688L35.1384 64.112ZM27.6192 47.9945L31.4276 53.2872L33.5517 51.6166L28.472 46.7797L27.6192 47.9945ZM34.3456 54.9433H35.9333L36.12 53.8709L35.182 53.1268L34.1702 53.924L34.3456 54.9433ZM41.8756 46.7749L36.812 51.6177L38.9098 53.2813L42.7349 47.9893L42.6766 47.9062L41.8756 46.7749ZM58.019 63.673C58.019 59.2868 55.3928 55.3593 51.328 53.6679C51.2765 53.646 51.2271 53.6209 51.1788 53.5921L44.3821 49.4601L40.0261 55.5014C40.0118 55.5211 39.993 55.5359 39.9742 55.5507C39.9598 55.562 39.9454 55.5733 39.9329 55.5869C39.5067 56.0595 38.8508 56.0526 38.4362 55.7177L38.0789 55.4303L37.9627 56.095L38.2849 63.0364C38.2956 63.2762 38.228 63.5128 38.0907 63.7098L36.0417 66.6568C35.8368 66.9516 35.4988 67.1278 35.1384 67.1278C34.7779 67.1278 34.44 66.9516 34.2351 66.6562L32.1871 63.7093C32.0498 63.5122 31.9822 63.2762 31.993 63.0364L32.315 56.0977L32.2075 55.4731C32.1898 55.4809 32.158 55.5073 32.1138 55.5439C31.883 55.7351 31.3134 56.2068 30.6434 55.8012C30.5156 55.7249 30.4029 55.6235 30.314 55.5003L25.9597 49.4443L18.8018 53.6033C18.76 53.6274 18.7171 53.6493 18.672 53.6674C14.6072 55.3598 11.981 59.2873 11.981 63.673V67.8125H58.019V63.673ZM40.0475 41.1144C41.4046 39.7728 42.4302 37.8748 42.9526 35.7482V35.7423C42.9526 35.1658 42.9747 34.5464 42.9977 33.9002C43.1185 30.5054 43.2657 26.3694 40.3822 23.8136C38.8556 24.1276 37.1392 24.2862 35.2703 24.2862C32.5883 24.2862 30.3033 23.9626 29.3131 23.797C25.471 27.2192 25.7332 37.0505 30.2303 41.2719L30.2324 41.2737C30.233 41.2743 30.2336 41.2748 30.2342 41.2753C30.2349 41.2758 30.2356 41.2764 30.2362 41.277C31.6618 42.6075 33.3277 43.312 35.0547 43.312C36.8666 43.312 38.5939 42.5521 40.0475 41.1144ZM27.2726 20.6771C27.1997 21.0328 26.9562 21.3292 26.6193 21.4691C26.6195 21.4691 26.6182 21.47 26.6155 21.4719C26.5378 21.527 25.2992 22.4047 25.3148 26.0182C25.9842 24.1647 27.0878 22.7151 28.339 21.7623C28.5911 21.5711 28.9119 21.4974 29.2219 21.5588C29.2253 21.5595 29.2709 21.5683 29.3544 21.5835C29.9396 21.6894 32.3885 22.0987 35.2703 22.0987C37.1907 22.0987 38.92 21.9198 40.4101 21.5673C40.7266 21.4894 41.0645 21.5609 41.3252 21.758C42.9305 22.9602 44.3336 24.9759 45.0124 28.0172C45.1068 26.6938 45.0178 25.357 44.6058 24.1677C42.8132 19.0471 40.9047 17.7862 38.9436 16.8543C37.8912 16.3581 35.913 15.7776 33.8081 15.7776C30.1316 15.7776 27.9335 17.4257 27.2726 20.6771Z"/>
</mask>
<path fill-rule="evenodd" clip-rule="evenodd" d="M9.9813 39.8642C10.0189 40.4666 9.55862 40.9857 8.95249 41.0231L1.16613 41.5027C0.861456 41.5192 0.566437 41.4146 0.346513 41.2079C0.125517 41.0012 0 40.7128 0 40.4111V29.2834C0 28.9817 0.125517 28.6933 0.346513 28.4866C0.566437 28.28 0.862529 28.171 1.16613 28.1918L8.00414 28.6121C8.68 25.647 9.8472 22.8427 11.4832 20.2525L6.35203 15.7184C6.12567 15.5181 5.99264 15.2335 5.98299 14.9317C5.97441 14.6305 6.09134 14.3389 6.3059 14.1258L14.2124 6.27518C14.4259 6.06155 14.7134 5.93819 15.0224 5.95634C15.3249 5.96596 15.6103 6.09947 15.8109 6.32538L20.3445 11.4326C22.9503 9.8069 25.7654 8.64532 28.7381 7.96974L28.3154 1.16104C28.2972 0.859833 28.4034 0.564499 28.6115 0.344467C28.8185 0.124969 29.1082 0 29.4118 0H40.5882C40.8907 0 41.1804 0.124435 41.3885 0.343933C41.5956 0.563431 41.7028 0.858765 41.6846 1.15944L41.2716 7.97081C44.2282 8.64639 47.0282 9.8053 49.619 11.4246L54.217 6.3195C54.4176 6.09573 54.703 5.96436 55.0044 5.95634C55.3231 5.94193 55.5977 6.06422 55.8112 6.27625L63.6962 14.1269C63.9097 14.3389 64.0256 14.6289 64.0181 14.929C64.0095 15.2287 63.8786 15.5122 63.6544 15.713L58.5436 20.2937C60.1442 22.8502 61.2975 25.6246 61.9819 28.5646L68.8414 28.1913C69.1418 28.1747 69.4368 28.2826 69.6567 28.4893C69.8756 28.696 70 28.9828 70 29.2834V40.4111C70 40.7117 69.8756 40.9985 69.6567 41.2052C69.4518 41.398 69.1815 41.5048 68.9015 41.5048C68.8811 41.5048 68.8617 41.5043 68.8414 41.5032L61.0443 41.0781C60.4382 41.045 59.9747 40.5291 60.008 39.9261C60.0402 39.3227 60.553 38.8586 61.1644 38.8938L67.8029 39.2559V30.4386L61.1644 30.8002C60.612 30.8247 60.1324 30.4541 60.0262 29.9184C59.374 26.6062 58.0866 23.5098 56.2006 20.7145C55.8959 20.2627 55.971 19.656 56.3776 19.2918L61.3243 14.8586L55.0785 8.63945L50.6253 13.5832C50.2595 13.9912 49.6469 14.0655 49.192 13.7589C46.3577 11.8491 43.2348 10.5578 39.9102 9.92012C39.3684 9.81651 38.9887 9.32838 39.0219 8.78044L39.421 2.1875H30.5801L30.9899 8.77884C31.0242 9.32785 30.6434 9.81705 30.0995 9.92065C26.7566 10.5573 23.6155 11.8529 20.764 13.7701C20.3091 14.0762 19.6933 14.0019 19.3264 13.588L14.9376 8.64426L8.68429 14.8537L13.6503 19.2426C14.0622 19.6074 14.1395 20.22 13.8305 20.6744C11.9016 23.506 10.6014 26.6324 9.96414 29.9665C9.86222 30.5075 9.35694 30.891 8.81732 30.8536L2.19709 30.4466V39.2474L8.81732 38.8399C9.43418 38.7955 9.94376 39.2618 9.9813 39.8642ZM25.5091 47.1734L17.7559 51.678C12.9111 53.7272 9.78391 58.4269 9.78391 63.673V68.9062C9.78391 69.5102 10.2752 70 10.8825 70H59.1175C59.7248 70 60.2161 69.5102 60.2161 68.9062V63.673C60.2161 58.4301 57.0942 53.7331 52.2538 51.6823L44.8505 47.1812C44.7892 47.0686 42.03 42.0239 42.0889 42.1378C43.5132 40.5327 44.5775 38.4255 45.1204 36.1111C49.6146 26.2591 46.1439 17.852 39.8866 14.8788C34.5281 12.352 26.8895 13.0638 25.2204 19.79C23.9548 20.7942 21.409 24.3712 24.9389 35.9458C24.9411 35.9576 24.9429 35.9694 24.9457 35.981C25.4978 38.4386 26.6463 40.6613 28.2028 42.3308C28.1965 42.3421 28.1615 42.4047 28.104 42.5076C27.6194 43.3744 25.5357 47.102 25.5091 47.1734ZM40.3404 43.7199C38.7443 44.8709 36.9155 45.4995 35.0547 45.4995C33.2535 45.4995 31.5229 44.9325 29.9708 43.8613L29.6037 44.8283L35.1832 50.1434L40.7549 44.8162L40.3404 43.7199ZM35.1384 64.112L36.0728 62.7683L35.811 57.1308H34.4668L34.2051 62.7688L35.1384 64.112ZM27.6192 47.9945L31.4276 53.2872L33.5517 51.6166L28.472 46.7797L27.6192 47.9945ZM34.3456 54.9433H35.9333L36.12 53.8709L35.182 53.1268L34.1702 53.924L34.3456 54.9433ZM41.8756 46.7749L36.812 51.6177L38.9098 53.2813L42.7349 47.9893L42.6766 47.9062L41.8756 46.7749ZM58.019 63.673C58.019 59.2868 55.3928 55.3593 51.328 53.6679C51.2765 53.646 51.2271 53.6209 51.1788 53.5921L44.3821 49.4601L40.0261 55.5014C40.0118 55.5211 39.993 55.5359 39.9742 55.5507C39.9598 55.562 39.9454 55.5733 39.9329 55.5869C39.5067 56.0595 38.8508 56.0526 38.4362 55.7177L38.0789 55.4303L37.9627 56.095L38.2849 63.0364C38.2956 63.2762 38.228 63.5128 38.0907 63.7098L36.0417 66.6568C35.8368 66.9516 35.4988 67.1278 35.1384 67.1278C34.7779 67.1278 34.44 66.9516 34.2351 66.6562L32.1871 63.7093C32.0498 63.5122 31.9822 63.2762 31.993 63.0364L32.315 56.0977L32.2075 55.4731C32.1898 55.4809 32.158 55.5073 32.1138 55.5439C31.883 55.7351 31.3134 56.2068 30.6434 55.8012C30.5156 55.7249 30.4029 55.6235 30.314 55.5003L25.9597 49.4443L18.8018 53.6033C18.76 53.6274 18.7171 53.6493 18.672 53.6674C14.6072 55.3598 11.981 59.2873 11.981 63.673V67.8125H58.019V63.673ZM40.0475 41.1144C41.4046 39.7728 42.4302 37.8748 42.9526 35.7482V35.7423C42.9526 35.1658 42.9747 34.5464 42.9977 33.9002C43.1185 30.5054 43.2657 26.3694 40.3822 23.8136C38.8556 24.1276 37.1392 24.2862 35.2703 24.2862C32.5883 24.2862 30.3033 23.9626 29.3131 23.797C25.471 27.2192 25.7332 37.0505 30.2303 41.2719L30.2324 41.2737C30.233 41.2743 30.2336 41.2748 30.2342 41.2753C30.2349 41.2758 30.2356 41.2764 30.2362 41.277C31.6618 42.6075 33.3277 43.312 35.0547 43.312C36.8666 43.312 38.5939 42.5521 40.0475 41.1144ZM27.2726 20.6771C27.1997 21.0328 26.9562 21.3292 26.6193 21.4691C26.6195 21.4691 26.6182 21.47 26.6155 21.4719C26.5378 21.527 25.2992 22.4047 25.3148 26.0182C25.9842 24.1647 27.0878 22.7151 28.339 21.7623C28.5911 21.5711 28.9119 21.4974 29.2219 21.5588C29.2253 21.5595 29.2709 21.5683 29.3544 21.5835C29.9396 21.6894 32.3885 22.0987 35.2703 22.0987C37.1907 22.0987 38.92 21.9198 40.4101 21.5673C40.7266 21.4894 41.0645 21.5609 41.3252 21.758C42.9305 22.9602 44.3336 24.9759 45.0124 28.0172C45.1068 26.6938 45.0178 25.357 44.6058 24.1677C42.8132 19.0471 40.9047 17.7862 38.9436 16.8543C37.8912 16.3581 35.913 15.7776 33.8081 15.7776C30.1316 15.7776 27.9335 17.4257 27.2726 20.6771Z" fill="#FF0000"/>
<path d="M8.95249 41.0231L8.98323 41.5222L8.98327 41.5222L8.95249 41.0231ZM1.16613 41.5027L1.19326 42.002L1.19687 42.0017L1.16613 41.5027ZM0.346513 41.2079L0.688928 40.8435L0.688041 40.8427L0.346513 41.2079ZM0.346513 28.4866L0.688042 28.8518L0.688927 28.851L0.346513 28.4866ZM1.16613 28.1918L1.13191 28.6907L1.13546 28.6909L1.16613 28.1918ZM8.00414 28.6121L7.97346 29.1112L8.39727 29.1372L8.49163 28.7233L8.00414 28.6121ZM11.4832 20.2525L11.906 20.5195L12.1332 20.1597L11.8143 19.8779L11.4832 20.2525ZM6.35203 15.7184L6.02072 16.0929L6.02095 16.0931L6.35203 15.7184ZM5.98299 14.9317L5.48319 14.946L5.48324 14.9477L5.98299 14.9317ZM6.3059 14.1258L5.9536 13.771L5.95356 13.7711L6.3059 14.1258ZM14.2124 6.27518L14.5647 6.62998L14.5661 6.62862L14.2124 6.27518ZM15.0224 5.95634L14.993 6.45566L15.0065 6.45609L15.0224 5.95634ZM15.8109 6.32538L16.1848 5.99345L16.1847 5.99337L15.8109 6.32538ZM20.3445 11.4326L19.9706 11.7645L20.2509 12.0803L20.6092 11.8568L20.3445 11.4326ZM28.7381 7.96974L28.8489 8.45731L29.2635 8.36309L29.2371 7.93876L28.7381 7.96974ZM28.3154 1.16104L27.8163 1.19126L27.8164 1.19202L28.3154 1.16104ZM28.6115 0.344467L28.9747 0.688054L28.9752 0.687557L28.6115 0.344467ZM41.3885 0.343933L41.7522 0.000842002L41.7513 -9.32463e-05L41.3885 0.343933ZM41.6846 1.15944L41.1855 1.12917L41.1855 1.12918L41.6846 1.15944ZM41.2716 7.97081L40.7725 7.94055L40.7468 8.36379L41.1602 8.45825L41.2716 7.97081ZM49.619 11.4246L49.354 11.8486L49.7098 12.0709L49.9905 11.7592L49.619 11.4246ZM54.217 6.3195L54.5885 6.65413L54.5893 6.65327L54.217 6.3195ZM55.0044 5.95634L55.0177 6.45626L55.0271 6.45583L55.0044 5.95634ZM55.8112 6.27625L56.164 5.92192L56.1635 5.92148L55.8112 6.27625ZM63.6962 14.1269L63.3435 14.4812L63.3439 14.4817L63.6962 14.1269ZM64.0181 14.929L64.5179 14.9434L64.5179 14.9415L64.0181 14.929ZM63.6544 15.713L63.3208 15.3406L63.3207 15.3407L63.6544 15.713ZM58.5436 20.2937L58.2099 19.9213L57.8965 20.2022L58.1198 20.559L58.5436 20.2937ZM61.9819 28.5646L61.4949 28.678L61.5901 29.0867L62.0091 29.0639L61.9819 28.5646ZM68.8414 28.1913L68.8686 28.6906L68.8689 28.6905L68.8414 28.1913ZM69.6567 28.4893L70 28.1258L69.9991 28.1249L69.6567 28.4893ZM69.6567 41.2052L69.9993 41.5694L70 41.5687L69.6567 41.2052ZM68.8414 41.5032L68.8142 42.0025L68.8152 42.0025L68.8414 41.5032ZM61.0443 41.0781L61.017 41.5774L61.0171 41.5774L61.0443 41.0781ZM60.008 39.9261L60.5072 39.9537L60.5073 39.9528L60.008 39.9261ZM61.1644 38.8938L61.1357 39.393L61.1372 39.3931L61.1644 38.8938ZM67.8029 39.2559L67.7757 39.7552L68.3029 39.7839V39.2559H67.8029ZM67.8029 30.4386H68.3029V29.9106L67.7757 29.9394L67.8029 30.4386ZM61.1644 30.8002L61.1867 31.2997L61.1916 31.2994L61.1644 30.8002ZM60.0262 29.9184L59.5356 30.015L59.5358 30.0157L60.0262 29.9184ZM56.2006 20.7145L55.7861 20.994L55.7861 20.9941L56.2006 20.7145ZM56.3776 19.2918L56.7112 19.6642L56.7113 19.6641L56.3776 19.2918ZM61.3243 14.8586L61.658 15.2309L62.0521 14.8777L61.6771 14.5042L61.3243 14.8586ZM55.0785 8.63945L55.4313 8.28514L55.0588 7.91424L54.707 8.30481L55.0785 8.63945ZM50.6253 13.5832L50.2538 13.2486L50.253 13.2494L50.6253 13.5832ZM49.192 13.7589L49.4715 13.3443L49.4714 13.3443L49.192 13.7589ZM39.9102 9.92012L40.0044 9.42907L40.0041 9.42902L39.9102 9.92012ZM39.0219 8.78044L39.521 8.81073L39.521 8.81065L39.0219 8.78044ZM39.421 2.1875L39.9201 2.21771L39.9522 1.6875H39.421V2.1875ZM30.5801 2.1875V1.6875H30.048L30.081 2.21853L30.5801 2.1875ZM30.9899 8.77884L30.4909 8.80987L30.4909 8.81004L30.9899 8.77884ZM30.0995 9.92065L30.193 10.4118L30.193 10.4118L30.0995 9.92065ZM20.764 13.7701L20.485 13.3552L20.4849 13.3553L20.764 13.7701ZM19.3264 13.588L19.7006 13.2564L19.7004 13.2561L19.3264 13.588ZM14.9376 8.64426L15.3115 8.31231L14.9605 7.9169L14.5853 8.28946L14.9376 8.64426ZM8.68429 14.8537L8.33198 14.4989L7.9533 14.875L8.35318 15.2284L8.68429 14.8537ZM13.6503 19.2426L13.9817 18.8683L13.9814 18.868L13.6503 19.2426ZM13.8305 20.6744L14.2437 20.9559L14.244 20.9555L13.8305 20.6744ZM9.96414 29.9665L9.47303 29.8726L9.47278 29.8739L9.96414 29.9665ZM8.81732 30.8536L8.85188 30.3548L8.848 30.3545L8.81732 30.8536ZM2.19709 30.4466L2.22777 29.9476L1.69709 29.9149V30.4466H2.19709ZM2.19709 39.2474H1.69709V39.7791L2.22781 39.7464L2.19709 39.2474ZM8.81732 38.8399L8.84804 39.339L8.85316 39.3386L8.81732 38.8399ZM25.5091 47.1734L25.7603 47.6057L25.9151 47.5157L25.9776 47.3479L25.5091 47.1734ZM17.7559 51.678L17.9506 52.1385L17.9797 52.1262L18.007 52.1104L17.7559 51.678ZM52.2538 51.6823L51.994 52.1095L52.0252 52.1285L52.0587 52.1427L52.2538 51.6823ZM44.8505 47.1812L44.4113 47.4203L44.4757 47.5385L44.5907 47.6084L44.8505 47.1812ZM42.0889 42.1378L41.6449 42.3676L41.9796 43.0143L42.4629 42.4696L42.0889 42.1378ZM45.1204 36.1111L44.6655 35.9036L44.645 35.9487L44.6336 35.9969L45.1204 36.1111ZM39.8866 14.8788L40.1012 14.4272L40.0998 14.4266L39.8866 14.8788ZM25.2204 19.79L25.5312 20.1817L25.6646 20.0758L25.7057 19.9104L25.2204 19.79ZM24.9389 35.9458L25.4303 35.8533L25.4252 35.8263L25.4172 35.8L24.9389 35.9458ZM24.9457 35.981L25.4337 35.8714L25.431 35.8605L24.9457 35.981ZM28.2028 42.3308L28.6396 42.5741L28.8168 42.2561L28.5685 41.9898L28.2028 42.3308ZM28.104 42.5076L27.6676 42.2636L27.6676 42.2636L28.104 42.5076ZM40.3404 43.7199L40.8081 43.5431L40.5774 42.9326L40.048 43.3144L40.3404 43.7199ZM29.9708 43.8613L30.2548 43.4498L29.7298 43.0874L29.5033 43.6838L29.9708 43.8613ZM29.6037 44.8283L29.1362 44.6508L29.0184 44.9613L29.2588 45.1903L29.6037 44.8283ZM35.1832 50.1434L34.8384 50.5055L35.1839 50.8346L35.5288 50.5048L35.1832 50.1434ZM40.7549 44.8162L41.1004 45.1776L41.3396 44.9489L41.2226 44.6394L40.7549 44.8162ZM36.0728 62.7683L36.4833 63.0537L36.5801 62.9145L36.5723 62.7451L36.0728 62.7683ZM35.1384 64.112L34.7278 64.3973L35.1382 64.988L35.5489 64.3974L35.1384 64.112ZM35.811 57.1308L36.3105 57.1076L36.2884 56.6308H35.811V57.1308ZM34.4668 57.1308V56.6308H33.9895L33.9674 57.1076L34.4668 57.1308ZM34.2051 62.7688L33.7056 62.7456L33.6977 62.9149L33.7945 63.0541L34.2051 62.7688ZM31.4276 53.2872L31.0217 53.5792L31.3265 54.0028L31.7367 53.6802L31.4276 53.2872ZM27.6192 47.9945L27.21 47.7072L27.0058 47.9981L27.2134 48.2865L27.6192 47.9945ZM33.5517 51.6166L33.8608 52.0096L34.3147 51.6527L33.8965 51.2545L33.5517 51.6166ZM28.472 46.7797L28.8168 46.4176L28.3964 46.0172L28.0628 46.4924L28.472 46.7797ZM35.9333 54.9433V55.4433H36.3538L36.4259 55.029L35.9333 54.9433ZM34.3456 54.9433L33.8528 55.0281L33.9243 55.4433H34.3456V54.9433ZM36.12 53.8709L36.6126 53.9567L36.6636 53.6639L36.4307 53.4792L36.12 53.8709ZM35.182 53.1268L35.4927 52.7351L35.183 52.4894L34.8725 52.7341L35.182 53.1268ZM34.1702 53.924L33.8607 53.5313L33.627 53.7155L33.6774 54.0088L34.1702 53.924ZM36.812 51.6177L36.4664 51.2564L36.0517 51.6529L36.5013 52.0095L36.812 51.6177ZM41.8756 46.7749L42.2836 46.4859L41.9488 46.013L41.53 46.4135L41.8756 46.7749ZM38.9098 53.2813L38.5991 53.6731L39.0088 53.9979L39.315 53.5742L38.9098 53.2813ZM42.7349 47.9893L43.1401 48.2822L43.3486 47.9937L43.1443 47.7023L42.7349 47.9893ZM42.6766 47.9062L43.086 47.6192L43.0847 47.6173L42.6766 47.9062ZM51.328 53.6679L51.1323 54.1281L51.1359 54.1296L51.328 53.6679ZM51.1788 53.5921L50.9191 54.0194L50.9224 54.0213L51.1788 53.5921ZM44.3821 49.4601L44.6418 49.0329L44.2468 48.7927L43.9765 49.1677L44.3821 49.4601ZM40.0261 55.5014L40.4315 55.7939L40.4316 55.7938L40.0261 55.5014ZM39.9742 55.5507L40.283 55.9439L40.283 55.9439L39.9742 55.5507ZM39.9329 55.5869L39.5644 55.249L39.5616 55.252L39.9329 55.5869ZM38.4362 55.7177L38.7504 55.3287L38.7495 55.328L38.4362 55.7177ZM38.0789 55.4303L38.3923 55.0407L37.7323 54.5099L37.5864 55.3442L38.0789 55.4303ZM37.9627 56.095L37.4702 56.0089L37.4607 56.0631L37.4633 56.1181L37.9627 56.095ZM38.2849 63.0364L38.7844 63.014L38.7844 63.0132L38.2849 63.0364ZM38.0907 63.7098L37.6805 63.424L37.6802 63.4244L38.0907 63.7098ZM36.0417 66.6568L35.6312 66.3713L35.6311 66.3714L36.0417 66.6568ZM34.2351 66.6562L34.6459 66.3712L34.6457 66.3709L34.2351 66.6562ZM32.1871 63.7093L32.5977 63.424L32.5974 63.4234L32.1871 63.7093ZM31.993 63.0364L31.4935 63.0132L31.4935 63.014L31.993 63.0364ZM32.315 56.0977L32.8144 56.1209L32.817 56.0665L32.8077 56.0129L32.315 56.0977ZM32.2075 55.4731L32.7003 55.3883L32.5913 54.7549L32.0042 55.0163L32.2075 55.4731ZM32.1138 55.5439L31.7949 55.1588L31.7948 55.1588L32.1138 55.5439ZM30.6434 55.8012L30.9024 55.3734L30.8997 55.3718L30.6434 55.8012ZM30.314 55.5003L29.9081 55.7922L29.9084 55.7927L30.314 55.5003ZM25.9597 49.4443L26.3657 49.1525L26.1008 48.7841L25.7085 49.012L25.9597 49.4443ZM18.8018 53.6033L19.0509 54.0369L19.053 54.0356L18.8018 53.6033ZM18.672 53.6674L18.4851 53.2036L18.4798 53.2058L18.672 53.6674ZM11.981 67.8125H11.481V68.3125H11.981V67.8125ZM58.019 67.8125V68.3125H58.519V67.8125H58.019ZM42.9526 35.7482L43.4382 35.8675L43.4526 35.8087V35.7482H42.9526ZM40.0475 41.1144L39.696 40.7588L39.6959 40.7589L40.0475 41.1144ZM42.9977 33.9002L42.498 33.8824L42.498 33.8824L42.9977 33.9002ZM40.3822 23.8136L40.7139 23.4394L40.5266 23.2734L40.2815 23.3238L40.3822 23.8136ZM29.3131 23.797L29.3956 23.3039L29.1594 23.2644L28.9805 23.4237L29.3131 23.797ZM30.2303 41.2719L29.8881 41.6365L29.8953 41.6432L29.9026 41.6495L30.2303 41.2719ZM30.2324 41.2737L30.576 40.9105L30.5682 40.9031L30.5602 40.8961L30.2324 41.2737ZM30.2342 41.2753L29.9207 41.6648L29.9219 41.6657L30.2342 41.2753ZM30.2362 41.277L29.8837 41.6316L29.8893 41.6372L29.8951 41.6425L30.2362 41.277ZM26.6193 21.4691L26.4275 21.0073L26.6193 21.9691V21.4691ZM27.2726 20.6771L27.7624 20.7775L27.7626 20.7767L27.2726 20.6771ZM26.6155 21.4719L26.3264 21.064L26.3264 21.064L26.6155 21.4719ZM25.3148 26.0182L24.8148 26.0203L25.7851 26.188L25.3148 26.0182ZM28.339 21.7623L28.0369 21.3639L28.0361 21.3645L28.339 21.7623ZM29.2219 21.5588L29.3196 21.0684L29.3191 21.0683L29.2219 21.5588ZM29.3544 21.5835L29.2652 22.0755L29.2654 22.0755L29.3544 21.5835ZM40.4101 21.5673L40.5252 22.0539L40.5297 22.0528L40.4101 21.5673ZM41.3252 21.758L41.0237 22.1569L41.0255 22.1582L41.3252 21.758ZM45.0124 28.0172L44.5244 28.1261L45.5111 28.0527L45.0124 28.0172ZM44.6058 24.1677L45.0783 24.004L45.0777 24.0025L44.6058 24.1677ZM38.9436 16.8543L39.1582 16.4027L39.1568 16.402L38.9436 16.8543ZM8.98327 41.5222C9.86295 41.4679 10.5352 40.7134 10.4803 39.8331L9.48227 39.8953C9.5025 40.2198 9.25429 40.5035 8.92171 40.5241L8.98327 41.5222ZM1.19687 42.0017L8.98323 41.5222L8.92175 40.524L1.13539 41.0036L1.19687 42.0017ZM0.00410033 41.5722C0.326697 41.8754 0.756454 42.0257 1.19326 42.0019L1.139 41.0034C0.966458 41.0128 0.806177 40.9537 0.688927 40.8435L0.00410033 41.5722ZM-0.5 40.4111C-0.5 40.8519 -0.31665 41.2723 0.00498605 41.5731L0.688041 40.8427C0.567685 40.7301 0.5 40.5738 0.5 40.4111H-0.5ZM-0.5 29.2834V40.4111H0.5V29.2834H-0.5ZM0.00498605 28.1214C-0.31665 28.4223 -0.5 28.8427 -0.5 29.2834H0.5C0.5 29.1207 0.567685 28.9644 0.688041 28.8518L0.00498605 28.1214ZM1.20035 27.693C0.754874 27.6624 0.323115 27.8225 0.00410033 28.1223L0.688927 28.851C0.809758 28.7374 0.970184 28.6796 1.13191 28.6907L1.20035 27.693ZM8.03481 28.1131L1.19681 27.6928L1.13546 28.6909L7.97346 29.1112L8.03481 28.1131ZM11.0605 19.9855C9.39444 22.6232 8.2052 25.4802 7.51664 28.501L8.49163 28.7233C9.1548 25.8139 10.3 23.0622 11.906 20.5195L11.0605 19.9855ZM6.02095 16.0931L11.1521 20.6272L11.8143 19.8779L6.68311 15.3437L6.02095 16.0931ZM5.48324 14.9477C5.49728 15.3863 5.69073 15.8009 6.02072 16.0929L6.68335 15.3439C6.56061 15.2353 6.48801 15.0806 6.48273 14.9157L5.48324 14.9477ZM5.95356 13.7711C5.6415 14.081 5.47065 14.5059 5.48319 14.946L6.48279 14.9175C6.47816 14.7551 6.54118 14.5968 6.65824 14.4806L5.95356 13.7711ZM13.8601 5.92037L5.9536 13.771L6.6582 14.4806L14.5647 6.62998L13.8601 5.92037ZM15.0517 5.45721C14.5862 5.42985 14.1629 5.61737 13.8587 5.92174L14.5661 6.62862C14.6889 6.50574 14.8406 6.44653 14.993 6.45548L15.0517 5.45721ZM16.1847 5.99337C15.8927 5.66448 15.4777 5.47056 15.0383 5.4566L15.0065 6.45609C15.1721 6.46135 15.3279 6.53446 15.437 6.65738L16.1847 5.99337ZM20.7184 11.1006L16.1848 5.99345L15.437 6.65731L19.9706 11.7645L20.7184 11.1006ZM28.6273 7.48217C25.5997 8.17024 22.7327 9.35337 20.0799 11.0084L20.6092 11.8568C23.168 10.2604 25.9311 9.12041 28.8489 8.45731L28.6273 7.48217ZM27.8164 1.19202L28.239 8.00072L29.2371 7.93876L28.8144 1.13006L27.8164 1.19202ZM28.2482 0.000881119C27.9444 0.322109 27.7898 0.753044 27.8163 1.19126L28.8145 1.13082C28.8045 0.966621 28.8623 0.806889 28.9747 0.688053L28.2482 0.000881119ZM29.4118 -0.5C28.971 -0.5 28.5496 -0.318585 28.2478 0.00137708L28.9752 0.687557C29.0875 0.568524 29.2454 0.5 29.4118 0.5V-0.5ZM40.5882 -0.5H29.4118V0.5H40.5882V-0.5ZM41.7513 -9.32463e-05C41.4487 -0.319243 41.0279 -0.5 40.5882 -0.5V0.5C40.7536 0.5 40.912 0.568114 41.0257 0.68796L41.7513 -9.32463e-05ZM42.1837 1.18971C42.2103 0.750871 42.0538 0.320506 41.7522 0.000843142L41.0248 0.687023C41.1374 0.806356 41.1954 0.966659 41.1855 1.12917L42.1837 1.18971ZM41.7707 8.00107L42.1837 1.1897L41.1855 1.12918L40.7725 7.94055L41.7707 8.00107ZM49.884 11.0006C47.2463 9.35199 44.3944 8.17149 41.383 7.48337L41.1602 8.45825C44.062 9.12129 46.8101 10.2586 49.354 11.8486L49.884 11.0006ZM53.8455 5.98488L49.2475 11.0899L49.9905 11.7592L54.5885 6.65413L53.8455 5.98488ZM54.9912 5.45652C54.5532 5.46816 54.1377 5.65892 53.8447 5.98574L54.5893 6.65327C54.6975 6.53254 54.8527 6.46055 55.0177 6.45617L54.9912 5.45652ZM56.1635 5.92148C55.8613 5.62129 55.4543 5.43548 54.9818 5.45686L55.0271 6.45583C55.1919 6.44837 55.3341 6.50716 55.4589 6.63101L56.1635 5.92148ZM64.049 13.7726L56.164 5.92192L55.4584 6.63057L63.3435 14.4812L64.049 13.7726ZM64.5179 14.9415C64.5289 14.5044 64.36 14.0814 64.0486 13.7721L63.3439 14.4817C63.4594 14.5964 63.5223 14.7534 63.5182 14.9165L64.5179 14.9415ZM63.988 16.0855C64.3148 15.7928 64.5054 15.3796 64.5179 14.9434L63.5183 14.9147C63.5136 15.0777 63.4425 15.2316 63.3208 15.3406L63.988 16.0855ZM58.8773 20.666L63.9881 16.0854L63.3207 15.3407L58.2099 19.9213L58.8773 20.666ZM62.4689 28.4512C61.7719 25.4575 60.5974 22.6317 58.9674 20.0283L58.1198 20.559C59.6911 23.0687 60.823 25.7917 61.4949 28.678L62.4689 28.4512ZM68.8142 27.692L61.9547 28.0653L62.0091 29.0639L68.8686 28.6906L68.8142 27.692ZM69.9991 28.1249C69.68 27.825 69.2514 27.6679 68.8139 27.6921L68.8689 28.6905C69.0321 28.6815 69.1936 28.7402 69.3143 28.8537L69.9991 28.1249ZM70.5 29.2834C70.5 28.8442 70.3181 28.4262 70 28.1258L69.3134 28.8528C69.433 28.9657 69.5 29.1214 69.5 29.2834H70.5ZM70.5 40.4111V29.2834H69.5V40.4111H70.5ZM70 41.5687C70.3181 41.2683 70.5 40.8503 70.5 40.4111H69.5C69.5 40.5732 69.433 40.7288 69.3134 40.8417L70 41.5687ZM68.9015 42.0048C69.3087 42.0048 69.7016 41.8495 69.9993 41.5694L69.3141 40.8411C69.202 40.9465 69.0543 41.0048 68.9015 41.0048V42.0048ZM68.8152 42.0025C68.8438 42.004 68.8719 42.0048 68.9015 42.0048V41.0048C68.8903 41.0048 68.8797 41.0045 68.8676 41.0039L68.8152 42.0025ZM61.0171 41.5774L68.8142 42.0025L68.8686 41.004L61.0715 40.5789L61.0171 41.5774ZM59.5087 39.8986C59.4602 40.7791 60.1368 41.5293 61.017 41.5774L61.0716 40.5789C60.7396 40.5607 60.4893 40.2791 60.5072 39.9537L59.5087 39.8986ZM61.1932 38.3946C60.3044 38.3434 59.5556 39.0203 59.5087 39.8995L60.5073 39.9528C60.5247 39.625 60.8015 39.3737 61.1357 39.393L61.1932 38.3946ZM67.8301 38.7566L61.1917 38.3946L61.1372 39.3931L67.7757 39.7552L67.8301 38.7566ZM67.3029 30.4386V39.2559H68.3029V30.4386H67.3029ZM61.1916 31.2994L67.8301 30.9379L67.7757 29.9394L61.1373 30.3009L61.1916 31.2994ZM59.5358 30.0157C59.6911 30.7993 60.3931 31.335 61.1867 31.2997L61.1422 30.3007C60.8308 30.3145 60.5737 30.1089 60.5167 29.8212L59.5358 30.0157ZM55.7861 20.9941C57.6348 23.7341 58.8963 26.7683 59.5356 30.015L60.5168 29.8218C59.8516 26.4442 58.5384 23.2854 56.6151 20.4348L55.7861 20.9941ZM56.044 18.9193C55.4515 19.4501 55.3417 20.3351 55.7861 20.994L56.6152 20.4349C56.4502 20.1902 56.4906 19.8618 56.7112 19.6642L56.044 18.9193ZM60.9906 14.4862L56.0439 18.9194L56.7113 19.6641L61.658 15.2309L60.9906 14.4862ZM54.7257 8.99376L60.9715 15.2129L61.6771 14.5042L55.4313 8.28514L54.7257 8.99376ZM50.9968 13.9179L55.45 8.97409L54.707 8.30481L50.2538 13.2486L50.9968 13.9179ZM48.9126 14.1736C49.5731 14.6187 50.464 14.5121 50.9976 13.917L50.253 13.2494C50.0549 13.4704 49.7207 13.5123 49.4715 13.3443L48.9126 14.1736ZM39.816 10.4112C43.0737 11.036 46.1337 12.3011 48.9126 14.1736L49.4714 13.3443C46.5817 11.3971 43.3959 10.0796 40.0044 9.42907L39.816 10.4112ZM38.5228 8.75015C38.4743 9.55009 39.0286 10.2606 39.8163 10.4112L40.0041 9.42902C39.7082 9.37244 39.503 9.10668 39.521 8.81073L38.5228 8.75015ZM38.9219 2.15729L38.5228 8.75023L39.521 8.81065L39.9201 2.21771L38.9219 2.15729ZM30.5801 2.6875H39.421V1.6875H30.5801V2.6875ZM31.4889 8.74781L31.0791 2.15647L30.081 2.21853L30.4909 8.80987L31.4889 8.74781ZM30.193 10.4118C30.9826 10.2614 31.5391 9.54983 31.4889 8.74764L30.4909 8.81004C30.5094 9.10587 30.3041 9.37268 30.0059 9.42949L30.193 10.4118ZM21.043 14.1851C23.839 12.3051 26.9172 11.0357 30.193 10.4118L30.0059 9.42948C26.596 10.0788 23.3919 11.4007 20.485 13.3552L21.043 14.1851ZM18.9523 13.9197C19.4868 14.5227 20.3822 14.6296 21.0431 14.185L20.4849 13.3553C20.2361 13.5227 19.8999 13.4812 19.7006 13.2564L18.9523 13.9197ZM14.5637 8.9762L18.9525 13.92L19.7004 13.2561L15.3115 8.31231L14.5637 8.9762ZM9.0366 15.2085L15.2899 8.99905L14.5853 8.28946L8.33198 14.4989L9.0366 15.2085ZM13.9814 18.868L9.01541 14.4791L8.35318 15.2284L13.3192 19.6173L13.9814 18.868ZM14.244 20.9555C14.6948 20.2925 14.5815 19.3993 13.9817 18.8683L13.3188 19.617C13.543 19.8154 13.5842 20.1474 13.417 20.3933L14.244 20.9555ZM10.4552 30.0604C11.0795 26.794 12.353 23.7314 14.2437 20.9559L13.4173 20.3929C11.4502 23.2806 10.1232 26.4708 9.47303 29.8726L10.4552 30.0604ZM8.78276 31.3524C9.57342 31.4072 10.3063 30.8511 10.4555 30.0591L9.47278 29.8739C9.41816 30.1639 9.14045 30.3748 8.85188 30.3548L8.78276 31.3524ZM2.16641 30.9457L8.78664 31.3526L8.848 30.3545L2.22777 29.9476L2.16641 30.9457ZM2.69709 39.2474V30.4466H1.69709V39.2474H2.69709ZM8.7866 38.3408L2.16637 38.7483L2.22781 39.7464L8.84804 39.3389L8.7866 38.3408ZM10.4803 39.8331C10.426 38.962 9.68429 38.2763 8.78148 38.3412L8.85316 39.3386C9.18406 39.3148 9.46147 39.5616 9.48227 39.8953L10.4803 39.8331ZM25.2579 46.7411L17.5047 51.2457L18.007 52.1104L25.7603 47.6057L25.2579 46.7411ZM17.5611 51.2175C12.5324 53.3445 9.28391 58.2249 9.28391 63.673H10.2839C10.2839 58.6289 13.2899 54.1099 17.9506 52.1385L17.5611 51.2175ZM9.28391 63.673V68.9062H10.2839V63.673H9.28391ZM9.28391 68.9062C9.28391 69.7883 10.001 70.5 10.8825 70.5V69.5C10.5495 69.5 10.2839 69.2322 10.2839 68.9062H9.28391ZM10.8825 70.5H59.1175V69.5H10.8825V70.5ZM59.1175 70.5C59.999 70.5 60.7161 69.7883 60.7161 68.9062H59.7161C59.7161 69.2322 59.4505 69.5 59.1175 69.5V70.5ZM60.7161 68.9062V63.673H59.7161V68.9062H60.7161ZM60.7161 63.673C60.7161 58.2283 57.4732 53.3506 52.4488 51.2219L52.0587 52.1427C56.7153 54.1156 59.7161 58.6319 59.7161 63.673H60.7161ZM52.5135 51.2551L45.1102 46.754L44.5907 47.6084L51.994 52.1095L52.5135 51.2551ZM45.2896 46.9422C45.2586 46.8852 44.5531 45.5951 43.8632 44.3346C43.5182 43.704 43.1768 43.0805 42.9254 42.6217C42.7997 42.3923 42.6964 42.2039 42.6263 42.0764C42.5914 42.0127 42.5644 41.9638 42.5471 41.9325C42.5386 41.9172 42.5317 41.9047 42.5272 41.8967C42.526 41.8946 42.5246 41.8921 42.5232 41.8896C42.523 41.8892 42.5186 41.8816 42.5133 41.873C42.5113 41.8698 42.5059 41.8614 42.5024 41.8561C42.4947 41.845 42.4554 41.7968 42.4207 41.7627C41.9386 41.6587 41.5883 42.1528 41.6108 42.2854C41.6176 42.3056 41.6286 42.3333 41.632 42.3411C41.6368 42.3517 41.641 42.36 41.6415 42.361C41.6429 42.3638 41.6441 42.3662 41.6449 42.3676L42.533 41.9079C42.5332 41.9085 42.5341 41.9101 42.5352 41.9124C42.5354 41.9127 42.5394 41.9207 42.5441 41.931C42.5474 41.9387 42.5583 41.9663 42.5651 41.9864C42.5877 42.119 42.2373 42.613 41.7553 42.5091C41.7206 42.475 41.6814 42.4268 41.6737 42.4158C41.6703 42.4106 41.6649 42.4024 41.6631 42.3994C41.6567 42.3891 41.6518 42.3801 41.6557 42.3871C41.6582 42.3915 41.6634 42.4009 41.672 42.4164C41.6886 42.4465 41.715 42.4944 41.7499 42.558C41.8197 42.685 41.9228 42.8729 42.0484 43.1022C42.2997 43.5608 42.641 44.1841 42.986 44.8146C43.6763 46.0761 44.381 47.3646 44.4113 47.4203L45.2896 46.9422ZM42.4629 42.4696C43.9475 40.7967 45.0472 38.6126 45.6072 36.2253L44.6336 35.9969C44.1078 38.2385 43.079 40.2688 41.7149 41.8059L42.4629 42.4696ZM45.5753 36.3186C50.1572 26.2744 46.6574 17.5424 40.1012 14.4272L39.672 15.3304C45.6304 18.1616 49.0719 26.2439 44.6655 35.9036L45.5753 36.3186ZM40.0998 14.4266C37.3326 13.1217 33.9648 12.6443 31.0477 13.3797C28.1057 14.1213 25.62 16.1035 24.7351 19.6696L25.7057 19.9104C26.4898 16.7503 28.658 15.0134 31.2922 14.3493C33.9513 13.679 37.082 14.1091 39.6733 15.331L40.0998 14.4266ZM24.9096 19.3983C23.3944 20.6007 20.9126 24.4576 24.4606 36.0917L25.4172 35.8C21.9054 24.2848 24.5153 20.9878 25.5312 20.1817L24.9096 19.3983ZM24.4475 36.0384C24.4475 36.0383 24.4476 36.0389 24.4481 36.0416C24.4485 36.0436 24.4493 36.0485 24.4502 36.0533C24.452 36.0631 24.4553 36.0808 24.4605 36.1015L25.431 35.8605C25.4333 35.8696 25.4343 35.8756 25.4339 35.8737C25.4337 35.8726 25.4336 35.8716 25.4329 35.8677C25.4323 35.8646 25.4314 35.8592 25.4303 35.8533L24.4475 36.0384ZM24.4579 36.0906C25.0278 38.6273 26.215 40.9319 27.8371 42.6717L28.5685 41.9898C27.0776 40.3907 25.9679 38.25 25.4336 35.8714L24.4579 36.0906ZM27.766 42.0874C27.7599 42.0984 27.7253 42.1604 27.6676 42.2636L28.5404 42.7516C28.5977 42.649 28.633 42.5859 28.6396 42.5741L27.766 42.0874ZM27.6676 42.2636C27.4253 42.697 26.7831 43.8459 26.1981 44.8953C25.9056 45.42 25.6272 45.9202 25.4202 46.2939C25.3168 46.4806 25.2308 46.6363 25.1698 46.7479C25.1393 46.8035 25.1145 46.8492 25.0965 46.8826C25.0877 46.8991 25.0797 46.9143 25.0732 46.9268C25.0701 46.9328 25.0663 46.9402 25.0626 46.9478C25.0623 46.9485 25.0507 46.9715 25.0405 46.9989L25.9776 47.3479C25.9654 47.3807 25.9508 47.4068 25.9617 47.3856C25.9648 47.3798 25.97 47.3698 25.978 47.3549C25.9938 47.3255 26.0169 47.2829 26.0469 47.2281C26.1068 47.1188 26.1918 46.9648 26.295 46.7784C26.5013 46.406 26.7792 45.9067 27.0715 45.3822C27.6562 44.3334 28.2981 43.185 28.5404 42.7516L27.6676 42.2636ZM35.0547 45.9995C37.0301 45.9995 38.9597 45.332 40.6329 44.1255L40.048 43.3144C38.5288 44.4098 36.801 44.9995 35.0547 44.9995V45.9995ZM29.6868 44.2728C31.316 45.3972 33.1445 45.9995 35.0547 45.9995V44.9995C33.3624 44.9995 31.7298 44.4678 30.2548 43.4498L29.6868 44.2728ZM30.0711 45.0057L30.4382 44.0388L29.5033 43.6838L29.1362 44.6508L30.0711 45.0057ZM35.5281 49.7814L29.9486 44.4663L29.2588 45.1903L34.8384 50.5055L35.5281 49.7814ZM40.4093 44.4548L34.8377 49.782L35.5288 50.5048L41.1004 45.1776L40.4093 44.4548ZM39.8728 43.8967L40.2872 44.993L41.2226 44.6394L40.8081 43.5431L39.8728 43.8967ZM35.6623 62.4828L34.7279 63.8265L35.5489 64.3974L36.4833 63.0537L35.6623 62.4828ZM35.3116 57.154L35.5733 62.7915L36.5723 62.7451L36.3105 57.1076L35.3116 57.154ZM34.4668 57.6308H35.811V56.6308H34.4668V57.6308ZM34.7045 62.792L34.9663 57.154L33.9674 57.1076L33.7056 62.7456L34.7045 62.792ZM35.549 63.8266L34.6157 62.4835L33.7945 63.0541L34.7278 64.3973L35.549 63.8266ZM31.8334 52.9951L28.0251 47.7025L27.2134 48.2865L31.0217 53.5792L31.8334 52.9951ZM33.2426 51.2236L31.1185 52.8941L31.7367 53.6802L33.8608 52.0096L33.2426 51.2236ZM28.1272 47.1418L33.2069 51.9787L33.8965 51.2545L28.8168 46.4176L28.1272 47.1418ZM28.0285 48.2818L28.8813 47.0669L28.0628 46.4924L27.21 47.7072L28.0285 48.2818ZM35.9333 54.4433H34.3456V55.4433H35.9333V54.4433ZM35.6274 53.7852L35.4407 54.8575L36.4259 55.029L36.6126 53.9567L35.6274 53.7852ZM34.8712 53.5185L35.8093 54.2627L36.4307 53.4792L35.4927 52.7351L34.8712 53.5185ZM34.4796 54.3168L35.4914 53.5195L34.8725 52.7341L33.8607 53.5313L34.4796 54.3168ZM34.8383 54.8585L34.6629 53.8392L33.6774 54.0088L33.8528 55.0281L34.8383 54.8585ZM37.1575 51.979L42.2211 47.1362L41.53 46.4135L36.4664 51.2564L37.1575 51.979ZM39.2205 52.8895L37.1226 51.2259L36.5013 52.0095L38.5991 53.6731L39.2205 52.8895ZM42.3296 47.6964L38.5046 52.9884L39.315 53.5742L43.1401 48.2822L42.3296 47.6964ZM42.2672 48.1932L42.3254 48.2763L43.1443 47.7023L43.086 47.6192L42.2672 48.1932ZM41.4675 47.0638L42.2685 48.1951L43.0847 47.6173L42.2836 46.4859L41.4675 47.0638ZM51.1359 54.1296C55.0152 55.7437 57.519 59.4897 57.519 63.673H58.519C58.519 59.0839 55.7704 54.9749 51.5201 53.2063L51.1359 54.1296ZM50.9224 54.0213C50.9901 54.0618 51.0598 54.0972 51.1323 54.1281L51.5236 53.2078C51.4932 53.1949 51.4641 53.1801 51.4353 53.1629L50.9224 54.0213ZM44.1223 49.8873L50.9191 54.0193L51.4386 53.1649L44.6418 49.0329L44.1223 49.8873ZM40.4316 55.7938L44.7876 49.7525L43.9765 49.1677L39.6205 55.2089L40.4316 55.7938ZM40.283 55.9439C40.2929 55.9361 40.3693 55.8801 40.4315 55.7939L39.6206 55.2088C39.6398 55.1822 39.6577 55.165 39.666 55.1575C39.6701 55.1537 39.6728 55.1516 39.6725 55.1518C39.6718 55.1523 39.6706 55.1533 39.6653 55.1575L40.283 55.9439ZM40.3015 55.9248C40.2898 55.9375 40.2805 55.9456 40.2775 55.9482C40.2759 55.9496 40.2752 55.9501 40.2762 55.9492C40.2775 55.9483 40.2791 55.947 40.283 55.9439L39.6653 55.1575C39.6562 55.1646 39.609 55.2003 39.5644 55.249L40.3015 55.9248ZM38.122 56.1066C38.7279 56.596 39.6872 56.6059 40.3042 55.9217L39.5616 55.252C39.3262 55.5131 38.9737 55.5092 38.7504 55.3287L38.122 56.1066ZM37.7656 55.82L38.1228 56.1073L38.7495 55.328L38.3923 55.0407L37.7656 55.82ZM38.4553 56.1811L38.5715 55.5164L37.5864 55.3442L37.4702 56.0089L38.4553 56.1811ZM38.7844 63.0132L38.4622 56.0718L37.4633 56.1181L37.7854 63.0596L38.7844 63.0132ZM38.501 63.9957C38.7018 63.7074 38.8 63.3623 38.7844 63.014L37.7854 63.0587C37.7913 63.1901 37.7543 63.3181 37.6805 63.424L38.501 63.9957ZM36.4522 66.9422L38.5012 63.9953L37.6802 63.4244L35.6312 66.3713L36.4522 66.9422ZM35.1384 67.6278C35.6618 67.6278 36.1535 67.372 36.4523 66.9421L35.6311 66.3714C35.5201 66.5311 35.3359 66.6278 35.1384 66.6278V67.6278ZM33.8243 66.9412C34.1231 67.3719 34.6149 67.6278 35.1384 67.6278V66.6278C34.941 66.6278 34.7569 66.5312 34.6459 66.3712L33.8243 66.9412ZM31.7765 63.9946L33.8245 66.9416L34.6457 66.3709L32.5977 63.424L31.7765 63.9946ZM31.4935 63.014C31.4779 63.3625 31.5762 63.7071 31.7769 63.9951L32.5974 63.4234C32.5235 63.3174 32.4866 63.1899 32.4925 63.0587L31.4935 63.014ZM31.8155 56.0745L31.4935 63.0132L32.4924 63.0596L32.8144 56.1209L31.8155 56.0745ZM31.7148 55.5578L31.8222 56.1825L32.8077 56.0129L32.7003 55.3883L31.7148 55.5578ZM32.4327 55.929C32.4441 55.9196 32.453 55.9122 32.461 55.9057C32.4689 55.8992 32.4738 55.8953 32.4767 55.893C32.478 55.892 32.4783 55.8919 32.4776 55.8924C32.477 55.8928 32.4747 55.8945 32.471 55.897C32.4674 55.8994 32.461 55.9036 32.4522 55.9087C32.4477 55.9113 32.4421 55.9145 32.4354 55.918C32.4288 55.9214 32.4206 55.9255 32.4109 55.9298L32.0042 55.0163C31.9331 55.0479 31.8768 55.0928 31.8645 55.1024C31.8409 55.1207 31.8147 55.1424 31.7949 55.1588L32.4327 55.929ZM30.3845 56.2289C30.8698 56.5227 31.3406 56.4997 31.7115 56.3672C32.0588 56.2431 32.3195 56.0228 32.4327 55.929L31.7948 55.1588C31.6773 55.2562 31.5378 55.3673 31.375 55.4255C31.236 55.4752 31.087 55.4852 30.9024 55.3734L30.3845 56.2289ZM29.9084 55.7927C30.0387 55.9734 30.2031 56.1206 30.3872 56.2305L30.8997 55.3718C30.8281 55.3291 30.767 55.2736 30.7196 55.2079L29.9084 55.7927ZM25.5538 49.7362L29.9081 55.7922L30.72 55.2084L26.3657 49.1525L25.5538 49.7362ZM19.053 54.0356L26.2109 49.8767L25.7085 49.012L18.5506 53.171L19.053 54.0356ZM18.8589 54.1312C18.9309 54.1021 18.995 54.069 19.0509 54.0369L18.5528 53.1698C18.525 53.1857 18.5032 53.1964 18.4851 53.2037L18.8589 54.1312ZM12.481 63.673C12.481 59.4902 14.9848 55.7442 18.8642 54.129L18.4798 53.2058C14.2296 54.9755 11.481 59.0844 11.481 63.673H12.481ZM12.481 67.8125V63.673H11.481V67.8125H12.481ZM58.019 67.3125H11.981V68.3125H58.019V67.3125ZM57.519 63.673V67.8125H58.519V63.673H57.519ZM42.4671 35.6289C41.9632 37.6798 40.9779 39.4915 39.696 40.7588L40.399 41.47C41.8313 40.0541 42.8972 38.0697 43.4382 35.8675L42.4671 35.6289ZM42.4526 35.7423V35.7482H43.4526V35.7423H42.4526ZM42.498 33.8824C42.4751 34.5266 42.4526 35.1552 42.4526 35.7423H43.4526C43.4526 35.1763 43.4743 34.5662 43.4974 33.9179L42.498 33.8824ZM40.0506 24.1878C41.3805 25.3666 42.0276 26.92 42.3239 28.6277C42.6221 30.3456 42.5587 32.1757 42.498 33.8824L43.4974 33.9179C43.5575 32.2299 43.6281 30.2945 43.3092 28.4568C42.9885 26.6088 42.2674 24.8164 40.7139 23.4394L40.0506 24.1878ZM35.2703 24.7862C37.1665 24.7862 38.9174 24.6254 40.483 24.3033L40.2815 23.3238C38.7938 23.6299 37.1118 23.7862 35.2703 23.7862V24.7862ZM29.2306 24.2902C30.2369 24.4584 32.5513 24.7862 35.2703 24.7862V23.7862C32.6254 23.7862 30.3697 23.4667 29.3956 23.3039L29.2306 24.2902ZM30.5725 40.9074C28.4512 38.9161 27.2881 35.5476 27.144 32.2132C26.9994 28.8636 27.8883 25.7356 29.6457 24.1704L28.9805 23.4237C26.8957 25.2806 25.9948 28.7793 26.145 32.2563C26.2958 35.7484 27.5123 39.4063 29.8881 41.6365L30.5725 40.9074ZM30.5602 40.8961L30.5581 40.8943L29.9026 41.6495L29.9047 41.6513L30.5602 40.8961ZM30.5478 40.8858C30.546 40.8844 30.5499 40.8875 30.554 40.8909C30.5588 40.8949 30.5667 40.9016 30.576 40.9105L29.8889 41.637C29.8988 41.6464 29.9073 41.6536 29.9127 41.6582C29.9173 41.6621 29.9219 41.6657 29.9207 41.6647L30.5478 40.8858ZM30.5887 40.9224C30.5763 40.91 30.5655 40.9005 30.5583 40.8945C30.5547 40.8914 30.5517 40.889 30.5498 40.8874C30.5488 40.8866 30.548 40.886 30.5475 40.8856C30.547 40.8852 30.5466 40.8849 30.5466 40.8848L29.9219 41.6657C29.9231 41.6667 29.9181 41.6627 29.9122 41.6578C29.9057 41.6522 29.8955 41.6433 29.8837 41.6316L30.5887 40.9224ZM35.0547 42.812C33.4712 42.812 31.9235 42.1678 30.5774 40.9115L29.8951 41.6425C31.4001 43.0473 33.1842 43.812 35.0547 43.812V42.812ZM39.6959 40.7589C38.3229 42.1169 36.7177 42.812 35.0547 42.812V43.812C37.0155 43.812 38.8649 42.9873 40.3991 41.4699L39.6959 40.7589ZM26.8111 21.9308C27.3014 21.7272 27.6563 21.2952 27.7624 20.7775L26.7828 20.5766C26.7431 20.7703 26.6109 20.9311 26.4275 21.0073L26.8111 21.9308ZM26.9046 21.8799C26.9051 21.8795 26.9064 21.8786 26.9077 21.8777C26.9087 21.877 26.9119 21.8747 26.9157 21.8719C26.9176 21.8704 26.9211 21.8679 26.9253 21.8646C26.9286 21.862 26.9372 21.8553 26.9476 21.8462C26.9529 21.8417 26.9622 21.8334 26.9732 21.8224C26.981 21.8145 27.0055 21.7898 27.0308 21.7532C27.0431 21.7353 27.0672 21.6983 27.0869 21.6464C27.1041 21.6008 27.1393 21.4888 27.1047 21.3489C27.063 21.1805 26.946 21.07 26.8314 21.0163C26.7368 20.972 26.6533 20.9691 26.6193 20.9691V21.9691C26.5853 21.9691 26.5018 21.9662 26.4073 21.9219C26.2926 21.8682 26.1757 21.7577 26.134 21.5892C26.0994 21.4494 26.1345 21.3374 26.1518 21.2918C26.1715 21.24 26.1955 21.2029 26.2079 21.185C26.2331 21.1485 26.2576 21.1238 26.2654 21.116C26.2763 21.105 26.2856 21.0968 26.2907 21.0923C26.301 21.0833 26.3095 21.0767 26.3126 21.0743C26.3165 21.0712 26.3197 21.0689 26.3213 21.0677C26.3258 21.0644 26.33 21.0615 26.3264 21.064L26.9046 21.8799ZM25.8148 26.016C25.8073 24.2657 26.1037 23.2193 26.383 22.6226C26.5227 22.3244 26.6593 22.1355 26.7554 22.0246C26.8035 21.9689 26.8422 21.932 26.867 21.9102C26.8907 21.8894 26.9034 21.8807 26.9046 21.8799L26.3264 21.064C26.2271 21.1344 25.8364 21.4318 25.4774 22.1986C25.1219 22.958 24.8068 24.1572 24.8148 26.0203L25.8148 26.016ZM28.0361 21.3645C26.7046 22.3785 25.545 23.909 24.8445 25.8483L25.7851 26.188C26.4235 24.4205 27.4711 23.0517 28.6419 22.1601L28.0361 21.3645ZM29.3191 21.0683C28.8691 20.9792 28.403 21.0862 28.0369 21.3639L28.6411 22.1607C28.7792 22.0559 28.9546 22.0156 29.1248 22.0493L29.3191 21.0683ZM29.4436 21.0915C29.3617 21.0767 29.3192 21.0683 29.3196 21.0684L29.1242 22.0492C29.1314 22.0506 29.18 22.06 29.2652 22.0755L29.4436 21.0915ZM35.2703 21.5987C32.4306 21.5987 30.0143 21.1948 29.4434 21.0915L29.2654 22.0755C29.8648 22.184 32.3465 22.5987 35.2703 22.5987V21.5987ZM40.295 21.0808C38.8507 21.4224 37.1612 21.5987 35.2703 21.5987V22.5987C37.2201 22.5987 38.9893 22.4172 40.5252 22.0539L40.295 21.0808ZM41.6267 21.3591C41.2479 21.0728 40.7557 20.9673 40.2905 21.0819L40.5297 22.0528C40.6975 22.0115 40.8811 22.0491 41.0237 22.1569L41.6267 21.3591ZM45.5004 27.9082C44.7992 24.7664 43.338 22.6408 41.6249 21.3578L41.0255 22.1582C42.523 23.2797 43.868 25.1853 44.5244 28.1261L45.5004 27.9082ZM44.1334 24.3313C44.5159 25.4357 44.6052 26.6992 44.5137 27.9816L45.5111 28.0527C45.6085 26.6883 45.5197 25.2783 45.0783 24.004L44.1334 24.3313ZM38.729 17.3059C39.6807 17.7581 40.5801 18.2712 41.4631 19.2712C42.3527 20.2788 43.2507 21.81 44.1339 24.3329L45.0777 24.0025C44.1683 21.4048 43.2157 19.7453 42.2127 18.6093C41.2029 17.4657 40.1676 16.8824 39.1582 16.4027L38.729 17.3059ZM33.8081 16.2776C35.8335 16.2776 37.7392 16.8393 38.7304 17.3065L39.1568 16.402C38.0431 15.877 35.9924 15.2776 33.8081 15.2776V16.2776ZM27.7626 20.7767C28.0741 19.2444 28.7355 18.1383 29.7094 17.4082C30.6892 16.6736 32.0413 16.2776 33.8081 16.2776V15.2776C31.8984 15.2776 30.3132 15.7057 29.1096 16.608C27.9001 17.5148 27.1321 18.8584 26.7827 20.5775L27.7626 20.7767Z" fill="white" mask="url(#path-1-inside-1)"/>
</svg>
