<svg width="70" height="59" viewBox="0 0 70 59" fill="none" xmlns="http://www.w3.org/2000/svg">
<mask id="path-1-inside-1" fill="white">
<path d="M53.5771 31.9559C51.096 31.9559 48.7613 32.1857 46.6719 32.5956V26.3055V19.9141V13.5213V7.12999C46.6719 3.13169 39.4568 0 30.2459 0C21.0328 0 13.8163 3.13169 13.8163 7.12999V13.5213V19.9141V26.3055V32.6998V37.4308C5.88795 37.9597 0 40.8652 0 44.4812V50.8755C0 54.8767 7.21652 58.0107 16.4289 58.0107C24.3104 58.0107 30.7267 55.7151 32.4164 52.5462C34.0964 52.4539 35.6888 52.2553 37.1593 51.9675C37.2834 55.9189 44.4479 59 53.5785 59C62.7872 59 70 55.8646 70 51.8633V45.4824V39.0911C69.9978 35.0898 62.785 31.9559 53.5771 31.9559ZM32.8548 44.4812C32.8548 42.6795 31.3902 41.0564 28.9434 39.8134C29.0065 39.8156 29.0712 39.8164 29.1343 39.8178C29.5014 39.8283 29.8715 39.8349 30.2452 39.8349C32.727 39.8349 35.0617 39.6051 37.1519 39.1952V44.0348C35.7802 44.319 34.3231 44.5243 32.8548 44.6374V44.4812ZM38.638 42.103C41.2075 44.5578 46.8591 46.2255 53.5763 46.2255C60.292 46.2255 65.9422 44.5578 68.5117 42.1037V45.4817C68.5117 48.803 60.6405 51.1187 53.5763 51.1187C46.5106 51.1187 38.638 48.803 38.638 45.4817V42.103ZM53.5771 33.4436C62.5108 33.4436 68.5124 36.3641 68.5124 39.0911C68.5124 42.4184 60.6413 44.7385 53.5771 44.7385C46.5114 44.7385 38.6387 42.4184 38.6387 39.0911C38.638 36.3633 44.6404 33.4436 53.5771 33.4436ZM30.2452 1.48699C37.3116 1.48699 45.185 3.80415 45.185 7.12924C45.185 9.85701 39.1819 12.7767 30.2452 12.7767C21.3063 12.7767 15.3017 9.85701 15.3017 7.12924C15.3017 3.80415 23.1773 1.48699 30.2452 1.48699ZM15.3017 10.1412C16.8465 11.617 19.5118 12.805 22.8466 13.5206C25.0594 13.9952 27.565 14.2644 30.2452 14.2644C32.9247 14.2644 35.4295 13.9952 37.6423 13.5206C40.9764 12.805 43.6402 11.617 45.185 10.1419V13.5206C45.185 16.2483 39.1819 19.1695 30.2452 19.1695C21.3063 19.1695 15.3017 16.2483 15.3017 13.5206V10.1412ZM15.3017 16.5332L15.3024 16.534C15.6212 16.8382 15.9868 17.1298 16.3962 17.408C16.4021 17.4125 16.4081 17.4162 16.414 17.4207C16.8197 17.6952 17.2678 17.9563 17.7545 18.2017C17.7694 18.2092 17.7835 18.2166 17.7983 18.2241C18.2806 18.4658 18.8 18.6927 19.3535 18.9032C19.3795 18.9129 19.4063 18.9225 19.4331 18.933C19.9814 19.139 20.5625 19.3294 21.1733 19.5028C21.2127 19.5139 21.252 19.5243 21.2922 19.5355C21.5686 19.6121 21.8502 19.6858 22.1385 19.7549C22.1719 19.7631 22.2039 19.7713 22.2381 19.7795C22.5502 19.8539 22.8689 19.9238 23.1944 19.9893C23.2442 19.9997 23.2954 20.0086 23.3452 20.019C23.6254 20.0741 23.9107 20.1254 24.1997 20.1737C24.2629 20.1849 24.3253 20.1953 24.3885 20.2057C24.7191 20.2593 25.055 20.3084 25.396 20.3523C25.4466 20.359 25.4986 20.3649 25.5499 20.3709C25.8448 20.4081 26.1436 20.4408 26.4452 20.4713C26.5292 20.4795 26.6124 20.4877 26.6971 20.4958C27.0456 20.5278 27.3978 20.5568 27.7552 20.5791C27.7931 20.5814 27.8318 20.5829 27.8697 20.5851C28.1922 20.6044 28.5184 20.6193 28.8468 20.6312C28.9426 20.6342 29.0385 20.6379 29.1343 20.6409C29.5014 20.6513 29.8715 20.658 30.2452 20.658C30.619 20.658 30.9883 20.6506 31.3561 20.6409C31.4519 20.6387 31.5478 20.6349 31.6429 20.632C31.9721 20.6208 32.299 20.6052 32.6215 20.5858C32.6594 20.5836 32.6973 20.5821 32.7344 20.5799C33.0926 20.5576 33.4448 20.5286 33.794 20.4966C33.8772 20.4891 33.9605 20.481 34.0429 20.472C34.3446 20.4415 34.6433 20.4088 34.9376 20.3724C34.9896 20.3657 35.0416 20.3597 35.0929 20.3538C35.4339 20.3091 35.7705 20.26 36.1012 20.2065C36.1629 20.1968 36.2238 20.1856 36.2847 20.1752C36.5775 20.1269 36.8643 20.0741 37.1474 20.019C37.1957 20.0093 37.244 20.0012 37.2916 19.9907C37.6178 19.9253 37.9373 19.8546 38.2509 19.7802C38.2828 19.7728 38.314 19.7646 38.346 19.7572C38.6365 19.6872 38.9196 19.6129 39.1982 19.5355C39.2361 19.5251 39.274 19.5147 39.3112 19.5043C39.9227 19.3309 40.5038 19.1405 41.0544 18.9337C41.0797 18.924 41.1057 18.9144 41.1317 18.9047C41.686 18.6934 42.2054 18.4673 42.6876 18.2248C42.7025 18.2174 42.7166 18.2099 42.7315 18.2032C43.2189 17.957 43.667 17.6959 44.0727 17.4214C44.0786 17.4177 44.0846 17.4132 44.0898 17.4095C44.4992 17.1313 44.8648 16.839 45.1843 16.5355C45.1843 16.5355 45.1843 16.5347 45.185 16.5347V19.9141C45.185 23.2422 37.3109 25.5616 30.2452 25.5616C21.3063 25.5616 15.3017 22.6419 15.3017 19.9141V16.5332ZM15.3017 22.9253C15.6212 23.231 15.989 23.5241 16.4007 23.8031C16.4044 23.8053 16.4081 23.8083 16.4118 23.8105C16.819 24.0857 17.2685 24.3476 17.7575 24.5946C17.7708 24.6012 17.7842 24.6079 17.7976 24.6146C18.2806 24.8571 18.8022 25.0848 19.3573 25.296C19.3818 25.3057 19.4063 25.3146 19.4316 25.3243C19.9814 25.5311 20.564 25.7215 21.1763 25.8948C21.2141 25.906 21.2535 25.9164 21.2922 25.9268C21.5693 26.0042 21.8517 26.0778 22.1415 26.147C22.1742 26.1552 22.2061 26.1634 22.2396 26.1708C22.5524 26.2452 22.8719 26.3151 23.1974 26.3806C23.2456 26.3903 23.2954 26.3992 23.3445 26.4096C23.6261 26.4646 23.9122 26.5167 24.2027 26.5651C24.2651 26.5755 24.3268 26.5866 24.39 26.5963C24.7206 26.6499 25.0565 26.699 25.3975 26.7428C25.4488 26.7495 25.5008 26.7555 25.5521 26.7614C25.8463 26.7979 26.1443 26.8314 26.446 26.8611C26.5299 26.8693 26.6139 26.8775 26.6979 26.8857C27.0464 26.9177 27.3978 26.9467 27.7545 26.969C27.7946 26.9712 27.8362 26.9727 27.8771 26.9757C28.1974 26.995 28.5213 27.0099 28.8483 27.0211C28.9441 27.024 29.04 27.0278 29.1358 27.0307C29.5029 27.0411 29.8729 27.0478 30.2467 27.0478C30.6204 27.0478 30.9897 27.0404 31.3576 27.0307C31.4534 27.0285 31.5493 27.0248 31.6451 27.0218C31.9721 27.0106 32.296 26.9958 32.617 26.9764C32.6572 26.9742 32.698 26.9727 32.7381 26.9697C33.0948 26.9474 33.447 26.9184 33.7955 26.8864C33.8787 26.879 33.962 26.8708 34.0452 26.8619C34.3461 26.8321 34.6448 26.7994 34.9391 26.7622C34.9911 26.7555 35.0438 26.7503 35.0959 26.7436C35.4362 26.6997 35.7705 26.6506 36.1012 26.597C36.1658 26.5866 36.2297 26.5755 36.2937 26.5651C36.5827 26.5167 36.8665 26.4654 37.1452 26.4103C37.1957 26.4007 37.247 26.3917 37.2975 26.3813C37.6215 26.3159 37.9388 26.2459 38.2494 26.1723C38.2865 26.1634 38.3222 26.1544 38.3586 26.1455C38.6424 26.0771 38.9196 26.0049 39.1916 25.9291C39.2347 25.9172 39.277 25.906 39.3201 25.8941C39.9264 25.7223 40.5045 25.5326 41.0499 25.328C41.0804 25.3169 41.1094 25.3057 41.1398 25.2945C41.689 25.0855 42.2054 24.8601 42.6839 24.6198C42.7025 24.6102 42.7203 24.6012 42.7389 24.5923C43.2219 24.3476 43.6677 24.0887 44.0712 23.8157C44.0786 23.8105 44.0868 23.8046 44.0942 23.7994C44.5022 23.5219 44.867 23.231 45.1843 22.9283C45.185 22.9275 45.1858 22.9275 45.1865 22.9268V26.3055C45.1858 27.7575 43.3638 29.2965 40.298 30.4019C37.8236 31.2559 34.6998 31.8004 31.6199 31.9269C31.1688 31.9432 30.7133 31.9559 30.2459 31.9559C29.5831 31.9559 28.9137 31.9358 28.2442 31.8956C27.435 31.848 26.6258 31.7714 25.8292 31.6688C20.2549 30.9517 15.3024 28.9454 15.3024 26.3047L15.3017 22.9253ZM15.3017 29.3189C15.3024 29.3196 15.3032 29.3204 15.3039 29.3211C15.6212 29.6239 15.9853 29.9147 16.3932 30.1922C16.4014 30.1974 16.4096 30.2033 16.4177 30.2085C16.8212 30.4808 17.2671 30.7411 17.7508 30.9859C17.7686 30.9948 17.7864 31.003 17.8043 31.0127C18.2835 31.2522 18.7992 31.4776 19.3491 31.6873C19.3796 31.6992 19.41 31.7097 19.4405 31.7216C19.7117 31.8235 19.9881 31.9224 20.2749 32.0161C20.2757 32.0161 20.2764 32.0169 20.2772 32.0169C20.5669 32.1114 20.8649 32.2014 21.1696 32.2877C21.2119 32.3003 21.255 32.3107 21.2981 32.3234C21.5708 32.3992 21.848 32.4706 22.1318 32.5398C22.1682 32.5487 22.2046 32.5577 22.241 32.5666C22.5516 32.641 22.8689 32.7094 23.1922 32.7749C23.2442 32.7853 23.2969 32.795 23.3489 32.8054C23.6268 32.8597 23.9092 32.911 24.196 32.9586C24.2607 32.9698 24.3253 32.9809 24.3907 32.9914C24.7199 33.0442 25.055 33.094 25.3946 33.1379C25.4473 33.1446 25.5008 33.1505 25.5528 33.1565C25.8471 33.1937 26.1443 33.2264 26.4445 33.2562C26.5285 33.2651 26.6117 33.2725 26.6964 33.2807C27.0449 33.3127 27.3963 33.3417 27.753 33.364C27.7931 33.3663 27.834 33.3685 27.8749 33.3707C28.1959 33.3901 28.5198 33.4049 28.8468 33.4168C28.9426 33.4198 29.0385 33.4235 29.1343 33.4258C29.5014 33.4362 29.8715 33.4429 30.2452 33.4429C30.619 33.4429 30.9883 33.4354 31.3561 33.4258C31.4519 33.4235 31.5478 33.4198 31.6429 33.4168C31.9698 33.4049 32.2953 33.3908 32.6163 33.3707C32.6564 33.3685 32.6965 33.3663 32.7367 33.364C33.0941 33.3417 33.4463 33.3127 33.7948 33.2807C33.878 33.2733 33.9605 33.2651 34.0437 33.2569C34.3461 33.2264 34.6448 33.1929 34.9406 33.1565C34.9911 33.1498 35.0438 33.1438 35.0944 33.1379C35.4354 33.0933 35.7705 33.0442 36.1012 32.9914C36.1644 32.9809 36.2268 32.9705 36.2907 32.9594C36.5797 32.9118 36.8643 32.8589 37.1452 32.8046C37.195 32.7942 37.2455 32.7853 37.2953 32.7756C37.62 32.7094 37.9388 32.6395 38.2509 32.5659C38.2843 32.5577 38.3177 32.5495 38.3512 32.5413C38.638 32.4721 38.9189 32.3992 39.1945 32.3226C39.2354 32.3107 39.2763 32.3003 39.3179 32.2884C39.9257 32.1158 40.5045 31.9261 41.0507 31.7208C41.0797 31.7097 41.1086 31.6992 41.1376 31.6881C41.6882 31.4783 42.2054 31.2522 42.6854 31.0119C42.7017 31.003 42.7196 30.9956 42.7367 30.9866C43.2204 30.7411 43.667 30.4815 44.0704 30.2085C44.0786 30.2026 44.086 30.1974 44.0935 30.1929C44.5014 29.9155 44.8655 29.6246 45.1835 29.3218C45.1835 29.3211 45.185 29.3204 45.1858 29.3196V32.6998C45.1858 32.7779 45.1635 32.8575 45.1523 32.9363C41.2624 33.9279 38.4448 35.5964 37.4996 37.5974C35.399 38.0645 32.9499 38.3472 30.2452 38.3472C23.1773 38.3472 15.3017 36.0271 15.3017 32.6998V29.3189ZM15.3017 35.7109C15.6219 36.0167 15.9897 36.3105 16.4014 36.5902C16.4044 36.5917 16.4066 36.5939 16.4096 36.5961C16.8101 36.8669 17.2507 37.125 17.73 37.3675C17.2997 37.3534 16.8665 37.3445 16.4274 37.3445C16.0477 37.3445 15.6732 37.3519 15.3009 37.3616L15.3017 35.7109ZM16.4281 38.8322C25.2333 38.8322 31.3687 41.8092 31.3687 44.4812C31.3687 47.2097 25.3648 50.1316 16.4281 50.1316C7.48997 50.1316 1.48536 47.2097 1.48536 44.4812C1.48536 41.1509 9.36023 38.8322 16.4281 38.8322ZM16.4281 56.5222C9.36023 56.5222 1.48536 54.202 1.48536 50.8747V47.4938C4.05558 49.9501 9.70872 51.6186 16.4281 51.6186C23.1461 51.6186 28.7992 49.9501 31.3687 47.4938V50.8747C31.3687 54.202 23.4946 56.5222 16.4281 56.5222ZM32.8548 50.8747V46.1392C34.3714 46.0381 35.8114 45.8491 37.1519 45.5858V50.4165C35.7772 50.7006 34.3186 50.9052 32.8466 51.0183C32.8489 50.9699 32.8548 50.9231 32.8548 50.8747ZM68.5117 51.8626C68.5117 55.1914 60.6405 57.5115 53.5763 57.5115C44.6404 57.5115 38.638 54.5896 38.638 51.8626V48.4899C41.2075 50.9409 46.8591 52.6064 53.5763 52.6064C60.292 52.6064 65.9422 50.9409 68.5117 48.4906V51.8626Z"/>
</mask>
<path d="M53.5771 31.9559C51.096 31.9559 48.7613 32.1857 46.6719 32.5956V26.3055V19.9141V13.5213V7.12999C46.6719 3.13169 39.4568 0 30.2459 0C21.0328 0 13.8163 3.13169 13.8163 7.12999V13.5213V19.9141V26.3055V32.6998V37.4308C5.88795 37.9597 0 40.8652 0 44.4812V50.8755C0 54.8767 7.21652 58.0107 16.4289 58.0107C24.3104 58.0107 30.7267 55.7151 32.4164 52.5462C34.0964 52.4539 35.6888 52.2553 37.1593 51.9675C37.2834 55.9189 44.4479 59 53.5785 59C62.7872 59 70 55.8646 70 51.8633V45.4824V39.0911C69.9978 35.0898 62.785 31.9559 53.5771 31.9559ZM32.8548 44.4812C32.8548 42.6795 31.3902 41.0564 28.9434 39.8134C29.0065 39.8156 29.0712 39.8164 29.1343 39.8178C29.5014 39.8283 29.8715 39.8349 30.2452 39.8349C32.727 39.8349 35.0617 39.6051 37.1519 39.1952V44.0348C35.7802 44.319 34.3231 44.5243 32.8548 44.6374V44.4812ZM38.638 42.103C41.2075 44.5578 46.8591 46.2255 53.5763 46.2255C60.292 46.2255 65.9422 44.5578 68.5117 42.1037V45.4817C68.5117 48.803 60.6405 51.1187 53.5763 51.1187C46.5106 51.1187 38.638 48.803 38.638 45.4817V42.103ZM53.5771 33.4436C62.5108 33.4436 68.5124 36.3641 68.5124 39.0911C68.5124 42.4184 60.6413 44.7385 53.5771 44.7385C46.5114 44.7385 38.6387 42.4184 38.6387 39.0911C38.638 36.3633 44.6404 33.4436 53.5771 33.4436ZM30.2452 1.48699C37.3116 1.48699 45.185 3.80415 45.185 7.12924C45.185 9.85701 39.1819 12.7767 30.2452 12.7767C21.3063 12.7767 15.3017 9.85701 15.3017 7.12924C15.3017 3.80415 23.1773 1.48699 30.2452 1.48699ZM15.3017 10.1412C16.8465 11.617 19.5118 12.805 22.8466 13.5206C25.0594 13.9952 27.565 14.2644 30.2452 14.2644C32.9247 14.2644 35.4295 13.9952 37.6423 13.5206C40.9764 12.805 43.6402 11.617 45.185 10.1419V13.5206C45.185 16.2483 39.1819 19.1695 30.2452 19.1695C21.3063 19.1695 15.3017 16.2483 15.3017 13.5206V10.1412ZM15.3017 16.5332L15.3024 16.534C15.6212 16.8382 15.9868 17.1298 16.3962 17.408C16.4021 17.4125 16.4081 17.4162 16.414 17.4207C16.8197 17.6952 17.2678 17.9563 17.7545 18.2017C17.7694 18.2092 17.7835 18.2166 17.7983 18.2241C18.2806 18.4658 18.8 18.6927 19.3535 18.9032C19.3795 18.9129 19.4063 18.9225 19.4331 18.933C19.9814 19.139 20.5625 19.3294 21.1733 19.5028C21.2127 19.5139 21.252 19.5243 21.2922 19.5355C21.5686 19.6121 21.8502 19.6858 22.1385 19.7549C22.1719 19.7631 22.2039 19.7713 22.2381 19.7795C22.5502 19.8539 22.8689 19.9238 23.1944 19.9893C23.2442 19.9997 23.2954 20.0086 23.3452 20.019C23.6254 20.0741 23.9107 20.1254 24.1997 20.1737C24.2629 20.1849 24.3253 20.1953 24.3885 20.2057C24.7191 20.2593 25.055 20.3084 25.396 20.3523C25.4466 20.359 25.4986 20.3649 25.5499 20.3709C25.8448 20.4081 26.1436 20.4408 26.4452 20.4713C26.5292 20.4795 26.6124 20.4877 26.6971 20.4958C27.0456 20.5278 27.3978 20.5568 27.7552 20.5791C27.7931 20.5814 27.8318 20.5829 27.8697 20.5851C28.1922 20.6044 28.5184 20.6193 28.8468 20.6312C28.9426 20.6342 29.0385 20.6379 29.1343 20.6409C29.5014 20.6513 29.8715 20.658 30.2452 20.658C30.619 20.658 30.9883 20.6506 31.3561 20.6409C31.4519 20.6387 31.5478 20.6349 31.6429 20.632C31.9721 20.6208 32.299 20.6052 32.6215 20.5858C32.6594 20.5836 32.6973 20.5821 32.7344 20.5799C33.0926 20.5576 33.4448 20.5286 33.794 20.4966C33.8772 20.4891 33.9605 20.481 34.0429 20.472C34.3446 20.4415 34.6433 20.4088 34.9376 20.3724C34.9896 20.3657 35.0416 20.3597 35.0929 20.3538C35.4339 20.3091 35.7705 20.26 36.1012 20.2065C36.1629 20.1968 36.2238 20.1856 36.2847 20.1752C36.5775 20.1269 36.8643 20.0741 37.1474 20.019C37.1957 20.0093 37.244 20.0012 37.2916 19.9907C37.6178 19.9253 37.9373 19.8546 38.2509 19.7802C38.2828 19.7728 38.314 19.7646 38.346 19.7572C38.6365 19.6872 38.9196 19.6129 39.1982 19.5355C39.2361 19.5251 39.274 19.5147 39.3112 19.5043C39.9227 19.3309 40.5038 19.1405 41.0544 18.9337C41.0797 18.924 41.1057 18.9144 41.1317 18.9047C41.686 18.6934 42.2054 18.4673 42.6876 18.2248C42.7025 18.2174 42.7166 18.2099 42.7315 18.2032C43.2189 17.957 43.667 17.6959 44.0727 17.4214C44.0786 17.4177 44.0846 17.4132 44.0898 17.4095C44.4992 17.1313 44.8648 16.839 45.1843 16.5355C45.1843 16.5355 45.1843 16.5347 45.185 16.5347V19.9141C45.185 23.2422 37.3109 25.5616 30.2452 25.5616C21.3063 25.5616 15.3017 22.6419 15.3017 19.9141V16.5332ZM15.3017 22.9253C15.6212 23.231 15.989 23.5241 16.4007 23.8031C16.4044 23.8053 16.4081 23.8083 16.4118 23.8105C16.819 24.0857 17.2685 24.3476 17.7575 24.5946C17.7708 24.6012 17.7842 24.6079 17.7976 24.6146C18.2806 24.8571 18.8022 25.0848 19.3573 25.296C19.3818 25.3057 19.4063 25.3146 19.4316 25.3243C19.9814 25.5311 20.564 25.7215 21.1763 25.8948C21.2141 25.906 21.2535 25.9164 21.2922 25.9268C21.5693 26.0042 21.8517 26.0778 22.1415 26.147C22.1742 26.1552 22.2061 26.1634 22.2396 26.1708C22.5524 26.2452 22.8719 26.3151 23.1974 26.3806C23.2456 26.3903 23.2954 26.3992 23.3445 26.4096C23.6261 26.4646 23.9122 26.5167 24.2027 26.5651C24.2651 26.5755 24.3268 26.5866 24.39 26.5963C24.7206 26.6499 25.0565 26.699 25.3975 26.7428C25.4488 26.7495 25.5008 26.7555 25.5521 26.7614C25.8463 26.7979 26.1443 26.8314 26.446 26.8611C26.5299 26.8693 26.6139 26.8775 26.6979 26.8857C27.0464 26.9177 27.3978 26.9467 27.7545 26.969C27.7946 26.9712 27.8362 26.9727 27.8771 26.9757C28.1974 26.995 28.5213 27.0099 28.8483 27.0211C28.9441 27.024 29.04 27.0278 29.1358 27.0307C29.5029 27.0411 29.8729 27.0478 30.2467 27.0478C30.6204 27.0478 30.9897 27.0404 31.3576 27.0307C31.4534 27.0285 31.5493 27.0248 31.6451 27.0218C31.9721 27.0106 32.296 26.9958 32.617 26.9764C32.6572 26.9742 32.698 26.9727 32.7381 26.9697C33.0948 26.9474 33.447 26.9184 33.7955 26.8864C33.8787 26.879 33.962 26.8708 34.0452 26.8619C34.3461 26.8321 34.6448 26.7994 34.9391 26.7622C34.9911 26.7555 35.0438 26.7503 35.0959 26.7436C35.4362 26.6997 35.7705 26.6506 36.1012 26.597C36.1658 26.5866 36.2297 26.5755 36.2937 26.5651C36.5827 26.5167 36.8665 26.4654 37.1452 26.4103C37.1957 26.4007 37.247 26.3917 37.2975 26.3813C37.6215 26.3159 37.9388 26.2459 38.2494 26.1723C38.2865 26.1634 38.3222 26.1544 38.3586 26.1455C38.6424 26.0771 38.9196 26.0049 39.1916 25.9291C39.2347 25.9172 39.277 25.906 39.3201 25.8941C39.9264 25.7223 40.5045 25.5326 41.0499 25.328C41.0804 25.3169 41.1094 25.3057 41.1398 25.2945C41.689 25.0855 42.2054 24.8601 42.6839 24.6198C42.7025 24.6102 42.7203 24.6012 42.7389 24.5923C43.2219 24.3476 43.6677 24.0887 44.0712 23.8157C44.0786 23.8105 44.0868 23.8046 44.0942 23.7994C44.5022 23.5219 44.867 23.231 45.1843 22.9283C45.185 22.9275 45.1858 22.9275 45.1865 22.9268V26.3055C45.1858 27.7575 43.3638 29.2965 40.298 30.4019C37.8236 31.2559 34.6998 31.8004 31.6199 31.9269C31.1688 31.9432 30.7133 31.9559 30.2459 31.9559C29.5831 31.9559 28.9137 31.9358 28.2442 31.8956C27.435 31.848 26.6258 31.7714 25.8292 31.6688C20.2549 30.9517 15.3024 28.9454 15.3024 26.3047L15.3017 22.9253ZM15.3017 29.3189C15.3024 29.3196 15.3032 29.3204 15.3039 29.3211C15.6212 29.6239 15.9853 29.9147 16.3932 30.1922C16.4014 30.1974 16.4096 30.2033 16.4177 30.2085C16.8212 30.4808 17.2671 30.7411 17.7508 30.9859C17.7686 30.9948 17.7864 31.003 17.8043 31.0127C18.2835 31.2522 18.7992 31.4776 19.3491 31.6873C19.3796 31.6992 19.41 31.7097 19.4405 31.7216C19.7117 31.8235 19.9881 31.9224 20.2749 32.0161C20.2757 32.0161 20.2764 32.0169 20.2772 32.0169C20.5669 32.1114 20.8649 32.2014 21.1696 32.2877C21.2119 32.3003 21.255 32.3107 21.2981 32.3234C21.5708 32.3992 21.848 32.4706 22.1318 32.5398C22.1682 32.5487 22.2046 32.5577 22.241 32.5666C22.5516 32.641 22.8689 32.7094 23.1922 32.7749C23.2442 32.7853 23.2969 32.795 23.3489 32.8054C23.6268 32.8597 23.9092 32.911 24.196 32.9586C24.2607 32.9698 24.3253 32.9809 24.3907 32.9914C24.7199 33.0442 25.055 33.094 25.3946 33.1379C25.4473 33.1446 25.5008 33.1505 25.5528 33.1565C25.8471 33.1937 26.1443 33.2264 26.4445 33.2562C26.5285 33.2651 26.6117 33.2725 26.6964 33.2807C27.0449 33.3127 27.3963 33.3417 27.753 33.364C27.7931 33.3663 27.834 33.3685 27.8749 33.3707C28.1959 33.3901 28.5198 33.4049 28.8468 33.4168C28.9426 33.4198 29.0385 33.4235 29.1343 33.4258C29.5014 33.4362 29.8715 33.4429 30.2452 33.4429C30.619 33.4429 30.9883 33.4354 31.3561 33.4258C31.4519 33.4235 31.5478 33.4198 31.6429 33.4168C31.9698 33.4049 32.2953 33.3908 32.6163 33.3707C32.6564 33.3685 32.6965 33.3663 32.7367 33.364C33.0941 33.3417 33.4463 33.3127 33.7948 33.2807C33.878 33.2733 33.9605 33.2651 34.0437 33.2569C34.3461 33.2264 34.6448 33.1929 34.9406 33.1565C34.9911 33.1498 35.0438 33.1438 35.0944 33.1379C35.4354 33.0933 35.7705 33.0442 36.1012 32.9914C36.1644 32.9809 36.2268 32.9705 36.2907 32.9594C36.5797 32.9118 36.8643 32.8589 37.1452 32.8046C37.195 32.7942 37.2455 32.7853 37.2953 32.7756C37.62 32.7094 37.9388 32.6395 38.2509 32.5659C38.2843 32.5577 38.3177 32.5495 38.3512 32.5413C38.638 32.4721 38.9189 32.3992 39.1945 32.3226C39.2354 32.3107 39.2763 32.3003 39.3179 32.2884C39.9257 32.1158 40.5045 31.9261 41.0507 31.7208C41.0797 31.7097 41.1086 31.6992 41.1376 31.6881C41.6882 31.4783 42.2054 31.2522 42.6854 31.0119C42.7017 31.003 42.7196 30.9956 42.7367 30.9866C43.2204 30.7411 43.667 30.4815 44.0704 30.2085C44.0786 30.2026 44.086 30.1974 44.0935 30.1929C44.5014 29.9155 44.8655 29.6246 45.1835 29.3218C45.1835 29.3211 45.185 29.3204 45.1858 29.3196V32.6998C45.1858 32.7779 45.1635 32.8575 45.1523 32.9363C41.2624 33.9279 38.4448 35.5964 37.4996 37.5974C35.399 38.0645 32.9499 38.3472 30.2452 38.3472C23.1773 38.3472 15.3017 36.0271 15.3017 32.6998V29.3189ZM15.3017 35.7109C15.6219 36.0167 15.9897 36.3105 16.4014 36.5902C16.4044 36.5917 16.4066 36.5939 16.4096 36.5961C16.8101 36.8669 17.2507 37.125 17.73 37.3675C17.2997 37.3534 16.8665 37.3445 16.4274 37.3445C16.0477 37.3445 15.6732 37.3519 15.3009 37.3616L15.3017 35.7109ZM16.4281 38.8322C25.2333 38.8322 31.3687 41.8092 31.3687 44.4812C31.3687 47.2097 25.3648 50.1316 16.4281 50.1316C7.48997 50.1316 1.48536 47.2097 1.48536 44.4812C1.48536 41.1509 9.36023 38.8322 16.4281 38.8322ZM16.4281 56.5222C9.36023 56.5222 1.48536 54.202 1.48536 50.8747V47.4938C4.05558 49.9501 9.70872 51.6186 16.4281 51.6186C23.1461 51.6186 28.7992 49.9501 31.3687 47.4938V50.8747C31.3687 54.202 23.4946 56.5222 16.4281 56.5222ZM32.8548 50.8747V46.1392C34.3714 46.0381 35.8114 45.8491 37.1519 45.5858V50.4165C35.7772 50.7006 34.3186 50.9052 32.8466 51.0183C32.8489 50.9699 32.8548 50.9231 32.8548 50.8747ZM68.5117 51.8626C68.5117 55.1914 60.6405 57.5115 53.5763 57.5115C44.6404 57.5115 38.638 54.5896 38.638 51.8626V48.4899C41.2075 50.9409 46.8591 52.6064 53.5763 52.6064C60.292 52.6064 65.9422 50.9409 68.5117 48.4906V51.8626Z" fill="#FF0000" stroke="white" stroke-width="0.4" mask="url(#path-1-inside-1)"/>
</svg>
