<svg width="70" height="57" viewBox="0 0 70 57" fill="none" xmlns="http://www.w3.org/2000/svg">
<mask id="path-1-inside-1" fill="white">
<path fill-rule="evenodd" clip-rule="evenodd" d="M52.4796 6.02538L52.4729 6.03524C51.7184 7.14901 50.9638 8.26277 50.2093 9.37843C49.8594 9.88845 49.2053 10.1168 48.6501 9.78949C48.1405 9.49261 47.8971 8.73901 48.2394 8.229C48.3459 8.0691 48.4543 7.90921 48.5627 7.74931C48.6711 7.58949 48.7794 7.42968 48.8859 7.26986C49.6402 6.15448 50.3946 5.04098 51.149 3.92749L51.1491 3.92723L51.1493 3.92697L51.1563 3.9167C51.913 2.79962 52.6698 1.68254 53.4266 0.563559C53.7689 0.0535449 54.423 -0.17482 54.9858 0.152502C55.4954 0.449376 55.7388 1.20298 55.3965 1.71299C55.1836 2.0327 54.9706 2.35241 54.75 2.67212C53.9932 3.79115 53.2364 4.90826 52.4796 6.02538ZM34.1901 2.32969L34.1901 2.3296C33.8858 1.78914 34.0684 1.08121 34.6008 0.769109C35.1256 0.457011 35.8558 0.647315 36.16 1.18017C36.1676 1.19156 36.1733 1.20296 36.179 1.21436L36.179 1.21443C36.1847 1.22584 36.1904 1.23726 36.198 1.24868C36.8475 2.30552 37.4581 3.38824 38.0679 4.46943L38.3183 4.91302C38.6544 5.48687 38.9822 6.06643 39.3091 6.64618C41.1782 9.89196 43.0539 13.1441 44.9296 16.3892C46.0591 18.3494 47.1904 20.3095 48.3218 22.2696C49.4532 24.2298 50.5846 26.1899 51.714 28.15C53.5851 31.4004 55.4561 34.6432 57.3272 37.886C57.5651 38.2935 57.8024 38.7018 58.0392 39.1106C58.0958 39.1837 58.1436 39.2654 58.1806 39.3549C58.6831 40.2235 59.1836 41.094 59.6842 41.9646L59.685 41.9661C59.9893 42.4989 59.8067 43.2145 59.2743 43.5266C58.7495 43.8387 58.0193 43.6483 57.7151 43.1155C57.7075 43.1041 57.7018 43.0927 57.6961 43.0812L57.6901 43.0694L57.687 43.0636L57.6839 43.058C57.6818 43.0543 57.6795 43.0507 57.6771 43.047C57.2796 42.4003 56.8967 41.7439 56.5197 41.084L46.7932 43.1457C44.8569 43.5569 42.9225 43.9662 40.988 44.3755C39.1334 44.7678 37.2789 45.1602 35.4226 45.5543C35.4246 45.676 35.4267 45.7978 35.4289 45.9197C35.4452 46.8431 35.4617 47.7706 35.3988 48.6873C35.2391 51.0927 34.1059 53.3992 32.2348 54.9369C31.2841 55.7133 30.2192 56.3071 29.0403 56.6496C28.0364 56.9465 27.0096 56.9998 25.9675 56.9998C23.6173 56.9998 21.3584 56.1244 19.6699 54.4725C18.2835 53.1159 17.3963 51.3345 17.1094 49.4362C15.701 49.7346 14.2935 50.0331 12.8861 50.3316L9.07279 51.1401L9.86742 52.5163C10.1793 53.0491 9.99672 53.7647 9.4567 54.0768C8.9319 54.3889 8.20173 54.1986 7.8975 53.6657C7.70187 53.3208 7.50339 52.9787 7.30555 52.6377L7.30548 52.6376L7.30542 52.6374C7.18024 52.4217 7.05533 52.2064 6.93155 51.9911C6.23943 50.7884 5.54542 49.5857 4.8514 48.383L3.98692 46.8847L3.73995 46.4569C3.06875 45.2941 2.39756 44.1314 1.72826 42.9706C1.71937 42.9554 1.71089 42.94 1.70281 42.9246L0.147091 40.2303C-0.157145 39.6974 0.0253968 38.9819 0.557809 38.6698C1.08262 38.3577 1.81278 38.548 2.11702 39.0808C2.31265 39.4258 2.51113 39.7679 2.70898 40.1089L2.90748 40.4514C3.52707 39.7554 4.15397 39.0655 4.78111 38.3754C5.2169 37.8958 5.6528 37.4161 6.08644 36.9342L14.5746 27.4799C15.9508 25.9492 17.3256 24.4172 18.6991 22.8866L18.6996 22.8861L18.7001 22.8855L18.7006 22.8849L18.7124 22.8718L18.715 22.8689L18.7258 22.8569L18.7274 22.8551L18.729 22.8533L18.7308 22.8514C20.6185 20.7478 22.5036 18.6471 24.3862 16.5565L28.4616 12.0203L32.5245 7.49802C33.0951 6.86612 33.6637 6.23232 34.2323 5.59852C34.6058 5.18224 34.9792 4.76595 35.3533 4.35021C34.9649 3.67732 34.5775 3.00351 34.1901 2.32969ZM33.1627 46.0801V47.9946C33.1627 48.2839 33.1551 48.5731 33.1247 48.8624L33.1092 49.0022L33.1024 49.0351L33.0943 49.0755L33.0845 49.1272L33.0601 49.2541C33.0487 49.3132 33.0372 49.3723 33.0258 49.4333C32.965 49.6997 32.8965 49.9661 32.8129 50.225C32.7748 50.3391 32.7368 50.4457 32.6912 50.5599L32.6766 50.5994L32.6766 50.5994C32.6583 50.6494 32.6391 50.7022 32.6151 50.7502C32.6227 50.735 32.6835 50.5903 32.6303 50.7121C32.5162 50.9557 32.3945 51.1917 32.2652 51.4277L32.2652 51.4277C32.1359 51.6408 32.0066 51.854 31.8545 52.0519C31.8393 52.0709 31.8241 52.0918 31.8089 52.1128C31.7987 52.1268 31.7885 52.1408 31.7783 52.1543L31.7556 52.1813C31.7063 52.2382 31.6589 52.2952 31.6115 52.3521L31.6111 52.3526L31.611 52.3527C31.5635 52.4098 31.516 52.4668 31.4666 52.5238C31.3069 52.6989 31.1472 52.8588 30.9722 53.0186C30.9304 53.0567 30.8867 53.0947 30.843 53.1328C30.7992 53.1708 30.7555 53.2089 30.7136 53.247C30.7034 53.2572 30.6655 53.289 30.6365 53.3133L30.6163 53.3303C30.5759 53.3615 30.5262 53.3999 30.5159 53.4068C30.1052 53.7037 29.6716 53.9397 29.2229 54.1604L29.1788 54.1825L29.1627 54.1892L29.1395 54.1991L29.1394 54.1991L29.1393 54.1992C29.1028 54.2147 29.0653 54.2308 29.0251 54.2442C28.911 54.2898 28.8045 54.3279 28.6905 54.366C28.4319 54.4497 28.1657 54.5258 27.8994 54.5791C27.7854 54.6019 27.6637 54.6248 27.542 54.6476C27.5306 54.6495 27.5111 54.6524 27.4916 54.6552C27.4331 54.6638 27.3746 54.6724 27.5344 54.6552C27.4811 54.6628 27.4279 54.6704 27.3822 54.6704C27.116 54.7009 26.8498 54.7085 26.5836 54.7085H25.7318C25.4955 54.7085 25.2592 54.687 25.016 54.6648L24.994 54.6628L24.9435 54.6542C24.885 54.6443 24.8268 54.6343 24.9864 54.6628C24.9522 54.659 24.9179 54.6533 24.8837 54.6476C24.8495 54.6419 24.8153 54.6362 24.781 54.6324C24.6653 54.6131 24.555 54.5883 24.441 54.5628L24.3779 54.5487C24.1497 54.4954 23.914 54.4269 23.6934 54.3507C23.6288 54.3279 23.566 54.3051 23.5033 54.2822L23.5031 54.2822C23.4404 54.2594 23.3777 54.2365 23.3131 54.2137C23.2974 54.2075 23.2612 54.1909 23.2372 54.1799L23.237 54.1798C23.2229 54.1734 23.213 54.1689 23.2143 54.1696C23.2157 54.1705 23.2317 54.1783 23.2727 54.1979C23.2532 54.1889 23.2337 54.1804 23.2142 54.1719C23.1838 54.1585 23.1534 54.1452 23.1229 54.13C22.659 53.9092 22.2102 53.6352 21.7995 53.3307C21.7434 53.2906 21.7528 53.297 21.7764 53.3131C21.7903 53.3226 21.8091 53.3354 21.8225 53.3442C21.8295 53.3488 21.8351 53.3523 21.8376 53.3535C21.8071 53.3269 21.7748 53.3003 21.7425 53.2736C21.7102 53.247 21.6778 53.2203 21.6474 53.1937C21.5333 53.0947 21.4268 52.9958 21.3127 52.8892C21.1129 52.6966 20.9347 52.4968 20.75 52.2898L20.7347 52.2726L20.6434 52.1584L20.6941 52.2205L20.7016 52.2297C20.7017 52.2296 20.6287 52.1389 20.613 52.1128C20.5963 52.0884 20.5792 52.064 20.5621 52.0396L20.5441 52.014C20.4812 51.9247 20.4175 51.8343 20.362 51.7398C20.2099 51.5038 20.0654 51.2526 19.9437 51.0014C19.931 50.976 19.9048 50.9194 19.8786 50.8627L19.8786 50.8627C19.8262 50.7493 19.7738 50.636 19.8296 50.773C19.7764 50.6513 19.7307 50.5219 19.6851 50.3925L19.6851 50.3924C19.5862 50.1184 19.5102 49.8443 19.4417 49.5627C19.4164 49.4612 19.3978 49.3598 19.3792 49.2583L19.3792 49.2583L19.3792 49.2582C19.3699 49.2075 19.3606 49.1567 19.3504 49.106C19.3504 49.1037 19.3498 49.0981 19.3487 49.0906L33.1627 46.0801ZM54.473 37.5351C54.7526 38.031 55.0323 38.5271 55.3168 39.0199L47.8808 40.5956C45.7889 41.0372 43.6988 41.4807 41.6087 41.9242C39.5194 42.3675 37.43 42.8108 35.3387 43.2523C34.1978 43.4959 33.0549 43.7376 31.9121 43.9793C30.7694 44.2209 29.6266 44.4626 28.4858 44.7062C26.7136 45.083 24.9434 45.4579 23.1731 45.8328L23.1596 45.8356L23.1553 45.8365C21.391 46.2102 19.6266 46.5838 17.8604 46.9594C16.2791 47.2931 14.6978 47.6284 13.1159 47.9638L13.1157 47.9638L13.1156 47.9638L13.1154 47.9639C11.371 48.3337 9.62577 48.7038 7.87871 49.0721L7.24339 47.9718C6.55115 46.7689 5.85702 45.566 5.16288 44.3632C4.81278 43.7565 4.46267 43.1497 4.11282 42.543C4.48075 42.134 4.84817 41.7245 5.2156 41.3149C5.78413 40.6812 6.35266 40.0475 6.92309 39.4157L10.9981 34.88L15.0614 30.3573C18.0341 27.0508 21.0005 23.7444 23.972 20.4322L23.9727 20.4314L23.977 20.4267L24.8882 19.411L33.3764 9.95674C33.8441 9.43919 34.3099 8.91974 34.7757 8.40028L34.7758 8.4001C35.2417 7.88056 35.7076 7.36101 36.1754 6.84337C36.2984 6.7075 36.4238 6.57221 36.5496 6.4367L37.7954 8.59417C38.6054 10.0024 39.4173 11.4087 40.2292 12.815C41.0412 14.2214 41.8531 15.6278 42.6632 17.036L48.5502 27.2439C50.2463 30.1822 51.9424 33.1205 53.6385 36.0664C53.919 36.5524 54.195 37.042 54.4711 37.5318L54.4714 37.5322L54.4716 37.5327L54.4719 37.5332L54.4722 37.5337L54.4725 37.5342L54.4727 37.5346L54.473 37.5351ZM55.9675 18.2467C56.8733 17.724 57.7792 17.2002 58.6855 16.6761L58.6878 16.6748L58.6882 16.6745L58.6887 16.6743L58.6891 16.674L58.6896 16.6737C60.1181 15.8477 61.5477 15.0209 62.9801 14.1971C63.1474 14.102 63.3146 14.005 63.4819 13.908L63.4821 13.9078L63.4824 13.9077C63.6496 13.8107 63.8169 13.7136 63.9841 13.6185C64.5165 13.3141 64.7067 12.5833 64.3948 12.0581C64.083 11.5252 63.368 11.3425 62.8356 11.647C61.9311 12.169 61.0265 12.692 60.1215 13.2154L60.1178 13.2175L60.1155 13.2189L60.115 13.2191L60.1146 13.2194L60.1141 13.2196L60.1137 13.2199C58.6851 14.046 57.2555 14.8728 55.823 15.6967C55.6557 15.7918 55.4885 15.8888 55.3212 15.9858L55.321 15.9859L55.3207 15.9861C55.1535 16.0831 54.9862 16.1801 54.819 16.2752C54.2866 16.5797 54.0964 17.3104 54.4083 17.8357C54.7201 18.3761 55.4351 18.5588 55.9675 18.2467ZM63.5278 27.6998L63.5297 27.6996C64.9218 27.5992 66.313 27.4988 67.7021 27.3964C67.8961 27.3812 68.0882 27.3679 68.2803 27.3546C68.4723 27.3412 68.6643 27.3279 68.8582 27.3127C69.4515 27.267 70.0295 26.8179 69.9991 26.1709C69.9763 25.5924 69.4971 24.9834 68.8582 25.0291C67.559 25.1246 66.2597 25.2183 64.9613 25.312L64.958 25.3122C63.5668 25.4126 62.1765 25.5129 60.7884 25.6152C60.5944 25.6304 60.4024 25.6437 60.2103 25.6571L60.2102 25.6571L60.2101 25.6571C60.0181 25.6704 59.8262 25.6837 59.6323 25.6989C59.039 25.7446 58.461 26.1937 58.4914 26.8407C58.5142 27.4269 58.9934 28.0282 59.6323 27.9826C60.9298 27.8872 62.2272 27.7936 63.5239 27.7L63.5258 27.6999L63.5278 27.6998ZM33.097 25.6683C33.4055 25.4006 33.7147 25.1328 34.0242 24.8649L34.0245 24.8647C34.6917 24.287 35.3603 23.7082 36.0253 23.1258C36.4892 22.7224 36.436 21.9231 36.0253 21.512C35.5613 21.0477 34.8768 21.1086 34.4128 21.512C34.1049 21.7793 33.7961 22.0466 33.4871 22.3141L33.4855 22.3155L33.4847 22.3162C32.8177 22.8937 32.1493 23.4723 31.4846 24.0545C31.0206 24.4579 31.0738 25.2572 31.4846 25.6683C31.9409 26.1326 32.6254 26.0717 33.097 25.6683ZM12.2577 42.0137C11.5147 42.6039 10.7713 43.1943 10.0279 43.7856C9.54873 44.1739 8.89462 44.2652 8.41545 43.7856C8.01234 43.3822 7.93628 42.5525 8.41545 42.1719C8.79586 41.8711 9.17627 41.5684 9.55668 41.2657C9.93686 40.9632 10.317 40.6608 10.6972 40.3602C14.0035 37.7282 17.3097 35.1039 20.616 32.4795L20.6229 32.474C21.9511 31.4135 23.2824 30.3561 24.6149 29.2979C25.3579 28.7078 26.1012 28.1174 26.8445 27.5261C27.3313 27.1379 27.9778 27.0465 28.457 27.5261C28.8601 27.9295 28.9361 28.7593 28.457 29.1399C28.0767 29.4405 27.6965 29.7431 27.3162 30.0456C26.9359 30.3482 26.5555 30.6508 26.1752 30.9516C22.869 33.5835 19.5627 36.2079 16.2565 38.8322L16.2495 38.8377C14.9214 39.8982 13.5901 40.9555 12.2577 42.0137Z"/>
</mask>
<path fill-rule="evenodd" clip-rule="evenodd" d="M52.4796 6.02538L52.4729 6.03524C51.7184 7.14901 50.9638 8.26277 50.2093 9.37843C49.8594 9.88845 49.2053 10.1168 48.6501 9.78949C48.1405 9.49261 47.8971 8.73901 48.2394 8.229C48.3459 8.0691 48.4543 7.90921 48.5627 7.74931C48.6711 7.58949 48.7794 7.42968 48.8859 7.26986C49.6402 6.15448 50.3946 5.04098 51.149 3.92749L51.1491 3.92723L51.1493 3.92697L51.1563 3.9167C51.913 2.79962 52.6698 1.68254 53.4266 0.563559C53.7689 0.0535449 54.423 -0.17482 54.9858 0.152502C55.4954 0.449376 55.7388 1.20298 55.3965 1.71299C55.1836 2.0327 54.9706 2.35241 54.75 2.67212C53.9932 3.79115 53.2364 4.90826 52.4796 6.02538ZM34.1901 2.32969L34.1901 2.3296C33.8858 1.78914 34.0684 1.08121 34.6008 0.769109C35.1256 0.457011 35.8558 0.647315 36.16 1.18017C36.1676 1.19156 36.1733 1.20296 36.179 1.21436L36.179 1.21443C36.1847 1.22584 36.1904 1.23726 36.198 1.24868C36.8475 2.30552 37.4581 3.38824 38.0679 4.46943L38.3183 4.91302C38.6544 5.48687 38.9822 6.06643 39.3091 6.64618C41.1782 9.89196 43.0539 13.1441 44.9296 16.3892C46.0591 18.3494 47.1904 20.3095 48.3218 22.2696C49.4532 24.2298 50.5846 26.1899 51.714 28.15C53.5851 31.4004 55.4561 34.6432 57.3272 37.886C57.5651 38.2935 57.8024 38.7018 58.0392 39.1106C58.0958 39.1837 58.1436 39.2654 58.1806 39.3549C58.6831 40.2235 59.1836 41.094 59.6842 41.9646L59.685 41.9661C59.9893 42.4989 59.8067 43.2145 59.2743 43.5266C58.7495 43.8387 58.0193 43.6483 57.7151 43.1155C57.7075 43.1041 57.7018 43.0927 57.6961 43.0812L57.6901 43.0694L57.687 43.0636L57.6839 43.058C57.6818 43.0543 57.6795 43.0507 57.6771 43.047C57.2796 42.4003 56.8967 41.7439 56.5197 41.084L46.7932 43.1457C44.8569 43.5569 42.9225 43.9662 40.988 44.3755C39.1334 44.7678 37.2789 45.1602 35.4226 45.5543C35.4246 45.676 35.4267 45.7978 35.4289 45.9197C35.4452 46.8431 35.4617 47.7706 35.3988 48.6873C35.2391 51.0927 34.1059 53.3992 32.2348 54.9369C31.2841 55.7133 30.2192 56.3071 29.0403 56.6496C28.0364 56.9465 27.0096 56.9998 25.9675 56.9998C23.6173 56.9998 21.3584 56.1244 19.6699 54.4725C18.2835 53.1159 17.3963 51.3345 17.1094 49.4362C15.701 49.7346 14.2935 50.0331 12.8861 50.3316L9.07279 51.1401L9.86742 52.5163C10.1793 53.0491 9.99672 53.7647 9.4567 54.0768C8.9319 54.3889 8.20173 54.1986 7.8975 53.6657C7.70187 53.3208 7.50339 52.9787 7.30555 52.6377L7.30548 52.6376L7.30542 52.6374C7.18024 52.4217 7.05533 52.2064 6.93155 51.9911C6.23943 50.7884 5.54542 49.5857 4.8514 48.383L3.98692 46.8847L3.73995 46.4569C3.06875 45.2941 2.39756 44.1314 1.72826 42.9706C1.71937 42.9554 1.71089 42.94 1.70281 42.9246L0.147091 40.2303C-0.157145 39.6974 0.0253968 38.9819 0.557809 38.6698C1.08262 38.3577 1.81278 38.548 2.11702 39.0808C2.31265 39.4258 2.51113 39.7679 2.70898 40.1089L2.90748 40.4514C3.52707 39.7554 4.15397 39.0655 4.78111 38.3754C5.2169 37.8958 5.6528 37.4161 6.08644 36.9342L14.5746 27.4799C15.9508 25.9492 17.3256 24.4172 18.6991 22.8866L18.6996 22.8861L18.7001 22.8855L18.7006 22.8849L18.7124 22.8718L18.715 22.8689L18.7258 22.8569L18.7274 22.8551L18.729 22.8533L18.7308 22.8514C20.6185 20.7478 22.5036 18.6471 24.3862 16.5565L28.4616 12.0203L32.5245 7.49802C33.0951 6.86612 33.6637 6.23232 34.2323 5.59852C34.6058 5.18224 34.9792 4.76595 35.3533 4.35021C34.9649 3.67732 34.5775 3.00351 34.1901 2.32969ZM33.1627 46.0801V47.9946C33.1627 48.2839 33.1551 48.5731 33.1247 48.8624L33.1092 49.0022L33.1024 49.0351L33.0943 49.0755L33.0845 49.1272L33.0601 49.2541C33.0487 49.3132 33.0372 49.3723 33.0258 49.4333C32.965 49.6997 32.8965 49.9661 32.8129 50.225C32.7748 50.3391 32.7368 50.4457 32.6912 50.5599L32.6766 50.5994L32.6766 50.5994C32.6583 50.6494 32.6391 50.7022 32.6151 50.7502C32.6227 50.735 32.6835 50.5903 32.6303 50.7121C32.5162 50.9557 32.3945 51.1917 32.2652 51.4277L32.2652 51.4277C32.1359 51.6408 32.0066 51.854 31.8545 52.0519C31.8393 52.0709 31.8241 52.0918 31.8089 52.1128C31.7987 52.1268 31.7885 52.1408 31.7783 52.1543L31.7556 52.1813C31.7063 52.2382 31.6589 52.2952 31.6115 52.3521L31.6111 52.3526L31.611 52.3527C31.5635 52.4098 31.516 52.4668 31.4666 52.5238C31.3069 52.6989 31.1472 52.8588 30.9722 53.0186C30.9304 53.0567 30.8867 53.0947 30.843 53.1328C30.7992 53.1708 30.7555 53.2089 30.7136 53.247C30.7034 53.2572 30.6655 53.289 30.6365 53.3133L30.6163 53.3303C30.5759 53.3615 30.5262 53.3999 30.5159 53.4068C30.1052 53.7037 29.6716 53.9397 29.2229 54.1604L29.1788 54.1825L29.1627 54.1892L29.1395 54.1991L29.1394 54.1991L29.1393 54.1992C29.1028 54.2147 29.0653 54.2308 29.0251 54.2442C28.911 54.2898 28.8045 54.3279 28.6905 54.366C28.4319 54.4497 28.1657 54.5258 27.8994 54.5791C27.7854 54.6019 27.6637 54.6248 27.542 54.6476C27.5306 54.6495 27.5111 54.6524 27.4916 54.6552C27.4331 54.6638 27.3746 54.6724 27.5344 54.6552C27.4811 54.6628 27.4279 54.6704 27.3822 54.6704C27.116 54.7009 26.8498 54.7085 26.5836 54.7085H25.7318C25.4955 54.7085 25.2592 54.687 25.016 54.6648L24.994 54.6628L24.9435 54.6542C24.885 54.6443 24.8268 54.6343 24.9864 54.6628C24.9522 54.659 24.9179 54.6533 24.8837 54.6476C24.8495 54.6419 24.8153 54.6362 24.781 54.6324C24.6653 54.6131 24.555 54.5883 24.441 54.5628L24.3779 54.5487C24.1497 54.4954 23.914 54.4269 23.6934 54.3507C23.6288 54.3279 23.566 54.3051 23.5033 54.2822L23.5031 54.2822C23.4404 54.2594 23.3777 54.2365 23.3131 54.2137C23.2974 54.2075 23.2612 54.1909 23.2372 54.1799L23.237 54.1798C23.2229 54.1734 23.213 54.1689 23.2143 54.1696C23.2157 54.1705 23.2317 54.1783 23.2727 54.1979C23.2532 54.1889 23.2337 54.1804 23.2142 54.1719C23.1838 54.1585 23.1534 54.1452 23.1229 54.13C22.659 53.9092 22.2102 53.6352 21.7995 53.3307C21.7434 53.2906 21.7528 53.297 21.7764 53.3131C21.7903 53.3226 21.8091 53.3354 21.8225 53.3442C21.8295 53.3488 21.8351 53.3523 21.8376 53.3535C21.8071 53.3269 21.7748 53.3003 21.7425 53.2736C21.7102 53.247 21.6778 53.2203 21.6474 53.1937C21.5333 53.0947 21.4268 52.9958 21.3127 52.8892C21.1129 52.6966 20.9347 52.4968 20.75 52.2898L20.7347 52.2726L20.6434 52.1584L20.6941 52.2205L20.7016 52.2297C20.7017 52.2296 20.6287 52.1389 20.613 52.1128C20.5963 52.0884 20.5792 52.064 20.5621 52.0396L20.5441 52.014C20.4812 51.9247 20.4175 51.8343 20.362 51.7398C20.2099 51.5038 20.0654 51.2526 19.9437 51.0014C19.931 50.976 19.9048 50.9194 19.8786 50.8627L19.8786 50.8627C19.8262 50.7493 19.7738 50.636 19.8296 50.773C19.7764 50.6513 19.7307 50.5219 19.6851 50.3925L19.6851 50.3924C19.5862 50.1184 19.5102 49.8443 19.4417 49.5627C19.4164 49.4612 19.3978 49.3598 19.3792 49.2583L19.3792 49.2583L19.3792 49.2582C19.3699 49.2075 19.3606 49.1567 19.3504 49.106C19.3504 49.1037 19.3498 49.0981 19.3487 49.0906L33.1627 46.0801ZM54.473 37.5351C54.7526 38.031 55.0323 38.5271 55.3168 39.0199L47.8808 40.5956C45.7889 41.0372 43.6988 41.4807 41.6087 41.9242C39.5194 42.3675 37.43 42.8108 35.3387 43.2523C34.1978 43.4959 33.0549 43.7376 31.9121 43.9793C30.7694 44.2209 29.6266 44.4626 28.4858 44.7062C26.7136 45.083 24.9434 45.4579 23.1731 45.8328L23.1596 45.8356L23.1553 45.8365C21.391 46.2102 19.6266 46.5838 17.8604 46.9594C16.2791 47.2931 14.6978 47.6284 13.1159 47.9638L13.1157 47.9638L13.1156 47.9638L13.1154 47.9639C11.371 48.3337 9.62577 48.7038 7.87871 49.0721L7.24339 47.9718C6.55115 46.7689 5.85702 45.566 5.16288 44.3632C4.81278 43.7565 4.46267 43.1497 4.11282 42.543C4.48075 42.134 4.84817 41.7245 5.2156 41.3149C5.78413 40.6812 6.35266 40.0475 6.92309 39.4157L10.9981 34.88L15.0614 30.3573C18.0341 27.0508 21.0005 23.7444 23.972 20.4322L23.9727 20.4314L23.977 20.4267L24.8882 19.411L33.3764 9.95674C33.8441 9.43919 34.3099 8.91974 34.7757 8.40028L34.7758 8.4001C35.2417 7.88056 35.7076 7.36101 36.1754 6.84337C36.2984 6.7075 36.4238 6.57221 36.5496 6.4367L37.7954 8.59417C38.6054 10.0024 39.4173 11.4087 40.2292 12.815C41.0412 14.2214 41.8531 15.6278 42.6632 17.036L48.5502 27.2439C50.2463 30.1822 51.9424 33.1205 53.6385 36.0664C53.919 36.5524 54.195 37.042 54.4711 37.5318L54.4714 37.5322L54.4716 37.5327L54.4719 37.5332L54.4722 37.5337L54.4725 37.5342L54.4727 37.5346L54.473 37.5351ZM55.9675 18.2467C56.8733 17.724 57.7792 17.2002 58.6855 16.6761L58.6878 16.6748L58.6882 16.6745L58.6887 16.6743L58.6891 16.674L58.6896 16.6737C60.1181 15.8477 61.5477 15.0209 62.9801 14.1971C63.1474 14.102 63.3146 14.005 63.4819 13.908L63.4821 13.9078L63.4824 13.9077C63.6496 13.8107 63.8169 13.7136 63.9841 13.6185C64.5165 13.3141 64.7067 12.5833 64.3948 12.0581C64.083 11.5252 63.368 11.3425 62.8356 11.647C61.9311 12.169 61.0265 12.692 60.1215 13.2154L60.1178 13.2175L60.1155 13.2189L60.115 13.2191L60.1146 13.2194L60.1141 13.2196L60.1137 13.2199C58.6851 14.046 57.2555 14.8728 55.823 15.6967C55.6557 15.7918 55.4885 15.8888 55.3212 15.9858L55.321 15.9859L55.3207 15.9861C55.1535 16.0831 54.9862 16.1801 54.819 16.2752C54.2866 16.5797 54.0964 17.3104 54.4083 17.8357C54.7201 18.3761 55.4351 18.5588 55.9675 18.2467ZM63.5278 27.6998L63.5297 27.6996C64.9218 27.5992 66.313 27.4988 67.7021 27.3964C67.8961 27.3812 68.0882 27.3679 68.2803 27.3546C68.4723 27.3412 68.6643 27.3279 68.8582 27.3127C69.4515 27.267 70.0295 26.8179 69.9991 26.1709C69.9763 25.5924 69.4971 24.9834 68.8582 25.0291C67.559 25.1246 66.2597 25.2183 64.9613 25.312L64.958 25.3122C63.5668 25.4126 62.1765 25.5129 60.7884 25.6152C60.5944 25.6304 60.4024 25.6437 60.2103 25.6571L60.2102 25.6571L60.2101 25.6571C60.0181 25.6704 59.8262 25.6837 59.6323 25.6989C59.039 25.7446 58.461 26.1937 58.4914 26.8407C58.5142 27.4269 58.9934 28.0282 59.6323 27.9826C60.9298 27.8872 62.2272 27.7936 63.5239 27.7L63.5258 27.6999L63.5278 27.6998ZM33.097 25.6683C33.4055 25.4006 33.7147 25.1328 34.0242 24.8649L34.0245 24.8647C34.6917 24.287 35.3603 23.7082 36.0253 23.1258C36.4892 22.7224 36.436 21.9231 36.0253 21.512C35.5613 21.0477 34.8768 21.1086 34.4128 21.512C34.1049 21.7793 33.7961 22.0466 33.4871 22.3141L33.4855 22.3155L33.4847 22.3162C32.8177 22.8937 32.1493 23.4723 31.4846 24.0545C31.0206 24.4579 31.0738 25.2572 31.4846 25.6683C31.9409 26.1326 32.6254 26.0717 33.097 25.6683ZM12.2577 42.0137C11.5147 42.6039 10.7713 43.1943 10.0279 43.7856C9.54873 44.1739 8.89462 44.2652 8.41545 43.7856C8.01234 43.3822 7.93628 42.5525 8.41545 42.1719C8.79586 41.8711 9.17627 41.5684 9.55668 41.2657C9.93686 40.9632 10.317 40.6608 10.6972 40.3602C14.0035 37.7282 17.3097 35.1039 20.616 32.4795L20.6229 32.474C21.9511 31.4135 23.2824 30.3561 24.6149 29.2979C25.3579 28.7078 26.1012 28.1174 26.8445 27.5261C27.3313 27.1379 27.9778 27.0465 28.457 27.5261C28.8601 27.9295 28.9361 28.7593 28.457 29.1399C28.0767 29.4405 27.6965 29.7431 27.3162 30.0456C26.9359 30.3482 26.5555 30.6508 26.1752 30.9516C22.869 33.5835 19.5627 36.2079 16.2565 38.8322L16.2495 38.8377C14.9214 39.8982 13.5901 40.9555 12.2577 42.0137Z" fill="#FF0000"/>
<path d="M52.4729 6.03524L52.1418 5.81084L52.1418 5.8109L52.4729 6.03524ZM52.4796 6.02538L52.8107 6.24978L52.8108 6.24973L52.4796 6.02538ZM50.2093 9.37843L50.5392 9.60471L50.5407 9.60252L50.2093 9.37843ZM48.6501 9.78949L48.8532 9.4449L48.8515 9.44386L48.6501 9.78949ZM48.2394 8.229L48.5715 8.45189L48.5723 8.45075L48.2394 8.229ZM48.5627 7.74931L48.2316 7.52484L48.2316 7.52484L48.5627 7.74931ZM48.8859 7.26986L48.5545 7.04577L48.553 7.04811L48.8859 7.26986ZM51.149 3.92749L51.4801 4.15185L51.4823 4.14852L51.149 3.92749ZM51.1493 3.92697L50.8181 3.70262L50.8159 3.70594L51.1493 3.92697ZM51.1563 3.9167L50.8251 3.69235L50.8251 3.69236L51.1563 3.9167ZM53.4266 0.563559L53.7579 0.787649L53.7587 0.786456L53.4266 0.563559ZM54.9858 0.152502L55.1872 -0.193124L55.1869 -0.193276L54.9858 0.152502ZM55.3965 1.71299L55.0644 1.4901L55.0636 1.49124L55.3965 1.71299ZM54.75 2.67212L54.4208 2.44497L54.4187 2.44804L54.75 2.67212ZM34.1901 2.3296L33.8415 2.52582L33.845 2.53201L33.8487 2.53807L34.1901 2.3296ZM34.1901 2.32969L34.537 2.13025L34.5315 2.12122L34.1901 2.32969ZM34.6008 0.769109L34.8031 1.1142L34.8052 1.11291L34.6008 0.769109ZM36.16 1.18017L35.8126 1.3785L35.8195 1.39048L35.8271 1.40197L36.16 1.18017ZM36.179 1.21436L35.8211 1.39315L35.8216 1.39399L36.179 1.21436ZM36.179 1.21443L36.5368 1.03566L36.5364 1.0348L36.179 1.21443ZM36.198 1.24868L36.5388 1.03925L36.535 1.03303L36.5309 1.02695L36.198 1.24868ZM38.0679 4.46943L37.7195 4.66593L37.7196 4.66601L38.0679 4.46943ZM38.3183 4.91302L37.9699 5.10963L37.9731 5.11519L38.3183 4.91302ZM39.3091 6.64618L38.9607 6.84267L38.9625 6.84579L39.3091 6.64618ZM44.9296 16.3892L45.2762 16.1895L45.2759 16.1891L44.9296 16.3892ZM51.714 28.15L52.0607 27.9505L52.0606 27.9503L51.714 28.15ZM57.3272 37.886L56.9807 38.0859L56.9817 38.0876L57.3272 37.886ZM58.0392 39.1106L57.693 39.3111L57.7065 39.3342L57.7228 39.3554L58.0392 39.1106ZM58.1806 39.3549L57.8109 39.5077L57.8211 39.5322L57.8344 39.5552L58.1806 39.3549ZM59.6842 41.9646L60.0313 41.7658L60.0309 41.7652L59.6842 41.9646ZM59.685 41.9661L60.0324 41.7677L60.0321 41.7673L59.685 41.9661ZM59.2743 43.5266L59.072 43.1815L59.0698 43.1828L59.2743 43.5266ZM57.7151 43.1155L58.0625 42.9172L58.0556 42.9052L58.048 42.8937L57.7151 43.1155ZM57.6961 43.0812L58.0539 42.9025L58.0529 42.9005L57.6961 43.0812ZM57.6901 43.0694L58.047 42.8887L58.0434 42.8819L57.6901 43.0694ZM57.687 43.0636L58.0404 42.876L58.0362 42.8685L57.687 43.0636ZM57.6839 43.058L58.0331 42.8629L58.0305 42.8584L57.6839 43.058ZM57.6771 43.047L57.3363 43.2564L57.3401 43.2626L57.3441 43.2687L57.6771 43.047ZM56.5197 41.084L56.867 40.8856L56.7222 40.6322L56.4367 40.6927L56.5197 41.084ZM46.7932 43.1457L46.7102 42.7544L46.7101 42.7544L46.7932 43.1457ZM40.988 44.3755L40.9052 43.9841L40.9052 43.9841L40.988 44.3755ZM35.4226 45.5543L35.3395 45.163L35.0173 45.2314L35.0226 45.5608L35.4226 45.5543ZM35.4289 45.9197L35.8288 45.9126L35.8288 45.9126L35.4289 45.9197ZM35.3988 48.6873L34.9998 48.66L34.9997 48.6608L35.3988 48.6873ZM32.2348 54.9369L32.4878 55.2467L32.4888 55.2459L32.2348 54.9369ZM29.0403 56.6496L28.9287 56.2655L28.9269 56.266L29.0403 56.6496ZM19.6699 54.4725L19.3901 54.7584L19.3902 54.7585L19.6699 54.4725ZM17.1094 49.4362L17.5049 49.3764L17.4415 48.9569L17.0264 49.0449L17.1094 49.4362ZM12.8861 50.3316L12.9691 50.7229L12.9691 50.7229L12.8861 50.3316ZM9.07279 51.1401L8.98982 50.7488L8.45092 50.8631L8.72638 51.3401L9.07279 51.1401ZM9.86742 52.5163L9.52102 52.7163L9.5222 52.7183L9.86742 52.5163ZM9.4567 54.0768L9.25653 53.7304L9.25225 53.733L9.4567 54.0768ZM7.8975 53.6657L7.54955 53.8631L7.55013 53.8641L7.8975 53.6657ZM7.30555 52.6377L7.65162 52.4369L7.64686 52.4291L7.30555 52.6377ZM7.30548 52.6376L6.955 52.8303L6.9594 52.8383L6.96417 52.8461L7.30548 52.6376ZM7.30542 52.6374L7.656 52.4446L7.65141 52.4367L7.30542 52.6374ZM6.93155 51.9911L7.27833 51.7917L7.27824 51.7915L6.93155 51.9911ZM4.8514 48.383L4.50493 48.5829L4.50495 48.5829L4.8514 48.383ZM3.98692 46.8847L4.33338 46.6848L4.33334 46.6847L3.98692 46.8847ZM3.73995 46.4569L4.08637 46.2569L4.08637 46.2569L3.73995 46.4569ZM1.72826 42.9706L2.07479 42.7708L2.07385 42.7692L1.72826 42.9706ZM1.70281 42.9246L2.05724 42.7392L2.05338 42.7318L2.04921 42.7245L1.70281 42.9246ZM0.147091 40.2303L-0.200281 40.4286L-0.19931 40.4303L0.147091 40.2303ZM0.557809 38.6698L0.760097 39.0149L0.762265 39.0136L0.557809 38.6698ZM2.11702 39.0808L2.46496 38.8835L2.46438 38.8825L2.11702 39.0808ZM2.70898 40.1089L3.05504 39.9083L3.05496 39.9082L2.70898 40.1089ZM2.90748 40.4514L2.56142 40.652L2.83866 41.1303L3.20625 40.7173L2.90748 40.4514ZM4.78111 38.3754L5.07714 38.6444L5.07714 38.6444L4.78111 38.3754ZM6.08644 36.9342L6.3838 37.2017L6.38408 37.2014L6.08644 36.9342ZM14.5746 27.4799L14.2772 27.2125L14.277 27.2127L14.5746 27.4799ZM18.6991 22.8866L18.4016 22.6192L18.4014 22.6195L18.6991 22.8866ZM18.7006 22.8849L18.9981 23.1523L18.9983 23.1521L18.7006 22.8849ZM18.7124 22.8718L19.0101 23.139L19.0102 23.1389L18.7124 22.8718ZM18.715 22.8689L18.4173 22.6017L18.4172 22.6018L18.715 22.8689ZM18.7258 22.8569L19.0235 23.1241L19.0236 23.124L18.7258 22.8569ZM18.7274 22.8551L18.4298 22.5879L18.4296 22.5881L18.7274 22.8551ZM18.729 22.8533L18.4315 22.5859L18.4314 22.5861L18.729 22.8533ZM18.7308 22.8514L19.0282 23.1188L19.0285 23.1185L18.7308 22.8514ZM24.3862 16.5565L24.6835 16.8241L24.6838 16.8238L24.3862 16.5565ZM28.4616 12.0203L28.7591 12.2877L28.7591 12.2877L28.4616 12.0203ZM32.5245 7.49802L32.2276 7.22996L32.227 7.23069L32.5245 7.49802ZM34.2323 5.59852L33.9346 5.3314L33.9346 5.3314L34.2323 5.59852ZM35.3533 4.35021L35.6506 4.61773L35.8449 4.40182L35.6997 4.15027L35.3533 4.35021ZM33.1627 46.0801H33.5627V45.5835L33.0775 45.6893L33.1627 46.0801ZM33.1247 48.8624L33.5223 48.9065L33.5225 48.9042L33.1247 48.8624ZM33.1092 49.0022L33.501 49.0827L33.5047 49.0646L33.5067 49.0463L33.1092 49.0022ZM33.1024 49.0351L32.7106 48.9546L32.7103 48.9562L33.1024 49.0351ZM33.0943 49.0755L32.7021 48.9966L32.7012 49.0012L33.0943 49.0755ZM33.0845 49.1272L33.4773 49.2028L33.4775 49.2015L33.0845 49.1272ZM33.0601 49.2541L33.4528 49.3301L33.4529 49.3297L33.0601 49.2541ZM33.0258 49.4333L33.4158 49.5224L33.4175 49.5147L33.419 49.5069L33.0258 49.4333ZM32.8129 50.225L33.1924 50.3514L33.1935 50.348L32.8129 50.225ZM32.6912 50.5599L32.3196 50.4114L32.3158 50.4217L32.6912 50.5599ZM32.6766 50.5994L32.3011 50.4611L32.2972 50.4729L32.6766 50.5994ZM32.6766 50.5994L33.0525 50.7367L33.0561 50.7259L32.6766 50.5994ZM32.6151 50.7502L32.2573 50.5714L32.9729 50.929L32.6151 50.7502ZM32.6303 50.7121L32.9927 50.8819L32.9968 50.8723L32.6303 50.7121ZM32.2652 51.4277L32.598 51.6496L32.6077 51.6351L32.616 51.6199L32.2652 51.4277ZM32.2652 51.4277L31.9324 51.2058L31.9276 51.2129L31.9232 51.2202L32.2652 51.4277ZM31.8545 52.0519L32.167 52.3017L32.1717 52.2956L31.8545 52.0519ZM31.8089 52.1128L31.4853 51.8776L31.4853 51.8776L31.8089 52.1128ZM31.7783 52.1543L32.0847 52.4115L32.0911 52.4038L32.0971 52.3959L31.7783 52.1543ZM31.7556 52.1813L32.058 52.4432L32.062 52.4384L31.7556 52.1813ZM31.6115 52.3521L31.3041 52.0961L31.3029 52.0975L31.6115 52.3521ZM31.6111 52.3526L31.9184 52.6086L31.9197 52.6071L31.6111 52.3526ZM31.611 52.3527L31.3037 52.0967L31.3036 52.0968L31.611 52.3527ZM31.4666 52.5238L31.7622 52.7935L31.769 52.7857L31.4666 52.5238ZM30.9722 53.0186L31.2414 53.3145L31.2421 53.3139L30.9722 53.0186ZM30.843 53.1328L31.1056 53.4345L31.1056 53.4345L30.843 53.1328ZM30.7136 53.247L30.4444 52.9511L30.4374 52.9575L30.4307 52.9642L30.7136 53.247ZM30.6365 53.3133L30.3795 53.0068L30.3792 53.007L30.6365 53.3133ZM30.6163 53.3303L30.861 53.6467L30.8674 53.6418L30.8736 53.6366L30.6163 53.3303ZM30.5159 53.4068L30.2939 53.074L30.2877 53.0782L30.2815 53.0827L30.5159 53.4068ZM29.2229 54.1604L29.0463 53.8015L29.0439 53.8027L29.2229 54.1604ZM29.1788 54.1825L29.3331 54.5515L29.3456 54.5463L29.3578 54.5402L29.1788 54.1825ZM29.1627 54.1892L29.0084 53.8202L29.0062 53.8211L29.1627 54.1892ZM29.1395 54.1991L29.2881 54.5706L29.2961 54.5672L29.1395 54.1991ZM29.1394 54.1991L28.9909 53.8277L28.9856 53.8299L29.1394 54.1991ZM29.1393 54.1992L28.9855 53.8299L28.9823 53.8313L29.1393 54.1992ZM29.0251 54.2442L28.8985 53.8647L28.8874 53.8684L28.8765 53.8728L29.0251 54.2442ZM28.6905 54.366L28.8137 54.7465L28.817 54.7454L28.6905 54.366ZM27.8994 54.5791L27.978 54.9713L27.978 54.9713L27.8994 54.5791ZM27.542 54.6476L27.6078 55.0422L27.6157 55.0407L27.542 54.6476ZM27.4916 54.6552L27.4336 54.2594L27.4336 54.2594L27.4916 54.6552ZM27.5344 54.6552L27.591 55.0512L27.4917 54.2575L27.5344 54.6552ZM27.3822 54.6704V54.2704H27.3594L27.3368 54.273L27.3822 54.6704ZM25.016 54.6648L25.0523 54.2665L25.0522 54.2665L25.016 54.6648ZM24.994 54.6628L24.927 55.0572L24.9423 55.0598L24.9578 55.0612L24.994 54.6628ZM24.9435 54.6542L24.8761 55.0485L24.8765 55.0486L24.9435 54.6542ZM24.9864 54.6628L24.9422 55.0604L25.0568 54.2691L24.9864 54.6628ZM24.8837 54.6476L24.9495 54.2531L24.9495 54.2531L24.8837 54.6476ZM24.781 54.6324L24.7152 55.0269L24.726 55.0287L24.7368 55.0299L24.781 54.6324ZM24.441 54.5628L24.5285 54.1725L24.5283 54.1724L24.441 54.5628ZM24.3779 54.5487L24.287 54.9382L24.2906 54.939L24.3779 54.5487ZM23.6934 54.3507L23.5602 54.7279L23.5629 54.7289L23.6934 54.3507ZM23.5033 54.2822L23.6401 53.9064L23.64 53.9063L23.5033 54.2822ZM23.5031 54.2822L23.3663 54.6581L23.3664 54.6581L23.5031 54.2822ZM23.3131 54.2137L23.1644 54.5851L23.1721 54.5881L23.1799 54.5909L23.3131 54.2137ZM23.2372 54.1799L23.0582 54.5379L23.0709 54.5437L23.2372 54.1799ZM23.237 54.1798L23.416 53.8218L23.4033 53.816L23.237 54.1798ZM23.2143 54.1696L23.4217 53.8276L23.4211 53.8272L23.2143 54.1696ZM23.2727 54.1979L23.1044 54.5608L23.4461 53.8375L23.2727 54.1979ZM23.2142 54.1719L23.3747 53.8054L23.3746 53.8054L23.2142 54.1719ZM23.1229 54.13L23.302 53.7722L23.2948 53.7688L23.1229 54.13ZM21.7995 53.3307L22.0378 53.0093L22.0321 53.0053L21.7995 53.3307ZM21.7764 53.3131L21.5509 53.6435L21.5509 53.6435L21.7764 53.3131ZM21.8225 53.3442L22.0417 53.0096L22.0416 53.0096L21.8225 53.3442ZM21.8376 53.3535L21.6583 53.7112L22.1011 53.0526L21.8376 53.3535ZM21.7425 53.2736L21.4881 53.5823L21.4881 53.5823L21.7425 53.2736ZM21.6474 53.1937L21.9109 52.8928L21.9095 52.8915L21.6474 53.1937ZM21.3127 52.8892L21.0351 53.1773L21.0397 53.1815L21.3127 52.8892ZM20.75 52.2898L21.0485 52.0235L21.0485 52.0235L20.75 52.2898ZM20.7347 52.2726L20.4223 52.5224L20.429 52.5308L20.4362 52.5389L20.7347 52.2726ZM20.6434 52.1584L20.9533 51.9055L20.331 52.4082L20.6434 52.1584ZM20.6941 52.2205L20.3842 52.4734L20.3845 52.4738L20.6941 52.2205ZM20.7016 52.2297L20.3921 52.483L20.6413 52.7876L20.9499 52.5433L20.7016 52.2297ZM20.613 52.1128L20.9561 51.9071L20.9497 51.8965L20.9427 51.8863L20.613 52.1128ZM20.5621 52.0396L20.8893 51.8096L20.8892 51.8095L20.5621 52.0396ZM20.5441 52.014L20.8712 51.7839L20.8712 51.7838L20.5441 52.014ZM20.362 51.7398L20.7069 51.5371L20.7027 51.53L20.6982 51.523L20.362 51.7398ZM19.9437 51.0014L20.3037 50.827L20.3015 50.8226L19.9437 51.0014ZM19.8786 50.8627L19.5072 51.0113L19.5111 51.021L19.5155 51.0306L19.8786 50.8627ZM19.8786 50.8627L20.25 50.7141L20.2461 50.7043L20.2417 50.6948L19.8786 50.8627ZM19.8296 50.773L19.4631 50.9333L20.2001 50.6222L19.8296 50.773ZM19.6851 50.3925L19.3056 50.519L19.3079 50.5255L19.6851 50.3925ZM19.6851 50.3924L20.0647 50.2659L20.0613 50.2567L19.6851 50.3924ZM19.4417 49.5627L19.8304 49.4682L19.8298 49.4658L19.4417 49.5627ZM19.3792 49.2583L19.7727 49.1863L19.7714 49.1799L19.3792 49.2583ZM19.3792 49.2582L18.9857 49.3303L18.9869 49.3367L19.3792 49.2582ZM19.3504 49.106H18.9504V49.1455L18.9582 49.1843L19.3504 49.106ZM19.3487 49.0906L19.2635 48.6998L18.9003 48.7789L18.9527 49.1469L19.3487 49.0906ZM55.3168 39.0199L55.3997 39.4112L55.9386 39.297L55.6632 38.8199L55.3168 39.0199ZM54.473 37.5351L54.8215 37.3387L54.8203 37.3367L54.473 37.5351ZM47.8808 40.5956L47.9634 40.987L47.9638 40.9869L47.8808 40.5956ZM41.6087 41.9242L41.5257 41.5329L41.5257 41.5329L41.6087 41.9242ZM35.3387 43.2523L35.2561 42.8609L35.2552 42.8611L35.3387 43.2523ZM31.9121 43.9793L31.8293 43.5879L31.8293 43.5879L31.9121 43.9793ZM28.4858 44.7062L28.569 45.0974L28.5693 45.0974L28.4858 44.7062ZM23.1731 45.8328L23.2559 46.2241L23.256 46.2241L23.1731 45.8328ZM23.1596 45.8356L23.2422 46.227L23.2424 46.227L23.1596 45.8356ZM23.1553 45.8365L23.0728 45.4452L23.0725 45.4452L23.1553 45.8365ZM17.8604 46.9594L17.943 47.3508L17.9436 47.3506L17.8604 46.9594ZM13.1159 47.9638L13.0329 47.5724L13.0243 47.5744L13.1159 47.9638ZM13.1157 47.9638L13.2057 48.3536L13.2073 48.3532L13.1157 47.9638ZM13.1154 47.9639L13.1984 48.3552L13.2054 48.3536L13.1154 47.9639ZM7.87871 49.0721L7.53231 49.2721L7.67737 49.5234L7.96123 49.4635L7.87871 49.0721ZM7.24339 47.9718L6.8967 48.1714L6.89699 48.1719L7.24339 47.9718ZM5.16288 44.3632L4.81642 44.5631L4.81642 44.5631L5.16288 44.3632ZM4.11282 42.543L3.81543 42.2755L3.62128 42.4914L3.7663 42.7429L4.11282 42.543ZM5.2156 41.3149L5.51333 41.5821L5.51333 41.5821L5.2156 41.3149ZM6.92309 39.4157L7.21998 39.6838L7.22064 39.6831L6.92309 39.4157ZM10.9981 34.88L11.2956 35.1474L11.2956 35.1474L10.9981 34.88ZM15.0614 30.3573L14.7639 30.0899L14.7638 30.09L15.0614 30.3573ZM23.972 20.4322L23.6744 20.165L23.6743 20.1651L23.972 20.4322ZM23.9727 20.4314L24.2704 20.6987L24.2704 20.6986L23.9727 20.4314ZM23.977 20.4267L24.2747 20.6939L24.2747 20.6938L23.977 20.4267ZM24.8882 19.411L24.5906 19.1438L24.5905 19.1439L24.8882 19.411ZM33.3764 9.95674L33.0796 9.68855L33.0788 9.68951L33.3764 9.95674ZM34.7757 8.40028L35.0735 8.66735L35.0767 8.66369L34.7757 8.40028ZM34.7758 8.4001L34.478 8.13304L34.4748 8.1367L34.7758 8.4001ZM36.1754 6.84337L35.8789 6.57489L35.8786 6.57518L36.1754 6.84337ZM36.5496 6.4367L36.896 6.23667L36.625 5.76745L36.2564 6.16457L36.5496 6.4367ZM37.7954 8.59417L38.1421 8.39472L38.1418 8.39414L37.7954 8.59417ZM40.2292 12.815L40.5757 12.615L40.5757 12.615L40.2292 12.815ZM42.6632 17.036L42.3165 17.2355L42.3167 17.2359L42.6632 17.036ZM48.5502 27.2439L48.2036 27.4438L48.2037 27.4439L48.5502 27.2439ZM53.6385 36.0664L53.2918 36.266L53.292 36.2663L53.6385 36.0664ZM54.4711 37.5318L54.1226 37.7282L54.1238 37.7302L54.4711 37.5318ZM58.6855 16.6761L58.4853 16.3298L58.4852 16.3298L58.6855 16.6761ZM55.9675 18.2467L55.7676 17.9003L55.7652 17.9016L55.9675 18.2467ZM58.6878 16.6748L58.4884 16.328L58.4876 16.3285L58.6878 16.6748ZM58.6896 16.6737L58.889 17.0205L58.8898 17.02L58.6896 16.6737ZM62.9801 14.1971L62.7824 13.8493L62.7807 13.8503L62.9801 14.1971ZM63.4819 13.908L63.2813 13.5619L63.2812 13.5619L63.4819 13.908ZM63.4824 13.9077L63.6829 14.2537L63.6831 14.2537L63.4824 13.9077ZM63.9841 13.6185L64.1818 13.9663L64.1827 13.9658L63.9841 13.6185ZM64.3948 12.0581L64.0496 12.2601L64.0509 12.2623L64.3948 12.0581ZM62.8356 11.647L62.637 11.2998L62.6357 11.3005L62.8356 11.647ZM60.1215 13.2154L59.9212 12.8691L59.9211 12.8692L60.1215 13.2154ZM60.1178 13.2175L60.3179 13.5639L60.3182 13.5637L60.1178 13.2175ZM60.1155 13.2189L60.3149 13.5656L60.3156 13.5652L60.1155 13.2189ZM60.1137 13.2199L59.9143 12.8731L59.9134 12.8736L60.1137 13.2199ZM55.823 15.6967L56.0207 16.0444L56.0224 16.0434L55.823 15.6967ZM55.3212 15.9858L55.5218 16.3319L55.5219 16.3318L55.3212 15.9858ZM55.3207 15.9861L55.1202 15.64L55.12 15.6401L55.3207 15.9861ZM54.819 16.2752L54.6213 15.9275L54.6204 15.928L54.819 16.2752ZM54.4083 17.8357L54.7548 17.6358L54.7522 17.6315L54.4083 17.8357ZM63.5297 27.6996L63.5009 27.3007L63.5004 27.3007L63.5297 27.6996ZM67.7021 27.3964L67.7315 27.7954L67.7334 27.7952L67.7021 27.3964ZM68.2803 27.3546L68.2526 26.9555L68.2526 26.9555L68.2803 27.3546ZM68.8582 27.3127L68.8275 26.9139L68.8269 26.9139L68.8582 27.3127ZM69.9991 26.1709L69.5994 26.1866L69.5995 26.1897L69.9991 26.1709ZM68.8582 25.0291L68.8297 24.6301L68.8289 24.6301L68.8582 25.0291ZM64.9613 25.312L64.99 25.7109L64.9901 25.7109L64.9613 25.312ZM64.958 25.3122L64.9293 24.9132L64.9292 24.9132L64.958 25.3122ZM60.7884 25.6152L60.759 25.2163L60.7571 25.2164L60.7884 25.6152ZM60.2103 25.6571L60.2353 26.0563L60.238 26.0561L60.2103 25.6571ZM60.2101 25.6571L60.1852 25.2578L60.1824 25.258L60.2101 25.6571ZM59.6323 25.6989L59.663 26.0977L59.6636 26.0977L59.6323 25.6989ZM58.4914 26.8407L58.8911 26.8252L58.8909 26.822L58.4914 26.8407ZM59.6323 27.9826L59.6608 28.3816L59.6616 28.3815L59.6323 27.9826ZM63.5239 27.7L63.4957 27.301L63.4951 27.3011L63.5239 27.7ZM63.5258 27.6999L63.554 28.0989L63.5551 28.0988L63.5258 27.6999ZM34.0242 24.8649L33.7655 24.5598L33.7624 24.5625L34.0242 24.8649ZM33.097 25.6683L33.357 25.9722L33.3592 25.9704L33.097 25.6683ZM34.0245 24.8647L34.2831 25.1698L34.2863 25.1671L34.0245 24.8647ZM36.0253 23.1258L35.7628 22.824L35.7617 22.8249L36.0253 23.1258ZM36.0253 21.512L36.3082 21.2293L36.3082 21.2293L36.0253 21.512ZM34.4128 21.512L34.675 21.8141L34.6753 21.8139L34.4128 21.512ZM33.4871 22.3141L33.2253 22.0117L33.2251 22.0119L33.4871 22.3141ZM33.4855 22.3155L33.7469 22.6183L33.7475 22.6177L33.4855 22.3155ZM33.4847 22.3162L33.2234 22.0134L33.2229 22.0138L33.4847 22.3162ZM31.4846 24.0545L31.747 24.3563L31.7481 24.3554L31.4846 24.0545ZM31.4846 25.6683L31.7699 25.3879L31.7675 25.3855L31.4846 25.6683ZM10.0279 43.7856L9.77887 43.4726L9.7761 43.4748L10.0279 43.7856ZM12.2577 42.0137L12.0089 41.7005L12.0089 41.7005L12.2577 42.0137ZM8.41545 43.7856L8.13249 44.0684L8.13249 44.0684L8.41545 43.7856ZM8.41545 42.1719L8.16737 41.8581L8.16666 41.8586L8.41545 42.1719ZM9.55668 41.2657L9.80573 41.5788L9.80573 41.5788L9.55668 41.2657ZM10.6972 40.3602L10.9453 40.6739L10.9463 40.6731L10.6972 40.3602ZM20.616 32.4795L20.8646 32.7928L20.8647 32.7927L20.616 32.4795ZM20.6229 32.474L20.8717 32.7872L20.8725 32.7866L20.6229 32.474ZM24.6149 29.2979L24.3661 28.9846L24.3661 28.9846L24.6149 29.2979ZM26.8445 27.5261L27.0935 27.8391L27.0939 27.8388L26.8445 27.5261ZM28.457 27.5261L28.174 27.8088L28.174 27.8088L28.457 27.5261ZM28.457 29.1399L28.7051 29.4536L28.7058 29.4531L28.457 29.1399ZM27.3162 30.0456L27.5653 30.3586L27.5653 30.3586L27.3162 30.0456ZM26.1752 30.9516L25.9271 30.6378L25.9261 30.6386L26.1752 30.9516ZM16.2565 38.8322L16.505 39.1456L16.5051 39.1455L16.2565 38.8322ZM16.2495 38.8377L16.001 38.5243L15.9999 38.5252L16.2495 38.8377ZM52.804 6.25965L52.8107 6.24978L52.1485 5.80098L52.1418 5.81084L52.804 6.25965ZM50.5407 9.60252C51.2951 8.48701 52.0495 7.37338 52.8041 6.25959L52.1418 5.8109C51.3872 6.92464 50.6326 8.03853 49.878 9.15434L50.5407 9.60252ZM48.447 10.1341C49.2215 10.5907 50.0971 10.2491 50.5392 9.60471L49.8795 9.15215C49.6218 9.52782 49.1892 9.64296 48.8532 9.44491L48.447 10.1341ZM47.9073 8.0061C47.6581 8.37738 47.6334 8.81954 47.7404 9.19797C47.8468 9.57447 48.0938 9.92831 48.4488 10.1351L48.8515 9.44386C48.6969 9.35379 48.5673 9.18239 48.5102 8.98037C48.4537 8.78028 48.4784 8.59063 48.5715 8.45189L47.9073 8.0061ZM48.2316 7.52484C48.1234 7.6845 48.0141 7.84576 47.9065 8.00724L48.5723 8.45075C48.6777 8.29245 48.7852 8.13391 48.8938 7.97378L48.2316 7.52484ZM48.553 7.04811C48.4476 7.20633 48.3402 7.36479 48.2316 7.52484L48.8938 7.97378C49.002 7.8142 49.1113 7.65303 49.2188 7.49162L48.553 7.04811ZM50.8178 3.70314C50.0635 4.81661 49.309 5.93024 48.5546 7.04578L49.2172 7.49395C49.9715 6.37872 50.7257 5.26535 51.4801 4.15184L50.8178 3.70314ZM50.8157 3.7062L50.8156 3.70646L51.4823 4.14852L51.4825 4.14826L50.8157 3.7062ZM50.8159 3.70594L50.8157 3.7062L51.4825 4.14826L51.4827 4.148L50.8159 3.70594ZM50.8251 3.69236L50.8181 3.70263L51.4805 4.15131L51.4874 4.14104L50.8251 3.69236ZM53.0953 0.339471C52.3386 1.4583 51.5819 2.57525 50.8251 3.69235L51.4874 4.14105C52.2442 3.02399 53.0011 1.90678 53.7579 0.787647L53.0953 0.339471ZM55.1869 -0.193276C54.4081 -0.646166 53.5313 -0.310311 53.0945 0.340663L53.7587 0.786456C54.0064 0.417401 54.4378 0.296525 54.7847 0.49828L55.1869 -0.193276ZM55.7287 1.93589C55.9778 1.56461 56.0025 1.12245 55.8955 0.744018C55.7891 0.367517 55.5422 0.0136828 55.1872 -0.193124L54.7845 0.498129C54.9391 0.588196 55.0686 0.7596 55.1257 0.961622C55.1823 1.16171 55.1575 1.35136 55.0644 1.4901L55.7287 1.93589ZM55.0793 2.89927C55.302 2.57644 55.5168 2.25403 55.7294 1.93475L55.0636 1.49124C54.8504 1.81138 54.6392 2.12839 54.4208 2.44498L55.0793 2.89927ZM52.8108 6.24973C53.5676 5.13264 54.3245 4.01539 55.0814 2.89621L54.4187 2.44804C53.662 3.56691 52.9053 4.68389 52.1484 5.80103L52.8108 6.24973ZM33.8487 2.53807L33.8487 2.53817L34.5315 2.12122L34.5314 2.12113L33.8487 2.53807ZM34.3985 0.424029C33.6726 0.849531 33.4332 1.80055 33.8415 2.52582L34.5386 2.13338C34.3384 1.77773 34.4641 1.31288 34.8031 1.11419L34.3985 0.424029ZM36.5074 0.981834C36.0919 0.254148 35.1128 -0.000780702 34.3963 0.42531L34.8052 1.11291C35.1384 0.914803 35.6196 1.04048 35.8126 1.3785L36.5074 0.981834ZM36.5368 1.03557C36.5324 1.02671 36.5163 0.993558 36.4929 0.958362L35.8271 1.40197C35.8224 1.39485 35.8194 1.38951 35.8184 1.38768C35.818 1.38681 35.8179 1.38661 35.8183 1.38756C35.8189 1.38869 35.8196 1.39005 35.8212 1.39315L36.5368 1.03557ZM36.5364 1.0348L36.5364 1.03473L35.8216 1.39399L35.8216 1.39406L36.5364 1.0348ZM36.5309 1.02695C36.5357 1.03404 36.5386 1.03936 36.5396 1.04117C36.54 1.04203 36.5401 1.04222 36.5396 1.04126C36.5391 1.04013 36.5384 1.03876 36.5368 1.03566L35.8212 1.39319C35.8256 1.40208 35.8417 1.43522 35.8651 1.4704L36.5309 1.02695ZM38.4164 4.27292C37.8072 3.19283 37.1928 2.10355 36.5388 1.03925L35.8572 1.4581C36.5021 2.50749 37.1091 3.58365 37.7195 4.66593L38.4164 4.27292ZM38.6666 4.71643L38.4163 4.27284L37.7196 4.66601L37.9699 5.10961L38.6666 4.71643ZM39.6575 6.4497C39.3306 5.87001 39.0014 5.28785 38.6634 4.71085L37.9731 5.11519C38.3074 5.68588 38.6337 6.26285 38.9607 6.84266L39.6575 6.4497ZM45.2759 16.1891C43.4003 12.9441 41.5247 9.69219 39.6557 6.44657L38.9625 6.84579C40.8316 10.0917 42.7074 13.344 44.5833 16.5894L45.2759 16.1891ZM48.6682 22.0697C47.5369 20.1095 46.4055 18.1495 45.2762 16.1895L44.583 16.589C45.7126 18.5492 46.844 20.5095 47.9754 22.4696L48.6682 22.0697ZM52.0606 27.9503C50.9311 25.99 49.7996 24.0298 48.6682 22.0697L47.9754 22.4696C49.1068 24.4297 50.2381 26.3897 51.3675 28.3497L52.0606 27.9503ZM57.6737 37.686C55.8026 34.4432 53.9316 31.2006 52.0607 27.9505L51.3674 28.3496C53.2385 31.6002 55.1097 34.8431 56.9807 38.0859L57.6737 37.686ZM58.3853 38.9101C58.1483 38.501 57.9108 38.0923 57.6726 37.6843L56.9817 38.0876C57.2194 38.4948 57.4565 38.9026 57.693 39.3111L58.3853 38.9101ZM58.5503 39.2021C58.4995 39.0793 58.4337 38.9668 58.3555 38.8658L57.7228 39.3554C57.7579 39.4007 57.7877 39.4514 57.8109 39.5077L58.5503 39.2021ZM60.0309 41.7652C59.5304 40.8947 59.0297 40.0237 58.5268 39.1546L57.8344 39.5552C58.3366 40.4232 58.8368 41.2933 59.3374 42.1639L60.0309 41.7652ZM60.0321 41.7673L60.0313 41.7658L59.337 42.1633L59.3379 42.1648L60.0321 41.7673ZM59.4766 43.8716C60.2019 43.4465 60.4431 42.487 60.0324 41.7677L59.3376 42.1644C59.5354 42.5108 59.4116 42.9824 59.072 43.1815L59.4766 43.8716ZM57.3677 43.3138C57.7832 44.0415 58.7623 44.2964 59.4788 43.8704L59.0698 43.1828C58.7367 43.3809 58.2555 43.2552 58.0625 42.9172L57.3677 43.3138ZM57.3382 43.26C57.3427 43.2689 57.3587 43.3021 57.3822 43.3373L58.048 42.8937C58.0527 42.9008 58.0557 42.9062 58.0567 42.908C58.0571 42.9089 58.0572 42.9091 58.0567 42.9081C58.0562 42.907 58.0555 42.9056 58.0539 42.9025L57.3382 43.26ZM57.3332 43.2502L57.3392 43.262L58.0529 42.9005L58.0469 42.8887L57.3332 43.2502ZM57.3337 43.2512L57.3368 43.257L58.0434 42.8819L58.0403 42.8761L57.3337 43.2512ZM57.3347 43.2531L57.3378 43.2587L58.0362 42.8685L58.0331 42.8629L57.3347 43.2531ZM57.3441 43.2687C57.3411 43.2641 57.3387 43.2602 57.3372 43.2576L58.0305 42.8584C58.0248 42.8485 58.018 42.8373 58.01 42.8253L57.3441 43.2687ZM56.1724 41.2825C56.5505 41.9442 56.9357 42.6047 57.3363 43.2564L58.0179 42.8376C57.6235 42.1959 57.243 41.5435 56.867 40.8856L56.1724 41.2825ZM46.8761 43.537L56.6026 41.4753L56.4367 40.6927L46.7102 42.7544L46.8761 43.537ZM41.0708 44.7668C43.0052 44.3575 44.9398 43.9482 46.8763 43.537L46.7101 42.7544C44.774 43.1656 42.8397 43.5748 40.9052 43.9841L41.0708 44.7668ZM35.5057 45.9456C37.3618 45.5516 39.2162 45.1592 41.0708 44.7668L40.9052 43.9841C39.0507 44.3765 37.1959 44.7689 35.3395 45.163L35.5057 45.9456ZM35.8288 45.9126C35.8266 45.7907 35.8245 45.6692 35.8225 45.5478L35.0226 45.5608C35.0246 45.6829 35.0268 45.805 35.0289 45.9268L35.8288 45.9126ZM35.7979 48.7146C35.8621 47.7779 35.8451 46.8331 35.8288 45.9126L35.0289 45.9268C35.0453 46.8532 35.0612 47.7634 34.9998 48.66L35.7979 48.7146ZM32.4888 55.2459C34.4492 53.6348 35.6313 51.2241 35.798 48.7138L34.9997 48.6608C34.847 50.9614 33.7625 53.1636 31.9808 54.6278L32.4888 55.2459ZM29.1519 57.0337C30.3888 56.6743 31.5009 56.0527 32.4878 55.2467L31.9818 54.6271C31.0673 55.3739 30.0496 55.9398 28.9287 56.2655L29.1519 57.0337ZM25.9675 57.3998C27.0195 57.3998 28.0931 57.3468 29.1538 57.0332L28.9269 56.266C27.9796 56.5461 26.9996 56.5998 25.9675 56.5998V57.3998ZM19.3902 54.7585C21.157 56.4869 23.5178 57.3998 25.9675 57.3998V56.5998C23.7168 56.5998 21.5598 55.7618 19.9496 54.1866L19.3902 54.7585ZM16.7138 49.496C17.0134 51.4775 17.9397 53.339 19.3901 54.7584L19.9496 54.1866C18.6274 52.8927 17.7792 51.1916 17.5049 49.3764L16.7138 49.496ZM12.9691 50.7229C14.3765 50.4244 15.7839 50.1259 17.1923 49.8275L17.0264 49.0449C15.618 49.3433 14.2105 49.6418 12.8031 49.9403L12.9691 50.7229ZM9.15575 51.5314L12.9691 50.7229L12.8031 49.9403L8.98982 50.7488L9.15575 51.5314ZM10.2138 52.3163L9.41919 50.9401L8.72638 51.3401L9.52102 52.7163L10.2138 52.3163ZM9.65686 54.4231C10.3913 53.9987 10.6351 53.0361 10.2126 52.3143L9.5222 52.7183C9.72342 53.0622 9.60218 53.5307 9.25655 53.7305L9.65686 54.4231ZM7.55013 53.8641C7.96561 54.5918 8.94467 54.8467 9.66116 54.4206L9.25225 53.733C8.91912 53.9311 8.43786 53.8054 8.24486 53.4674L7.55013 53.8641ZM6.95956 52.8384C7.15756 53.1797 7.35505 53.5201 7.54955 53.8631L8.24544 53.4684C8.04868 53.1215 7.84921 52.7777 7.65153 52.4369L6.95956 52.8384ZM6.96417 52.8461L6.96423 52.8462L7.64686 52.4291L7.6468 52.429L6.96417 52.8461ZM6.95493 52.8302L6.955 52.8303L7.65597 52.4448L7.65591 52.4447L6.95493 52.8302ZM6.58477 52.1904C6.70901 52.4065 6.83433 52.6225 6.95943 52.8382L7.65141 52.4367C7.52616 52.2208 7.40164 52.0062 7.27833 51.7917L6.58477 52.1904ZM4.50495 48.5829C5.19898 49.7857 5.89288 50.9881 6.58486 52.1906L7.27824 51.7915C6.58599 50.5886 5.89185 49.3857 5.19786 48.1831L4.50495 48.5829ZM3.64045 47.0846L4.50493 48.5829L5.19787 48.1831L4.33338 46.6848L3.64045 47.0846ZM3.39353 46.6568L3.64049 47.0847L4.33334 46.6847L4.08637 46.2569L3.39353 46.6568ZM1.38174 43.1704C2.05109 44.3313 2.72234 45.4941 3.39353 46.6568L4.08637 46.2569C3.41517 45.0942 2.74402 43.9315 2.07479 42.7708L1.38174 43.1704ZM1.34837 43.11C1.35928 43.1308 1.37072 43.1515 1.38268 43.1721L2.07385 42.7692C2.06803 42.7592 2.06249 42.7492 2.05724 42.7392L1.34837 43.11ZM-0.19931 40.4303L1.35641 43.1246L2.04921 42.7245L0.493491 40.0303L-0.19931 40.4303ZM0.355525 38.3247C-0.369752 38.7499 -0.610958 39.7093 -0.200277 40.4286L0.494459 40.0319C0.296668 39.6855 0.420546 39.2139 0.760093 39.0149L0.355525 38.3247ZM2.46438 38.8825C2.04891 38.1548 1.06984 37.8999 0.353354 38.326L0.762265 39.0136C1.09539 38.8155 1.57666 38.9412 1.76965 39.2792L2.46438 38.8825ZM3.05496 39.9082C2.85696 39.5669 2.65946 39.2265 2.46496 38.8835L1.76907 39.2782C1.96584 39.6251 2.16531 39.9689 2.36299 40.3097L3.05496 39.9082ZM3.25354 40.2508L3.05504 39.9083L2.36291 40.3095L2.56142 40.652L3.25354 40.2508ZM4.48508 38.1064C3.85817 38.7963 3.22989 39.4876 2.60872 40.1854L3.20625 40.7173C3.82425 40.0231 4.44977 39.3348 5.07714 38.6444L4.48508 38.1064ZM5.78909 36.6666C5.35622 37.1477 4.92098 37.6267 4.48508 38.1064L5.07714 38.6444C5.51282 38.165 5.94939 37.6845 6.3838 37.2017L5.78909 36.6666ZM14.277 27.2127L5.7888 36.667L6.38408 37.2014L14.8723 27.7471L14.277 27.2127ZM18.4014 22.6195C17.0279 24.15 15.6532 25.6819 14.2772 27.2125L14.8721 27.7473C16.2484 26.2165 17.6233 24.6843 18.9968 23.1538L18.4014 22.6195ZM18.4022 22.6186L18.4016 22.6192L18.9966 23.154L18.9971 23.1535L18.4022 22.6186ZM18.4027 22.6181L18.4022 22.6186L18.9971 23.1535L18.9976 23.1529L18.4027 22.6181ZM18.4032 22.6175L18.4027 22.6181L18.9976 23.1529L18.9981 23.1523L18.4032 22.6175ZM18.4147 22.6046L18.4029 22.6178L18.9983 23.1521L19.0101 23.139L18.4147 22.6046ZM18.4172 22.6018L18.4146 22.6047L19.0102 23.1389L19.0128 23.136L18.4172 22.6018ZM18.4281 22.5897L18.4173 22.6017L19.0127 23.1361L19.0235 23.1241L18.4281 22.5897ZM18.4296 22.5881L18.428 22.5899L19.0236 23.124L19.0252 23.1222L18.4296 22.5881ZM18.4314 22.5861L18.4298 22.5879L19.025 23.1224L19.0266 23.1206L18.4314 22.5861ZM18.4333 22.5839L18.4315 22.5859L19.0264 23.1208L19.0282 23.1188L18.4333 22.5839ZM24.089 16.2888C22.2061 18.3797 20.3207 20.4807 18.4331 22.5842L19.0285 23.1185C20.9162 21.0149 22.8011 18.9144 24.6835 16.8241L24.089 16.2888ZM28.164 11.753L24.0887 16.2891L24.6838 16.8238L28.7591 12.2877L28.164 11.753ZM32.227 7.23069L28.164 11.753L28.7591 12.2877L32.8221 7.76534L32.227 7.23069ZM33.9346 5.3314C33.3659 5.96528 32.7977 6.59861 32.2276 7.22996L32.8214 7.76607C33.3924 7.13363 33.9615 6.49936 34.53 5.86564L33.9346 5.3314ZM35.0559 4.08268C34.6817 4.49866 34.308 4.91515 33.9346 5.3314L34.53 5.86564C34.9035 5.44932 35.2768 5.03324 35.6506 4.61773L35.0559 4.08268ZM33.8433 2.52907C34.2307 3.20283 34.6183 3.87692 35.0068 4.55014L35.6997 4.15027C35.3116 3.47771 34.9243 2.80418 34.5369 2.13032L33.8433 2.52907ZM33.5627 47.9946V46.0801H32.7627V47.9946H33.5627ZM33.5225 48.9042C33.555 48.595 33.5627 48.29 33.5627 47.9946H32.7627C32.7627 48.2777 32.7552 48.5512 32.7269 48.8205L33.5225 48.9042ZM33.5067 49.0463L33.5222 48.9065L32.7271 48.8183L32.7116 48.958L33.5067 49.0463ZM33.4942 49.1156L33.501 49.0827L32.7174 48.9216L32.7106 48.9546L33.4942 49.1156ZM33.4864 49.1545L33.4945 49.1141L32.7103 48.9562L32.7021 48.9966L33.4864 49.1545ZM33.4775 49.2015L33.4873 49.1498L32.7012 49.0012L32.6915 49.053L33.4775 49.2015ZM33.4529 49.3297L33.4773 49.2028L32.6917 49.0517L32.6673 49.1786L33.4529 49.3297ZM33.419 49.5069C33.4302 49.4473 33.4414 49.3893 33.4528 49.3301L32.6674 49.1782C32.656 49.2371 32.6443 49.2973 32.6327 49.3596L33.419 49.5069ZM33.1935 50.348C33.282 50.074 33.3534 49.7953 33.4158 49.5224L32.6359 49.3442C32.5765 49.6041 32.511 49.8583 32.4322 50.1019L33.1935 50.348ZM33.0626 50.7083C33.1118 50.5851 33.1525 50.4709 33.1924 50.3514L32.4333 50.0985C32.3971 50.2073 32.3618 50.3063 32.3197 50.4114L33.0626 50.7083ZM33.052 50.7376L33.0665 50.6981L32.3158 50.4217L32.3013 50.4612L33.052 50.7376ZM33.0561 50.7259L33.0561 50.7258L32.2972 50.4729L32.2971 50.4729L33.0561 50.7259ZM32.9729 50.929C33.0088 50.8572 33.0355 50.7826 33.0523 50.7366L32.3009 50.4622C32.2811 50.5163 32.2694 50.5472 32.2573 50.5714L32.9729 50.929ZM32.9968 50.8723C33.0129 50.8357 33.0135 50.8349 33.0093 50.8433C33.0084 50.8451 33.0063 50.8493 33.0034 50.8547C33.003 50.8554 32.9932 50.874 32.978 50.8954C32.9734 50.9018 32.9649 50.9135 32.953 50.9271C32.9447 50.9366 32.9173 50.9675 32.8737 50.9966C32.8521 51.011 32.6894 51.1191 32.488 51.0286C32.2909 50.94 32.261 50.7518 32.2573 50.7287C32.249 50.6785 32.2525 50.6386 32.2537 50.6261C32.2554 50.6084 32.2579 50.5945 32.2594 50.5868C32.2625 50.5713 32.2658 50.5594 32.2671 50.5546C32.2702 50.5439 32.273 50.5357 32.2738 50.5333C32.2751 50.5298 32.2761 50.5271 32.2766 50.5256C32.2777 50.5227 32.2785 50.5207 32.2787 50.5202C32.2791 50.519 32.2786 50.5204 32.2762 50.526C32.2642 50.5549 32.2534 50.5792 32.2573 50.5714L32.9729 50.929C32.9844 50.906 33.0078 50.8503 33.0148 50.8335C33.0172 50.8277 33.0205 50.8199 33.0231 50.813C33.0239 50.8112 33.0251 50.808 33.0265 50.8042C33.0272 50.8023 33.0284 50.7991 33.0297 50.7953C33.0307 50.7926 33.0336 50.7842 33.0367 50.7733C33.0381 50.7684 33.0414 50.7564 33.0444 50.7408C33.046 50.7331 33.0485 50.7191 33.0502 50.7015C33.0513 50.6889 33.0549 50.649 33.0466 50.5988C33.0428 50.5757 33.013 50.3875 32.8159 50.2989C32.6144 50.2083 32.4517 50.3165 32.4301 50.3308C32.3865 50.3599 32.3591 50.3909 32.3508 50.4004C32.3389 50.414 32.3303 50.4257 32.3257 50.4322C32.3105 50.4537 32.3006 50.4725 32.3001 50.4734C32.297 50.479 32.2947 50.4836 32.2936 50.4858C32.2861 50.5009 32.2744 50.5277 32.2638 50.5519L32.9968 50.8723ZM32.616 51.6199C32.7485 51.3781 32.8742 51.1345 32.9925 50.8818L32.2681 50.5425C32.1583 50.7769 32.0406 51.0053 31.9144 51.2355L32.616 51.6199ZM32.598 51.6496L32.598 51.6496L31.9324 51.2058L31.9324 51.2058L32.598 51.6496ZM32.1717 52.2956C32.3394 52.0774 32.4798 51.8452 32.6072 51.6352L31.9232 51.2202C31.792 51.4365 31.6738 51.6306 31.5374 51.8081L32.1717 52.2956ZM32.1325 52.3479C32.1488 52.3254 32.1585 52.3122 32.1669 52.3016L31.5421 51.8021C31.5201 51.8296 31.4994 51.8583 31.4853 51.8776L32.1325 52.3479ZM32.0971 52.3959C32.1101 52.3787 32.1227 52.3614 32.1325 52.3479L31.4853 51.8776C31.4747 51.8922 31.4668 51.903 31.4594 51.9128L32.0971 52.3959ZM32.062 52.4384L32.0847 52.4115L31.4719 51.8972L31.4492 51.9241L32.062 52.4384ZM31.9189 52.6081C31.9667 52.5507 32.0116 52.4967 32.058 52.4431L31.4533 51.9194C31.401 51.9798 31.3511 52.0397 31.3041 52.0961L31.9189 52.6081ZM31.9197 52.6071L31.92 52.6066L31.3029 52.0975L31.3026 52.098L31.9197 52.6071ZM31.9183 52.6088L31.9184 52.6086L31.3038 52.0965L31.3037 52.0967L31.9183 52.6088ZM31.769 52.7857C31.8213 52.7252 31.8713 52.6653 31.9184 52.6087L31.3036 52.0968C31.2557 52.1543 31.2107 52.2083 31.1642 52.262L31.769 52.7857ZM31.2421 53.3139C31.4259 53.1459 31.5942 52.9774 31.7621 52.7934L31.1711 52.2542C31.0195 52.4204 30.8684 52.5716 30.7024 52.7233L31.2421 53.3139ZM31.1056 53.4345C31.1487 53.397 31.1958 53.356 31.2414 53.3145L30.703 52.7227C30.665 52.7573 30.6247 52.7925 30.5804 52.831L31.1056 53.4345ZM30.9828 53.5428C31.0208 53.5083 31.0612 53.4731 31.1056 53.4345L30.5804 52.831C30.5372 52.8686 30.4901 52.9096 30.4444 52.9511L30.9828 53.5428ZM30.8936 53.6198C30.9111 53.6051 30.97 53.5563 30.9966 53.5297L30.4307 52.9642C30.4334 52.9615 30.4354 52.9596 30.4365 52.9586C30.4376 52.9576 30.4383 52.9569 30.4385 52.9567C30.4388 52.9564 30.4384 52.9568 30.4368 52.9582C30.4337 52.9609 30.4289 52.9651 30.4225 52.9706C30.4097 52.9815 30.3943 52.9944 30.3795 53.0068L30.8936 53.6198ZM30.8736 53.6366L30.8939 53.6195L30.3792 53.007L30.3589 53.0241L30.8736 53.6366ZM30.7378 53.7396C30.7636 53.7224 30.8314 53.6696 30.861 53.6467L30.3715 53.0139C30.3512 53.0296 30.3295 53.0464 30.3116 53.0601C30.3027 53.067 30.2954 53.0725 30.2903 53.0763C30.2876 53.0783 30.2862 53.0793 30.2858 53.0797C30.2841 53.0809 30.2879 53.0781 30.2939 53.074L30.7378 53.7396ZM29.3994 54.5194C29.857 54.2943 30.3132 54.0469 30.7502 53.731L30.2815 53.0827C29.8971 53.3606 29.4862 53.5851 29.0463 53.8015L29.3994 54.5194ZM29.3578 54.5402L29.4019 54.5181L29.0439 53.8027L28.9998 53.8248L29.3578 54.5402ZM29.3171 54.5582L29.3331 54.5515L29.0244 53.8135L29.0084 53.8202L29.3171 54.5582ZM29.2961 54.5672L29.3193 54.5573L29.0062 53.8211L28.983 53.831L29.2961 54.5672ZM29.288 54.5705L29.2881 54.5705L28.991 53.8277L28.9909 53.8277L29.288 54.5705ZM29.2931 54.5684L29.2933 54.5684L28.9856 53.8299L28.9855 53.8299L29.2931 54.5684ZM29.1517 54.6236C29.2097 54.6043 29.2618 54.5818 29.2963 54.5671L28.9823 53.8313C28.9438 53.8477 28.9209 53.8573 28.8985 53.8647L29.1517 54.6236ZM28.817 54.7454C28.9365 54.7055 29.0507 54.6648 29.1738 54.6155L28.8765 53.8728C28.7714 53.9149 28.6725 53.9503 28.5639 53.9865L28.817 54.7454ZM27.978 54.9713C28.2648 54.9139 28.547 54.8329 28.8137 54.7465L28.5672 53.9854C28.3167 54.0665 28.0665 54.1377 27.8209 54.1869L27.978 54.9713ZM27.6157 55.0407C27.7369 55.018 27.8611 54.9947 27.978 54.9713L27.8209 54.1869C27.7096 54.2092 27.5904 54.2315 27.4682 54.2545L27.6157 55.0407ZM27.5495 55.051C27.567 55.0484 27.5914 55.0449 27.6078 55.0422L27.4761 54.2531C27.4697 54.2541 27.4551 54.2563 27.4336 54.2594L27.5495 55.051ZM27.4917 54.2575C27.4521 54.2618 27.4284 54.2642 27.4156 54.2653C27.4081 54.266 27.4088 54.2659 27.4133 54.2656C27.4148 54.2655 27.4181 54.2654 27.4224 54.2652C27.4256 54.2652 27.4354 54.2649 27.4482 54.2654C27.4544 54.2657 27.467 54.2663 27.4829 54.2684C27.4904 54.2694 27.5348 54.2746 27.5868 54.2966C27.6104 54.3066 27.6758 54.3361 27.7343 54.4042C27.8089 54.4908 27.8557 54.6239 27.8177 54.7673C27.7882 54.879 27.72 54.9435 27.6954 54.9652C27.6647 54.9921 27.6366 55.0084 27.6229 55.0159C27.5946 55.0314 27.5708 55.0398 27.5631 55.0425C27.5523 55.0462 27.5436 55.0487 27.5387 55.0501C27.5289 55.0528 27.5213 55.0545 27.5184 55.0551C27.512 55.0565 27.5076 55.0573 27.5075 55.0573C27.5064 55.0575 27.5076 55.0573 27.5125 55.0565C27.5216 55.0551 27.5343 55.0532 27.5495 55.051L27.4336 54.2594C27.4196 54.2615 27.4031 54.2639 27.3898 54.266C27.3835 54.267 27.3751 54.2683 27.3671 54.2697C27.3636 54.2703 27.3563 54.2717 27.3478 54.2735C27.3439 54.2744 27.3354 54.2763 27.3249 54.2792C27.3197 54.2806 27.3107 54.2832 27.2997 54.287C27.2918 54.2898 27.2679 54.2983 27.2394 54.3138C27.2256 54.3214 27.1975 54.3376 27.1668 54.3647C27.1421 54.3864 27.0739 54.4508 27.0444 54.5626C27.0064 54.706 27.0532 54.8391 27.1278 54.9258C27.1863 54.9939 27.2517 55.0235 27.2754 55.0335C27.3275 55.0555 27.372 55.0607 27.3798 55.0617C27.3959 55.0638 27.4088 55.0645 27.4153 55.0648C27.4371 55.0657 27.4554 55.0645 27.4572 55.0644C27.4683 55.0638 27.48 55.0628 27.4886 55.062C27.5079 55.0602 27.5368 55.0573 27.577 55.0529L27.4917 54.2575ZM27.3822 55.0704C27.4621 55.0704 27.5459 55.0576 27.591 55.0512L27.4778 54.2593C27.4164 54.268 27.3936 54.2704 27.3822 54.2704V55.0704ZM26.5836 55.1085C26.8566 55.1085 27.1399 55.1008 27.4277 55.0679L27.3368 54.273C27.0922 54.301 26.8431 54.3085 26.5836 54.3085V55.1085ZM25.7318 55.1085H26.5836V54.3085H25.7318V55.1085ZM24.9797 55.0632C25.2197 55.085 25.4742 55.1085 25.7318 55.1085V54.3085C25.5168 54.3085 25.2988 54.2889 25.0523 54.2665L24.9797 55.0632ZM24.9578 55.0612L24.9798 55.0632L25.0522 54.2665L25.0302 54.2645L24.9578 55.0612ZM24.8765 55.0486L24.927 55.0572L25.061 54.2685L25.0105 54.2599L24.8765 55.0486ZM25.0568 54.2691C25.0169 54.262 24.9911 54.2573 24.9757 54.2545C24.9678 54.2531 24.9635 54.2523 24.9616 54.2519C24.96 54.2516 24.962 54.252 24.9653 54.2527C24.9663 54.2529 24.9685 54.2533 24.9713 54.254C24.9724 54.2542 24.9808 54.2561 24.9915 54.2591C24.9933 54.2596 25.0129 54.2649 25.0365 54.2747C25.0388 54.2756 25.0879 54.2945 25.1379 54.3358C25.1715 54.367 25.2466 54.4773 25.2743 54.5607C25.2804 54.6903 25.1922 54.898 25.1209 54.9657C25.0773 54.9938 25.0037 55.0255 24.9765 55.033C24.9597 55.0367 24.9316 55.0411 24.9203 55.0424C24.8989 55.0444 24.8821 55.0441 24.876 55.044C24.8618 55.0438 24.8507 55.0428 24.8477 55.0425C24.8279 55.0408 24.8091 55.0371 24.8364 55.0418C24.8471 55.0436 24.8614 55.046 24.8761 55.0485L25.0108 54.26C24.9963 54.2575 24.9814 54.2549 24.9698 54.253C24.964 54.252 24.9586 54.2511 24.9542 54.2504C24.9521 54.25 24.9495 54.2496 24.9469 54.2492C24.9457 54.249 24.9436 54.2487 24.941 54.2483C24.9398 54.2481 24.9376 54.2478 24.935 54.2475C24.9334 54.2473 24.9269 54.2464 24.9186 54.2457C24.9155 54.2454 24.9044 54.2444 24.8902 54.2442C24.8841 54.2441 24.8672 54.2438 24.8458 54.2458C24.8346 54.2471 24.8064 54.2515 24.7897 54.2552C24.7624 54.2627 24.6889 54.2944 24.6452 54.3225C24.574 54.3902 24.4857 54.5979 24.4919 54.7275C24.5195 54.8109 24.5946 54.9212 24.6283 54.9525C24.6782 54.9937 24.7274 55.0126 24.7297 55.0135C24.7533 55.0233 24.7729 55.0286 24.7748 55.0292C24.7855 55.0322 24.7942 55.0341 24.7954 55.0344C24.7985 55.0351 24.801 55.0356 24.8023 55.0359C24.8069 55.0368 24.8112 55.0377 24.8129 55.038C24.8178 55.0389 24.8244 55.0401 24.8326 55.0416C24.8493 55.0446 24.8761 55.0495 24.916 55.0566L25.0568 54.2691ZM24.8179 55.0422C24.8502 55.0476 24.8953 55.0552 24.9422 55.0604L25.0306 54.2653C25.009 54.2629 24.9856 54.2591 24.9495 54.2531L24.8179 55.0422ZM24.7368 55.0299C24.7584 55.0323 24.7818 55.0361 24.8179 55.0422L24.9495 54.2531C24.9171 54.2477 24.8721 54.2401 24.8253 54.2348L24.7368 55.0299ZM24.3534 54.9531C24.4659 54.9783 24.5868 55.0055 24.7152 55.0269L24.8468 54.2378C24.7438 54.2206 24.6442 54.1984 24.5285 54.1725L24.3534 54.9531ZM24.2906 54.939L24.3536 54.9531L24.5283 54.1724L24.4652 54.1583L24.2906 54.939ZM23.5629 54.7289C23.796 54.8093 24.0449 54.8817 24.287 54.9382L24.4689 54.1591C24.2545 54.1091 24.032 54.0444 23.8239 53.9726L23.5629 54.7289ZM23.3665 54.6581C23.429 54.6809 23.4935 54.7043 23.5602 54.7279L23.8266 53.9736C23.764 53.9515 23.7031 53.9293 23.6401 53.9064L23.3665 54.6581ZM23.3664 54.6581L23.3666 54.6582L23.64 53.9063L23.6398 53.9063L23.3664 54.6581ZM23.1799 54.5909C23.2424 54.613 23.3033 54.6351 23.3663 54.6581L23.6399 53.9063C23.5775 53.8836 23.513 53.8601 23.4463 53.8366L23.1799 54.5909ZM23.0709 54.5437C23.0891 54.552 23.1373 54.5742 23.1644 54.5851L23.4618 53.8424C23.4636 53.8431 23.4628 53.8428 23.458 53.8407C23.4538 53.8389 23.4485 53.8365 23.4422 53.8337C23.4295 53.828 23.4157 53.8217 23.4034 53.8161L23.0709 54.5437ZM23.0582 54.5376L23.0583 54.5377L23.416 53.8221L23.4159 53.8221L23.0582 54.5376ZM23.4211 53.8272C23.4233 53.8286 23.4391 53.838 23.4576 53.8521C23.4623 53.8557 23.4938 53.8792 23.525 53.9177C23.5373 53.9329 23.5817 53.9884 23.6027 54.0747C23.6146 54.1233 23.622 54.1941 23.6001 54.2746C23.5771 54.359 23.5292 54.4268 23.4729 54.4746C23.3764 54.5565 23.2733 54.5659 23.249 54.568C23.2111 54.5713 23.1811 54.5684 23.1678 54.5668C23.1395 54.5635 23.1179 54.5578 23.1113 54.5561C23.0946 54.5516 23.0819 54.547 23.0789 54.546C23.0702 54.5428 23.0634 54.54 23.0622 54.5395C23.0598 54.5385 23.0579 54.5377 23.0571 54.5373C23.0545 54.5362 23.0532 54.5356 23.0553 54.5366C23.0583 54.5379 23.0633 54.5402 23.0707 54.5436L23.4033 53.816C23.3966 53.813 23.3896 53.8098 23.3845 53.8074C23.3825 53.8065 23.3781 53.8046 23.3735 53.8026C23.3722 53.802 23.3699 53.8011 23.3672 53.7999C23.3656 53.7993 23.3586 53.7964 23.3497 53.7932C23.3466 53.7921 23.3338 53.7874 23.3171 53.783C23.3104 53.7812 23.2889 53.7755 23.2605 53.7722C23.2472 53.7707 23.2173 53.7677 23.1793 53.771C23.1551 53.7732 23.0519 53.7826 22.9554 53.8645C22.8991 53.9123 22.8512 53.98 22.8282 54.0645C22.8063 54.145 22.8137 54.2157 22.8256 54.2644C22.8466 54.3507 22.891 54.4061 22.9034 54.4213C22.9345 54.4598 22.9661 54.4834 22.9708 54.487C22.9893 54.5011 23.0051 54.5106 23.0075 54.512L23.4211 53.8272ZM23.4461 53.8375C23.4256 53.8276 23.4119 53.821 23.4033 53.8169C23.3989 53.8147 23.3965 53.8136 23.3956 53.8131C23.395 53.8128 23.3957 53.8132 23.3973 53.8139C23.398 53.8143 23.3999 53.8153 23.4024 53.8166C23.4036 53.8173 23.4058 53.8184 23.4084 53.8199C23.4105 53.821 23.4155 53.8238 23.4217 53.8276L23.0068 54.5116C23.0173 54.518 23.0261 54.5226 23.027 54.5231C23.03 54.5246 23.0324 54.5259 23.0337 54.5266C23.0366 54.528 23.0392 54.5293 23.0409 54.5302C23.0446 54.532 23.0491 54.5342 23.054 54.5366C23.064 54.5414 23.0788 54.5486 23.0993 54.5584L23.4461 53.8375ZM23.0538 54.5383C23.0739 54.5471 23.0895 54.5539 23.1044 54.5608L23.4409 53.835C23.4169 53.8239 23.3935 53.8137 23.3747 53.8054L23.0538 54.5383ZM22.9439 54.4877C22.985 54.5083 23.0248 54.5256 23.0538 54.5383L23.3746 53.8054C23.3428 53.7915 23.3217 53.7822 23.3019 53.7723L22.9439 54.4877ZM21.5613 53.652C21.9913 53.9708 22.4621 54.2585 22.9511 54.4912L23.2948 53.7688C22.8559 53.5599 22.4292 53.2996 22.0377 53.0094L21.5613 53.652ZM22.002 52.9828C21.9965 52.9791 21.9903 52.9748 21.9857 52.9717C21.9845 52.9709 21.9793 52.9674 21.9737 52.9638C21.9722 52.9628 21.9685 52.9605 21.9637 52.9577C21.9614 52.9563 21.9571 52.9537 21.9515 52.9506C21.9485 52.949 21.9342 52.941 21.915 52.9328C21.908 52.9298 21.8812 52.9183 21.845 52.9102C21.8284 52.9065 21.7871 52.8981 21.734 52.9013C21.6886 52.904 21.5572 52.92 21.4541 53.0403C21.3417 53.1715 21.3529 53.3182 21.3662 53.3821C21.3793 53.445 21.4045 53.4891 21.4142 53.5053C21.4357 53.5414 21.4582 53.5657 21.4632 53.5712C21.4784 53.5877 21.4917 53.5992 21.4942 53.6014C21.4991 53.6058 21.5032 53.6091 21.5053 53.6109C21.52 53.6228 21.5492 53.6434 21.5669 53.6561L22.0321 53.0053C21.9937 52.9779 21.9995 52.9816 22.0108 52.9908C22.0128 52.9924 22.0168 52.9957 22.0217 53C22.0241 53.0021 22.0374 53.0136 22.0525 53.0301C22.0575 53.0356 22.08 53.0598 22.1015 53.096C22.1111 53.1121 22.1364 53.1563 22.1495 53.2192C22.1627 53.283 22.174 53.4297 22.0615 53.5609C21.9585 53.6812 21.8271 53.6972 21.7817 53.6999C21.7286 53.7031 21.6873 53.6947 21.6707 53.691C21.6345 53.6829 21.6078 53.6715 21.6008 53.6685C21.5816 53.6603 21.5673 53.6523 21.5644 53.6507C21.5589 53.6477 21.5547 53.6452 21.5525 53.6438C21.548 53.6411 21.5446 53.639 21.5434 53.6382C21.5392 53.6356 21.5365 53.6337 21.5386 53.6351C21.5407 53.6365 21.5445 53.6391 21.5509 53.6435L22.002 52.9828ZM22.0416 53.0096C22.0322 53.0034 22.017 52.993 22.0019 52.9828L21.5509 53.6435C21.5636 53.6522 21.586 53.6675 21.6033 53.6788L22.0416 53.0096ZM22.0168 52.9959C22.0228 52.999 22.0276 53.0016 22.0304 53.0031C22.0334 53.0048 22.0358 53.0062 22.0374 53.0071C22.0405 53.0089 22.0425 53.0102 22.0431 53.0106C22.0442 53.0113 22.044 53.0111 22.0417 53.0096L21.6032 53.6787C21.608 53.6819 21.614 53.6858 21.6203 53.6897C21.6226 53.6911 21.6387 53.7013 21.6583 53.7112L22.0168 52.9959ZM21.4881 53.5823C21.5213 53.6097 21.5489 53.6325 21.574 53.6545L22.1011 53.0526C22.0654 53.0213 22.0283 52.9909 21.9969 52.9649L21.4881 53.5823ZM21.3839 53.4946C21.4196 53.5259 21.4566 53.5564 21.4881 53.5823L21.9969 52.965C21.9637 52.9376 21.9361 52.9148 21.9109 52.8928L21.3839 53.4946ZM21.0397 53.1815C21.1537 53.288 21.265 53.3915 21.3853 53.4959L21.9095 52.8915C21.8016 52.7979 21.7 52.7036 21.5858 52.5969L21.0397 53.1815ZM20.4515 52.556C20.6347 52.7614 20.8227 52.9725 21.0352 53.1772L21.5903 52.6012C21.4031 52.4208 21.2347 52.2322 21.0485 52.0235L20.4515 52.556ZM20.4362 52.5389L20.4515 52.5561L21.0485 52.0235L21.0332 52.0063L20.4362 52.5389ZM20.331 52.4082L20.4223 52.5224L21.0471 52.0229L20.9559 51.9087L20.331 52.4082ZM21.0039 51.9675L20.9533 51.9055L20.3336 52.4114L20.3842 52.4734L21.0039 51.9675ZM21.0112 51.9764L21.0037 51.9672L20.3845 52.4738L20.3921 52.483L21.0112 51.9764ZM20.2699 52.3184C20.2854 52.3442 20.3042 52.3696 20.3124 52.3806C20.324 52.3962 20.3367 52.4127 20.3476 52.4267C20.3587 52.441 20.3692 52.4543 20.3767 52.4637C20.3804 52.4684 20.3835 52.4723 20.3854 52.4747C20.3859 52.4753 20.3863 52.4758 20.3866 52.4762C20.3868 52.4764 20.3869 52.4765 20.387 52.4767C20.3871 52.4768 20.3871 52.4768 20.3871 52.4768C20.3871 52.4768 20.3871 52.4768 20.387 52.4767C20.387 52.4767 20.3869 52.4766 20.3869 52.4765C20.3867 52.4764 20.3864 52.4759 20.3859 52.4753C20.3857 52.475 20.3841 52.473 20.3822 52.4705C20.3816 52.4697 20.3785 52.4656 20.3747 52.4602C20.3736 52.4586 20.3676 52.4502 20.3607 52.439C20.3564 52.4318 20.3446 52.41 20.3375 52.3952C20.3213 52.3535 20.3258 52.0929 20.4534 51.9161L20.9499 52.5433C21.0775 52.3666 21.082 52.1059 21.0658 52.0642C21.0587 52.0494 21.0468 52.0276 21.0425 52.0204C21.0356 52.0092 21.0296 52.0008 21.0285 51.9992C21.0247 51.9938 21.0216 51.9896 21.021 51.9888C21.019 51.9862 21.0173 51.9841 21.017 51.9836C21.0159 51.9822 21.0149 51.981 21.0146 51.9805C21.0136 51.9794 21.0125 51.978 21.0116 51.9768C21.0094 51.9741 21.0067 51.9707 21.0034 51.9665C20.9967 51.9581 20.9879 51.947 20.9789 51.9353C20.9522 51.901 20.9484 51.8943 20.9561 51.9071L20.2699 52.3184ZM20.2348 52.2696C20.2517 52.2936 20.2678 52.3166 20.2833 52.3392L20.9427 51.8863C20.9248 51.8602 20.9068 51.8344 20.8893 51.8096L20.2348 52.2696ZM20.2169 52.2441L20.2349 52.2697L20.8892 51.8095L20.8712 51.7839L20.2169 52.2441ZM20.0172 51.9424C20.0824 52.0534 20.1557 52.1572 20.2169 52.2442L20.8712 51.7838C20.8067 51.6922 20.7527 51.6151 20.7069 51.5371L20.0172 51.9424ZM19.5837 51.1758C19.7136 51.444 19.8665 51.7094 20.0258 51.9565L20.6982 51.523C20.5533 51.2982 20.4171 51.0612 20.3037 50.827L19.5837 51.1758ZM19.5155 51.0306C19.54 51.0835 19.5697 51.1478 19.5859 51.1802L20.3015 50.8226C20.2923 50.8042 20.2696 50.7552 20.2417 50.6949L19.5155 51.0306ZM19.5072 51.0112L19.5072 51.0113L20.25 50.7142L20.25 50.7141L19.5072 51.0112ZM20.2001 50.6222C20.1832 50.5807 20.1844 50.5816 20.1887 50.5958C20.1897 50.5992 20.1933 50.6107 20.1966 50.6261C20.1982 50.6335 20.2015 50.6491 20.2036 50.6693C20.2045 50.6784 20.2116 50.7369 20.1935 50.8083C20.1842 50.8453 20.1583 50.9259 20.0833 50.9982C19.9937 51.0846 19.877 51.1179 19.771 51.1087C19.683 51.101 19.6209 51.0663 19.5943 51.0497C19.5638 51.0307 19.5423 51.0115 19.5308 51.0006C19.5079 50.9788 19.4928 50.9593 19.4873 50.9519C19.4801 50.9424 19.4748 50.9345 19.4718 50.93C19.458 50.9088 19.4498 50.891 19.4557 50.9028C19.4649 50.9211 19.4876 50.9701 19.5155 51.0305L20.2417 50.6948C20.2172 50.6419 20.1875 50.5775 20.1714 50.5452C20.1709 50.5443 20.1581 50.5177 20.1417 50.4926C20.1412 50.4919 20.1189 50.4557 20.0813 50.4201C20.0697 50.4091 20.0481 50.3898 20.0175 50.3707C19.9908 50.3541 19.9287 50.3194 19.8406 50.3117C19.7345 50.3024 19.6178 50.3358 19.5282 50.4222C19.4531 50.4945 19.4273 50.5752 19.4179 50.6123C19.3998 50.6839 19.4069 50.7426 19.4078 50.752C19.41 50.7725 19.4133 50.7886 19.415 50.7964C19.4186 50.8129 19.4224 50.8257 19.424 50.8308C19.4326 50.8587 19.4481 50.8969 19.4591 50.9238L20.2001 50.6222ZM19.3079 50.5255C19.3526 50.6523 19.403 50.7957 19.4631 50.9333L20.1961 50.6128C20.1498 50.5068 20.1089 50.3915 20.0623 50.2595L19.3079 50.5255ZM19.3056 50.5189L19.3056 50.519L20.0646 50.266L20.0646 50.2659L19.3056 50.5189ZM19.053 49.6572C19.1234 49.9467 19.2033 50.2358 19.3088 50.5282L20.0613 50.2567C19.9691 50.001 19.8969 49.742 19.8304 49.4682L19.053 49.6572ZM18.9857 49.3304C19.004 49.4299 19.0247 49.5438 19.0536 49.6596L19.8298 49.4658C19.808 49.3787 19.7916 49.2897 19.7726 49.1863L18.9857 49.3304ZM18.9869 49.3367L18.987 49.3368L19.7714 49.1799L19.7714 49.1798L18.9869 49.3367ZM18.9869 49.3367L18.9869 49.3367L19.7714 49.1798L19.7714 49.1798L18.9869 49.3367ZM18.9582 49.1843C18.9676 49.2314 18.9763 49.279 18.9857 49.3303L19.7726 49.1861C19.7634 49.1359 19.7535 49.082 19.7427 49.0276L18.9582 49.1843ZM18.9527 49.1469C18.953 49.149 18.9528 49.1483 18.9526 49.1458C18.9524 49.1446 18.952 49.1413 18.9517 49.1366C18.9515 49.1342 18.9512 49.1306 18.951 49.1262C18.9507 49.122 18.9504 49.1149 18.9504 49.106H19.7504C19.7504 49.0791 19.7475 49.056 19.7474 49.0547C19.7465 49.047 19.7455 49.0397 19.7447 49.0343L18.9527 49.1469ZM33.0775 45.6893L19.2635 48.6998L19.4339 49.4814L33.2479 46.4709L33.0775 45.6893ZM55.6632 38.8199C55.3799 38.3291 55.1012 37.8348 54.8215 37.3387L54.1246 37.7316C54.404 38.2271 54.6847 38.725 54.9704 39.2199L55.6632 38.8199ZM47.9638 40.9869L55.3997 39.4112L55.2339 38.6286L47.7979 40.2043L47.9638 40.9869ZM41.6918 42.3155C43.7819 41.872 45.8717 41.4285 47.9634 40.987L47.7982 40.2043C45.706 40.6459 43.6158 41.0894 41.5257 41.5329L41.6918 42.3155ZM35.4213 43.6436C37.5128 43.2022 39.6024 42.7588 41.6918 42.3155L41.5257 41.5329C39.4363 41.9762 37.3471 42.4195 35.2561 42.8609L35.4213 43.6436ZM31.9949 44.3706C33.1376 44.1289 34.2809 43.8871 35.4222 43.6435L35.2552 42.8611C34.1147 43.1046 32.9722 43.3462 31.8293 43.5879L31.9949 44.3706ZM28.5693 45.0974C29.7097 44.8539 30.8521 44.6123 31.9949 44.3706L31.8293 43.5879C30.6867 43.8296 29.5436 44.0713 28.4023 44.315L28.5693 45.0974ZM23.256 46.2241C25.0262 45.8492 26.7966 45.4743 28.569 45.0974L28.4026 44.3149C26.6306 44.6917 24.8605 45.0666 23.0902 45.4415L23.256 46.2241ZM23.2424 46.227L23.2559 46.2241L23.0903 45.4415L23.0768 45.4443L23.2424 46.227ZM23.2379 46.2279L23.2422 46.227L23.0771 45.4442L23.0728 45.4452L23.2379 46.2279ZM17.9436 47.3506C19.7096 46.9751 21.4738 46.6015 23.2382 46.2279L23.0725 45.4452C21.3081 45.8189 19.5436 46.1926 17.7772 46.5681L17.9436 47.3506ZM13.1988 48.3551C14.7808 48.0197 16.3619 47.6844 17.943 47.3508L17.7778 46.568C16.1963 46.9018 14.6148 47.2371 13.0329 47.5725L13.1988 48.3551ZM13.2073 48.3532L13.2075 48.3531L13.0243 47.5744L13.0241 47.5744L13.2073 48.3532ZM13.2055 48.3536L13.2057 48.3536L13.0258 47.5741L13.0256 47.5741L13.2055 48.3536ZM13.2054 48.3536L13.2055 48.3536L13.0256 47.5741L13.0255 47.5741L13.2054 48.3536ZM7.96123 49.4635C9.70855 49.0951 11.454 48.725 13.1984 48.3552L13.0325 47.5726C11.288 47.9425 9.54299 48.3124 7.79619 48.6807L7.96123 49.4635ZM6.89699 48.1719L7.53231 49.2721L8.22511 48.8721L7.58979 47.7718L6.89699 48.1719ZM4.81642 44.5631C5.51058 45.766 6.2046 46.9687 6.8967 48.1714L7.59008 47.7723C6.89771 46.5692 6.20345 45.3661 5.50933 44.1632L4.81642 44.5631ZM3.7663 42.7429C4.11619 43.3496 4.46633 43.9564 4.81642 44.5631L5.50933 44.1632C5.15922 43.5565 4.80915 42.9499 4.45933 42.3432L3.7663 42.7429ZM4.91786 41.0478C4.55041 41.4574 4.18316 41.8667 3.81543 42.2755L4.4102 42.8106C4.77834 42.4013 5.14594 41.9916 5.51333 41.5821L4.91786 41.0478ZM6.6262 39.1477C6.05527 39.78 5.48632 40.4142 4.91786 41.0478L5.51333 41.5821C6.08193 40.9483 6.65004 40.3151 7.21998 39.6838L6.6262 39.1477ZM10.7005 34.6127L6.62554 39.1484L7.22064 39.6831L11.2956 35.1474L10.7005 34.6127ZM14.7638 30.09L10.7005 34.6127L11.2956 35.1474L15.3589 30.6246L14.7638 30.09ZM23.6743 20.1651C20.7027 23.4773 17.7365 26.7836 14.7639 30.0899L15.3589 30.6247C18.3317 27.3181 21.2983 24.0115 24.2698 20.6994L23.6743 20.1651ZM23.6751 20.1642L23.6744 20.165L24.2697 20.6995L24.2704 20.6987L23.6751 20.1642ZM23.6793 20.1596L23.675 20.1643L24.2704 20.6986L24.2747 20.6939L23.6793 20.1596ZM24.5905 19.1439L23.6792 20.1596L24.2747 20.6938L25.186 19.6781L24.5905 19.1439ZM33.0788 9.68951L24.5906 19.1438L25.1859 19.6783L33.674 10.224L33.0788 9.68951ZM34.4779 8.13324C34.012 8.65279 33.5467 9.17167 33.0796 9.68855L33.6732 10.2249C34.1415 9.70671 34.6078 9.18669 35.0735 8.66733L34.4779 8.13324ZM34.4748 8.1367L34.4746 8.13688L35.0767 8.66369L35.0769 8.6635L34.4748 8.1367ZM35.8786 6.57518C35.4102 7.09349 34.9438 7.61361 34.478 8.13306L35.0736 8.66714C35.5396 8.1475 36.005 7.62853 36.4721 7.11156L35.8786 6.57518ZM36.2564 6.16457C36.1307 6.29997 36.0038 6.43694 35.8789 6.57489L36.4719 7.11186C36.593 6.97805 36.7169 6.84445 36.8428 6.70882L36.2564 6.16457ZM38.1418 8.39414L36.896 6.23667L36.2032 6.63672L37.449 8.79419L38.1418 8.39414ZM40.5757 12.615C39.7637 11.2087 38.952 9.80262 38.1421 8.39472L37.4487 8.79361C38.2589 10.2021 39.0709 11.6087 39.8828 13.015L40.5757 12.615ZM43.0099 16.8366C42.1997 15.428 41.3876 14.0213 40.5757 12.615L39.8828 13.015C40.6948 14.4214 41.5066 15.8275 42.3165 17.2355L43.0099 16.8366ZM48.8967 27.0441L43.0097 16.8362L42.3167 17.2359L48.2036 27.4438L48.8967 27.0441ZM53.9851 35.8668C52.2889 32.9207 50.5927 29.9822 48.8966 27.044L48.2037 27.4439C49.8999 30.3822 51.5959 33.3203 53.2918 36.266L53.9851 35.8668ZM54.8195 37.3353C54.5436 36.8458 54.2666 36.3545 53.9849 35.8665L53.292 36.2663C53.5713 36.7503 53.8464 37.2381 54.1227 37.7282L54.8195 37.3353ZM54.8187 37.3338L54.8184 37.3333L54.1238 37.7302L54.1241 37.7307L54.8187 37.3338ZM54.8189 37.3343L54.8187 37.3338L54.1241 37.7307L54.1243 37.7312L54.8189 37.3343ZM54.8192 37.3347L54.8189 37.3343L54.1243 37.7312L54.1246 37.7317L54.8192 37.3347ZM54.8195 37.3352L54.8192 37.3347L54.1246 37.7317L54.1249 37.7321L54.8195 37.3352ZM54.8198 37.3357L54.8195 37.3352L54.1249 37.7321L54.1252 37.7326L54.8198 37.3357ZM54.82 37.3362L54.8198 37.3357L54.1252 37.7326L54.1254 37.7331L54.82 37.3362ZM54.8203 37.3367L54.82 37.3362L54.1254 37.7331L54.1257 37.7336L54.8203 37.3367ZM58.4852 16.3298C57.5789 16.8539 56.6732 17.3777 55.7676 17.9003L56.1674 18.5932C57.0734 18.0704 57.9795 17.5465 58.8857 17.0224L58.4852 16.3298ZM58.4876 16.3285L58.4853 16.3298L58.8856 17.0224L58.8879 17.0211L58.4876 16.3285ZM58.4888 16.3278L58.4884 16.328L58.8871 17.0215L58.8876 17.0213L58.4888 16.3278ZM58.4893 16.3275L58.4888 16.3278L58.8876 17.0213L58.8881 17.021L58.4893 16.3275ZM58.4897 16.3272L58.4893 16.3275L58.8881 17.021L58.8885 17.0208L58.4897 16.3272ZM58.4902 16.327L58.4897 16.3272L58.8885 17.0208L58.889 17.0205L58.4902 16.327ZM62.7807 13.8503C61.3478 14.6745 59.9178 15.5014 58.4893 16.3275L58.8898 17.02C60.3184 16.1939 61.7476 15.3674 63.1796 14.5438L62.7807 13.8503ZM63.2812 13.5619C63.1137 13.6591 62.9479 13.7552 62.7824 13.8494L63.1779 14.5448C63.3468 14.4487 63.5156 14.3508 63.6826 14.254L63.2812 13.5619ZM63.2815 13.5617L63.2813 13.5619L63.6824 14.254L63.6827 14.2539L63.2815 13.5617ZM63.2818 13.5616L63.2815 13.5617L63.6827 14.2539L63.6829 14.2537L63.2818 13.5616ZM63.7864 13.2708C63.6174 13.3669 63.4487 13.4648 63.2817 13.5617L63.6831 14.2537C63.8506 14.1565 64.0163 14.0604 64.1818 13.9663L63.7864 13.2708ZM64.0509 12.2623C64.2491 12.5962 64.1231 13.0783 63.7855 13.2713L64.1827 13.9658C64.9099 13.5499 65.1642 12.5704 64.7388 11.8538L64.0509 12.2623ZM63.0342 11.9942C63.3798 11.7966 63.8506 11.9201 64.0496 12.2601L64.74 11.856C64.3153 11.1303 63.3563 10.8885 62.637 11.2998L63.0342 11.9942ZM60.3217 13.5617C61.2268 13.0383 62.1312 12.5153 63.0355 11.9935L62.6357 11.3005C61.7309 11.8226 60.8262 12.3458 59.9212 12.8691L60.3217 13.5617ZM60.3182 13.5637L60.3219 13.5616L59.9211 12.8692L59.9174 12.8714L60.3182 13.5637ZM60.3156 13.5652L60.3179 13.5639L59.9176 12.8712L59.9154 12.8725L60.3156 13.5652ZM60.3144 13.5659L60.3149 13.5656L59.9161 12.8721L59.9157 12.8724L60.3144 13.5659ZM60.314 13.5661L60.3144 13.5659L59.9157 12.8724L59.9152 12.8726L60.314 13.5661ZM60.3135 13.5664L60.314 13.5661L59.9152 12.8726L59.9147 12.8729L60.3135 13.5664ZM60.3131 13.5667L60.3135 13.5664L59.9147 12.8729L59.9143 12.8731L60.3131 13.5667ZM56.0224 16.0434C57.4554 15.2192 58.8854 14.3922 60.3139 13.5662L59.9134 12.8736C58.4848 13.6998 57.0556 14.5263 55.6236 15.3499L56.0224 16.0434ZM55.5219 16.3318C55.6894 16.2346 55.8552 16.1385 56.0207 16.0444L55.6253 15.3489C55.4563 15.445 55.2875 15.5429 55.1205 15.6398L55.5219 16.3318ZM55.5216 16.332L55.5218 16.3319L55.1207 15.6397L55.1204 15.6398L55.5216 16.332ZM55.5213 16.3321L55.5216 16.332L55.1204 15.6398L55.1202 15.64L55.5213 16.3321ZM55.0167 16.6229C55.1857 16.5268 55.3544 16.4289 55.5214 16.3321L55.12 15.6401C54.9526 15.7372 54.7868 15.8334 54.6213 15.9275L55.0167 16.6229ZM54.7522 17.6315C54.554 17.2975 54.68 16.8155 55.0176 16.6224L54.6204 15.928C53.8932 16.3439 53.6389 17.3233 54.0643 18.0399L54.7522 17.6315ZM55.7652 17.9016C55.4222 18.1027 54.9544 17.9818 54.7547 17.6358L54.0618 18.0356C54.4858 18.7704 55.448 19.0149 56.1698 18.5918L55.7652 17.9016ZM63.5004 27.3007L63.4984 27.3008L63.5571 28.0987L63.559 28.0985L63.5004 27.3007ZM67.6727 26.9975C66.284 27.0999 64.8931 27.2002 63.5009 27.3007L63.5585 28.0986C64.9506 27.9982 66.342 27.8978 67.7315 27.7954L67.6727 26.9975ZM68.2526 26.9555C68.0608 26.9688 67.8669 26.9823 67.6708 26.9977L67.7334 27.7952C67.9253 27.7801 68.1156 27.7669 68.3079 27.7536L68.2526 26.9555ZM68.8269 26.9139C68.6351 26.929 68.4449 26.9422 68.2526 26.9555L68.3079 27.7536C68.4997 27.7403 68.6935 27.7269 68.8895 27.7115L68.8269 26.9139ZM69.5995 26.1897C69.6165 26.55 69.2834 26.8788 68.8275 26.9139L68.8889 27.7115C69.6196 27.6553 70.4426 27.0858 70.3987 26.1521L69.5995 26.1897ZM68.8867 25.428C69.0626 25.4155 69.2295 25.4899 69.3661 25.6376C69.5063 25.7891 69.5919 25.9961 69.5994 26.1866L70.3988 26.1551C70.3835 25.7671 70.2181 25.3804 69.9533 25.0942C69.6849 24.8042 69.2927 24.597 68.8297 24.6301L68.8867 25.428ZM64.9901 25.7109C66.2884 25.6173 67.588 25.5235 68.8875 25.428L68.8289 24.6301C67.53 24.7256 66.231 24.8193 64.9325 24.913L64.9901 25.7109ZM64.9867 25.7112L64.99 25.7109L64.9326 24.913L64.9293 24.9132L64.9867 25.7112ZM60.8178 26.0141C62.2056 25.9118 63.5955 25.8115 64.9868 25.7112L64.9292 24.9132C63.538 25.0136 62.1475 25.1139 60.759 25.2163L60.8178 26.0141ZM60.238 26.0561C60.4298 26.0428 60.6236 26.0294 60.8197 26.014L60.7571 25.2164C60.5652 25.2315 60.375 25.2447 60.1826 25.258L60.238 26.0561ZM60.2352 26.0563L60.2353 26.0563L60.1854 25.2578L60.1853 25.2578L60.2352 26.0563ZM60.2351 26.0563L60.2352 26.0563L60.1853 25.2578L60.1852 25.2579L60.2351 26.0563ZM59.6636 26.0977C59.8554 26.0826 60.0455 26.0695 60.2378 26.0561L60.1824 25.258C59.9908 25.2713 59.797 25.2848 59.601 25.3002L59.6636 26.0977ZM58.8909 26.822C58.874 26.4616 59.2071 26.1328 59.663 26.0977L59.6016 25.3001C58.8709 25.3564 58.0479 25.9258 58.0918 26.8595L58.8909 26.822ZM59.6037 27.5836C59.4261 27.5963 59.2593 27.5221 59.1238 27.3763C58.9847 27.2266 58.8987 27.0201 58.8911 26.8252L58.0917 26.8563C58.1069 27.2475 58.2719 27.6348 58.5378 27.9209C58.8073 28.2108 59.1995 28.4145 59.6608 28.3816L59.6037 27.5836ZM63.4951 27.3011C62.1985 27.3946 60.9007 27.4882 59.6029 27.5836L59.6616 28.3815C60.9588 28.2861 62.256 28.1926 63.5527 28.099L63.4951 27.3011ZM63.4976 27.3009L63.4957 27.301L63.552 28.0991L63.554 28.0989L63.4976 27.3009ZM63.4984 27.3008L63.4965 27.301L63.5551 28.0988L63.5571 28.0987L63.4984 27.3008ZM33.7624 24.5625C33.4529 24.8304 33.1435 25.0983 32.8348 25.3662L33.3592 25.9704C33.6674 25.7028 33.9765 25.4353 34.286 25.1673L33.7624 24.5625ZM33.7658 24.5596L33.7655 24.5598L34.2829 25.17L34.2831 25.1698L33.7658 24.5596ZM35.7617 22.8249C35.0977 23.4064 34.43 23.9844 33.7626 24.5623L34.2863 25.1671C34.9534 24.5895 35.6228 24.01 36.2888 23.4267L35.7617 22.8249ZM35.7423 21.7947C35.8655 21.9181 35.9487 22.1179 35.9534 22.3306C35.958 22.541 35.8861 22.7167 35.7628 22.824L36.2877 23.4276C36.6283 23.1315 36.7618 22.7058 36.7532 22.3129C36.7446 21.9224 36.5957 21.517 36.3082 21.2293L35.7423 21.7947ZM34.6753 21.8139C35.0156 21.5179 35.4576 21.5098 35.7423 21.7947L36.3082 21.2293C35.665 20.5856 34.7379 20.6992 34.1503 21.2102L34.6753 21.8139ZM33.7489 22.6165C34.0579 22.349 34.3668 22.0816 34.675 21.8141L34.1506 21.2099C33.8429 21.477 33.5343 21.7441 33.2253 22.0117L33.7489 22.6165ZM33.7475 22.6177L33.7491 22.6164L33.2251 22.0119L33.2235 22.0133L33.7475 22.6177ZM33.746 22.619L33.7469 22.6183L33.2242 22.0127L33.2234 22.0134L33.746 22.619ZM31.7481 24.3554C32.4119 23.7741 33.0793 23.1962 33.7465 22.6186L33.2229 22.0138C32.556 22.5912 31.8868 23.1705 31.221 23.7536L31.7481 24.3554ZM31.7675 25.3855C31.6443 25.2622 31.5611 25.0624 31.5565 24.8497C31.5518 24.6393 31.6237 24.4636 31.747 24.3563L31.2221 23.7526C30.8815 24.0488 30.748 24.4745 30.7567 24.8673C30.7653 25.2579 30.9141 25.6633 31.2016 25.951L31.7675 25.3855ZM32.837 25.3643C32.4851 25.6654 32.0446 25.6674 31.7698 25.3879L31.1993 25.9486C31.8372 26.5978 32.7658 26.4781 33.357 25.9722L32.837 25.3643ZM10.2769 44.0987C11.0202 43.5074 11.7634 42.9171 12.5065 42.327L12.0089 41.7005C11.2659 42.2906 10.5224 42.8811 9.77888 43.4726L10.2769 44.0987ZM8.13249 44.0684C8.801 44.7374 9.69569 44.5696 10.2797 44.0964L9.7761 43.4748C9.40177 43.7781 8.98825 43.793 8.69841 43.5029L8.13249 44.0684ZM8.16666 41.8586C7.80155 42.1487 7.67254 42.5892 7.68479 42.9826C7.69697 43.3739 7.84859 43.7842 8.13249 44.0684L8.69841 43.5029C8.5792 43.3836 8.49124 43.1773 8.4844 42.9577C8.47764 42.7403 8.55019 42.5757 8.66424 42.4851L8.16666 41.8586ZM9.30763 40.9527C8.92714 41.2555 8.54721 41.5578 8.16737 41.8581L8.66354 42.4856C9.04451 42.1844 9.4254 41.8814 9.80573 41.5788L9.30763 40.9527ZM10.4491 40.0464C10.0684 40.3474 9.68773 40.6503 9.30763 40.9527L9.80573 41.5788C10.186 41.2762 10.5657 40.9741 10.9453 40.6739L10.4491 40.0464ZM20.3673 32.1662C17.0611 34.7905 13.7546 37.4151 10.4481 40.0472L10.9463 40.6731C14.2523 38.0414 17.5584 35.4172 20.8646 32.7928L20.3673 32.1662ZM20.3742 32.1607L20.3672 32.1662L20.8647 32.7927L20.8717 32.7872L20.3742 32.1607ZM24.3661 28.9846C23.0337 30.0428 21.702 31.1005 20.3733 32.1614L20.8725 32.7866C22.2002 31.7264 23.5311 30.6694 24.8636 29.6111L24.3661 28.9846ZM26.5955 27.2131C25.8523 27.8043 25.1091 28.3945 24.3661 28.9846L24.8636 29.6111C25.6066 29.021 26.3501 28.4306 27.0935 27.8391L26.5955 27.2131ZM28.7399 27.2434C28.4208 26.924 28.0307 26.7851 27.6374 26.801C27.2539 26.8165 26.8911 26.9773 26.5951 27.2134L27.0939 27.8388C27.2847 27.6867 27.4886 27.6077 27.6698 27.6003C27.8412 27.5934 28.014 27.6486 28.174 27.8088L28.7399 27.2434ZM28.7058 29.4531C29.0709 29.1631 29.1999 28.7226 29.1876 28.3291C29.1755 27.9378 29.0238 27.5275 28.7399 27.2434L28.174 27.8088C28.2932 27.9281 28.3812 28.1344 28.388 28.354C28.3948 28.5714 28.3222 28.7361 28.2082 28.8266L28.7058 29.4531ZM27.5653 30.3586C27.9456 30.056 28.3254 29.7538 28.7051 29.4536L28.2089 28.8261C27.8281 29.1272 27.4473 29.4301 27.0672 29.7326L27.5653 30.3586ZM26.4233 31.2653C26.8042 30.9642 27.185 30.6612 27.5653 30.3586L27.0672 29.7326C26.6867 30.0353 26.3069 30.3375 25.9271 30.6378L26.4233 31.2653ZM16.5051 39.1455C19.8114 36.5212 23.1178 33.8967 26.4243 31.2645L25.9261 30.6386C22.6201 33.2704 19.3141 35.8945 16.0078 38.5189L16.5051 39.1455ZM16.4981 39.1511L16.505 39.1456L16.0079 38.5188L16.001 38.5243L16.4981 39.1511ZM12.5065 42.327C13.8388 41.2688 15.1705 40.2112 16.4991 39.1503L15.9999 38.5252C14.6723 39.5852 13.3414 40.6422 12.0089 41.7005L12.5065 42.327Z" fill="white" mask="url(#path-1-inside-1)"/>
</svg>
