<svg width="70" height="70" viewBox="0 0 70 70" fill="none" xmlns="http://www.w3.org/2000/svg">
<path d="M30.1572 6.99393L30.173 6.99648H30.189C30.3792 6.99648 30.5705 7.11211 30.7089 7.30819C30.846 7.50252 30.9086 7.7461 30.8684 7.95549C30.7755 8.31772 30.4083 8.67411 29.9704 8.67411H29.9697H29.9691H29.9685H29.9678H29.9672H29.9666H29.966H29.9653H29.9647H29.9641H29.9635H29.9629H29.9623H29.9617H29.961H29.9604H29.9598H29.9592H29.9586H29.9581H29.9575H29.9569H29.9563H29.9557H29.9551H29.9545H29.954H29.9534H29.9528H29.9522H29.9517H29.9511H29.9505H29.95H29.9494H29.9489H29.9483H29.9478H29.9472H29.9467H29.9461H29.9456H29.945H29.9445H29.9439H29.9434H29.9429H29.9423H29.9418H29.9413H29.9407H29.9402H29.9397H29.9392H29.9387H29.9381H29.9376H29.9371H29.9366H29.9361H29.9356H29.9351H29.9346H29.9341H29.9336H29.9331H29.9326H29.9321H29.9316H29.9311H29.9306H29.9301H29.9297H29.9292H29.9287H29.9282H29.9277H29.9273H29.9268H29.9263H29.9258H29.9254H29.9249H29.9244H29.924H29.9235H29.923H29.9226H29.9221H29.9217H29.9212H29.9208H29.9203H29.9199H29.9194H29.919H29.9185H29.9181H29.9176H29.9172H29.9168H29.9163H29.9159H29.9155H29.915H29.9146H29.9142H29.9137H29.9133H29.9129H29.9125H29.912H29.9116H29.9112H29.9108H29.9104H29.91H29.9095H29.9091H29.9087H29.9083H29.9079H29.9075H29.9071H29.9067H29.9063H29.9059H29.9055H29.9051H29.9047H29.9043H29.9039H29.9035H29.9031H29.9027H29.9023H29.9019H29.9015H29.9011H29.9008H29.9004H29.9H29.8996H29.8992H29.8988H29.8985H29.8981H29.8977H29.8973H29.8969H29.8966H29.8962H29.8958H29.8955H29.8951H29.8947H29.8943H29.894H29.8936H29.8932H29.8929H29.8925H29.8922H29.8918H29.8914H29.8911H29.8907H29.8904H29.89H29.8896H29.8893H29.8889H29.8886H29.8882H29.8879H29.8875H29.8872H29.8868H29.8865H29.8861H29.8858H29.8854H29.8851H29.8847H29.8844H29.884H29.8837H29.8833H29.883H29.8827H29.8823H29.882H29.8816H29.8813H29.881H29.8806H29.8803H29.88H29.8796H29.8793H29.8789H29.8786H29.8783H29.8779H29.8776H29.8773H29.8769H29.8766H29.8763H29.8759H29.8756H29.8753H29.875H29.8746H29.8743H29.874H29.8736H29.8733H29.873H29.8727H29.8723H29.872H29.8717H29.8714H29.871H29.8707H29.8704H29.8701H29.8697H29.8694H29.8691H29.8688H29.8684H29.8681H29.8678H29.8675H29.8672H29.8668H29.8665H29.8662H29.8659H29.8655H29.8652H29.8649H29.8646H29.8643H29.8639H29.8636H29.8633H29.863H29.8627H29.8623H29.862H29.8617H29.8614H29.8611H29.8607H29.8604H29.8601H29.8598H29.8595H29.8591H29.8588H29.8585H29.8582H29.8579H29.8575H29.8572H29.8569H29.8566H29.8562H29.8559H29.8556H29.8553H29.855H29.8546H29.8543H29.854H29.8537H29.8533H29.853H29.8527H29.8524H29.8521H29.8517H29.8514H29.8511H29.8508H29.8504H29.8501H29.8498H29.8495H29.8491H29.8488H29.8485H29.8481H29.8478H29.8475H29.8472H29.8468H29.8465H29.8462H29.8458H29.8455H29.8452H29.8448H29.8445H29.8442H29.8438H29.8435H29.8432H29.8428H29.8425H29.8422H29.8418H29.8415H29.8412H29.8408H29.8405H29.8401H29.8398H29.8395H29.8391H29.8388H29.8384H29.8381H29.8377H29.8374H29.837H29.8367H29.8363H29.836H29.8357H29.8353H29.835H29.8346H29.8342H29.8339H29.8335H29.8332H29.8328H29.8325H29.8321H29.8318H29.8314H29.831H29.8307H29.8303H29.83H29.8296H29.8292H29.8289H29.8285H29.8281H29.8278H29.8274H29.827H29.8267H29.8263H29.8259H29.8255H29.8252H29.8248H29.8244H29.824H29.8237H29.8233H29.8229H29.8225H29.8221H29.8217H29.8214H29.821H29.8206H29.8202H29.8198H29.8194H29.819H29.8186H29.8182H29.8178H29.8174H29.817H29.8166H29.8162H29.8158H29.8154H29.815H29.8146H29.8142H29.8138H29.8134H29.813H29.8126H29.8122H29.8117H29.8113H29.8109H29.8105H29.8101H29.8097H29.8092H29.8088H29.8084H29.8079H29.8075H29.8071H29.8067H29.8062H29.8058H29.8053H29.8049H29.8045H29.804H29.8036H29.8031H29.8027H29.8022H29.8018H29.8013H29.8009H29.8004H29.8H29.7995H29.7991H29.7986H29.7981H29.7977H29.7972H29.7967H29.7963H29.7958H29.7953H29.7949H29.7944H29.7939H29.7934H29.7929H29.7925H29.792H29.7915H29.791H29.7905H29.79H29.7895H29.789H29.7885H29.788H29.7875H29.787H29.7865H29.786H29.7855H29.785H29.7845H29.784H29.7835H29.7829H29.7824H29.7819H29.7814H29.7808H29.7803H29.7798H29.7792H29.7787H29.7782H29.7776H29.7771H29.7766H29.776H29.7755H29.7749H29.7744H29.7738H29.7733H29.7727H29.7721H29.7716H29.771H29.7704H29.7699H29.7693H29.7687H29.7682H29.7676H29.767H29.7667L23.9891 7.8018C23.7344 7.75883 23.533 7.58678 23.404 7.37564C23.34 7.27075 23.2976 7.16186 23.2769 7.06555C23.2555 6.96573 23.2608 6.89566 23.2728 6.85972L23.2831 6.82893V6.79648C23.2831 6.70488 23.3143 6.44181 23.3716 6.04053C23.4277 5.64734 23.5061 5.1394 23.595 4.57211C23.6269 4.36828 23.6601 4.15683 23.6942 3.94041C23.8494 2.95345 24.0209 1.86303 24.1556 0.919935L24.1576 0.905868V0.891657C24.1576 0.701405 24.2733 0.510008 24.4693 0.371609C24.665 0.233435 24.9106 0.170909 25.121 0.212983L25.1209 0.213085L25.1273 0.214146C25.4044 0.260347 25.5992 0.395235 25.7165 0.576563C25.8353 0.760164 25.8854 1.00855 25.8375 1.29618L25.8369 1.29975L25.3996 4.25216L25.3319 4.70965L25.7116 4.44569C32.0838 0.0165365 40.9403 0.665498 46.5553 6.2818C46.9145 6.64109 46.9145 7.17058 46.5553 7.52987C46.1961 7.88914 45.6668 7.88914 45.3076 7.52987C40.2099 2.43088 32.2267 1.87322 26.679 6.09052L26.3076 6.37288L26.7682 6.44719L30.1572 6.99393Z" fill="#FF0000" stroke="white" stroke-width="0.4"/>
<path d="M26.6592 63.679L26.1841 63.7557L26.5736 64.0384C32.2286 68.142 40.2096 67.5866 45.308 62.487C45.4897 62.3053 45.7093 62.2202 45.936 62.231C46.1642 62.2419 46.4199 62.3512 46.665 62.5964C47.024 62.9554 47.0242 63.4845 46.6656 63.8438C40.9402 69.4618 32.1923 70.1089 25.8213 65.6805L25.4416 65.4166L25.5093 65.8741L25.9466 68.8265L25.9464 68.8265L25.9484 68.8364C26.0309 69.2493 25.6991 69.6998 25.249 69.8H25.2489H25.2484H25.2478H25.2473H25.2467H25.2462H25.2456H25.2451H25.2445H25.244H25.2435H25.2429H25.2424H25.2419H25.2413H25.2408H25.2403H25.2397H25.2392H25.2387H25.2382H25.2377H25.2371H25.2366H25.2361H25.2356H25.2351H25.2346H25.2341H25.2336H25.2331H25.2326H25.2321H25.2316H25.2311H25.2306H25.2301H25.2297H25.2292H25.2287H25.2282H25.2277H25.2272H25.2268H25.2263H25.2258H25.2254H25.2249H25.2244H25.224H25.2235H25.223H25.2226H25.2221H25.2216H25.2212H25.2207H25.2203H25.2198H25.2194H25.2189H25.2185H25.218H25.2176H25.2172H25.2167H25.2163H25.2158H25.2154H25.215H25.2145H25.2141H25.2137H25.2133H25.2128H25.2124H25.212H25.2116H25.2111H25.2107H25.2103H25.2099H25.2095H25.2091H25.2086H25.2082H25.2078H25.2074H25.207H25.2066H25.2062H25.2058H25.2054H25.205H25.2046H25.2042H25.2038H25.2034H25.203H25.2026H25.2022H25.2018H25.2014H25.201H25.2007H25.2003H25.1999H25.1995H25.1991H25.1987H25.1984H25.198H25.1976H25.1972H25.1968H25.1965H25.1961H25.1957H25.1953H25.195H25.1946H25.1942H25.1939H25.1935H25.1931H25.1928H25.1924H25.192H25.1917H25.1913H25.1909H25.1906H25.1902H25.1899H25.1895H25.1892H25.1888H25.1884H25.1881H25.1877H25.1874H25.187H25.1867H25.1863H25.186H25.1856H25.1853H25.1849H25.1846H25.1842H25.1839H25.1836H25.1832H25.1829H25.1825H25.1822H25.1818H25.1815H25.1812H25.1808H25.1805H25.1801H25.1798H25.1795H25.1791H25.1788H25.1785H25.1781H25.1778H25.1775H25.1771H25.1768H25.1765H25.1761H25.1758H25.1755H25.1751H25.1748H25.1745H25.1741H25.1738H25.1735H25.1732H25.1728H25.1725H25.1722H25.1719H25.1715H25.1712H25.1709H25.1706H25.1702H25.1699H25.1696H25.1693H25.1689H25.1686H25.1683H25.168H25.1676H25.1673H25.167H25.1667H25.1663H25.166H25.1657H25.1654H25.1651H25.1647H25.1644H25.1641H25.1638H25.1635H25.1631H25.1628H25.1625H25.1622H25.1619H25.1615H25.1612H25.1609H25.1606H25.1603H25.1599H25.1596H25.1593H25.159H25.1587H25.1583H25.158H25.1577H25.1574H25.157H25.1567H25.1564H25.1561H25.1558H25.1554H25.1551H25.1548H25.1545H25.1542H25.1538H25.1535H25.1532H25.1529H25.1525H25.1522H25.1519H25.1516H25.1512H25.1509H25.1506H25.1503H25.1499H25.1496H25.1493H25.149H25.1486H25.1483H25.148H25.1477H25.1473H25.147H25.1467H25.1463H25.146H25.1457H25.1454H25.145H25.1447H25.1444H25.144H25.1437H25.1434H25.143H25.1427H25.1424H25.142H25.1417H25.1413H25.141H25.1407H25.1403H25.14H25.1396H25.1393H25.139H25.1386H25.1383H25.1379H25.1376H25.1373H25.1369H25.1366H25.1362H25.1359H25.1355H25.1352H25.1348H25.1345H25.1341H25.1338H25.1334H25.1331H25.1327H25.1323H25.132H25.1316H25.1313H25.1309H25.1306H25.1302H25.1298H25.1295H25.1291H25.1287H25.1284H25.128H25.1277H25.1273H25.1269H25.1265H25.1262H25.1258H25.1254H25.1251H25.1247H25.1243H25.1239H25.1236H25.1232H25.1228H25.1224H25.122H25.1216H25.1213H25.1209H25.1205H25.1201H25.1197H25.1193H25.1189H25.1185H25.1181H25.1178H25.1174H25.117H25.1166H25.1162H25.1158H25.1154H25.115H25.1145H25.1141H25.1137H25.1133H25.1129H25.1125H25.1121H25.1117H25.1113H25.1108H25.1104H25.11H25.1096H25.1092H25.1087H25.1083H25.1079H25.1075H25.107H25.1066H25.1062H25.1057H25.1053H25.1049H25.1044H25.104H25.1035H25.1031H25.1027H25.1022H25.1018H25.1013H25.1009H25.1004H25.1H25.0995H25.099H25.0986H25.0981H25.0977H25.0972H25.0967H25.0963H25.0958H25.0953H25.0949H25.0944H25.0939H25.0934H25.0929H25.0925H25.092H25.0915H25.091H25.0905H25.09H25.0895H25.089H25.0885H25.088H25.0875H25.087H25.0865H25.086H25.0855H25.085H25.0845H25.084H25.0835H25.083H25.0824H25.0819H25.0814H25.0809H25.0804H25.0798H25.0793H25.0788H25.0782H25.0777H25.0772H25.0766H25.0761H25.0755H25.075H25.0744H25.0739H25.0733H25.0728H25.0722H25.0716H25.0711H25.0705H25.07H25.0694H25.0688H25.0682H25.0677H25.0671H25.0665H25.0659H25.0653H25.0648H25.0642H25.0636H25.063H25.0624H25.0618H25.0612H25.0606H25.06H25.0594H25.0588H25.0581H25.0575H25.0569H25.0563H25.0557H25.055H25.0544H25.0538H25.0532H25.0525H25.0519H25.0513C24.5943 69.8 24.2457 69.5341 24.155 69.0905L23.2834 63.3147V63.3145V63.3139V63.3133V63.3128V63.3122V63.3116V63.3111V63.3105V63.3099V63.3094V63.3088V63.3083V63.3077V63.3072V63.3066V63.3061V63.3055V63.305V63.3044V63.3039V63.3034V63.3028V63.3023V63.3018V63.3013V63.3007V63.3002V63.2997V63.2992V63.2987V63.2981V63.2976V63.2971V63.2966V63.2961V63.2956V63.2951V63.2946V63.2941V63.2936V63.2932V63.2927V63.2922V63.2917V63.2912V63.2907V63.2903V63.2898V63.2893V63.2888V63.2884V63.2879V63.2875V63.287V63.2865V63.2861V63.2856V63.2852V63.2847V63.2843V63.2838V63.2834V63.2829V63.2825V63.2821V63.2816V63.2812V63.2808V63.2803V63.2799V63.2795V63.279V63.2786V63.2782V63.2778V63.2774V63.277V63.2765V63.2761V63.2757V63.2753V63.2749V63.2745V63.2741V63.2737V63.2733V63.2729V63.2725V63.2721V63.2718V63.2714V63.271V63.2706V63.2702V63.2698V63.2695V63.2691V63.2687V63.2683V63.268V63.2676V63.2672V63.2669V63.2665V63.2662V63.2658V63.2654V63.2651V63.2647V63.2644V63.264V63.2637V63.2634V63.263V63.2627V63.2623V63.262V63.2617V63.2613V63.261V63.2607V63.2603V63.26V63.2597V63.2594V63.259V63.2587V63.2584V63.2581V63.2578V63.2575V63.2571V63.2568V63.2565V63.2562V63.2559V63.2556V63.2553V63.255V63.2547V63.2544V63.2541V63.2538V63.2536V63.2533V63.253V63.2527V63.2524V63.2521V63.2518V63.2516V63.2513V63.251V63.2507V63.2505V63.2502V63.2499V63.2497V63.2494V63.2491V63.2489V63.2486V63.2484V63.2481V63.2478V63.2476V63.2473V63.2471V63.2468V63.2466V63.2463V63.2461V63.2459V63.2456V63.2454V63.2451V63.2449V63.2447V63.2444V63.2442V63.244V63.2437V63.2435V63.2433V63.2431V63.2428V63.2426V63.2424V63.2422V63.2419V63.2417V63.2415V63.2413V63.2411V63.2409V63.2407V63.2405V63.2403V63.2401V63.2399V63.2396V63.2394V63.2392V63.2391V63.2389V63.2387V63.2385V63.2383V63.2381V63.2379V63.2377V63.2375V63.2373V63.2371V63.237V63.2368V63.2366V63.2364V63.2362V63.2361V63.2359V63.2357V63.2356V63.2354V63.2352V63.235V63.2349V63.2347V63.2345V63.2344V63.2342V63.2341V63.2339V63.2337V63.2336V63.2334V63.2333V63.2331V63.233V63.2328V63.2327V63.2325V63.2324V63.2322V63.2321V63.2319V63.2318V63.2317V63.2315V63.2314V63.2312V63.2311V63.231V63.2308V63.2307V63.2306V63.2304V63.2303V63.2302V63.23V63.2299V63.2298V63.2297V63.2295V63.2294V63.2293V63.2292V63.2291V63.2289V63.2288V63.2287V63.2286V63.2285V63.2284V63.2283V63.2282V63.228V63.2279V63.2278V63.2277V63.2276V63.2275V63.2274V63.2273V63.2272V63.2271V63.227V63.2269V63.2268V63.2267V63.2266V63.2265V63.2264V63.2263V63.2262V63.2262V63.2261V63.226V63.2259V63.2258V63.2257V63.2256V63.2255V63.2255V63.2254V63.2253V63.2252V63.2251V63.2251V63.225V63.2249V63.2248V63.2248V63.2247V63.2246V63.2245V63.2245V63.2244V63.2243V63.2243V63.2242V63.2241V63.224V63.224V63.2239V63.2239V63.2238V63.2237V63.2237V63.2236V63.2235V63.2235V63.2234V63.2234V63.2233V63.2232V63.2232V63.2231V63.2231V63.223V63.223V63.2229V63.2229V63.2228V63.2228V63.2227V63.2227V63.2226V63.2226V63.2225V63.2225V63.2224V63.2224V63.2223V63.2223V63.2223V63.2222V63.2222V63.2221V63.2221V63.2221V63.222V63.222V63.2219V63.2219V63.2219V63.2218V63.2218V63.2218V63.2217V63.2217V63.2217V63.2216V63.2216V63.2216V63.2215V63.2215V63.2215V63.2214V63.2214V63.2214V63.2214V63.2213V63.2213V63.2213V63.2213V63.2212V63.2212V63.2212V63.2212V63.2211V63.2211V63.2211V63.2211V63.221V63.221V63.221V63.221V63.221V63.2209V63.2209V63.2209V63.2209V63.2209V63.2209V63.2208V63.2208V63.2208V63.2208V63.2208V63.2208V63.2207V63.2207V63.2207V63.2207V63.2207V63.2207V63.2207V63.2207V63.2206V63.2206V63.2206V63.2206V63.2206V63.2206V63.2206V63.2206V63.2206V63.2206V63.2205V63.2205V63.2205V63.2205V63.2205V63.2205V63.2205V63.2205V63.2205V63.2205V63.2205V63.2205V63.2205V63.2205V63.2205V63.2205V63.2204V63.2204V63.2204V63.2204V63.2204V63.2204V63.2204V63.2204V63.2204V63.2204V63.2204V63.2204V63.2204V63.2204V63.2204V63.2204V63.2204V63.2204V63.2204V63.2204V63.2204V63.2204V63.2204V63.2204V63.2204V63.2204V63.2204V63.2204V63.1958L23.2775 63.1719C23.1991 62.8584 23.4375 62.424 23.8696 62.3269H23.958H23.973L23.9879 62.3247L29.782 61.4499L29.782 61.4501L29.7914 61.4482C30.2097 61.3645 30.6667 61.7066 30.7585 62.1661C30.842 62.5836 30.5019 63.0394 30.0443 63.1329L26.6592 63.679Z" fill="#FF0000" stroke="white" stroke-width="0.4"/>
<path d="M62.3099 23.9938L62.3121 23.979V23.964V23.8754C62.3589 23.6627 62.4637 23.5247 62.6029 23.4351C62.7518 23.3394 62.9562 23.2892 63.2054 23.2892C63.2989 23.2892 63.5441 23.3143 63.9176 23.3627C64.2846 23.4103 64.7615 23.4785 65.3075 23.5604C66.3984 23.7241 67.7624 23.9423 69.0726 24.1607C69.5304 24.254 69.8708 24.71 69.7872 25.1276L69.7834 25.147V25.1668C69.7834 25.3571 69.6677 25.5485 69.4717 25.6869C69.276 25.8251 69.0304 25.8876 68.8201 25.8455L68.8201 25.8453L68.8101 25.8438L65.8584 25.4064L65.401 25.3386L65.6649 25.7183C70.093 32.0921 69.4442 40.9508 63.8292 46.5671C63.47 46.9264 62.9407 46.9264 62.5816 46.5671C62.2226 46.2081 62.2223 45.679 62.5808 45.3198C67.7915 40.218 68.2334 32.2342 64.1325 26.5803L63.8498 26.1905L63.7732 26.6659L63.228 30.0468C63.1338 30.408 62.7675 30.7623 62.3308 30.7623H62.3302H62.3295H62.3289H62.3282H62.3276H62.327H62.3264H62.3257H62.3251H62.3245H62.3239H62.3233H62.3227H62.3221H62.3215H62.3209H62.3203H62.3197H62.3191H62.3185H62.3179H62.3173H62.3167H62.3161H62.3155H62.315H62.3144H62.3138H62.3132H62.3127H62.3121H62.3115H62.311H62.3104H62.3098H62.3093H62.3087H62.3082H62.3076H62.3071H62.3065H62.306H62.3054H62.3049H62.3044H62.3038H62.3033H62.3027H62.3022H62.3017H62.3012H62.3006H62.3001H62.2996H62.2991H62.2986H62.298H62.2975H62.297H62.2965H62.296H62.2955H62.295H62.2945H62.294H62.2935H62.293H62.2925H62.292H62.2915H62.291H62.2905H62.2901H62.2896H62.2891H62.2886H62.2881H62.2877H62.2872H62.2867H62.2862H62.2858H62.2853H62.2848H62.2844H62.2839H62.2835H62.283H62.2825H62.2821H62.2816H62.2812H62.2807H62.2803H62.2798H62.2794H62.2789H62.2785H62.2781H62.2776H62.2772H62.2767H62.2763H62.2759H62.2754H62.275H62.2746H62.2742H62.2737H62.2733H62.2729H62.2725H62.272H62.2716H62.2712H62.2708H62.2704H62.2699H62.2695H62.2691H62.2687H62.2683H62.2679H62.2675H62.2671H62.2667H62.2663H62.2659H62.2655H62.2651H62.2647H62.2643H62.2639H62.2635H62.2631H62.2627H62.2623H62.2619H62.2616H62.2612H62.2608H62.2604H62.26H62.2596H62.2592H62.2589H62.2585H62.2581H62.2577H62.2574H62.257H62.2566H62.2562H62.2559H62.2555H62.2551H62.2548H62.2544H62.254H62.2537H62.2533H62.2529H62.2526H62.2522H62.2518H62.2515H62.2511H62.2508H62.2504H62.25H62.2497H62.2493H62.249H62.2486H62.2483H62.2479H62.2476H62.2472H62.2469H62.2465H62.2462H62.2458H62.2455H62.2451H62.2448H62.2444H62.2441H62.2438H62.2434H62.2431H62.2427H62.2424H62.2421H62.2417H62.2414H62.241H62.2407H62.2404H62.24H62.2397H62.2394H62.239H62.2387H62.2384H62.238H62.2377H62.2374H62.237H62.2367H62.2364H62.236H62.2357H62.2354H62.235H62.2347H62.2344H62.2341H62.2337H62.2334H62.2331H62.2327H62.2324H62.2321H62.2318H62.2314H62.2311H62.2308H62.2305H62.2301H62.2298H62.2295H62.2292H62.2289H62.2285H62.2282H62.2279H62.2276H62.2272H62.2269H62.2266H62.2263H62.226H62.2256H62.2253H62.225H62.2247H62.2244H62.224H62.2237H62.2234H62.2231H62.2228H62.2224H62.2221H62.2218H62.2215H62.2211H62.2208H62.2205H62.2202H62.2199H62.2195H62.2192H62.2189H62.2186H62.2183H62.2179H62.2176H62.2173H62.217H62.2167H62.2163H62.216H62.2157H62.2154H62.2151H62.2147H62.2144H62.2141H62.2138H62.2134H62.2131H62.2128H62.2125H62.2121H62.2118H62.2115H62.2112H62.2108H62.2105H62.2102H62.2099H62.2095H62.2092H62.2089H62.2086H62.2082H62.2079H62.2076H62.2072H62.2069H62.2066H62.2062H62.2059H62.2056H62.2053H62.2049H62.2046H62.2043H62.2039H62.2036H62.2032H62.2029H62.2026H62.2022H62.2019H62.2016H62.2012H62.2009H62.2005H62.2002H62.1999H62.1995H62.1992H62.1988H62.1985H62.1981H62.1978H62.1975H62.1971H62.1968H62.1964H62.1961H62.1957H62.1954H62.195H62.1947H62.1943H62.194H62.1936H62.1932H62.1929H62.1925H62.1922H62.1918H62.1915H62.1911H62.1907H62.1904H62.19H62.1896H62.1893H62.1889H62.1885H62.1882H62.1878H62.1874H62.1871H62.1867H62.1863H62.186H62.1856H62.1852H62.1848H62.1844H62.1841H62.1837H62.1833H62.1829H62.1825H62.1822H62.1818H62.1814H62.181H62.1806H62.1802H62.1798H62.1794H62.179H62.1786H62.1783H62.1779H62.1775H62.1771H62.1767H62.1763H62.1759H62.1754H62.175H62.1746H62.1742H62.1738H62.1734H62.173H62.1726H62.1722H62.1717H62.1713H62.1709H62.1705H62.1701H62.1696H62.1692H62.1688H62.1684H62.1679H62.1675H62.1671H62.1666H62.1662H62.1658H62.1653H62.1649H62.1644H62.164H62.1636H62.1631H62.1627H62.1622H62.1618H62.1613H62.1609H62.1604H62.1599H62.1595H62.159H62.1586H62.1581H62.1576H62.1572H62.1567H62.1562H62.1557H62.1553H62.1548H62.1543H62.1538H62.1534H62.1529H62.1524H62.1519H62.1514H62.1509H62.1504H62.1499H62.1494H62.1489H62.1484H62.1479H62.1474H62.1469H62.1464H62.1459H62.1454H62.1449H62.1444H62.1439H62.1433H62.1428H62.1423H62.1418H62.1413H62.1407H62.1402H62.1397H62.1391H62.1386H62.138H62.1375H62.137H62.1364H62.1359H62.1353H62.1348H62.1342H62.1337H62.1331H62.1325H62.132H62.1314H62.1309H62.1303H62.1297H62.1291H62.1286H62.128H62.1274H62.1268H62.1262H62.1257H62.1251H62.1245H62.1239H62.1233H62.1227H62.1221H62.1215H62.1209H62.1203H62.1197H62.119H62.1184H62.1178H62.1172H62.1166H62.1159H62.1153H62.1147H62.1141H62.1134H62.1128H62.1121C61.922 30.7623 61.7307 30.6467 61.5923 30.4506C61.4541 30.2549 61.3916 30.0091 61.4337 29.7987L61.4339 29.7987L61.4353 29.7893L62.3099 23.9938Z" fill="#FF0000" stroke="white" stroke-width="0.4"/>
<path d="M7.70413 23.7148L7.71136 23.7317L7.72154 23.747C7.75768 23.8012 7.78414 23.8566 7.81312 24.0016C7.84367 24.1544 7.8735 24.388 7.92166 24.7941C7.93102 24.873 7.94103 24.958 7.95183 25.0497C8.05153 25.8966 8.21897 27.3188 8.56447 29.7873L8.56413 29.7874L8.56642 29.7988C8.64899 30.2117 8.31715 30.6622 7.86711 30.7624H7.867H7.86645H7.86589H7.86534H7.86479H7.86424H7.86369H7.86314H7.8626H7.86206H7.86152H7.86098H7.86045H7.85992H7.85939H7.85886H7.85833H7.85781H7.85728H7.85676H7.85624H7.85573H7.85521H7.8547H7.85419H7.85368H7.85317H7.85267H7.85216H7.85166H7.85116H7.85067H7.85017H7.84968H7.84918H7.84869H7.84821H7.84772H7.84723H7.84675H7.84627H7.84579H7.84531H7.84484H7.84436H7.84389H7.84342H7.84295H7.84248H7.84202H7.84155H7.84109H7.84063H7.84017H7.83971H7.83926H7.8388H7.83835H7.8379H7.83745H7.837H7.83656H7.83611H7.83567H7.83523H7.83479H7.83435H7.83391H7.83348H7.83304H7.83261H7.83218H7.83175H7.83132H7.83089H7.83047H7.83005H7.82962H7.8292H7.82878H7.82836H7.82795H7.82753H7.82712H7.82671H7.82629H7.82588H7.82548H7.82507H7.82466H7.82426H7.82385H7.82345H7.82305H7.82265H7.82225H7.82186H7.82146H7.82106H7.82067H7.82028H7.81989H7.8195H7.81911H7.81872H7.81833H7.81795H7.81756H7.81718H7.8168H7.81642H7.81604H7.81566H7.81528H7.8149H7.81453H7.81415H7.81378H7.81341H7.81304H7.81267H7.8123H7.81193H7.81156H7.81119H7.81083H7.81046H7.8101H7.80974H7.80937H7.80901H7.80865H7.80829H7.80793H7.80758H7.80722H7.80686H7.80651H7.80615H7.8058H7.80545H7.8051H7.80474H7.80439H7.80404H7.8037H7.80335H7.803H7.80265H7.80231H7.80196H7.80162H7.80127H7.80093H7.80059H7.80025H7.7999H7.79956H7.79922H7.79888H7.79855H7.79821H7.79787H7.79753H7.7972H7.79686H7.79653H7.79619H7.79586H7.79552H7.79519H7.79486H7.79452H7.79419H7.79386H7.79353H7.7932H7.79287H7.79254H7.79221H7.79188H7.79155H7.79123H7.7909H7.79057H7.79025H7.78992H7.78959H7.78927H7.78894H7.78862H7.78829H7.78797H7.78764H7.78732H7.78699H7.78667H7.78635H7.78603H7.7857H7.78538H7.78506H7.78474H7.78441H7.78409H7.78377H7.78345H7.78313H7.78281H7.78249H7.78216H7.78184H7.78152H7.7812H7.78088H7.78056H7.78024H7.77992H7.7796H7.77928H7.77896H7.77864H7.77832H7.778H7.77768H7.77736H7.77704H7.77672H7.7764H7.77608H7.77575H7.77543H7.77511H7.77479H7.77447H7.77415H7.77383H7.77351H7.77319H7.77286H7.77254H7.77222H7.7719H7.77158H7.77125H7.77093H7.77061H7.77028H7.76996H7.76964H7.76931H7.76899H7.76866H7.76834H7.76801H7.76769H7.76736H7.76703H7.76671H7.76638H7.76605H7.76572H7.7654H7.76507H7.76474H7.76441H7.76408H7.76375H7.76342H7.76309H7.76275H7.76242H7.76209H7.76175H7.76142H7.76109H7.76075H7.76042H7.76008H7.75974H7.75941H7.75907H7.75873H7.75839H7.75805H7.75771H7.75737H7.75703H7.75669H7.75635H7.756H7.75566H7.75532H7.75497H7.75462H7.75428H7.75393H7.75358H7.75323H7.75288H7.75253H7.75218H7.75183H7.75148H7.75112H7.75077H7.75041H7.75006H7.7497H7.74934H7.74899H7.74863H7.74827H7.7479H7.74754H7.74718H7.74682H7.74645H7.74608H7.74572H7.74535H7.74498H7.74461H7.74424H7.74387H7.7435H7.74312H7.74275H7.74237H7.742H7.74162H7.74124H7.74086H7.74048H7.7401H7.73971H7.73933H7.73894H7.73856H7.73817H7.73778H7.73739H7.737H7.73661H7.73621H7.73582H7.73542H7.73502H7.73463H7.73423H7.73383H7.73342H7.73302H7.73261H7.73221H7.7318H7.73139H7.73098H7.73057H7.73016H7.72974H7.72933H7.72891H7.72849H7.72808H7.72765H7.72723H7.72681H7.72638H7.72596H7.72553H7.7251H7.72467H7.72424H7.7238H7.72337H7.72293H7.72249H7.72205H7.72161H7.72117H7.72072H7.72028H7.71983H7.71938H7.71893H7.71847H7.71802H7.71756H7.71711H7.71665H7.71619H7.71573H7.71526H7.7148H7.71433H7.71386H7.71339H7.71292H7.71244H7.71197H7.71149H7.71101H7.71053H7.71004H7.70956H7.70907H7.70858H7.70809H7.7076H7.70711H7.70661H7.70611H7.70561H7.70511H7.70461H7.7041H7.7036H7.70309H7.70258H7.70206H7.70155H7.70103H7.70051H7.69999H7.69947H7.69895H7.69842H7.69789H7.69736H7.69683H7.69629H7.69576H7.69522H7.69468H7.69413H7.69359H7.69304H7.69249H7.69194H7.69139H7.69083H7.69027H7.68971H7.68915H7.68859H7.68802H7.68745H7.68688H7.68631H7.68573H7.68515H7.68457H7.68399H7.68341H7.68282H7.68223H7.68164H7.68105H7.68045H7.67985H7.67925H7.67865H7.67804H7.67744H7.67683H7.67621H7.6756H7.67498H7.67436H7.67374H7.67311H7.67249H7.67186H7.67123H7.67059H7.66996H7.66932C7.21204 30.7624 6.8633 30.4962 6.77292 30.0519L6.22693 26.666L6.14885 26.1818L5.86607 26.5825C1.87654 32.2357 2.31826 40.2176 7.41856 45.3191C7.77776 45.6784 7.77776 46.2079 7.41856 46.5672C7.05958 46.9263 6.5307 46.9265 6.17153 46.5678C0.55483 40.841 -0.092088 32.091 4.33525 25.7184L4.59906 25.3387L4.14168 25.4065L1.18997 25.8439L1.18994 25.8436L1.18006 25.8456C0.761747 25.9293 0.304748 25.5873 0.21286 25.1277C0.131398 24.7203 0.457879 24.258 1.03207 24.1616L6.81431 23.2886C6.83976 23.287 6.86676 23.2827 6.88411 23.28C6.88629 23.2797 6.88832 23.2794 6.89017 23.2791C6.91937 23.2746 6.95078 23.2697 6.98628 23.266C7.05724 23.2586 7.13882 23.2565 7.22249 23.2722C7.37638 23.3011 7.56674 23.3942 7.70413 23.7148Z" fill="#FF0000" stroke="white" stroke-width="0.4"/>
<path d="M53.3941 29.8187L53.4285 29.9306L53.543 29.9554L57.5846 30.8295C57.9473 30.9216 58.3048 31.2894 58.3048 31.7282V38.2891C58.3048 38.7478 58.0371 39.0972 57.5909 39.1865L57.5879 39.1871L53.543 40.0619L53.4285 40.0867L53.3941 40.1986C52.9593 41.6119 52.4181 43.0177 51.6633 44.3119L51.601 44.4188L51.6689 44.5223L53.9646 48.0215L53.9643 48.0217L53.9718 48.0318C54.1 48.2027 54.1474 48.4231 54.1243 48.6426C54.101 48.8638 54.008 49.065 53.8811 49.1919L49.1906 53.8836C48.7956 54.1749 48.3562 54.2365 48.0205 53.9847L48.0207 53.9844L48.0102 53.9775L44.5119 51.6811L44.4084 51.6132L44.3014 51.6756C43.0075 52.4305 41.602 52.9719 40.1891 53.4068L40.0772 53.4412L40.0524 53.5557L39.1778 57.6016L39.1772 57.6046C39.088 58.051 38.7386 58.3186 38.2801 58.3186H31.7208C31.2623 58.3186 30.9129 58.051 30.8237 57.6046L30.823 57.6016L29.9484 53.5557L29.9237 53.4412L29.8118 53.4068C28.3988 52.9719 26.9934 52.4305 25.6995 51.6756L25.5925 51.6132L25.4889 51.6811L21.9906 53.9775L21.9904 53.9771L21.9804 53.9847C21.8095 54.1128 21.5892 54.1602 21.3697 54.1371C21.1486 54.1138 20.9475 54.0209 20.8206 53.8939L16.1301 49.2023C15.8388 48.8072 15.7772 48.3676 16.029 48.0318L16.0293 48.032L16.0362 48.0215L18.332 44.5223L18.3999 44.4188L18.3375 44.3119C17.5828 43.0177 17.0415 41.6119 16.6068 40.1986L16.5723 40.0867L16.4579 40.0619L12.413 39.1871L12.413 39.1871L12.4099 39.1865C11.9637 39.0972 11.6961 38.7478 11.6961 38.2891V31.7282C11.6961 31.27 11.9631 30.9209 12.4084 30.8311C12.4089 30.831 12.4094 30.8309 12.4099 30.8308L16.5612 30.0659L16.6804 30.044L16.7161 29.9281C17.1508 28.5148 17.6921 27.109 18.4469 25.8148L18.5092 25.7078L18.4413 25.6043L16.1455 22.1051L16.1459 22.1049L16.1383 22.0949C16.0102 21.924 15.9628 21.7036 15.9859 21.484C16.0092 21.2628 16.1021 21.0617 16.2291 20.9347L16.2291 20.9348L16.2323 20.9314L20.8121 16.1324C21.2066 15.8422 21.6451 15.7811 21.9804 16.0326L21.9801 16.0329L21.9906 16.0398L25.4889 18.3362L25.5925 18.4041L25.6995 18.3417C26.9934 17.5867 28.3988 17.0454 29.8118 16.6105L29.9237 16.5761L29.9484 16.4616L30.823 12.4157L30.823 12.4157L30.8236 12.4127C30.9129 11.9663 31.2623 11.6987 31.7208 11.6987H38.2801C38.7381 11.6987 39.0872 11.9658 39.1769 12.4113C39.177 12.4117 39.1771 12.4122 39.1772 12.4127L39.9419 16.5649L39.9639 16.6842L40.0798 16.7199C41.4927 17.1547 42.8982 17.6961 44.192 18.451L44.299 18.5135L44.4026 18.4455L47.9009 16.1492L47.9011 16.1495L47.9112 16.142C48.082 16.0138 48.3024 15.9664 48.5218 15.9895C48.7429 16.0128 48.944 16.1058 49.0709 16.2327L49.0709 16.2328L49.0742 16.236L53.8721 20.8169C54.1623 21.2115 54.2233 21.6502 53.9718 21.9855L53.9715 21.9853L53.9646 21.9958L51.6689 25.4949L51.601 25.5985L51.6633 25.7054C52.4181 26.9996 52.9593 28.4054 53.3941 29.8187ZM56.3617 37.6096L56.5183 37.5747V37.4143V32.603V32.4426L56.3617 32.4077L52.4261 31.533L52.4047 31.5282H52.3827C52.0613 31.5282 51.7957 31.2884 51.7022 30.9142C51.2603 29.1462 50.5976 27.5998 49.7168 26.0571C49.5238 25.6678 49.5386 25.3117 49.7067 25.0595L51.8932 21.779L51.9841 21.6426L51.8682 21.5267L48.4792 18.1369L48.3633 18.0209L48.2268 18.1119L44.9578 20.2918C44.5709 20.4817 44.2173 20.4661 43.9665 20.2989L43.9668 20.2985L43.9548 20.2916C42.4104 19.4089 40.7567 18.747 39.1032 18.3054C38.8449 18.2168 38.5682 17.9461 38.4748 17.5762L37.6008 13.6423L37.566 13.4857H37.4055H32.5953H32.4349L32.4001 13.6423L31.5255 17.5788L31.5208 17.6003V17.6222C31.5208 17.9438 31.2809 18.2095 30.907 18.303C29.1394 18.745 27.5933 19.4078 26.051 20.2888C25.6618 20.4819 25.3058 20.467 25.0537 20.2989L21.774 18.1119L21.6376 18.0209L21.5216 18.1369L18.1327 21.5267L18.0168 21.6426L18.1077 21.779L20.287 25.0488C20.477 25.4359 20.4614 25.7896 20.2941 26.0405L20.2937 26.0402L20.2869 26.0522C19.4044 27.5969 18.7427 29.251 18.3012 30.9049C18.2126 31.1634 17.9419 31.4402 17.5721 31.5336L13.6391 32.4077L13.4825 32.4426V32.603V37.4143V37.5747L13.6391 37.6096L17.5748 38.4843L17.5962 38.4891H17.6182C17.9395 38.4891 18.2052 38.7289 18.2987 39.103C18.7406 40.8711 19.4032 42.4175 20.284 43.9601C20.4771 44.3495 20.4622 44.7056 20.2941 44.9578L18.1077 48.2383L18.0168 48.3747L18.1327 48.4906L21.5216 51.8804L21.6376 51.9964L21.774 51.9054L25.043 49.7255C25.43 49.5356 25.7835 49.5512 26.0343 49.7184L26.0341 49.7188L26.0461 49.7257C27.5904 50.6084 29.2442 51.2703 30.8977 51.7119C31.156 51.8005 31.4327 52.0712 31.5261 52.4411L32.4001 56.375L32.4349 56.5316H32.5953H37.4055H37.566L37.6008 56.375L38.4753 52.4385L38.4801 52.417V52.3951C38.4801 52.0735 38.7199 51.8078 39.0939 51.7143C40.8615 51.2723 42.4075 50.6095 43.9498 49.7285C44.3391 49.5354 44.695 49.5503 44.9471 49.7184L48.2268 51.9054L48.3633 51.9964L48.4792 51.8804L51.8682 48.4906L51.9841 48.3747L51.8932 48.2383L49.7138 44.9685C49.5239 44.5814 49.5395 44.2277 49.7067 43.9768L49.7071 43.9771L49.714 43.9651C50.5965 42.4204 51.2582 40.7662 51.6997 39.1124C51.7883 38.8539 52.0589 38.5771 52.4288 38.4837L56.3617 37.6096Z" fill="#FF0000" stroke="white" stroke-width="0.4"/>
<path d="M21.4266 35.0086C21.4266 27.4656 27.5674 21.4306 35.0012 21.4306C42.4339 21.4306 48.5758 27.5739 48.5758 35.0086C48.5758 42.4432 42.4339 48.5865 35.0012 48.5865C27.5674 48.5865 21.4266 42.5515 21.4266 35.0086ZM23.213 35.0086C23.213 41.5718 28.5512 46.7995 35.0012 46.7995C41.4524 46.7995 46.7894 41.4612 46.7894 35.0086C46.7894 28.4453 41.4512 23.2176 35.0012 23.2176C28.4394 23.2176 23.213 28.5571 23.213 35.0086Z" fill="#FF0000" stroke="white" stroke-width="0.4"/>
<path d="M28.6414 35.9021V34.1152H30.4279V35.9021H28.6414Z" fill="#FF0000" stroke="white" stroke-width="0.4"/>
<path d="M34.1063 35.9021V34.1152H35.8927V35.9021H34.1063Z" fill="#FF0000" stroke="white" stroke-width="0.4"/>
<path d="M39.573 35.9021V34.1152H41.3595V35.9021H39.573Z" fill="#FF0000" stroke="white" stroke-width="0.4"/>
</svg>
