<svg width="70" height="70" viewBox="0 0 70 70" fill="none" xmlns="http://www.w3.org/2000/svg">
<path d="M69.4998 11.9962L69.4997 11.9963C69.3281 12.091 66.7606 13.4663 62.8125 13.4668C61.5838 13.4668 60.2141 13.3203 58.7466 12.9734L58.568 12.9311L58.6294 13.1041L67.6369 38.5048L67.6605 38.5714H67.7311H69.1259C69.3711 38.5714 69.6016 38.6872 69.7481 38.884C69.8941 39.0808 69.9387 39.3351 69.868 39.57C68.2367 44.9876 63.1439 48.7718 57.4852 48.7718C51.8264 48.7718 46.7336 44.9876 45.1023 39.57C45.0316 39.3351 45.0762 39.0808 45.2222 38.884C45.3687 38.6872 45.5992 38.5714 45.8444 38.5714H47.2386H47.3092L47.3329 38.5048L56.5798 12.4301L56.6128 12.337L56.5201 12.3028C55.2615 11.8389 53.9485 11.2204 52.5904 10.3858C45.3284 5.92246 40.8518 5.50717 39.6077 5.48807L39.5062 5.48651V5.58806V52.2825V52.3825H39.6062H48.8334C49.2614 52.3825 49.6084 52.7295 49.6084 53.1575V59.976V60.076H49.7084H51.9134C53.8534 60.076 55.4318 61.6543 55.4318 63.5943V69.125C55.4318 69.553 55.0848 69.9 54.6568 69.9H15.3442C14.9162 69.9 14.5692 69.553 14.5692 69.125V63.5943C14.5692 61.6543 16.1475 60.076 18.0875 60.076H20.2925H20.3925V59.976V53.1575C20.3925 52.7295 20.7395 52.3825 21.1675 52.3825H30.3948H30.4948V52.2825V5.58891V5.48727L30.3931 5.48893C29.1482 5.50927 24.6701 5.92382 17.4105 10.3858C16.0525 11.2204 14.7394 11.8387 13.4807 12.3027L13.3881 12.3368L13.4211 12.4299L22.6681 38.5048L22.6917 38.5714H22.7623H24.1565C24.4017 38.5714 24.6321 38.6871 24.7786 38.8839C24.9247 39.0807 24.9694 39.335 24.8986 39.57C23.2673 44.9876 18.1746 48.7718 12.5158 48.7718C6.85701 48.7718 1.76428 44.9876 0.13296 39.57L0.0372072 39.5989L0.13296 39.57C0.06219 39.335 0.106839 39.0807 0.25294 38.8839C0.399427 38.6871 0.629846 38.5714 0.875037 38.5714H2.26984H2.34048L2.36408 38.5048L11.3717 13.1038L11.433 12.9308L11.2544 12.973C9.78689 13.32 8.41711 13.4666 7.18845 13.4668C3.23946 13.4668 0.672811 12.091 0.501253 11.9963L0.501174 11.9962C0.126171 11.7896 -0.010023 11.3181 0.19694 10.9436L0.197035 10.9434C0.403195 10.5685 0.874607 10.4322 1.24969 10.6392L1.25018 10.6395C1.53801 10.7963 8.13439 14.2668 16.5992 9.06506C24.3025 4.33141 29.0603 3.93318 30.4724 3.93592L30.557 3.93609L30.5712 3.85267C30.9322 1.72697 32.7746 0.1 35.0005 0.1C37.2263 0.1 39.0688 1.72702 39.4298 3.85288L39.4439 3.9363L39.5286 3.93614C40.9405 3.93345 45.6979 4.33046 53.4017 9.06505C61.8661 14.2672 68.4629 10.7963 68.7529 10.6382C69.1271 10.4353 69.599 10.5717 69.8038 10.9458L69.8038 10.9459C70.0094 11.3207 69.8738 11.7901 69.4998 11.9962ZM2.12003 40.1214H1.96903L2.02796 40.2604C3.78785 44.4125 7.94071 47.2218 12.5158 47.2218C17.0909 47.2218 21.2437 44.4125 23.0036 40.2604L23.0625 40.1214H22.9115H2.12003ZM4.03202 38.438L3.98471 38.5714H4.12627H20.9056H21.0471L20.9998 38.438L12.61 14.7805L12.5158 14.5147L12.4215 14.7805L4.03202 38.438ZM53.7818 68.35H53.8818V68.25V63.5943C53.8818 62.509 52.9988 61.626 51.9134 61.626H18.0875C17.0022 61.626 16.1192 62.509 16.1192 63.5943V68.25V68.35H16.2192H53.7818ZM47.9584 60.076H48.0584V59.976V54.0325V53.9325H47.9584H22.0425H21.9425V54.0325V59.976V60.076H22.0425H47.9584ZM32.0448 52.2825V52.3825H32.1448H37.8562H37.9562V52.2825V4.60571C37.9562 2.97566 36.6305 1.65 35.0005 1.65C33.3704 1.65 32.0448 2.97566 32.0448 4.60571V52.2825ZM47.0894 40.1214H46.9384L46.9973 40.2604C48.7572 44.4125 52.9101 47.2218 57.4852 47.2218C62.0602 47.2218 66.2131 44.4125 67.973 40.2604L68.0319 40.1214H67.8809H47.0894ZM49.0011 38.438L48.9538 38.5714H49.0954H65.8747H66.0162L65.9689 38.438L57.5794 14.7805L57.4852 14.5147L57.3909 14.7805L49.0011 38.438Z" fill="#FF0000" stroke="white" stroke-width="0.2"/>
</svg>
