<svg width="68" height="72" viewBox="0 0 68 72" fill="none" xmlns="http://www.w3.org/2000/svg">
<path d="M52.2139 71.7501C43.6056 71.7501 36.6783 64.9216 36.6783 56.4519C36.6783 47.9823 43.6056 41.1538 52.2139 41.1538C60.8223 41.1538 67.7496 47.9823 67.7496 56.4519C67.7496 64.9216 60.8223 71.7501 52.2139 71.7501ZM52.2139 43.0458C44.6723 43.0458 38.6068 49.0146 38.6068 56.4519C38.6068 63.8892 44.6723 69.858 52.2139 69.858C59.7555 69.858 65.821 63.8892 65.821 56.4519C65.821 49.0146 59.7555 43.0458 52.2139 43.0458Z" fill="#FF0000" stroke="white" stroke-width="0.5"/>
<path d="M55.6069 38.5822C54.9564 38.4891 54.3491 38.4023 53.6783 38.3844V19.0166V18.5821L53.3027 18.8004L29.0171 32.9133L28.8927 32.9856V33.1295V57.8869V58.3196L29.2676 58.1034L33.7839 55.4995C33.7498 55.8214 33.7498 56.1371 33.7499 56.4385V56.4516V56.4648C33.7498 56.8775 33.7498 57.317 33.8373 57.7625L27.9288 61.1858L0.25 45.0654V17.5813V16.9833V16.4094L27.9285 0.289309L55.6069 16.4094V16.9833V17.5813V38.5822ZM12.27 24.4226L11.8928 24.1997V24.6378V34.3255V34.4623L12.008 34.536L16.8651 37.6456L17.2499 37.892V37.4351V27.5082V27.3656L17.1271 27.293L12.27 24.4226ZM13.4743 22.6276L13.1055 22.842L13.4727 23.059L17.7227 25.5706L17.8489 25.6452L17.9755 25.5716L42.2611 11.4586L42.63 11.2443L42.2627 11.0273L38.0127 8.51564L37.8866 8.4411L37.7599 8.51472L13.4743 22.6276ZM28.0551 2.6549L27.9292 2.58086L27.8028 2.65427L3.51723 16.7672L3.14739 16.9821L3.51616 17.1989L11.0447 21.6241L11.1707 21.6981L11.297 21.6247L35.5826 7.51181L35.9524 7.29689L35.5837 7.08013L28.0551 2.6549ZM2.55311 18.7998L2.17856 18.5846V19.0166V43.7739V43.9178L2.30295 43.9901L26.5886 58.103L26.9642 58.3213V57.8869V33.1295V32.9848L26.8387 32.9127L19.553 28.7267L19.1785 28.5115V28.9434V41.5135L9.96424 35.3875V23.2026V23.0579L9.83879 22.9858L2.55311 18.7998ZM27.8018 31.3118L27.9277 31.3858L28.0541 31.3124L52.3397 17.1995L52.7095 16.9846L52.3407 16.7678L44.8122 12.3426L44.6862 12.2685L44.5599 12.3419L20.2743 26.4549L19.9045 26.6698L20.2732 26.8865L27.8018 31.3118Z" fill="#FF0000" stroke="white" stroke-width="0.5"/>
<path d="M53.1769 55.2561V55.5061H53.4269H62.8911V57.3981H53.4269H53.1769V57.6481V66.9662H51.2483V57.6481V57.3981H50.9983H41.5341V55.5061H50.9983H51.2483V55.2561V45.938H53.1769V55.2561Z" fill="#FF0000" stroke="white" stroke-width="0.5"/>
</svg>
