<svg width="66" height="66" viewBox="0 0 66 66" fill="none" xmlns="http://www.w3.org/2000/svg">
<path d="M12.6726 20.3133C12.3796 20.02 12.3796 19.58 12.6726 19.2867L27.323 4.62C27.616 4.32667 28.0555 4.32667 28.3485 4.62L33.6959 9.97333L42.1931 1.46667H36.626C36.1865 1.46667 35.8935 1.17333 35.8935 0.733333C35.8935 0.293333 36.1865 0 36.626 0H43.9512C44.0244 0 44.1709 -7.10289e-08 44.2442 0.0733333C44.3907 0.146667 44.5372 0.293333 44.6104 0.44C44.6837 0.513333 44.6837 0.66 44.6837 0.733333V8.06667C44.6837 8.50667 44.3907 8.8 43.9512 8.8C43.5117 8.8 43.2186 8.50667 43.2186 8.06667V2.49333L34.2087 11.5133C34.0622 11.66 33.9156 11.7333 33.6959 11.7333C33.4761 11.7333 33.3296 11.66 33.1831 11.5133L27.8357 6.16L13.6981 20.3133C13.5516 20.46 13.4051 20.5333 13.1854 20.5333C12.9656 20.5333 12.8191 20.46 12.6726 20.3133ZM65.9268 8.06667V65.2667C65.9268 65.7067 65.6337 66 65.1942 66H0.732519C0.293008 66 0 65.7067 0 65.2667V38.8667V28.6C0 28.5267 -7.095e-08 28.38 0.0732519 28.3067C0.146504 28.16 0.293008 28.0133 0.439512 27.94C0.586015 27.8667 0.805771 27.8667 1.02553 27.94C1.09878 28.0133 1.17203 28.0133 1.24528 28.0867L9.52275 36.3733L12.6726 33.22L27.323 18.5533C27.616 18.26 28.0555 18.26 28.3485 18.5533L32.7436 22.9533L33.6959 23.9067L42.7059 14.8867L43.4384 14.1533L51.4961 6.08667C51.7891 5.79333 52.2286 5.79333 52.5216 6.08667L60.6526 14.2267L64.535 7.7L64.6082 7.62667C64.6082 7.55333 64.6815 7.55333 64.6815 7.48C64.6815 7.48 64.7547 7.40667 64.828 7.40667C64.9012 7.40667 64.9012 7.33333 64.9745 7.33333C65.0477 7.33333 65.0477 7.33333 65.121 7.33333H65.1942C65.1942 7.33333 65.1942 7.33333 65.2675 7.33333C65.3407 7.33333 65.3407 7.33333 65.414 7.33333C65.4872 7.33333 65.4872 7.33333 65.5605 7.40667C65.5605 7.40667 65.5605 7.40667 65.6337 7.40667L65.707 7.48C65.7802 7.48 65.7803 7.55333 65.8535 7.55333C65.8535 7.55333 65.9268 7.62667 65.9268 7.7C65.9268 7.77333 66 7.77333 66 7.84667C66 7.92 66 7.92 66 7.99333C65.9268 7.99333 65.9268 8.06667 65.9268 8.06667ZM44.6837 64.5333H64.4617V10.7067L61.4584 15.7667C61.4584 15.84 61.3851 15.84 61.3851 15.9133C61.3119 15.9867 61.2386 15.9867 61.1654 16.06H61.0921C60.9456 16.1333 60.8724 16.1333 60.7991 16.1333C60.7259 16.1333 60.6526 16.1333 60.5794 16.06H60.5061H60.4329L60.3596 15.9867C60.3596 15.9867 60.2864 15.9867 60.2864 15.9133L52.0089 7.62667L44.4639 15.18L43.7314 15.9133L34.7214 24.9333L44.4639 34.6867C44.5372 34.76 44.6104 34.8333 44.6104 34.9067C44.6837 34.98 44.6837 35.1267 44.6837 35.2V64.5333ZM10.5483 37.4L16.8479 43.7067L26.5905 33.9533C26.5905 33.9533 26.6637 33.88 26.737 33.88C26.8102 33.88 26.8102 33.8067 26.8835 33.8067H26.9567C27.03 33.8067 27.03 33.8067 27.1032 33.8067C27.1765 33.8067 27.1765 33.8067 27.2497 33.8067C27.323 33.8067 27.323 33.8067 27.3962 33.88C27.4695 33.88 27.4695 33.9533 27.5427 33.9533C27.5427 33.9533 27.616 33.9533 27.616 34.0267C27.616 34.0267 27.6892 34.1 27.6892 34.1733C27.6892 34.2467 27.7625 34.2467 27.7625 34.32L37.1387 64.5333H43.2186V35.4933L33.1831 25.4467L31.7181 23.98L27.8357 20.0933L13.6981 34.2467L10.5483 37.4ZM1.46504 64.5333H35.6004L26.737 35.86L17.3607 45.2467C17.2142 45.3933 17.0677 45.4667 16.8479 45.4667C16.6282 45.4667 16.4817 45.3933 16.3352 45.2467L1.46504 30.36V38.8667V64.5333Z" fill="#FF0000"/>
</svg>
