<svg width="70" height="70" viewBox="0 0 70 70" fill="none" xmlns="http://www.w3.org/2000/svg">
<path d="M48.9185 26.5791L48.9185 26.579L48.9136 26.5786C48.4457 26.5342 48.1014 26.1385 48.1005 25.6661C48.1005 25.6404 48.0979 25.6182 48.0954 25.6019C48.0935 25.5894 48.091 25.5761 48.0897 25.5692L48.0892 25.5662C48.0892 25.5661 48.0891 25.566 48.0891 25.5659L49.9789 5.72642C50.0715 4.75675 49.7811 3.83768 49.1544 3.14759L49.1541 3.14724C48.5262 2.45842 47.6397 2.08333 46.6663 2.08333H23.3331C22.3598 2.08333 21.4733 2.45837 20.8465 3.14609L20.8461 3.14643C20.2193 3.83667 19.9303 4.75579 20.0228 5.72518C20.0229 5.7252 20.0229 5.72523 20.0229 5.72525L21.9115 25.5654C21.9114 25.5657 21.9114 25.5661 21.9113 25.5664L21.9108 25.5695C21.9095 25.5763 21.907 25.5896 21.9051 25.602C21.9027 25.6182 21.9001 25.6404 21.9001 25.6661C21.8991 26.1385 21.5549 26.5342 21.087 26.5786L21.087 26.5785L21.0805 26.5793C21.0559 26.5822 21.0297 26.5833 20.9986 26.5833C20.5313 26.5833 20.1327 26.2275 20.0878 25.7539L20.0878 25.7537L18.1966 5.89945C18.0537 4.39884 18.5144 2.98645 19.4895 1.91474L19.4896 1.91465C20.4647 0.841799 21.8269 0.25 23.3331 0.25H46.6663C48.1724 0.25 49.5347 0.841727 50.511 1.91348C51.4862 2.98642 51.9469 4.39887 51.804 5.89945L49.9128 25.7537L49.9128 25.7538C49.8646 26.2617 49.4226 26.6369 48.9185 26.5791Z" fill="#FF0000" stroke="white" stroke-width="0.5"/>
<path d="M22.4175 59.5001C22.4175 59.2541 22.5156 59.0246 22.6834 58.8479C23.0308 58.5132 23.6513 58.5168 23.9836 58.8464C24.1507 59.023 24.2509 59.2656 24.2509 59.5001C24.2509 59.7331 24.1519 59.9737 23.9857 60.1516C23.8078 60.3178 23.5672 60.4168 23.3342 60.4168C23.1007 60.4168 22.859 60.3174 22.6827 60.1516C22.5159 59.9743 22.4175 59.7338 22.4175 59.5001Z" fill="#FF0000" stroke="white" stroke-width="0.5"/>
<path d="M45.7499 59.5001C45.7499 59.2541 45.848 59.0246 46.0158 58.8479C46.3615 58.5148 46.9713 58.5147 47.3172 58.8476C47.4835 59.0241 47.5833 59.2661 47.5833 59.5001C47.5833 59.7331 47.4843 59.9737 47.3181 60.1516C47.1402 60.3178 46.8996 60.4168 46.6666 60.4168C46.4331 60.4168 46.1914 60.3174 46.0151 60.1516C45.8483 59.9743 45.7499 59.7338 45.7499 59.5001Z" fill="#FF0000" stroke="white" stroke-width="0.5"/>
<mask id="path-4-inside-1" fill="white">
<path d="M68.8332 39.6668H67.9932L69.9637 31.7825C70.0512 31.4337 69.973 31.065 69.7514 30.7827C69.532 30.4992 69.1925 30.3335 68.8332 30.3335H57.1666C56.6311 30.3335 56.1656 30.6987 56.0349 31.2178L53.9221 39.6668H51.3332V33.5698C51.3332 31.66 49.9624 29.5693 48.2124 28.811L40.9814 25.6668L39.4636 25.0077V23.589C40.1998 22.9788 41.3501 21.6512 42.1481 18.9468C42.4818 18.5303 43.1211 17.6075 43.3509 16.4397C43.5563 15.4352 43.4606 14.272 42.8994 13.537C43.0231 12.2805 43.1071 9.6252 41.9043 7.82503C40.3514 5.49404 37.2131 4.66687 34.9999 4.66687C32.7868 4.66687 29.6484 5.49404 28.0945 7.82503C26.8928 9.6252 26.9756 12.2794 27.0993 13.537C26.5393 14.272 26.4425 15.434 26.6455 16.4327C26.8765 17.6063 27.517 18.5292 27.8506 18.9468C28.6486 21.65 29.7989 22.9777 30.5351 23.589V25.0077L29.0184 25.6668L21.7875 28.811C20.0375 29.5693 18.6666 31.66 18.6666 33.5698V39.6668H16.3333V33.8335C16.3333 33.1883 15.8106 32.6668 15.1666 32.6668H10.5C9.85598 32.6668 9.33332 33.1883 9.33332 33.8335V39.6668H6.99999V38.5001C6.99999 37.855 6.47732 37.3335 5.83332 37.3335C5.18932 37.3335 4.66666 37.855 4.66666 38.5001V39.6668H1.16666C0.522666 39.6668 0 40.1883 0 40.8335V45.5001C0 46.1453 0.522666 46.6668 1.16666 46.6668H2.33333V68.8334C2.33333 69.4786 2.85599 70.0001 3.49999 70.0001H23.3333C23.9785 70.0001 24.5 69.4786 24.5 68.8334V67.6668H45.4999V68.8334C45.4999 69.4786 46.0214 70.0001 46.6666 70.0001H66.4999C67.1451 70.0001 67.6665 69.4786 67.6665 68.8334V46.6668H68.8332C69.4784 46.6668 69.9999 46.1453 69.9999 45.5001V40.8335C69.9999 40.1883 69.4784 39.6668 68.8332 39.6668ZM58.0777 32.6668H67.3387L65.5887 39.6668H56.3277L58.0777 32.6668ZM32.1673 26.8417C32.5931 26.6562 32.8696 26.2362 32.8696 25.7718V25.6668V22.9788C32.8696 22.5495 32.5943 22.1342 32.2151 21.9312C32.2011 21.9242 30.8956 21.1915 30.0288 18.0718C29.9786 17.8933 29.8864 17.7277 29.7604 17.5912C29.7534 17.5842 29.1094 16.8597 28.9344 15.9742C28.8609 15.6114 28.8855 15.2112 28.9368 15.0187C29.3405 14.7772 29.5668 14.3094 29.4874 13.8275C29.3545 13.0202 29.1689 10.4197 30.0369 9.11886C31.0064 7.66287 33.2896 7.0002 34.9999 7.0002C36.7103 7.0002 38.9934 7.66287 39.9641 9.11886C40.8309 10.4174 40.6548 12.9595 40.5124 13.8287C40.4354 14.3082 40.6618 14.7772 41.0643 15.0187C41.1156 15.2112 41.1389 15.6137 41.0643 15.9812C40.8904 16.8678 40.2429 17.5888 40.2406 17.5912C40.1146 17.7277 40.0213 17.8933 39.9723 18.0718C39.1113 21.1682 37.8174 21.9137 37.8233 21.9137C37.4033 22.1003 37.1314 22.5192 37.1314 22.9788V25.6668V25.7718C37.1314 26.2362 37.4068 26.6562 37.8338 26.8417L39.6608 27.6373L36.1666 32.5268V29.1668C36.1666 28.5217 35.6451 28.0002 34.9999 28.0002C34.3548 28.0002 33.8333 28.5217 33.8333 29.1668V32.5268L30.3403 27.6373L32.1673 26.8417ZM21 33.5698C21 32.5887 21.8178 31.3415 22.7173 30.9507L28.1738 28.5788C28.1924 28.6103 28.1971 28.6477 28.2181 28.678L34.0514 36.8447C34.2696 37.1515 34.6231 37.3335 34.9999 37.3335C35.3768 37.3335 35.7303 37.1515 35.9484 36.8447L41.7818 28.678C41.8039 28.6477 41.8074 28.6103 41.8261 28.5788L47.2826 30.9507C48.1821 31.3415 48.9999 32.5898 48.9999 33.5698V39.6668H44.7218H23.3333H21V33.5698ZM11.6666 35.0002H14V39.6668H11.6666V35.0002ZM65.3332 67.6668H47.8332V66.5001V64.1668C47.8332 63.8564 47.7084 63.5799 47.5124 63.3711C47.2989 63.1448 47.0014 63.0001 46.6666 63.0001C46.0214 63.0001 45.4999 63.5216 45.4999 64.1668V65.3334H24.5V64.1668C24.5 63.5216 23.9785 63.0001 23.3333 63.0001C22.9985 63.0001 22.701 63.1448 22.4875 63.3711C22.2915 63.5799 22.1666 63.8564 22.1666 64.1668V66.5001V67.6668H4.66666V46.6668H4.74016H22.1666V52.5001C22.1666 53.1453 22.6881 53.6668 23.3333 53.6668C23.9785 53.6668 24.5 53.1453 24.5 52.5001V46.6668H45.4999V52.5001C45.4999 53.1453 46.0214 53.6668 46.6666 53.6668C47.3117 53.6668 47.8332 53.1453 47.8332 52.5001V46.6668H65.2609H65.3332V67.6668ZM67.6665 44.3335H66.4999H47.0959H44.7229H44.6914H3.49999H2.33333V42.0001H3.47433H5.83332H10.5H15.1666H23.3333H24.1103H44.7218H44.7474H46.6666H48.9999H50.1666H51.3332H66.4999H67.6665V44.3335Z"/>
</mask>
<path d="M68.8332 39.6668H67.9932L69.9637 31.7825C70.0512 31.4337 69.973 31.065 69.7514 30.7827C69.532 30.4992 69.1925 30.3335 68.8332 30.3335H57.1666C56.6311 30.3335 56.1656 30.6987 56.0349 31.2178L53.9221 39.6668H51.3332V33.5698C51.3332 31.66 49.9624 29.5693 48.2124 28.811L40.9814 25.6668L39.4636 25.0077V23.589C40.1998 22.9788 41.3501 21.6512 42.1481 18.9468C42.4818 18.5303 43.1211 17.6075 43.3509 16.4397C43.5563 15.4352 43.4606 14.272 42.8994 13.537C43.0231 12.2805 43.1071 9.6252 41.9043 7.82503C40.3514 5.49404 37.2131 4.66687 34.9999 4.66687C32.7868 4.66687 29.6484 5.49404 28.0945 7.82503C26.8928 9.6252 26.9756 12.2794 27.0993 13.537C26.5393 14.272 26.4425 15.434 26.6455 16.4327C26.8765 17.6063 27.517 18.5292 27.8506 18.9468C28.6486 21.65 29.7989 22.9777 30.5351 23.589V25.0077L29.0184 25.6668L21.7875 28.811C20.0375 29.5693 18.6666 31.66 18.6666 33.5698V39.6668H16.3333V33.8335C16.3333 33.1883 15.8106 32.6668 15.1666 32.6668H10.5C9.85598 32.6668 9.33332 33.1883 9.33332 33.8335V39.6668H6.99999V38.5001C6.99999 37.855 6.47732 37.3335 5.83332 37.3335C5.18932 37.3335 4.66666 37.855 4.66666 38.5001V39.6668H1.16666C0.522666 39.6668 0 40.1883 0 40.8335V45.5001C0 46.1453 0.522666 46.6668 1.16666 46.6668H2.33333V68.8334C2.33333 69.4786 2.85599 70.0001 3.49999 70.0001H23.3333C23.9785 70.0001 24.5 69.4786 24.5 68.8334V67.6668H45.4999V68.8334C45.4999 69.4786 46.0214 70.0001 46.6666 70.0001H66.4999C67.1451 70.0001 67.6665 69.4786 67.6665 68.8334V46.6668H68.8332C69.4784 46.6668 69.9999 46.1453 69.9999 45.5001V40.8335C69.9999 40.1883 69.4784 39.6668 68.8332 39.6668ZM58.0777 32.6668H67.3387L65.5887 39.6668H56.3277L58.0777 32.6668ZM32.1673 26.8417C32.5931 26.6562 32.8696 26.2362 32.8696 25.7718V25.6668V22.9788C32.8696 22.5495 32.5943 22.1342 32.2151 21.9312C32.2011 21.9242 30.8956 21.1915 30.0288 18.0718C29.9786 17.8933 29.8864 17.7277 29.7604 17.5912C29.7534 17.5842 29.1094 16.8597 28.9344 15.9742C28.8609 15.6114 28.8855 15.2112 28.9368 15.0187C29.3405 14.7772 29.5668 14.3094 29.4874 13.8275C29.3545 13.0202 29.1689 10.4197 30.0369 9.11886C31.0064 7.66287 33.2896 7.0002 34.9999 7.0002C36.7103 7.0002 38.9934 7.66287 39.9641 9.11886C40.8309 10.4174 40.6548 12.9595 40.5124 13.8287C40.4354 14.3082 40.6618 14.7772 41.0643 15.0187C41.1156 15.2112 41.1389 15.6137 41.0643 15.9812C40.8904 16.8678 40.2429 17.5888 40.2406 17.5912C40.1146 17.7277 40.0213 17.8933 39.9723 18.0718C39.1113 21.1682 37.8174 21.9137 37.8233 21.9137C37.4033 22.1003 37.1314 22.5192 37.1314 22.9788V25.6668V25.7718C37.1314 26.2362 37.4068 26.6562 37.8338 26.8417L39.6608 27.6373L36.1666 32.5268V29.1668C36.1666 28.5217 35.6451 28.0002 34.9999 28.0002C34.3548 28.0002 33.8333 28.5217 33.8333 29.1668V32.5268L30.3403 27.6373L32.1673 26.8417ZM21 33.5698C21 32.5887 21.8178 31.3415 22.7173 30.9507L28.1738 28.5788C28.1924 28.6103 28.1971 28.6477 28.2181 28.678L34.0514 36.8447C34.2696 37.1515 34.6231 37.3335 34.9999 37.3335C35.3768 37.3335 35.7303 37.1515 35.9484 36.8447L41.7818 28.678C41.8039 28.6477 41.8074 28.6103 41.8261 28.5788L47.2826 30.9507C48.1821 31.3415 48.9999 32.5898 48.9999 33.5698V39.6668H44.7218H23.3333H21V33.5698ZM11.6666 35.0002H14V39.6668H11.6666V35.0002ZM65.3332 67.6668H47.8332V66.5001V64.1668C47.8332 63.8564 47.7084 63.5799 47.5124 63.3711C47.2989 63.1448 47.0014 63.0001 46.6666 63.0001C46.0214 63.0001 45.4999 63.5216 45.4999 64.1668V65.3334H24.5V64.1668C24.5 63.5216 23.9785 63.0001 23.3333 63.0001C22.9985 63.0001 22.701 63.1448 22.4875 63.3711C22.2915 63.5799 22.1666 63.8564 22.1666 64.1668V66.5001V67.6668H4.66666V46.6668H4.74016H22.1666V52.5001C22.1666 53.1453 22.6881 53.6668 23.3333 53.6668C23.9785 53.6668 24.5 53.1453 24.5 52.5001V46.6668H45.4999V52.5001C45.4999 53.1453 46.0214 53.6668 46.6666 53.6668C47.3117 53.6668 47.8332 53.1453 47.8332 52.5001V46.6668H65.2609H65.3332V67.6668ZM67.6665 44.3335H66.4999H47.0959H44.7229H44.6914H3.49999H2.33333V42.0001H3.47433H5.83332H10.5H15.1666H23.3333H24.1103H44.7218H44.7474H46.6666H48.9999H50.1666H51.3332H66.4999H67.6665V44.3335Z" fill="#FF0000" stroke="white" mask="url(#path-4-inside-1)"/>
</svg>
