<svg width="66" height="70" viewBox="0 0 66 70" fill="none" xmlns="http://www.w3.org/2000/svg">
<path d="M46.9644 42.4331L46.9635 42.4327L2.70166 22.5588C0.68782 21.6544 -0.215596 19.4085 0.623721 17.5725C0.623775 17.5724 0.62383 17.5723 0.623885 17.5722L7.5939 2.40774C7.59394 2.40764 7.59398 2.40755 7.59403 2.40746C8.44089 0.575611 10.7527 -0.233304 12.7702 0.671793C12.7702 0.671802 12.7702 0.671811 12.7703 0.67182L65.0924 24.1594C65.0927 24.1595 65.093 24.1597 65.0933 24.1598C65.4068 24.303 65.6272 24.5886 65.685 24.9218C65.7428 25.255 65.6311 25.5958 65.3845 25.833C65.3843 25.8331 65.3842 25.8333 65.384 25.8334L48.1296 42.2315L48.1283 42.2327C47.9328 42.4207 47.6699 42.5264 47.3956 42.5262C47.2466 42.526 47.0995 42.4943 46.9644 42.4331ZM62.4316 25.2236L11.9096 2.5455C11.9095 2.54544 11.9093 2.54538 11.9092 2.54532C11.6357 2.42165 11.339 2.35672 11.0386 2.35467C10.3919 2.32838 9.78738 2.67986 9.49694 3.25629L9.49676 3.2562L9.49224 3.26605L2.53099 18.4199C2.53093 18.42 2.53086 18.4202 2.53079 18.4203C2.13362 19.2804 2.66736 20.2833 3.57899 20.69C3.57913 20.6901 3.57927 20.6901 3.57941 20.6902L47.0142 40.1932L47.1978 40.2757L47.3438 40.137L62.5154 25.7147L62.8395 25.4067L62.4316 25.2236Z" fill="#FF0000" stroke="white" stroke-width="0.6"/>
<path d="M31.361 16.3367C31.2659 16.7697 30.901 17.093 30.458 17.1432L30.3644 17.1433C30.2157 17.1434 30.0689 17.1117 29.934 17.0504L29.9329 17.0498L14.6242 10.1715L14.6076 10.1641L14.5902 10.1587C14.2033 10.0386 13.9234 9.71043 13.8676 9.31806C13.8119 8.92591 13.9891 8.53533 14.3265 8.31528C14.6644 8.09488 15.1012 8.08619 15.4479 8.29315L15.4628 8.30207L15.4787 8.3092L30.7839 15.186C30.7845 15.1862 30.785 15.1864 30.7855 15.1867C31.2271 15.3926 31.4635 15.8701 31.361 16.3367Z" fill="#FF0000" stroke="white" stroke-width="0.6"/>
<path d="M43.6305 23.4778L43.6295 23.4773L36.1103 20.0996C35.6221 19.8416 35.424 19.2553 35.6533 18.7619C35.8835 18.2664 36.4674 18.0309 36.9862 18.2301L44.5046 21.6075C44.9462 21.8134 45.1826 22.2909 45.0801 22.7576C44.9775 23.2248 44.5606 23.5643 44.0706 23.5708H44.0613C43.9124 23.5708 43.7655 23.539 43.6305 23.4778Z" fill="#FF0000" stroke="white" stroke-width="0.6"/>
<path d="M58.3609 42.1687L58.3575 42.1687C58.2088 42.1688 58.062 42.1371 57.9272 42.0758L57.9258 42.0752L51.2068 39.062L51.2001 39.0591L51.1934 39.0564C50.8322 38.915 50.5818 38.5893 50.5392 38.2118C50.4967 37.8345 50.6683 37.4632 50.9883 37.2473C51.3088 37.0311 51.7247 37.0072 52.0686 37.1858L52.0762 37.1897L52.084 37.1932L57.5769 39.6583L57.8481 39.78L57.9723 39.5099L61.2779 32.3232L61.4045 32.048L61.1281 31.9241L59.5 31.1941L59.4893 31.1893L59.4782 31.1854C59.1066 31.0525 58.8444 30.7259 58.7963 30.3426C58.7482 29.9594 58.9215 29.5804 59.2481 29.3624C59.5751 29.1441 59.9992 29.1256 60.3448 29.3147L60.3552 29.3204L60.366 29.3253L63.218 30.6055L63.2183 30.6057C63.7444 30.8411 63.9751 31.4491 63.7416 31.9646C63.7415 31.9648 63.7414 31.965 63.7413 31.9652L59.3252 41.5659C59.3251 41.566 59.3251 41.5661 59.325 41.5662C59.1535 41.9356 58.7766 42.1732 58.3609 42.1687Z" fill="#FF0000" stroke="white" stroke-width="0.6"/>
<path d="M24.9816 42.2866C21.2508 42.2804 17.7797 40.4036 15.7636 37.3054C13.7494 34.2101 13.4617 30.3176 14.9985 26.9667C15.2584 26.4868 15.8549 26.286 16.3608 26.5155C16.865 26.7442 17.0976 27.3179 16.8999 27.8229C15.5475 30.688 15.8556 34.0503 17.7069 36.6285C19.5597 39.2089 22.6716 40.605 25.8545 40.2869C29.0339 39.9692 31.7978 37.9897 33.0924 35.0996C33.3527 34.6206 33.9486 34.4203 34.4541 34.6496C34.9585 34.8785 35.1912 35.4527 34.9928 35.958C33.1974 39.8188 29.2866 42.2932 24.9816 42.2866ZM24.9816 42.2866L24.9811 42.5866L24.9816 42.2866Z" fill="#FF0000" stroke="white" stroke-width="0.6"/>
<path d="M14.3504 54.2979H14.1476H1.34739C0.765522 54.2979 0.3 54.763 0.3 55.3292C0.3 55.8954 0.765521 56.3605 1.34739 56.3605H15.0583C15.4868 56.3578 15.8681 56.099 16.0251 55.71L14.3504 54.2979ZM14.3504 54.2979L14.426 54.1097L19.9234 40.4219L19.9281 40.4101L19.9318 40.398C20.0455 40.027 20.3617 39.7483 20.7522 39.6803C21.143 39.6123 21.5379 39.7675 21.774 40.079C22.0097 40.39 22.048 40.8045 21.874 41.152L21.8684 41.1631L21.8638 41.1746L16.0252 55.7096L14.3504 54.2979Z" fill="#FF0000" stroke="white" stroke-width="0.6"/>
<path d="M1.34739 69.7002C0.765522 69.7002 0.3 69.235 0.3 68.6689V36.718C0.3 36.1519 0.765522 35.6867 1.34739 35.6867C1.92927 35.6867 2.39479 36.1519 2.39479 36.718V68.6689C2.39479 69.235 1.92927 69.7002 1.34739 69.7002Z" fill="#FF0000" stroke="white" stroke-width="0.6"/>
</svg>
