<svg width="70" height="70" viewBox="0 0 70 70" fill="none" xmlns="http://www.w3.org/2000/svg">
<path d="M20.7812 35.8937H20.5812V36.0938V38.2812V38.4812H20.7812H33.9062H34.1062V38.2812V36.0938V35.8937H33.9062H20.7812ZM35 40.2688H19.6875C19.4505 40.2688 19.2231 40.1746 19.0555 40.007C18.8879 39.8394 18.7938 39.612 18.7938 39.375V35C18.7938 34.763 18.8879 34.5356 19.0555 34.368C19.2231 34.2004 19.4505 34.1063 19.6875 34.1063H35C35.237 34.1063 35.4644 34.2004 35.632 34.368C35.7996 34.5356 35.8937 34.763 35.8937 35V39.375C35.8937 39.612 35.7996 39.8394 35.632 40.007C35.4644 40.1746 35.237 40.2688 35 40.2688Z" fill="#FF0000" stroke="white" stroke-width="0.4"/>
<path d="M41.7625 60.1562V59.9562H41.5625H31.9188V58.1688H42.6562C42.8933 58.1688 43.1206 58.2629 43.2882 58.4305C43.4558 58.5981 43.55 58.8255 43.55 59.0625V63.4375C43.55 63.6745 43.4558 63.9019 43.2882 64.0695C43.1206 64.2371 42.8933 64.3313 42.6562 64.3313H31.9188V62.5437H41.5625H41.7625V62.3438V60.1562Z" fill="#FF0000" stroke="white" stroke-width="0.4"/>
<path d="M9.84375 62.5437H10.0437V62.3438V60.1562V59.9562H9.84375H7.65625H7.45625V60.1562V62.3438V62.5437H7.65625H9.84375ZM6.5625 58.1688H10.9375C11.1745 58.1688 11.4019 58.2629 11.5695 58.4305C11.7371 58.5981 11.8313 58.8255 11.8313 59.0625V63.4375C11.8313 63.6745 11.7371 63.9019 11.5695 64.0695C11.4019 64.2371 11.1745 64.3313 10.9375 64.3313H6.5625C6.32546 64.3313 6.09813 64.2371 5.93052 64.0695C5.76291 63.9019 5.66875 63.6745 5.66875 63.4375V59.0625C5.66875 58.8255 5.76291 58.5981 5.93052 58.4305C6.09813 58.2629 6.32546 58.1688 6.5625 58.1688Z" fill="#FF0000" stroke="white" stroke-width="0.4"/>
<path d="M14.4188 59.9562V58.1688H16.2062V59.9562H14.4188Z" fill="#FF0000" stroke="white" stroke-width="0.4"/>
<path d="M18.7938 59.9562V58.1688H20.5812V59.9562H18.7938Z" fill="#FF0000" stroke="white" stroke-width="0.4"/>
<path d="M14.4188 64.3312V62.5438H22.7688V64.3312H14.4188Z" fill="#FF0000" stroke="white" stroke-width="0.4"/>
<mask id="path-7-inside-1" fill="white">
<path d="M64.5312 67.8125V64.5312C64.5312 64.2412 64.416 63.963 64.2109 63.7579C64.0058 63.5527 63.7276 63.4375 63.4375 63.4375H62.3438V6.5625H63.4375C63.7276 6.5625 64.0058 6.44727 64.2109 6.24215C64.416 6.03703 64.5312 5.75883 64.5312 5.46875V1.09375C64.5312 0.803669 64.416 0.52547 64.2109 0.320352C64.0058 0.115234 63.7276 0 63.4375 0L17.5 0C17.2099 0 16.9317 0.115234 16.7266 0.320352C16.5215 0.52547 16.4062 0.803669 16.4062 1.09375V5.46875C16.4062 5.75883 16.5215 6.03703 16.7266 6.24215C16.9317 6.44727 17.2099 6.5625 17.5 6.5625H18.5938V16.4062H20.7812V6.5625H60.1562V9.84375H24.0625V12.0312H60.1562V59.0625H54.6875V61.25H60.1562V63.4375H52.5V65.625H62.3438V67.8125H49.0219C49.1492 67.4618 49.2158 67.0919 49.2188 66.7188V47.0312C49.2188 46.161 48.873 45.3264 48.2577 44.7111C47.6423 44.0957 46.8077 43.75 45.9375 43.75H41.3656C41.493 43.3993 41.5595 43.0294 41.5625 42.6562V22.9688C41.5625 22.0985 41.2168 21.2639 40.6014 20.6486C39.9861 20.0332 39.1515 19.6875 38.2812 19.6875H16.4062C15.536 19.6875 14.7014 20.0332 14.0861 20.6486C13.4707 21.2639 13.125 22.0985 13.125 22.9688V42.6562C13.128 43.0294 13.1945 43.3993 13.3219 43.75H3.28125C2.41101 43.75 1.57641 44.0957 0.961056 44.7111C0.345702 45.3264 0 46.161 0 47.0312L0 66.7188C0.00295811 67.0919 0.0695378 67.4618 0.196875 67.8125H0V70H70V67.8125H64.5312ZM25.1562 21.875H29.5312V28.4375H25.1562V21.875ZM15.3125 26.25H20.7812V24.0625H15.3125V22.9688C15.3125 22.6787 15.4277 22.4005 15.6329 22.1954C15.838 21.9902 16.1162 21.875 16.4062 21.875H22.9688V29.5312C22.9688 29.8213 23.084 30.0995 23.2891 30.3046C23.4942 30.5098 23.7724 30.625 24.0625 30.625H30.625C30.9151 30.625 31.1933 30.5098 31.3984 30.3046C31.6035 30.0995 31.7188 29.8213 31.7188 29.5312V21.875H38.2812C38.5713 21.875 38.8495 21.9902 39.0546 22.1954C39.2598 22.4005 39.375 22.6787 39.375 22.9688V24.0625H33.9062V26.25H39.375V42.6562C39.375 42.9463 39.2598 43.2245 39.0546 43.4296C38.8495 43.6348 38.5713 43.75 38.2812 43.75H16.4062C16.1162 43.75 15.838 43.6348 15.6329 43.4296C15.4277 43.2245 15.3125 42.9463 15.3125 42.6562V26.25ZM37.1875 45.9375V52.5H32.8125V45.9375H37.1875ZM12.0312 45.9375H16.4062V52.5H12.0312V45.9375ZM26.25 48.125H20.7812V50.3125H26.25V66.7188C26.25 67.0088 26.1348 67.287 25.9296 67.4921C25.7245 67.6973 25.4463 67.8125 25.1562 67.8125H3.28125C2.99117 67.8125 2.71297 67.6973 2.50785 67.4921C2.30273 67.287 2.1875 67.0088 2.1875 66.7188V50.3125H7.65625V48.125H2.1875V47.0312C2.1875 46.7412 2.30273 46.463 2.50785 46.2579C2.71297 46.0527 2.99117 45.9375 3.28125 45.9375H9.84375V53.5938C9.84375 53.8838 9.95898 54.162 10.1641 54.3671C10.3692 54.5723 10.6474 54.6875 10.9375 54.6875H17.5C17.7901 54.6875 18.0683 54.5723 18.2734 54.3671C18.4785 54.162 18.5938 53.8838 18.5938 53.5938V45.9375H25.1562C25.4463 45.9375 25.7245 46.0527 25.9296 46.2579C26.1348 46.463 26.25 46.7412 26.25 47.0312V48.125ZM47.0312 48.125H41.5625V50.3125H47.0312V66.7188C47.0312 67.0088 46.916 67.287 46.7109 67.4921C46.5058 67.6973 46.2276 67.8125 45.9375 67.8125H28.2406C28.368 67.4618 28.4345 67.0919 28.4375 66.7188V47.0312C28.4345 46.6581 28.368 46.2882 28.2406 45.9375H30.625V53.5938C30.625 53.8838 30.7402 54.162 30.9454 54.3671C31.1505 54.5723 31.4287 54.6875 31.7188 54.6875H38.2812C38.5713 54.6875 38.8495 54.5723 39.0546 54.3671C39.2598 54.162 39.375 53.8838 39.375 53.5938V45.9375H45.9375C46.2276 45.9375 46.5058 46.0527 46.7109 46.2579C46.916 46.463 47.0312 46.7412 47.0312 47.0312V48.125ZM18.5938 4.375V2.1875H62.3438V4.375H18.5938Z"/>
</mask>
<path d="M64.5312 67.8125V64.5312C64.5312 64.2412 64.416 63.963 64.2109 63.7579C64.0058 63.5527 63.7276 63.4375 63.4375 63.4375H62.3438V6.5625H63.4375C63.7276 6.5625 64.0058 6.44727 64.2109 6.24215C64.416 6.03703 64.5312 5.75883 64.5312 5.46875V1.09375C64.5312 0.803669 64.416 0.52547 64.2109 0.320352C64.0058 0.115234 63.7276 0 63.4375 0L17.5 0C17.2099 0 16.9317 0.115234 16.7266 0.320352C16.5215 0.52547 16.4062 0.803669 16.4062 1.09375V5.46875C16.4062 5.75883 16.5215 6.03703 16.7266 6.24215C16.9317 6.44727 17.2099 6.5625 17.5 6.5625H18.5938V16.4062H20.7812V6.5625H60.1562V9.84375H24.0625V12.0312H60.1562V59.0625H54.6875V61.25H60.1562V63.4375H52.5V65.625H62.3438V67.8125H49.0219C49.1492 67.4618 49.2158 67.0919 49.2188 66.7188V47.0312C49.2188 46.161 48.873 45.3264 48.2577 44.7111C47.6423 44.0957 46.8077 43.75 45.9375 43.75H41.3656C41.493 43.3993 41.5595 43.0294 41.5625 42.6562V22.9688C41.5625 22.0985 41.2168 21.2639 40.6014 20.6486C39.9861 20.0332 39.1515 19.6875 38.2812 19.6875H16.4062C15.536 19.6875 14.7014 20.0332 14.0861 20.6486C13.4707 21.2639 13.125 22.0985 13.125 22.9688V42.6562C13.128 43.0294 13.1945 43.3993 13.3219 43.75H3.28125C2.41101 43.75 1.57641 44.0957 0.961056 44.7111C0.345702 45.3264 0 46.161 0 47.0312L0 66.7188C0.00295811 67.0919 0.0695378 67.4618 0.196875 67.8125H0V70H70V67.8125H64.5312ZM25.1562 21.875H29.5312V28.4375H25.1562V21.875ZM15.3125 26.25H20.7812V24.0625H15.3125V22.9688C15.3125 22.6787 15.4277 22.4005 15.6329 22.1954C15.838 21.9902 16.1162 21.875 16.4062 21.875H22.9688V29.5312C22.9688 29.8213 23.084 30.0995 23.2891 30.3046C23.4942 30.5098 23.7724 30.625 24.0625 30.625H30.625C30.9151 30.625 31.1933 30.5098 31.3984 30.3046C31.6035 30.0995 31.7188 29.8213 31.7188 29.5312V21.875H38.2812C38.5713 21.875 38.8495 21.9902 39.0546 22.1954C39.2598 22.4005 39.375 22.6787 39.375 22.9688V24.0625H33.9062V26.25H39.375V42.6562C39.375 42.9463 39.2598 43.2245 39.0546 43.4296C38.8495 43.6348 38.5713 43.75 38.2812 43.75H16.4062C16.1162 43.75 15.838 43.6348 15.6329 43.4296C15.4277 43.2245 15.3125 42.9463 15.3125 42.6562V26.25ZM37.1875 45.9375V52.5H32.8125V45.9375H37.1875ZM12.0312 45.9375H16.4062V52.5H12.0312V45.9375ZM26.25 48.125H20.7812V50.3125H26.25V66.7188C26.25 67.0088 26.1348 67.287 25.9296 67.4921C25.7245 67.6973 25.4463 67.8125 25.1562 67.8125H3.28125C2.99117 67.8125 2.71297 67.6973 2.50785 67.4921C2.30273 67.287 2.1875 67.0088 2.1875 66.7188V50.3125H7.65625V48.125H2.1875V47.0312C2.1875 46.7412 2.30273 46.463 2.50785 46.2579C2.71297 46.0527 2.99117 45.9375 3.28125 45.9375H9.84375V53.5938C9.84375 53.8838 9.95898 54.162 10.1641 54.3671C10.3692 54.5723 10.6474 54.6875 10.9375 54.6875H17.5C17.7901 54.6875 18.0683 54.5723 18.2734 54.3671C18.4785 54.162 18.5938 53.8838 18.5938 53.5938V45.9375H25.1562C25.4463 45.9375 25.7245 46.0527 25.9296 46.2579C26.1348 46.463 26.25 46.7412 26.25 47.0312V48.125ZM47.0312 48.125H41.5625V50.3125H47.0312V66.7188C47.0312 67.0088 46.916 67.287 46.7109 67.4921C46.5058 67.6973 46.2276 67.8125 45.9375 67.8125H28.2406C28.368 67.4618 28.4345 67.0919 28.4375 66.7188V47.0312C28.4345 46.6581 28.368 46.2882 28.2406 45.9375H30.625V53.5938C30.625 53.8838 30.7402 54.162 30.9454 54.3671C31.1505 54.5723 31.4287 54.6875 31.7188 54.6875H38.2812C38.5713 54.6875 38.8495 54.5723 39.0546 54.3671C39.2598 54.162 39.375 53.8838 39.375 53.5938V45.9375H45.9375C46.2276 45.9375 46.5058 46.0527 46.7109 46.2579C46.916 46.463 47.0312 46.7412 47.0312 47.0312V48.125ZM18.5938 4.375V2.1875H62.3438V4.375H18.5938Z" fill="#FF0000" stroke="white" stroke-width="0.8" mask="url(#path-7-inside-1)"/>
<path d="M56.1557 37.6632C56.4943 38.1699 56.675 38.7656 56.675 39.375C56.675 40.1922 56.3504 40.9759 55.7725 41.5538C55.1947 42.1316 54.4109 42.4563 53.5938 42.4563C52.9843 42.4563 52.3886 42.2755 51.8819 41.937C51.3752 41.5984 50.9803 41.1172 50.747 40.5541C50.5138 39.9911 50.4528 39.3716 50.5717 38.7739C50.6906 38.1762 50.9841 37.6272 51.415 37.1962C51.8459 36.7653 52.3949 36.4718 52.9926 36.353C53.5903 36.2341 54.2099 36.2951 54.7729 36.5283C55.3359 36.7615 55.8171 37.1564 56.1557 37.6632ZM52.518 38.6562C52.3759 38.869 52.3 39.1191 52.3 39.375C52.3 39.7181 52.4363 40.0472 52.6789 40.2898C52.9216 40.5324 53.2506 40.6688 53.5938 40.6688C53.8496 40.6688 54.0998 40.5929 54.3125 40.4507C54.5253 40.3086 54.6911 40.1065 54.789 39.8701C54.8869 39.6337 54.9126 39.3736 54.8626 39.1226C54.8127 38.8716 54.6895 38.6411 54.5086 38.4602C54.3276 38.2792 54.0971 38.156 53.8462 38.1061C53.5952 38.0562 53.3351 38.0818 53.0987 38.1797C52.8623 38.2777 52.6602 38.4435 52.518 38.6562Z" fill="#FF0000" stroke="white" stroke-width="0.4"/>
</svg>
