<svg width="451" height="364" viewBox="0 0 451 364" fill="none" xmlns="http://www.w3.org/2000/svg">
<path d="M104.504 300.527C102.818 297.844 104.767 295.949 112.46 295.581C120.838 295.213 128.952 296.844 135.644 299.054C119.784 289.898 101.184 277.374 117.782 277.795C122.946 277.952 131.007 281.268 140.017 286.109C129.848 277.005 124.21 269.849 130.164 269.217C135.697 268.638 147.288 276.374 159.618 286.319C152.505 278.321 148.29 271.532 151.293 268.849C153.769 266.639 159.196 270.006 165.572 275.848C165.15 271.217 166.995 268.638 171.421 269.638C175.583 270.585 179.113 276.216 181.695 282.846C200.558 277.163 209.621 299.896 204.405 310.631L104.504 300.527Z" fill="#FF8400"/>
<path d="M389.357 254.204C367.806 261.203 352.315 278.253 346.309 298.565C363.169 311.458 385.721 316.141 407.271 309.142C428.822 302.144 444.312 285.094 450.319 264.782C433.458 251.889 410.854 247.206 389.357 254.204Z" fill="#F8C44F"/>
<path d="M441.997 267.097L350.105 296.987" stroke="white" stroke-width="2.0351" stroke-miterlimit="10"/>
<path d="M383.082 286.522L397.15 294.994" stroke="white" stroke-width="2.0351" stroke-miterlimit="10"/>
<path d="M407.434 278.463L424.716 288.883" stroke="white" stroke-width="2.0351" stroke-miterlimit="10"/>
<path d="M391.781 283.568L420.708 300.986" stroke="white" stroke-width="2.0351" stroke-miterlimit="10"/>
<path d="M376.082 288.672L404.271 305.617" stroke="white" stroke-width="2.0351" stroke-miterlimit="10"/>
<path d="M360.434 293.776L376.083 303.196" stroke="white" stroke-width="2.0351" stroke-miterlimit="10"/>
<path d="M384.871 285.68L391.247 270.577" stroke="white" stroke-width="2.0351" stroke-miterlimit="10"/>
<path d="M409.223 277.569L419.128 254.046" stroke="white" stroke-width="2.0351" stroke-miterlimit="10"/>
<path d="M393.574 282.673L406.009 253.257" stroke="white" stroke-width="2.0351" stroke-miterlimit="10"/>
<path d="M377.871 287.778L390.675 257.52" stroke="white" stroke-width="2.0351" stroke-miterlimit="10"/>
<path d="M362.223 292.882L373.182 266.887" stroke="white" stroke-width="2.0351" stroke-miterlimit="10"/>
<path d="M347.785 254.415C330.239 270.412 321.809 292.145 323.179 312.352C343.201 315.562 365.647 309.089 383.193 293.092C400.686 277.095 409.17 255.362 407.8 235.155C387.777 231.945 365.279 238.417 347.785 254.415Z" fill="#FF0000"/>
<path d="M402.898 241.154L332.398 305.459" stroke="white" stroke-width="1.7085" stroke-miterlimit="10"/>
<path d="M388.41 254.52L403.427 255.204" stroke="white" stroke-width="1.7085" stroke-miterlimit="10"/>
<path d="M376.395 265.466L394.889 266.308" stroke="white" stroke-width="1.7085" stroke-miterlimit="10"/>
<path d="M364.383 276.411L395.259 277.832" stroke="white" stroke-width="1.7085" stroke-miterlimit="10"/>
<path d="M352.367 287.409L382.401 288.777" stroke="white" stroke-width="1.7085" stroke-miterlimit="10"/>
<path d="M340.355 298.355L357.058 299.092" stroke="white" stroke-width="1.7085" stroke-miterlimit="10"/>
<path d="M389.727 252.994L390.359 238.049" stroke="white" stroke-width="1.7085" stroke-miterlimit="10"/>
<path d="M377.66 263.94L378.767 240.628" stroke="white" stroke-width="1.7085" stroke-miterlimit="10"/>
<path d="M365.648 274.937L366.966 245.732" stroke="white" stroke-width="1.7085" stroke-miterlimit="10"/>
<path d="M353.633 285.884L355.003 255.889" stroke="white" stroke-width="1.7085" stroke-miterlimit="10"/>
<path d="M341.621 296.829L342.78 271.096" stroke="white" stroke-width="1.7085" stroke-miterlimit="10"/>
<path d="M407.746 324.192L411.013 333.138C418.705 333.138 426.082 332.296 432.774 330.77C432.51 324.034 431.351 317.246 429.349 310.616C419.338 277.937 366.068 268.781 339.828 305.196C348.944 316.72 366.226 326.455 387.829 330.823C393.467 331.928 398.999 332.665 404.479 332.98L407.746 324.192Z" fill="#414141"/>
<path d="M432.774 330.823C432.774 330.823 396.892 282.621 339.828 305.248" stroke="#DCD8D5" stroke-width="2.3022" stroke-miterlimit="10"/>
<path d="M390.666 328.672L379.496 330.935" stroke="#DCD8D5" stroke-width="2.3022" stroke-miterlimit="10"/>
<path d="M426.819 304.88L409.168 310.405" stroke="#DCD8D5" stroke-width="2.3022" stroke-miterlimit="10"/>
<path d="M420.13 295.671L397.789 304.617" stroke="#DCD8D5" stroke-width="2.3022" stroke-miterlimit="10"/>
<path d="M409.116 287.514L386.406 301.143" stroke="#DCD8D5" stroke-width="2.3022" stroke-miterlimit="10"/>
<path d="M397.102 283.252L376.395 299.354" stroke="#DCD8D5" stroke-width="2.3022" stroke-miterlimit="10"/>
<path d="M381.978 281.937L363.062 299.565" stroke="#DCD8D5" stroke-width="2.3022" stroke-miterlimit="10"/>
<path d="M366.596 284.988L350.578 301.775" stroke="#DCD8D5" stroke-width="2.3022" stroke-miterlimit="10"/>
<path d="M380.866 345.775L379.918 330.988" stroke="#DCD8D5" stroke-width="2.3022" stroke-miterlimit="10"/>
<path d="M409.168 310.405L412.119 333.191" stroke="#DCD8D5" stroke-width="2.3022" stroke-miterlimit="10"/>
<path d="M397.789 304.617L399.37 332.455" stroke="#DCD8D5" stroke-width="2.3022" stroke-miterlimit="10"/>
<path d="M386.406 301.144L386.459 330.612" stroke="#DCD8D5" stroke-width="2.3022" stroke-miterlimit="10"/>
<path d="M376.396 299.354L375.5 327.613" stroke="#DCD8D5" stroke-width="2.3022" stroke-miterlimit="10"/>
<path d="M363.062 299.565L363.168 322.824" stroke="#DCD8D5" stroke-width="2.3022" stroke-miterlimit="10"/>
<path d="M350.578 301.775L352.001 316.194" stroke="#DCD8D5" stroke-width="2.3022" stroke-miterlimit="10"/>
<path d="M227.373 121.085C227.426 120.821 227.478 120.558 227.531 120.348C227.689 119.401 227.9 118.453 228.058 117.506C228.058 117.401 228.111 117.348 228.111 117.243C228.269 116.349 228.48 115.507 228.638 114.665C228.69 114.401 228.743 114.191 228.796 113.928C228.901 113.402 229.006 112.928 229.165 112.402C229.217 112.139 229.27 111.876 229.323 111.665C229.481 110.981 229.639 110.35 229.85 109.665C229.85 109.56 229.902 109.508 229.902 109.402C230.06 108.876 230.218 108.35 230.376 107.876C230.429 107.718 230.482 107.561 230.534 107.403C230.64 107.087 230.745 106.719 230.903 106.403C230.956 106.192 231.061 106.034 231.114 105.877C231.219 105.614 231.325 105.298 231.483 105.035C231.588 104.824 231.641 104.666 231.746 104.456C231.852 104.193 231.957 103.982 232.115 103.719C232.221 103.509 232.326 103.351 232.431 103.14C232.537 102.93 232.695 102.719 232.8 102.509C232.906 102.298 233.064 102.088 233.169 101.877C233.274 101.667 233.38 101.509 233.538 101.298C233.696 101.035 233.907 100.772 234.065 100.509C234.17 100.351 234.328 100.193 234.434 100.036C234.486 99.9303 234.592 99.8777 234.644 99.7724C234.855 99.5093 235.013 99.2988 235.224 99.0883C235.277 98.9831 235.382 98.9305 235.435 98.8252C235.593 98.6673 235.751 98.5095 235.962 98.299C236.12 98.1411 236.225 98.0359 236.383 97.878C236.541 97.7201 236.752 97.5623 236.91 97.4044C237.068 97.2992 237.226 97.1413 237.332 97.036C237.49 96.8782 237.7 96.7729 237.911 96.6151C238.069 96.5098 238.227 96.4046 238.385 96.2993C238.596 96.1941 238.754 96.0362 238.965 95.931C239.123 95.8257 239.281 95.7205 239.439 95.6152C239.65 95.51 239.861 95.4047 240.071 95.2995C240.229 95.1943 240.388 95.1416 240.546 95.0364C240.756 94.9311 241.02 94.8259 241.231 94.7206C241.389 94.668 241.547 94.5628 241.705 94.5102C241.968 94.4049 242.232 94.2997 242.495 94.247C242.653 94.1944 242.759 94.1418 242.917 94.0892C243.338 93.9839 243.76 93.8261 244.181 93.7734L235.013 95.931C234.592 96.0362 234.17 96.1415 233.749 96.2467C233.591 96.2993 233.485 96.3519 233.327 96.4046C233.064 96.5098 232.8 96.5624 232.537 96.6677C232.379 96.7203 232.221 96.8256 232.062 96.8782C231.852 96.9834 231.588 97.0887 231.378 97.1939C231.219 97.2465 231.061 97.3518 230.903 97.457C230.693 97.5623 230.482 97.6675 230.271 97.7728C230.113 97.878 229.955 97.9832 229.797 98.0885C229.586 98.1937 229.375 98.3516 229.217 98.4569C229.059 98.5621 228.901 98.6673 228.743 98.7726C228.532 98.9304 228.374 99.0357 228.163 99.1936C228.005 99.2988 227.847 99.4567 227.742 99.5619C227.584 99.7198 227.373 99.8777 227.215 100.036C227.057 100.193 226.952 100.299 226.793 100.457C226.688 100.562 226.53 100.72 226.425 100.825C226.372 100.877 226.372 100.93 226.319 100.93C226.267 100.983 226.161 101.088 226.109 101.193C225.898 101.404 225.687 101.667 225.529 101.877C225.476 101.983 225.371 102.035 225.318 102.14C225.265 102.193 225.213 102.246 225.213 102.298C225.107 102.404 225.055 102.509 225.002 102.614C224.791 102.877 224.633 103.14 224.475 103.403C224.422 103.456 224.37 103.509 224.317 103.614C224.264 103.719 224.159 103.877 224.106 103.982C223.948 104.193 223.843 104.403 223.737 104.614C223.685 104.719 223.632 104.772 223.579 104.877C223.527 104.982 223.421 105.14 223.369 105.298C223.263 105.508 223.158 105.666 223.052 105.877C223 105.982 222.947 106.034 222.894 106.14C222.842 106.298 222.736 106.455 222.684 106.613C222.578 106.824 222.526 106.982 222.42 107.192C222.368 107.245 222.367 107.35 222.315 107.403C222.209 107.613 222.157 107.824 222.051 108.034C221.999 108.192 221.893 108.403 221.841 108.56C221.841 108.613 221.788 108.666 221.788 108.718C221.683 108.981 221.577 109.297 221.524 109.56C221.472 109.718 221.419 109.876 221.366 110.034C221.366 110.086 221.366 110.086 221.314 110.086C221.156 110.56 220.998 111.034 220.892 111.56V111.612C220.892 111.665 220.839 111.718 220.839 111.823C220.681 112.507 220.471 113.191 220.313 113.823C220.26 114.086 220.207 114.296 220.155 114.559C220.049 115.086 219.891 115.559 219.786 116.085C219.786 116.191 219.733 116.296 219.68 116.454C219.628 116.559 219.628 116.717 219.575 116.822C219.364 117.664 219.206 118.559 219.048 119.453C219.048 119.558 218.995 119.611 218.995 119.716C218.785 120.664 218.626 121.611 218.468 122.558C218.468 122.663 218.416 122.768 218.416 122.874C218.363 123.032 218.363 123.189 218.363 123.347C218.258 123.926 218.152 124.505 218.047 125.084C217.994 125.347 217.942 125.557 217.942 125.821C217.836 126.61 217.678 127.452 217.573 128.241C212.778 158.394 208.141 188.494 203.346 218.647C202.819 222.173 202.293 225.488 201.766 229.171L210.934 227.014C211.461 223.383 211.988 220.015 212.514 216.489C217.309 186.337 221.946 156.236 226.741 126.084C226.846 125.294 227.004 124.452 227.11 123.663C227.162 123.4 227.215 123.189 227.215 122.926C227.162 122.242 227.268 121.663 227.373 121.085Z" fill="#840000"/>
<path d="M202.029 270.111C202.135 269.901 202.187 269.69 202.293 269.427C202.398 269.217 202.451 269.059 202.556 268.849C202.714 268.48 202.872 268.112 203.03 267.743C203.083 267.638 203.136 267.586 203.136 267.48C203.346 267.007 203.557 266.586 203.768 266.112C203.821 266.007 203.873 265.902 203.926 265.796C204.137 265.375 204.348 264.954 204.558 264.586C204.611 264.428 204.716 264.323 204.769 264.165C205.033 263.692 205.296 263.218 205.559 262.744C205.612 262.586 205.717 262.481 205.77 262.323C205.876 262.113 206.034 261.902 206.139 261.744C206.192 261.639 206.244 261.534 206.35 261.429C206.508 261.218 206.666 260.955 206.824 260.745C206.877 260.639 206.929 260.587 206.982 260.482C207.035 260.376 207.14 260.324 207.193 260.218C207.298 260.113 207.404 259.955 207.509 259.85C207.562 259.745 207.667 259.692 207.72 259.587C207.825 259.482 207.878 259.376 207.983 259.324C208.194 259.061 208.457 258.85 208.721 258.64L208.774 258.587C209.037 258.377 209.3 258.114 209.564 257.903C209.617 257.85 209.722 257.798 209.775 257.745C209.985 257.587 210.249 257.429 210.46 257.272C210.512 257.219 210.565 257.219 210.618 257.166C210.881 257.008 211.197 256.798 211.513 256.64C211.566 256.587 211.671 256.587 211.724 256.535C211.988 256.43 212.198 256.272 212.462 256.166C212.515 256.114 212.62 256.114 212.673 256.061C212.989 255.903 213.305 255.798 213.621 255.693C213.674 255.693 213.726 255.64 213.779 255.64C214.043 255.535 214.359 255.43 214.622 255.377C214.728 255.325 214.78 255.325 214.886 255.272C215.202 255.167 215.571 255.061 215.887 255.009L206.719 257.166C206.402 257.272 206.034 257.324 205.717 257.429C205.612 257.429 205.559 257.482 205.454 257.535C205.191 257.64 204.874 257.693 204.611 257.798C204.558 257.798 204.506 257.85 204.453 257.85C204.137 257.956 203.821 258.114 203.505 258.219C203.452 258.271 203.346 258.271 203.294 258.324C203.03 258.429 202.767 258.535 202.556 258.692C202.503 258.745 202.398 258.745 202.345 258.798C202.029 258.955 201.766 259.113 201.45 259.324C201.397 259.376 201.344 259.376 201.292 259.429C201.028 259.587 200.817 259.745 200.607 259.903C200.554 259.955 200.448 260.008 200.396 260.061C200.132 260.271 199.869 260.482 199.605 260.745L199.553 260.797C199.289 261.008 199.079 261.271 198.815 261.481C198.762 261.534 198.762 261.534 198.71 261.587C198.657 261.639 198.604 261.692 198.552 261.797C198.499 261.902 198.394 261.955 198.341 262.06C198.235 262.165 198.13 262.323 198.025 262.429C197.972 262.534 197.867 262.586 197.814 262.692C197.814 262.744 197.761 262.744 197.761 262.797C197.709 262.85 197.709 262.902 197.656 262.955C197.498 263.165 197.34 263.428 197.182 263.639C197.129 263.692 197.129 263.744 197.076 263.797C197.024 263.849 197.024 263.902 196.971 263.955C196.866 264.165 196.707 264.323 196.602 264.533C196.549 264.586 196.497 264.691 196.444 264.744C196.391 264.797 196.391 264.849 196.339 264.902C196.075 265.375 195.812 265.849 195.548 266.323C195.496 266.481 195.39 266.586 195.338 266.744C195.127 267.165 194.916 267.586 194.705 267.954C194.653 268.007 194.653 268.112 194.6 268.164C194.6 268.164 194.6 268.217 194.547 268.217C194.336 268.691 194.126 269.112 193.915 269.585C193.862 269.69 193.809 269.796 193.809 269.848C193.651 270.217 193.493 270.585 193.335 270.953C193.335 271.006 193.283 271.059 193.283 271.111C193.23 271.269 193.177 271.374 193.125 271.532C193.019 271.743 192.966 271.953 192.861 272.216C192.756 272.427 192.703 272.637 192.598 272.848C192.492 273.058 192.44 273.269 192.334 273.532C192.281 273.637 192.281 273.69 192.229 273.795C192.123 274.058 192.018 274.321 191.965 274.584C191.913 274.69 191.913 274.742 191.86 274.848C191.807 275.058 191.702 275.216 191.649 275.426C191.649 275.479 191.649 275.479 191.597 275.532C191.544 275.689 191.491 275.9 191.438 276.058C191.438 276.11 191.438 276.163 191.386 276.216C191.333 276.374 191.333 276.479 191.28 276.637C191.28 276.742 191.228 276.847 191.228 276.952C191.228 277.005 191.228 277.058 191.175 277.11C191.07 277.531 191.017 277.9 190.912 278.321C190.912 278.321 190.912 278.321 190.912 278.373C190.912 278.478 190.859 278.531 190.859 278.636C190.806 279.005 190.753 279.373 190.648 279.794C190.595 280.268 190.49 280.741 190.385 281.215C190.332 281.531 190.279 281.846 190.227 282.162L199.395 280.005C199.447 279.689 199.5 279.373 199.553 279.057V279.005C199.658 278.531 199.711 278.057 199.816 277.584C199.869 277.216 199.922 276.847 200.027 276.479C200.027 276.374 200.08 276.268 200.08 276.216C200.132 275.795 200.238 275.426 200.343 275.005C200.396 274.847 200.396 274.69 200.448 274.584C200.501 274.427 200.501 274.321 200.554 274.163C200.607 273.953 200.659 273.69 200.765 273.479C200.765 273.427 200.765 273.427 200.817 273.374C200.923 273.111 201.028 272.795 201.133 272.532C201.239 272.164 201.397 271.848 201.502 271.48C201.608 271.269 201.66 271.006 201.766 270.796C201.871 270.48 201.924 270.269 202.029 270.111Z" fill="#840000"/>
<path d="M244.18 179.549L253.348 177.391C254.191 177.181 255.403 177.339 257.3 177.549C259.46 177.76 261.62 177.97 263.78 178.181C265.941 178.391 268.154 178.654 270.261 179.023L261.093 181.18C258.933 180.812 256.773 180.549 254.612 180.338C252.452 180.128 250.292 179.917 248.131 179.707C246.182 179.444 244.97 179.338 244.18 179.549Z" fill="url(#paint0_linear)"/>
<path d="M244.18 179.548L253.348 177.391C253.4 177.391 253.506 177.338 253.559 177.338L244.39 179.495C244.285 179.495 244.232 179.495 244.18 179.548Z" fill="url(#paint1_linear)"/>
<path d="M244.391 179.496L253.559 177.338C253.664 177.338 253.822 177.286 253.928 177.286L244.759 179.443C244.601 179.443 244.496 179.496 244.391 179.496Z" fill="url(#paint2_linear)"/>
<path d="M244.762 179.443L253.93 177.286C254.088 177.286 254.246 177.286 254.457 177.286L245.289 179.443C245.078 179.443 244.92 179.443 244.762 179.443Z" fill="url(#paint3_linear)"/>
<path d="M245.285 179.443L254.453 177.286C254.769 177.286 255.138 177.286 255.507 177.338L246.339 179.496C245.97 179.443 245.601 179.443 245.285 179.443Z" fill="url(#paint4_linear)"/>
<path d="M246.34 179.496L255.508 177.338C256.035 177.391 256.614 177.444 257.247 177.496C259.407 177.707 261.567 177.917 263.728 178.128C265.308 178.286 266.889 178.496 268.417 178.707L259.249 180.864C257.668 180.654 256.14 180.443 254.56 180.285C252.399 180.075 250.239 179.864 248.079 179.654C247.446 179.601 246.867 179.549 246.34 179.496Z" fill="url(#paint5_linear)"/>
<path d="M259.301 180.917L268.469 178.759C269.048 178.865 269.681 178.917 270.26 179.022L261.092 181.18C260.513 181.075 259.88 181.022 259.301 180.917Z" fill="url(#paint6_linear)"/>
<path d="M278.272 234.118L287.44 231.96C287.018 232.065 286.597 232.171 286.123 232.223C285.965 232.276 285.859 232.276 285.701 232.276C285.438 232.328 285.122 232.381 284.858 232.434C284.595 232.486 284.279 232.539 284.015 232.539C283.804 232.592 283.594 232.592 283.383 232.644C283.067 232.697 282.803 232.697 282.487 232.749C282.224 232.749 282.013 232.802 281.749 232.802C281.064 232.855 280.327 232.907 279.642 232.907C279.431 232.907 279.168 232.907 278.957 232.907C278.483 232.907 278.008 232.96 277.534 232.96C277.271 232.96 276.955 232.96 276.691 232.96C276.27 232.96 275.848 232.96 275.427 232.96C275.11 232.96 274.794 232.96 274.531 232.96C274.109 232.96 273.74 232.96 273.319 232.96C273.003 232.96 272.687 232.96 272.423 232.96C272.002 232.96 271.633 232.96 271.211 232.96C270.895 232.96 270.579 232.96 270.263 232.907C269.894 232.907 269.473 232.855 269.104 232.855C268.788 232.855 268.471 232.802 268.103 232.802C267.734 232.802 267.312 232.749 266.943 232.749C266.627 232.749 266.258 232.697 265.942 232.697C265.468 232.644 264.994 232.644 264.467 232.592C256.037 231.855 247.553 230.96 239.07 230.066C230.429 229.171 221.841 228.171 213.252 227.277C213.147 227.277 213.094 227.277 212.989 227.224C212.883 227.224 212.778 227.171 212.673 227.171C212.62 227.171 212.62 227.171 212.567 227.171C212.462 227.171 212.356 227.119 212.251 227.119C212.146 227.119 211.988 227.066 211.882 227.066C211.829 227.066 211.829 227.066 211.777 227.066C211.671 227.066 211.566 227.014 211.461 227.014C211.408 227.014 211.408 227.014 211.408 227.014H211.355C211.197 227.014 211.092 226.961 210.934 226.961L201.766 229.118C201.924 229.118 202.082 229.171 202.187 229.171C202.24 229.171 202.24 229.171 202.293 229.171C202.398 229.171 202.503 229.224 202.609 229.224C202.661 229.224 202.661 229.224 202.714 229.224C202.872 229.224 202.977 229.276 203.083 229.276C203.188 229.276 203.294 229.329 203.399 229.329C203.452 229.329 203.452 229.329 203.504 229.329C203.61 229.329 203.715 229.382 203.821 229.382C203.926 229.382 203.979 229.382 204.084 229.434C212.672 230.329 221.314 231.329 229.902 232.223C238.385 233.118 246.868 234.012 255.299 234.749C255.51 234.749 255.72 234.802 255.878 234.802C256.142 234.802 256.458 234.854 256.722 234.854C257.038 234.854 257.406 234.907 257.723 234.907C258.091 234.907 258.513 234.96 258.882 234.96C259.198 234.96 259.514 235.012 259.883 235.012C260.304 235.012 260.673 235.065 261.095 235.065C261.411 235.065 261.727 235.065 262.043 235.117C262.465 235.117 262.886 235.117 263.255 235.117C263.571 235.117 263.835 235.117 264.151 235.117C264.204 235.117 264.256 235.117 264.309 235.117C264.678 235.117 265.047 235.117 265.415 235.117C265.732 235.117 266.048 235.117 266.311 235.117C266.733 235.117 267.154 235.117 267.576 235.117C267.839 235.117 268.155 235.117 268.419 235.117C268.893 235.117 269.367 235.065 269.841 235.065C270.052 235.065 270.316 235.065 270.526 235.065C271.211 235.012 271.949 235.012 272.634 234.96C272.739 234.96 272.792 234.96 272.897 234.96C273.056 234.96 273.214 234.907 273.372 234.907C273.688 234.854 274.004 234.854 274.267 234.802C274.478 234.802 274.689 234.749 274.9 234.696C275.163 234.644 275.479 234.644 275.743 234.591C275.795 234.591 275.901 234.591 275.953 234.539C276.164 234.486 276.375 234.486 276.586 234.433C276.744 234.433 276.849 234.381 277.007 234.381C277.429 234.328 277.85 234.223 278.272 234.118Z" fill="url(#paint7_linear)"/>
<path d="M279.326 190.967C279.326 190.757 279.326 190.599 279.326 190.389C279.326 190.336 279.326 190.336 279.326 190.283C279.326 190.231 279.326 190.125 279.326 190.073C279.326 189.968 279.326 189.862 279.326 189.757C279.326 189.704 279.326 189.652 279.326 189.547C279.326 189.441 279.326 189.336 279.326 189.231C279.326 189.178 279.326 189.073 279.326 189.02C279.326 188.915 279.326 188.863 279.274 188.757C279.274 188.652 279.221 188.494 279.221 188.389C279.221 188.336 279.221 188.284 279.221 188.231C279.221 188.178 279.168 188.073 279.168 188.021C279.116 187.863 279.116 187.652 279.063 187.494C279.063 187.442 279.063 187.336 279.01 187.284C279.01 187.231 278.958 187.126 278.958 187.021C278.958 186.915 278.905 186.863 278.905 186.758C278.852 186.547 278.8 186.389 278.747 186.179C278.747 186.126 278.694 186.021 278.694 185.968V185.916C278.641 185.653 278.536 185.442 278.431 185.179C278.325 184.916 278.22 184.705 278.115 184.495C278.062 184.442 278.062 184.39 278.009 184.284C277.904 184.126 277.851 183.969 277.746 183.811C277.693 183.758 277.693 183.705 277.64 183.653C277.535 183.442 277.43 183.285 277.272 183.074C277.113 182.864 276.955 182.653 276.797 182.443C276.797 182.443 276.797 182.443 276.797 182.39C276.692 182.232 276.534 182.074 276.376 181.969C276.27 181.864 276.165 181.758 276.06 181.653L276.007 181.601C275.954 181.548 275.902 181.548 275.902 181.495C275.849 181.443 275.796 181.39 275.744 181.337C275.691 181.285 275.585 181.232 275.533 181.18C275.48 181.18 275.48 181.127 275.427 181.074L275.375 181.022C275.269 180.917 275.111 180.864 275.006 180.759C275.006 180.759 274.953 180.759 274.953 180.706C274.9 180.706 274.9 180.653 274.848 180.653C274.795 180.601 274.69 180.548 274.637 180.496C274.584 180.443 274.532 180.443 274.479 180.39C274.426 180.338 274.374 180.338 274.321 180.285C274.268 180.285 274.268 180.232 274.216 180.232C274.11 180.18 274.057 180.127 273.952 180.127C273.899 180.127 273.847 180.075 273.794 180.075H273.741C273.636 180.022 273.531 179.969 273.372 179.917C273.32 179.917 273.267 179.864 273.214 179.864C273.162 179.864 273.056 179.811 273.004 179.811C272.898 179.759 272.74 179.706 272.635 179.654C272.635 179.654 272.635 179.654 272.582 179.654C272.529 179.654 272.477 179.654 272.477 179.601C272.266 179.548 272.108 179.496 271.897 179.443C271.844 179.443 271.844 179.443 271.792 179.39C271.739 179.39 271.739 179.39 271.686 179.39C271.37 179.285 271.054 179.233 270.738 179.18C270.738 179.18 270.738 179.18 270.685 179.18C270.527 179.127 270.369 179.127 270.211 179.075L261.043 181.232C261.201 181.285 261.412 181.285 261.57 181.337C261.886 181.39 262.202 181.495 262.518 181.548C262.571 181.548 262.624 181.601 262.729 181.601C262.94 181.653 263.098 181.706 263.309 181.758C263.361 181.758 263.414 181.811 263.467 181.811C263.572 181.864 263.73 181.916 263.836 181.969C263.888 182.022 263.994 182.022 264.046 182.074C264.099 182.074 264.152 182.127 264.204 182.127C264.362 182.179 264.468 182.232 264.626 182.285C264.679 182.285 264.731 182.337 264.784 182.337C264.889 182.39 265.047 182.443 265.153 182.548C265.206 182.6 265.258 182.6 265.311 182.653C265.416 182.706 265.574 182.811 265.68 182.864C265.732 182.864 265.732 182.916 265.785 182.916C265.943 183.021 266.101 183.127 266.259 183.232C266.312 183.232 266.312 183.285 266.365 183.285C266.47 183.39 266.628 183.495 266.734 183.6C266.786 183.653 266.839 183.653 266.839 183.706C266.997 183.811 267.102 183.969 267.26 184.126C267.418 184.284 267.524 184.442 267.682 184.6C267.84 184.811 267.998 185.021 268.156 185.232C268.262 185.389 268.42 185.6 268.525 185.81C268.578 185.863 268.578 185.916 268.63 185.968C268.736 186.126 268.788 186.284 268.894 186.442C268.946 186.494 268.946 186.547 268.999 186.652C269.105 186.863 269.21 187.126 269.315 187.336C269.421 187.6 269.473 187.863 269.579 188.178C269.579 188.231 269.631 188.336 269.631 188.389C269.684 188.599 269.737 188.757 269.79 188.968C269.79 189.073 269.842 189.126 269.842 189.231C269.895 189.389 269.895 189.547 269.948 189.652C270 189.81 270 190.02 270.053 190.178C270.053 190.283 270.106 190.441 270.106 190.546C270.106 190.652 270.158 190.81 270.158 190.915C270.158 191.073 270.211 191.231 270.211 191.388C270.211 191.494 270.211 191.599 270.211 191.704C270.211 191.862 270.211 192.072 270.211 192.23C270.211 192.283 270.211 192.388 270.211 192.441C270.211 192.704 270.211 192.914 270.211 193.178C270.211 193.23 270.211 193.23 270.211 193.283C270.211 193.493 270.158 193.704 270.158 193.914C270.158 193.967 270.158 194.02 270.158 194.125C270.158 194.335 270.106 194.493 270.053 194.704C270.053 194.756 270.053 194.809 270.053 194.809C270 195.019 269.948 195.282 269.895 195.493C269.895 195.546 269.842 195.598 269.842 195.651C269.79 195.809 269.737 195.967 269.737 196.124C269.737 196.177 269.684 196.282 269.684 196.335C269.631 196.493 269.579 196.651 269.526 196.809C269.473 196.861 269.473 196.966 269.421 197.019C269.368 197.177 269.315 197.335 269.263 197.44C269.21 197.545 269.21 197.598 269.157 197.703C269.105 197.808 269.052 197.914 268.999 198.019C268.946 198.124 268.894 198.282 268.841 198.387C268.788 198.44 268.788 198.545 268.736 198.598C268.63 198.808 268.525 199.019 268.42 199.229C268.314 199.387 268.209 199.598 268.103 199.755C267.998 199.966 267.84 200.176 267.682 200.387C267.629 200.439 267.629 200.492 267.577 200.545C267.366 200.86 267.155 201.124 266.944 201.387C266.892 201.439 266.839 201.492 266.839 201.545C266.734 201.65 266.681 201.755 266.575 201.86C266.523 201.913 266.47 201.966 266.417 202.018C266.312 202.123 266.259 202.229 266.154 202.334C266.101 202.387 266.049 202.439 265.996 202.492C265.838 202.65 265.68 202.807 265.522 202.965C265.522 202.965 265.522 202.965 265.469 203.018C265.311 203.176 265.153 203.281 265.047 203.386C264.995 203.439 264.942 203.492 264.889 203.492C264.784 203.597 264.679 203.649 264.521 203.755C264.468 203.807 264.415 203.86 264.362 203.86C264.257 203.965 264.099 204.018 263.941 204.123C263.888 204.123 263.888 204.176 263.836 204.176C263.677 204.281 263.467 204.386 263.309 204.491C263.256 204.491 263.203 204.544 263.151 204.544C262.993 204.597 262.887 204.649 262.729 204.755C262.676 204.755 262.624 204.807 262.518 204.807C262.413 204.86 262.255 204.912 262.097 204.965C262.044 204.965 261.991 205.018 261.939 205.018C261.728 205.07 261.57 205.123 261.359 205.176L270.527 203.018C270.738 202.965 270.896 202.913 271.107 202.86C271.159 202.86 271.212 202.807 271.265 202.807C271.423 202.755 271.528 202.702 271.686 202.65C271.739 202.65 271.792 202.597 271.897 202.597C272.055 202.544 272.161 202.492 272.319 202.387C272.371 202.387 272.424 202.334 272.477 202.334C272.635 202.229 272.846 202.123 273.004 202.018C273.056 202.018 273.056 201.966 273.109 201.966C273.267 201.86 273.372 201.808 273.531 201.702C273.583 201.65 273.636 201.65 273.689 201.597C273.794 201.492 273.899 201.439 274.057 201.334C274.11 201.281 274.163 201.229 274.216 201.229C274.374 201.124 274.532 200.966 274.637 200.86C274.637 200.86 274.637 200.86 274.69 200.808C274.848 200.65 275.006 200.492 275.164 200.334L275.217 200.282C275.269 200.229 275.269 200.229 275.322 200.176C275.427 200.071 275.533 199.966 275.585 199.861C275.638 199.808 275.691 199.755 275.744 199.703C275.849 199.598 275.902 199.492 276.007 199.387C276.06 199.334 276.06 199.334 276.112 199.282C276.112 199.282 276.112 199.229 276.165 199.229C276.376 198.966 276.587 198.65 276.797 198.387L276.85 198.335L276.903 198.282C277.061 198.071 277.166 197.861 277.324 197.65C277.43 197.493 277.482 197.387 277.535 197.229C277.535 197.177 277.588 197.177 277.588 197.124C277.693 196.914 277.798 196.703 277.904 196.493C277.957 196.44 277.956 196.388 278.009 196.335V196.282C278.062 196.177 278.115 196.019 278.167 195.914C278.22 195.809 278.273 195.703 278.273 195.651V195.598C278.325 195.493 278.325 195.44 278.378 195.335C278.431 195.23 278.483 195.072 278.536 194.967C278.536 194.914 278.536 194.914 278.589 194.861C278.641 194.809 278.641 194.704 278.694 194.651C278.747 194.546 278.747 194.44 278.8 194.335C278.8 194.283 278.852 194.23 278.852 194.177C278.852 194.125 278.905 194.02 278.905 193.967C278.905 193.914 278.958 193.862 278.958 193.756C279.01 193.651 279.01 193.546 279.01 193.441C279.01 193.388 279.063 193.335 279.063 193.283C279.063 193.23 279.063 193.23 279.063 193.178C279.116 193.02 279.116 192.809 279.168 192.651V192.599C279.168 192.546 279.168 192.493 279.168 192.493C279.168 192.388 279.221 192.23 279.221 192.125C279.221 192.072 279.221 192.02 279.221 191.915C279.221 191.862 279.221 191.809 279.221 191.704C279.221 191.651 279.221 191.599 279.221 191.546C279.221 191.388 279.221 191.231 279.274 191.125C279.326 191.073 279.326 191.02 279.326 190.967Z" fill="#840000"/>
<path d="M254.984 127.979L264.153 125.821C264.258 125.768 264.416 125.768 264.574 125.716L255.406 127.873C255.248 127.926 255.09 127.926 254.984 127.979Z" fill="#6A6A6A"/>
<path d="M255.355 127.873L264.524 125.715C264.682 125.663 264.892 125.663 265.103 125.663L255.935 127.82C255.724 127.82 255.566 127.873 255.355 127.873Z" fill="#6E6E6E"/>
<path d="M255.93 127.82L265.098 125.663C265.256 125.663 265.414 125.663 265.625 125.663L256.457 127.82C256.246 127.82 256.088 127.82 255.93 127.82Z" fill="#727272"/>
<path d="M256.406 127.82L265.574 125.663C265.627 125.663 265.627 125.663 265.68 125.663L256.512 127.82C256.459 127.82 256.459 127.82 256.406 127.82Z" fill="#767676"/>
<path d="M300.562 270.059C300.509 270.059 300.509 270.059 300.457 270.059C299.982 270.164 299.508 270.216 299.034 270.269C298.876 270.269 298.77 270.269 298.612 270.322C298.244 270.374 297.875 270.374 297.506 270.427C297.348 270.427 297.242 270.427 297.084 270.427C296.61 270.427 296.136 270.48 295.662 270.427C282.12 269.953 268.579 268.901 255.143 268.69C254.932 268.69 254.669 268.69 254.458 268.69C254.353 268.69 254.247 268.69 254.089 268.69C253.035 268.69 251.929 268.69 250.875 268.69C250.822 268.69 250.822 268.69 250.77 268.69C249.663 268.69 248.609 268.743 247.503 268.743C247.292 268.743 247.081 268.743 246.871 268.743C245.817 268.796 244.763 268.796 243.709 268.848C243.498 268.848 243.34 268.848 243.13 268.901C242.076 268.954 241.022 269.006 240.021 269.059C239.968 269.059 239.915 269.059 239.863 269.059H239.81C238.914 269.111 238.019 269.217 237.123 269.269C236.859 269.269 236.649 269.322 236.385 269.322C235.7 269.375 234.963 269.48 234.278 269.532C234.067 269.532 233.803 269.585 233.593 269.585C232.697 269.69 231.801 269.796 230.905 269.901C230.747 269.901 230.589 269.953 230.431 269.953C229.693 270.059 228.956 270.164 228.218 270.269C228.06 270.269 227.955 270.322 227.797 270.322C227.586 270.374 227.428 270.374 227.217 270.427C226.954 270.48 226.69 270.532 226.427 270.585C226.005 270.637 225.584 270.743 225.162 270.795C224.899 270.848 224.635 270.901 224.372 270.953C223.898 271.058 223.476 271.111 223.002 271.216C222.791 271.269 222.58 271.322 222.37 271.374C221.685 271.532 221.052 271.69 220.367 271.848L211.199 274.005C211.884 273.847 212.516 273.69 213.201 273.532C213.412 273.479 213.623 273.426 213.834 273.374C214.308 273.269 214.729 273.163 215.204 273.111C215.467 273.058 215.731 273.005 215.994 272.953C216.416 272.9 216.837 272.795 217.259 272.742C217.522 272.69 217.786 272.637 218.049 272.584C218.365 272.532 218.734 272.479 219.05 272.427C219.788 272.321 220.525 272.216 221.316 272.111C221.474 272.111 221.632 272.058 221.79 272.058C222.686 271.953 223.581 271.848 224.477 271.743C224.688 271.69 224.951 271.69 225.162 271.69C225.847 271.637 226.585 271.532 227.27 271.479C227.533 271.479 227.744 271.427 228.007 271.427C228.903 271.322 229.799 271.269 230.695 271.216C230.747 271.216 230.853 271.216 230.905 271.216C231.959 271.164 232.96 271.111 234.014 271.058C234.225 271.058 234.383 271.058 234.594 271.006C235.648 270.953 236.701 270.901 237.755 270.901C237.966 270.901 238.177 270.901 238.387 270.901C239.441 270.848 240.548 270.848 241.654 270.848C241.707 270.848 241.707 270.848 241.76 270.848C242.813 270.848 243.92 270.848 244.974 270.848C245.343 270.848 245.659 270.848 246.027 270.848C259.463 271.058 273.005 272.058 286.546 272.584C287.02 272.584 287.495 272.584 287.969 272.584C288.127 272.584 288.232 272.584 288.39 272.584C288.549 272.584 288.707 272.584 288.865 272.584C289.075 272.584 289.286 272.532 289.497 272.532C289.655 272.532 289.76 272.532 289.918 272.479C290.393 272.427 290.867 272.374 291.288 272.321H291.341C291.394 272.321 291.394 272.321 291.446 272.321C291.973 272.216 292.448 272.111 292.974 272.006L302.143 269.848C301.563 269.901 301.089 270.006 300.562 270.059Z" fill="url(#paint8_linear)"/>
<path d="M256.512 127.82L265.68 125.663C268.367 125.768 271.002 125.926 273.636 126.189C275.586 126.399 277.535 126.662 279.432 127.136L270.264 129.294C268.367 128.873 266.417 128.557 264.468 128.346C261.833 128.083 259.199 127.925 256.512 127.82Z" fill="url(#paint9_linear)"/>
<path d="M256.512 127.82L265.68 125.663C267.682 125.768 269.737 125.873 271.739 126.031L262.571 128.188C260.569 127.978 258.514 127.925 256.512 127.82Z" fill="url(#paint10_linear)"/>
<path d="M262.57 128.188L271.738 126.031C272.371 126.083 273.003 126.136 273.688 126.189C274.478 126.294 275.216 126.346 276.006 126.504L266.838 128.662C266.048 128.557 265.31 128.451 264.52 128.346C263.835 128.294 263.203 128.188 262.57 128.188Z" fill="url(#paint11_linear)"/>
<path d="M266.785 128.61L275.953 126.452C276.902 126.61 277.797 126.768 278.693 126.926L269.525 129.083C268.629 128.925 267.734 128.768 266.785 128.61Z" fill="url(#paint12_linear)"/>
<path d="M269.578 129.136L278.746 126.979C279.01 127.031 279.22 127.084 279.484 127.136L270.316 129.294C270.052 129.241 269.789 129.189 269.578 129.136Z" fill="url(#paint13_linear)"/>
<path d="M285.649 135.661C285.649 135.555 285.649 135.397 285.649 135.292C285.649 135.134 285.649 134.976 285.597 134.871C285.597 134.819 285.597 134.766 285.597 134.766V134.713C285.597 134.503 285.544 134.292 285.544 134.082C285.544 134.029 285.544 133.977 285.544 133.924C285.544 133.819 285.491 133.766 285.491 133.661C285.491 133.556 285.439 133.45 285.439 133.345C285.439 133.24 285.386 133.187 285.386 133.082C285.333 132.977 285.333 132.819 285.281 132.714C285.281 132.661 285.228 132.608 285.228 132.556C285.175 132.451 285.123 132.293 285.123 132.188C285.123 132.135 285.07 132.082 285.07 132.03C284.965 131.767 284.859 131.556 284.754 131.293C284.754 131.24 284.701 131.188 284.648 131.135C284.543 130.977 284.438 130.767 284.385 130.609C284.332 130.556 284.28 130.451 284.28 130.398C284.227 130.346 284.227 130.293 284.174 130.24C284.121 130.135 284.016 130.083 283.963 129.977C283.911 129.925 283.858 129.819 283.805 129.767L283.753 129.714C283.647 129.556 283.542 129.451 283.384 129.346L283.331 129.293C283.278 129.241 283.278 129.241 283.226 129.188C283.173 129.135 283.12 129.083 283.068 129.03C282.962 128.925 282.857 128.82 282.752 128.767L282.699 128.714L282.646 128.662C282.593 128.609 282.541 128.557 282.435 128.504C282.33 128.451 282.225 128.346 282.119 128.293C282.067 128.293 282.067 128.241 282.014 128.241L281.961 128.188C281.908 128.136 281.856 128.136 281.803 128.083C281.698 128.03 281.592 127.925 281.434 127.872C281.382 127.82 281.329 127.82 281.276 127.767C281.224 127.767 281.224 127.715 281.171 127.715C281.118 127.715 281.065 127.662 281.065 127.662C280.907 127.609 280.802 127.557 280.644 127.504C280.591 127.504 280.486 127.451 280.433 127.451C280.38 127.451 280.38 127.399 280.328 127.399C280.275 127.399 280.222 127.346 280.222 127.346C280.064 127.294 279.906 127.241 279.748 127.188C279.696 127.188 279.59 127.136 279.537 127.136L270.369 129.293C270.685 129.346 270.949 129.451 271.212 129.556C271.265 129.556 271.265 129.556 271.318 129.609C271.581 129.714 271.792 129.819 272.055 129.925C272.108 129.925 272.108 129.977 272.161 129.977C272.372 130.083 272.635 130.24 272.846 130.346L272.898 130.398C273.109 130.556 273.32 130.661 273.531 130.819L273.583 130.872C273.794 131.03 273.952 131.188 274.11 131.346C274.163 131.346 274.163 131.398 274.216 131.398C274.374 131.556 274.532 131.767 274.69 131.924C274.743 131.977 274.795 132.082 274.848 132.135C274.953 132.293 275.059 132.398 275.164 132.556C275.217 132.608 275.27 132.714 275.27 132.766C275.375 132.924 275.48 133.135 275.533 133.293C275.533 133.345 275.586 133.398 275.638 133.45C275.744 133.661 275.849 133.924 275.954 134.187C275.954 134.24 276.007 134.292 276.007 134.345C276.06 134.556 276.113 134.713 276.165 134.924C276.218 135.029 276.218 135.187 276.271 135.292C276.323 135.45 276.376 135.661 276.376 135.818C276.376 135.871 276.429 135.976 276.429 136.029C276.481 136.292 276.481 136.555 276.534 136.871C276.534 136.924 276.534 136.976 276.534 136.976C276.534 137.239 276.587 137.502 276.587 137.765C276.587 137.818 276.587 137.871 276.587 137.923C276.587 138.239 276.587 138.502 276.534 138.818C276.534 138.871 276.534 138.923 276.534 139.028C276.534 139.344 276.481 139.607 276.429 139.923V139.976C276.376 140.344 276.323 140.712 276.271 141.081C276.218 141.344 276.165 141.66 276.113 141.923C276.113 142.028 276.06 142.133 276.06 142.186C276.007 142.396 275.954 142.607 275.902 142.817C275.902 142.922 275.849 142.975 275.849 143.08C275.744 143.343 275.691 143.607 275.586 143.87C275.586 143.87 275.586 143.922 275.533 143.922C275.428 144.133 275.375 144.396 275.27 144.606C275.217 144.712 275.164 144.764 275.164 144.87C275.111 145.027 275.006 145.185 274.953 145.343C274.901 145.448 274.848 145.554 274.795 145.659C274.743 145.817 274.637 145.922 274.585 146.08C274.532 146.185 274.426 146.29 274.374 146.396C274.321 146.501 274.216 146.606 274.163 146.711C274.058 146.869 273.952 146.974 273.847 147.132C273.794 147.238 273.689 147.29 273.636 147.395C273.425 147.659 273.215 147.922 273.004 148.132C273.004 148.132 273.004 148.132 272.951 148.185L272.898 148.237C272.74 148.395 272.582 148.553 272.424 148.711C272.372 148.764 272.319 148.816 272.213 148.869C272.108 148.974 271.95 149.079 271.845 149.185C271.792 149.237 271.687 149.29 271.634 149.342C271.529 149.448 271.37 149.5 271.265 149.606C271.16 149.658 271.107 149.711 271.002 149.763C270.896 149.816 270.738 149.921 270.633 149.974C270.527 150.027 270.475 150.079 270.369 150.132C270.211 150.184 270.106 150.29 269.948 150.342C269.842 150.395 269.79 150.395 269.684 150.448C269.526 150.5 269.368 150.553 269.21 150.605C269.157 150.658 269.052 150.658 268.999 150.711C268.789 150.763 268.525 150.868 268.262 150.921L277.43 148.764C277.693 148.711 277.904 148.658 278.167 148.553C278.22 148.553 278.326 148.5 278.378 148.448C278.536 148.395 278.694 148.343 278.852 148.29C278.958 148.237 279.011 148.237 279.116 148.185C279.274 148.132 279.379 148.08 279.537 147.974C279.643 147.922 279.695 147.869 279.801 147.816C279.906 147.764 280.064 147.659 280.17 147.606C280.275 147.553 280.328 147.501 280.433 147.448C280.539 147.343 280.697 147.29 280.802 147.185C280.855 147.132 280.96 147.08 281.013 147.027C281.118 146.922 281.276 146.817 281.382 146.711C281.434 146.659 281.487 146.606 281.592 146.553C281.75 146.396 281.908 146.238 282.067 146.08L282.119 146.027C282.119 146.027 282.119 146.027 282.119 145.975C282.33 145.764 282.541 145.501 282.752 145.238C282.804 145.185 282.804 145.185 282.857 145.133C282.91 145.08 282.962 145.027 282.962 144.975C283.068 144.817 283.173 144.712 283.278 144.554C283.331 144.501 283.331 144.449 283.384 144.396C283.437 144.343 283.437 144.291 283.489 144.238C283.542 144.133 283.647 144.028 283.7 143.922C283.753 143.87 283.753 143.817 283.805 143.712C283.858 143.659 283.858 143.554 283.911 143.501C283.963 143.396 284.016 143.291 284.069 143.186C284.121 143.133 284.121 143.08 284.174 143.028C284.227 142.922 284.28 142.817 284.332 142.712C284.385 142.607 284.438 142.554 284.438 142.449C284.438 142.396 284.49 142.396 284.49 142.344C284.596 142.133 284.648 141.975 284.701 141.765C284.701 141.765 284.701 141.712 284.754 141.712C284.859 141.502 284.912 141.239 284.965 141.028C284.965 140.975 284.965 140.975 285.017 140.923C285.017 140.87 285.07 140.765 285.07 140.66C285.123 140.554 285.123 140.449 285.175 140.291C285.175 140.186 285.228 140.134 285.228 140.028C285.228 139.923 285.281 139.87 285.281 139.765C285.281 139.713 285.333 139.66 285.333 139.555C285.386 139.344 285.439 139.134 285.439 138.923C285.439 138.871 285.439 138.818 285.491 138.765C285.544 138.45 285.597 138.134 285.649 137.818V137.765C285.702 137.555 285.702 137.345 285.702 137.134C285.702 137.029 285.702 136.924 285.702 136.818C285.702 136.766 285.702 136.713 285.702 136.608C285.702 136.555 285.702 136.503 285.702 136.45C285.702 136.239 285.702 136.029 285.702 135.818C285.702 135.766 285.702 135.766 285.702 135.713C285.65 135.713 285.649 135.713 285.649 135.661Z" fill="#840000"/>
<path d="M185.642 46.9391L373.43 61.6208L375.485 276.584C375.749 304.947 356.991 325.891 333.649 323.418L140.592 304.526L138.537 93.7731C138.274 65.4096 162.301 44.4658 185.642 46.9391ZM291.444 168.602C290.18 167.813 288.863 167.076 287.124 166.234C288.125 165.919 288.599 165.866 289.126 165.603C303.721 161.13 312.731 144.712 310.307 125.978C309.096 116.664 305.197 108.876 297.715 104.245C293.499 101.614 288.968 100.193 284.489 99.5616C277.956 98.7723 271.475 97.9829 264.941 97.2988C262.254 97.0357 259.514 96.72 256.827 96.5095C251.189 95.9307 245.551 95.2992 240.019 95.4044C230.534 95.5097 223.737 100.667 220.787 111.56C219.364 116.874 218.31 122.505 217.467 128.188C212.672 158.341 208.036 188.441 203.241 218.594C202.714 222.12 202.187 225.435 201.66 229.118C202.661 229.224 203.346 229.434 204.031 229.487C212.62 230.381 221.261 231.381 229.849 232.276C238.333 233.17 246.816 234.065 255.246 234.802C261.095 235.275 266.891 235.38 272.634 235.012C280.854 234.381 288.283 231.486 293.71 224.014C299.506 216.173 303.036 207.07 304.143 196.387C305.355 184.179 300.823 174.391 291.444 168.602ZM295.027 271.322C298.979 269.953 301.614 266.691 303.3 261.955C302.509 261.744 302.035 261.534 301.614 261.481C293.236 260.166 284.911 258.482 276.533 257.587C264.098 256.377 251.611 255.587 239.176 254.956C228.796 254.535 218.626 255.219 208.51 256.903C203.557 257.745 199.184 259.903 196.391 264.902C194.705 267.849 193.177 271.111 191.965 274.532C191.069 276.742 190.859 279.32 190.332 282.004C194.389 280.11 197.972 278.32 201.66 276.9C215.939 271.848 230.903 270.69 246.025 270.795C259.461 271.006 273.003 272.006 286.544 272.532C289.389 272.637 292.287 272.269 295.027 271.322Z" fill="#FF0000"/>
<path d="M261.099 181.179C264.365 181.811 267.527 182.968 269.266 187.336C270.899 192.072 270.267 196.177 268.054 199.808C265.841 203.596 262.679 205.754 258.833 205.491C256.04 205.386 253.3 205.122 250.508 204.807C246.767 204.386 242.921 203.912 238.969 203.491C240.023 197.229 240.866 191.23 241.814 185.231C242.762 179.127 242.762 179.127 248.084 179.653C250.244 179.864 252.405 180.074 254.565 180.285C256.725 180.495 258.938 180.811 261.099 181.179Z" fill="#FF0000"/>
<path d="M270.262 129.294C275.215 130.504 277.322 135.187 276.111 141.134C274.951 147.501 270.683 151.5 265.151 151.184C259.724 150.764 254.191 150.132 248.764 149.553C248.448 149.501 248.079 149.501 247.184 149.237C248.027 143.923 248.764 138.871 249.871 133.872C250.714 130.083 253.19 127.715 256.457 127.767C259.144 127.873 261.779 128.031 264.413 128.294C266.416 128.557 268.365 128.82 270.262 129.294Z" fill="#FF0000"/>
<path d="M384.655 278.11C384.655 277.637 384.707 277.163 384.707 276.637C384.707 276.584 384.707 276.479 384.707 276.426C384.707 276.058 384.707 275.689 384.707 275.374C384.707 275.058 384.707 274.742 384.707 274.427L382.652 59.4634L373.484 61.6209L375.539 276.584C375.539 277.268 375.539 277.952 375.539 278.636C375.539 278.689 375.539 278.794 375.539 278.847C375.539 279.426 375.486 280.005 375.486 280.583C375.434 281.215 375.434 281.794 375.381 282.425C375.381 282.583 375.381 282.794 375.328 282.951C375.276 283.741 375.17 284.477 375.065 285.267C375.065 285.477 375.012 285.635 374.96 285.846C374.854 286.424 374.801 286.951 374.696 287.53C374.643 287.793 374.591 288.056 374.538 288.319C374.433 288.793 374.38 289.266 374.275 289.74C374.222 290.003 374.169 290.319 374.064 290.582C373.958 291.055 373.853 291.476 373.748 291.95C373.695 292.213 373.59 292.476 373.537 292.739C373.379 293.265 373.273 293.739 373.115 294.265C373.063 294.476 373.01 294.686 372.905 294.897C372.694 295.581 372.43 296.318 372.167 297.002C372.114 297.107 372.062 297.212 372.062 297.317C371.851 297.896 371.587 298.528 371.377 299.107C371.271 299.317 371.218 299.527 371.113 299.738C370.85 300.317 370.639 300.843 370.375 301.369C370.27 301.58 370.165 301.79 370.059 302.001C370.007 302.159 369.901 302.317 369.849 302.422C369.638 302.79 369.48 303.158 369.269 303.527C369.216 303.632 369.111 303.79 369.058 303.895C368.795 304.369 368.531 304.842 368.215 305.316L368.162 305.369C367.846 305.842 367.583 306.316 367.267 306.789C367.109 307 367.003 307.21 366.845 307.421C366.634 307.684 366.476 308 366.266 308.263C366.108 308.473 365.949 308.684 365.791 308.894C365.581 309.157 365.423 309.368 365.212 309.631C364.896 310.052 364.527 310.473 364.211 310.894C364.105 310.999 364.053 311.104 363.947 311.21C363.526 311.736 363.052 312.21 362.63 312.683C362.261 313.052 361.892 313.42 361.576 313.788C361.471 313.841 361.418 313.946 361.313 313.999C360.997 314.262 360.733 314.578 360.417 314.841C360.312 314.946 360.154 315.051 360.048 315.156C359.732 315.42 359.416 315.683 359.1 315.946C358.994 315.998 358.942 316.104 358.836 316.156C358.415 316.472 358.046 316.788 357.624 317.103C357.519 317.156 357.414 317.261 357.308 317.314C356.992 317.524 356.676 317.788 356.36 317.998C356.254 318.103 356.096 318.156 355.991 318.261C355.622 318.472 355.253 318.735 354.885 318.945C354.832 318.998 354.726 319.05 354.674 319.05C354.252 319.314 353.778 319.577 353.356 319.787C353.251 319.84 353.093 319.892 352.988 319.998C352.672 320.156 352.303 320.366 351.934 320.524C351.776 320.577 351.67 320.629 351.512 320.734C351.091 320.945 350.669 321.103 350.248 321.261C350.195 321.261 350.142 321.313 350.09 321.313C349.615 321.524 349.141 321.682 348.667 321.839C348.509 321.892 348.404 321.945 348.246 321.997C347.877 322.103 347.508 322.26 347.139 322.366C346.981 322.418 346.876 322.471 346.718 322.471C346.243 322.629 345.716 322.734 345.242 322.839L354.41 320.682C354.884 320.577 355.411 320.419 355.886 320.313C356.044 320.261 356.149 320.208 356.307 320.208C356.676 320.103 357.045 319.998 357.414 319.84C357.572 319.787 357.677 319.735 357.835 319.682C358.309 319.524 358.784 319.314 359.258 319.156C359.31 319.156 359.363 319.103 359.416 319.103C359.837 318.945 360.259 318.735 360.68 318.577C360.839 318.524 360.944 318.472 361.102 318.366C361.471 318.209 361.787 318.051 362.156 317.84C362.261 317.788 362.419 317.735 362.525 317.63C362.946 317.367 363.42 317.156 363.842 316.893C363.895 316.84 364 316.788 364.053 316.735C364.421 316.525 364.79 316.314 365.159 316.051C365.264 315.946 365.423 315.893 365.528 315.788C365.844 315.577 366.16 315.367 366.476 315.104C366.582 315.051 366.687 314.946 366.793 314.893C367.214 314.578 367.636 314.262 368.004 313.946C368.11 313.893 368.162 313.788 368.268 313.736C368.584 313.472 368.9 313.209 369.216 312.946C369.322 312.841 369.48 312.736 369.585 312.631C369.901 312.367 370.217 312.052 370.481 311.789C370.586 311.736 370.639 311.631 370.744 311.578C371.06 311.262 371.429 310.894 371.745 310.578C371.745 310.526 371.798 310.526 371.798 310.473C372.272 309.999 372.694 309.526 373.115 309C373.221 308.894 373.273 308.789 373.379 308.684C373.748 308.263 374.064 307.842 374.38 307.421C374.433 307.368 374.485 307.316 374.538 307.263C374.696 307.053 374.801 306.895 374.96 306.684C375.118 306.474 375.276 306.263 375.434 306.053C375.644 305.79 375.803 305.526 376.013 305.211C376.171 305 376.277 304.79 376.435 304.579C376.488 304.527 376.488 304.474 376.54 304.421C376.804 304 377.067 303.579 377.331 303.158L377.383 303.106C377.647 302.685 377.857 302.317 378.121 301.896C378.174 301.843 378.174 301.79 378.226 301.685C378.279 301.58 378.384 301.422 378.437 301.317C378.648 300.948 378.859 300.58 379.017 300.212C379.069 300.054 379.175 299.896 379.227 299.791C379.28 299.685 379.333 299.58 379.386 299.528C379.438 299.422 379.491 299.264 379.544 299.159C379.807 298.633 380.07 298.054 380.281 297.528C380.334 297.423 380.387 297.265 380.439 297.16C380.492 297.054 380.492 297.002 380.545 296.896C380.808 296.318 381.019 295.739 381.282 295.107C381.335 295.002 381.335 294.949 381.388 294.844V294.791C381.651 294.107 381.862 293.423 382.125 292.687C382.125 292.634 382.178 292.581 382.178 292.529C382.231 292.371 382.283 292.213 382.336 292.055C382.494 291.581 382.652 291.055 382.758 290.529C382.81 290.424 382.81 290.319 382.863 290.213C382.916 290.055 382.916 289.898 382.968 289.74C383.074 289.266 383.179 288.845 383.285 288.372C383.337 288.214 383.337 288.056 383.39 287.898C383.443 287.793 383.443 287.635 383.443 287.53C383.548 287.056 383.653 286.582 383.706 286.109C383.759 285.898 383.759 285.74 383.812 285.53C383.812 285.425 383.811 285.372 383.864 285.267C383.97 284.741 384.022 284.162 384.128 283.583C384.128 283.425 384.18 283.267 384.18 283.109C384.18 283.057 384.18 283.057 384.18 283.004C384.286 282.267 384.391 281.478 384.444 280.689C384.444 280.636 384.444 280.636 384.444 280.583C384.444 280.426 384.444 280.268 384.496 280.11C384.549 279.478 384.602 278.899 384.602 278.268C384.602 278.268 384.655 278.215 384.655 278.11Z" fill="#840000"/>
<path d="M194.811 44.7818C194.495 44.7292 194.178 44.7292 193.862 44.6765C193.757 44.6765 193.652 44.6765 193.546 44.6765C193.388 44.6765 193.23 44.6765 193.019 44.6239C192.703 44.6239 192.44 44.5713 192.124 44.5713C191.965 44.5713 191.807 44.5713 191.649 44.5713C191.544 44.5713 191.491 44.5713 191.386 44.5713C191.175 44.5713 191.017 44.5713 190.806 44.5713C190.596 44.5713 190.385 44.5713 190.174 44.5713C189.911 44.5713 189.647 44.5713 189.384 44.6239C189.173 44.6239 188.962 44.6239 188.751 44.6765C188.699 44.6765 188.646 44.6765 188.593 44.6765C188.435 44.6765 188.277 44.7292 188.119 44.7292C187.803 44.7292 187.539 44.7818 187.223 44.8344C187.013 44.8344 186.802 44.887 186.591 44.9396C186.328 44.9923 186.011 44.9923 185.748 45.0449C185.643 45.0449 185.59 45.0449 185.485 45.0975C185.274 45.1501 185.116 45.1501 184.905 45.2028C184.747 45.2028 184.642 45.2554 184.483 45.2554C184.062 45.3606 183.64 45.4133 183.219 45.5185L174.051 47.676C174.472 47.5708 174.894 47.4655 175.315 47.4129C175.473 47.3603 175.579 47.3603 175.737 47.3603C176 47.3077 176.264 47.255 176.58 47.2024C176.843 47.1498 177.16 47.0972 177.423 47.0972C177.634 47.0446 177.844 47.0446 178.055 46.9919C178.371 46.9393 178.635 46.9393 178.951 46.8867C179.162 46.8867 179.372 46.8341 179.583 46.8341C179.794 46.8341 180.005 46.8341 180.216 46.7814C180.479 46.7814 180.742 46.7814 181.006 46.7288C181.217 46.7288 181.427 46.7288 181.638 46.7288C181.902 46.7288 182.165 46.7288 182.429 46.7288C182.587 46.7288 182.745 46.7288 182.903 46.7288C183.219 46.7288 183.482 46.7288 183.798 46.7814C183.957 46.7814 184.115 46.7814 184.325 46.8341C184.747 46.8867 185.168 46.8867 185.59 46.9393L373.378 61.621L382.546 59.4635L194.811 44.7818Z" fill="url(#paint14_linear)"/>
<path d="M87.113 308C86.8495 307.684 87.0603 306.79 87.0603 306.79C87.0603 306.79 91.9605 306.263 93.5412 306.632C93.9627 306.737 94.6477 307.053 95.28 307.474C95.3854 307.526 95.5961 307.895 95.7015 308C95.9123 308.105 96.0176 307.947 96.1757 308.053C96.5972 308.316 96.9134 308.526 96.9134 308.579C97.3349 310.842 96.7553 311.736 96.7553 311.736C96.7553 311.736 92.7508 312.999 91.8024 312.157C89.4313 309.894 87.7453 308.737 87.113 308Z" fill="#161711"/>
<path d="M75.5753 312.631L74.8903 316.262H71.1493C71.1493 316.262 70.9385 315.735 70.6224 315.735C70.3589 315.735 69.9901 316.262 69.674 316.262C68.8836 316.262 68.0406 316.262 67.6717 316.262C66.9868 316.262 60.1897 316.262 60.1897 316.262C60.1897 316.262 60.0316 315.472 60.2424 315.209C60.3478 315.051 60.9801 314.841 61.4016 314.736C63.2984 314.209 68.8309 312.525 69.7793 310.684C70.9385 308.473 75.5753 312.631 75.5753 312.631Z" fill="#161711"/>
<path d="M72.6246 189.862L71.7289 185.442C71.7289 185.442 68.5675 185.705 67.9879 184.021C66.776 180.653 67.7771 175.233 68.5148 173.707C70.6224 169.392 71.5181 161.814 81.4239 167.866C85.1649 170.129 79.369 181.232 78.9475 183.653C78.5259 186.073 79.7905 188.81 79.7905 188.81L77.4721 190.494L72.6246 189.862Z" fill="#E9D6B8"/>
<path d="M90.223 231.644L88.2734 245.537C88.2734 245.537 95.8081 239.801 96.2823 233.223C96.8092 226.593 90.5391 231.118 90.223 231.644Z" fill="#E2C59C"/>
<path d="M80.3719 257.482C80.3719 257.482 78.8965 258.113 83.2171 278.373C86.2732 292.95 88.9077 303.579 90.1722 308.421C90.6465 310.315 91.1734 309.947 91.1734 309.947L95.2305 310.42L97.18 308.736L91.3841 275.689L80.3719 257.482Z" fill="#414141"/>
<path d="M57.7136 222.541L66.0387 238.485C66.0387 238.485 50.1262 227.013 51.1274 220.699C52.1285 214.384 57.7136 222.541 57.7136 222.541Z" fill="#E9D6B8"/>
<path d="M90.2783 194.177C90.2783 194.177 93.6505 196.23 96.0743 212.963C98.498 229.697 96.97 229.066 96.97 229.066L96.5485 232.907L90.2256 233.592L86.8008 219.12L90.2783 194.177Z" fill="#D40000"/>
<path d="M73.1521 237.749C73.1521 237.749 81.5299 276.479 88.4323 293.949C92.4894 304.158 92.9636 284.741 92.9636 284.741L87.6419 228.645L68.1992 227.224C68.2519 227.224 70.4122 227.961 73.1521 237.749Z" fill="#414141"/>
<path d="M81.582 227.382C81.582 227.382 74.5215 277.268 73.7839 279.531C71.2547 287.161 67.4083 277.163 66.5126 274.637C65.6169 272.111 64.1416 253.325 64.4577 239.59C64.7738 225.856 64.7738 225.856 64.7738 225.856L81.582 227.382Z" fill="#414141"/>
<path d="M74.5225 267.007C74.5225 267.007 75.5763 272.953 76.472 280.584C77.1043 286.162 77.157 302.106 76.1032 313.157C76.0505 313.841 68.99 311.789 68.99 311.789C68.99 311.789 66.4082 280.794 65.8286 273.848C65.249 266.902 70.0965 262.06 74.5225 267.007Z" fill="#414141"/>
<path d="M90.488 194.177L82.1629 190.388L79.8972 188.231L71.0453 188.02L69.5172 190.546L62.6675 193.493C62.6675 193.493 60.9814 196.124 62.4568 206.017C64.0902 216.91 64.4063 233.433 64.4063 233.433L88.5384 236.801C88.5384 236.801 88.0642 199.492 90.488 194.177Z" fill="#FF0000"/>
<path d="M64.8798 193.599C64.8798 193.599 63.3518 191.862 59.5581 196.545C53.1299 204.491 50.0738 214.332 49.3889 216.279C48.7039 218.173 47.8608 220.91 50.4954 224.067C52.4976 226.488 53.1299 227.33 53.1299 227.33L58.8731 223.751L57.9774 222.015L57.3451 221.173C57.3451 221.173 60.4538 214.384 63.7733 208.228C67.0928 202.018 64.8798 193.599 64.8798 193.599Z" fill="#FF0000"/>
<path d="M71.3059 174.97C71.3059 174.97 72.4124 174.286 72.5705 175.128C72.7286 175.97 72.149 177.864 71.6221 178.075C71.0952 178.233 70.9371 180.548 70.9371 180.548L72.307 183.127H79.2622C79.2622 183.127 81.4225 182.179 81.5805 180.653C81.7386 179.127 83.4774 168.182 83.4774 168.182L78.5772 165.603C78.5772 165.603 75.9954 164.288 74.2039 163.814C71.4113 163.025 70.8317 164.498 70.9371 165.287C71.0425 166.077 70.1467 166.129 69.0403 166.129C67.9338 166.129 66.5638 166.971 67.1434 167.498C67.4069 167.708 66.3004 168.392 66.7219 169.234C67.3542 170.392 69.4618 170.813 69.6198 172.655C69.7252 173.497 70.0941 176.338 71.3059 174.97Z" fill="#414141"/>
<path d="M51.7063 224.435C51.7063 224.435 53.972 222.909 54.1827 222.751C54.3935 222.646 54.7623 222.488 54.7623 222.488L56.3957 223.015L55.5 223.804C55.5 223.804 55.7634 224.014 56.185 223.909C56.6592 223.856 57.3442 223.856 57.1334 224.172C56.9226 224.488 53.4978 226.698 53.2343 226.751C52.9709 226.856 51.3375 225.172 51.7063 224.435Z" fill="#D40000"/>
<path d="M29.7305 304.053L29.9412 308.842H33.8403C33.8403 308.842 34.0511 308.263 34.3672 308.263C34.6307 308.263 34.9995 308.842 35.3683 308.842C36.2114 308.842 37.1071 308.842 37.4759 308.842C38.2136 308.842 45.2741 308.842 45.2741 308.842C45.2741 308.842 45.4322 307.947 45.2214 307.631C45.116 307.474 44.4837 307.21 44.0095 307.053C42.0073 306.421 36.2641 304.474 35.2629 302.369C34.0511 299.791 29.7305 304.053 29.7305 304.053Z" fill="#B0BFDE"/>
<path d="M45.3249 307.842C45.4303 308.21 45.2722 308.842 45.2722 308.842C45.2722 308.842 38.2117 308.842 37.474 308.842C37.1052 308.842 36.2095 308.842 35.3664 308.842C34.9976 308.842 34.6288 308.263 34.3653 308.263C34.0492 308.263 33.8384 308.842 33.8384 308.842H29.9393L29.7812 307.842H45.3249Z" fill="white"/>
<path d="M38.1097 305.947C38.2151 306.053 38.4259 305.947 38.6893 305.684C39.3743 305.105 39.3216 305.158 39.1635 305.053C39.0582 305 38.9001 304.895 38.4786 305.263C38.2151 305.526 38.0044 305.842 38.1097 305.947Z" fill="white"/>
<path d="M37.0551 305.421C37.1604 305.526 37.3712 305.421 37.6346 305.158C38.3723 304.579 38.2669 304.632 38.1089 304.526C38.0035 304.474 37.8454 304.369 37.4239 304.737C37.1604 305 36.9497 305.316 37.0551 305.421Z" fill="white"/>
<path d="M36.1067 304.842C36.2121 304.948 36.4229 304.842 36.6863 304.579C37.424 304 37.3186 304.053 37.1605 303.948C37.0552 303.895 36.8971 303.79 36.4756 304.158C36.1594 304.421 36.0014 304.737 36.1067 304.842Z" fill="white"/>
<path d="M0.1742 308.841C-0.141941 309.315 0.0688199 310.525 0.0688199 310.525C0.0688199 310.525 6.07551 311.262 7.97236 310.736C8.44657 310.631 9.3423 310.157 10.1327 309.631C10.2907 309.526 10.5015 309.052 10.6596 308.947C10.923 308.789 11.0284 309.052 11.2392 308.894C11.7661 308.526 12.1349 308.21 12.1349 308.21C12.6618 305.158 11.9768 303.948 11.9768 303.948C11.9768 303.948 8.13043 302.053 7.182 303.369C4.91632 306.473 1.01724 307.421 0.1742 308.841Z" fill="#B0BFDE"/>
<path d="M0.015625 309.526C1.85978 309.789 5.75886 310.315 6.44383 310.158C9.39449 309.579 11.1333 307.895 12.2925 306.842C12.2398 307.263 12.1871 307.737 12.1344 308.263C12.1344 308.316 11.7655 308.579 11.2386 308.947C11.0279 309.105 10.9225 308.842 10.6591 309C10.5537 309.105 10.2902 309.579 10.1322 309.684C9.3418 310.21 8.49875 310.684 7.97185 310.789C6.02231 311.315 0.0683152 310.579 0.0683152 310.579C0.0683152 310.579 0.015625 310 0.015625 309.526Z" fill="white"/>
<path d="M3.28516 306.632C3.28516 306.737 3.49592 306.842 3.86475 306.79C4.54972 306.737 5.2347 306.79 5.91967 306.895C6.23581 306.947 6.55195 306.895 6.55195 306.737C6.55195 306.579 6.2885 306.421 5.97236 306.369C5.28739 306.263 4.60241 306.211 3.91744 306.263C3.6013 306.369 3.28516 306.526 3.28516 306.632Z" fill="white"/>
<path d="M4.44531 305.737C4.44531 305.895 4.65607 305.948 5.02491 306C5.70988 306 6.39485 306.105 7.07982 306.316C7.39597 306.421 7.71211 306.369 7.71211 306.211C7.71211 306.053 7.44866 305.842 7.13252 305.79C6.44754 305.632 5.76257 305.527 5.13029 305.527C4.76145 305.474 4.44531 305.632 4.44531 305.737Z" fill="white"/>
<path d="M5.55078 304.895C5.55078 305.053 5.76154 305.158 6.13037 305.211C6.81535 305.316 7.44763 305.474 8.1326 305.684C8.44874 305.79 8.76489 305.79 8.76489 305.632C8.76489 305.474 8.50144 305.263 8.18529 305.158C7.50032 304.948 6.86804 304.79 6.18306 304.685C5.86692 304.685 5.55078 304.79 5.55078 304.895Z" fill="white"/>
<path d="M40.3235 188.968L39.6912 185.284L39.4805 183.179L39.5858 180.338C39.5858 180.338 40.4289 179.18 40.8504 181.916C40.9031 182.337 41.4827 179.18 41.4827 179.18L42.115 177.022L42.9053 176.707L44.6968 177.812C44.6968 177.812 44.5387 178.811 43.0634 178.285C42.9053 178.233 42.8 180.127 42.8 180.127L44.6968 182.916C44.6968 182.916 45.0656 184.389 44.486 185.021C43.9065 185.652 43.9065 185.652 43.9065 185.652L43.6957 185.389L43.5376 188.178C43.5376 188.178 43.3269 189.283 42.3784 189.757C41.43 190.231 41.9569 191.283 41.9569 191.283L40.3235 188.968Z" fill="#E9D6B8"/>
<path d="M36.4799 210.332C36.4799 210.332 32.7389 202.807 33.6346 200.018C34.5304 197.229 38.4821 187.125 38.4821 187.125L43.3296 189.757C43.3296 189.757 39.9048 209.701 38.7983 211.069C37.7445 212.384 36.796 210.753 36.4799 210.332Z" fill="#B0BFDE"/>
<path d="M37.425 303.79L29.4688 304.053L31.4183 220.91L48.2792 215.858C48.2792 215.911 45.6447 270.059 37.425 303.79Z" fill="#414141"/>
<path d="M24.9376 222.541L4.125 305.421L13.5566 305.684L44.1696 217.489L24.9376 222.541Z" fill="#565656"/>
<path d="M31.4196 221.489L32.7896 220.541L48.3332 215.911C48.3332 215.911 48.0697 221.436 47.4374 230.014L31.0508 239.486L31.4196 221.489Z" fill="#565656"/>
<path d="M24.832 222.804L24.8847 222.541L34.3163 220.068L48.2265 215.911C48.2265 215.911 48.1738 216.91 48.0684 218.647L24.832 222.804Z" fill="#163F59"/>
<path d="M15.1411 178.706C15.1411 178.706 24.2038 172.339 32.4235 182.968C40.5905 193.598 49.1263 215.752 49.1263 215.752L24.2038 223.856L16.0895 191.651C16.0895 191.651 11.6108 180.864 15.1411 178.706Z" fill="#D1DBEA"/>
<path d="M15.034 179.18C15.034 179.18 12.2414 178.917 13.4533 187.389C14.6652 195.914 17.6158 212.438 18.9858 216.595C19.3019 217.647 20.6718 222.436 22.8321 219.542C24.9924 216.595 26.4678 205.386 22.7268 190.862C20.3557 181.548 16.5093 179.18 15.034 179.18Z" fill="#B0BFDE"/>
<path d="M47.335 193.335L47.7565 193.861L45.965 199.544L42.3821 200.597L41.5391 199.86L42.909 194.756L47.335 193.335Z" fill="#161711"/>
<path d="M34.8438 200.808L40.1128 197.756L42.2204 197.44L41.6408 199.282L43.7484 200.071L45.856 199.282L46.8571 197.914L47.2786 199.44C47.2786 199.44 47.1206 200.229 46.5937 200.808C46.0141 201.439 44.1172 204.807 44.1172 204.807L42.5892 204.491L39.1117 203.597L36.8987 205.281L34.8438 200.808Z" fill="#E9D6B8"/>
<path d="M20.4067 218.12C20.4067 218.12 21.5132 209.595 23.7789 208.017C26.0446 206.438 34.6858 200.913 34.6858 200.913L37.1095 206.227C37.1095 206.227 23.4628 219.857 21.8294 220.225C20.2487 220.593 20.4067 218.646 20.4067 218.12Z" fill="#B0BFDE"/>
<path d="M29.6817 174.917C28.1536 179.338 27.2052 181.548 26.9418 181.758C25.203 183.284 20.1447 179.338 20.777 178.233C21.4093 177.128 22.4104 171.55 22.3577 170.708C22.305 169.813 30.6301 172.286 29.6817 174.917Z" fill="#E9D6B8"/>
<path d="M26.8897 171.76C25.4143 171.129 23.8863 170.655 23.0433 170.603C22.9906 172.076 22.9379 173.549 22.9906 174.549C23.1486 177.286 25.2563 178.812 26.5735 179.917C26.837 180.18 27.2058 180.39 27.6273 180.548C27.9961 179.811 28.5757 178.18 29.6822 174.97C30.1038 173.707 28.6284 172.55 26.8897 171.76Z" fill="#DEC9A9"/>
<path d="M33.8972 162.972L33.3703 175.707C33.3703 175.707 33.2649 178.706 32.0531 179.075C30.8412 179.39 27.6798 178.917 26.3625 177.812C25.0453 176.707 22.9903 175.233 22.7796 172.444C22.6215 169.655 23.1484 163.13 23.1484 163.13C23.1484 163.13 24.2022 161.025 28.3121 162.709C32.4219 164.393 33.8972 162.972 33.8972 162.972Z" fill="#E9D6B8"/>
<path d="M33.5797 159.867C34.1593 160.078 35.1077 160.604 35.2658 161.551C35.4765 162.551 34.4754 163.919 33.5797 164.077C32.6839 164.235 27.0461 163.762 26.4138 163.498C25.7288 163.183 24.4643 162.814 23.8847 161.709C23.5158 161.025 25.7288 159.71 26.9407 160.183C30.1021 161.341 31.4721 159.078 33.5797 159.867Z" fill="#194866"/>
<path d="M25.3095 161.867L25.0988 167.392L24.5192 170.287L23.8342 170.234L22.6223 170.129C22.6223 170.129 20.9362 162.393 22.8858 161.709C24.7826 160.972 25.2041 161.446 25.3095 161.867Z" fill="#194866"/>
<path d="M23.7799 170.76C23.7799 171.234 23.3583 171.602 22.8314 171.55L22.3045 171.497C21.8303 171.444 21.4088 171.023 21.4615 170.55L21.5669 168.55C21.5669 168.077 21.9884 167.708 22.5153 167.761L23.0422 167.813C23.5164 167.866 23.9379 168.287 23.8853 168.761L23.7799 170.76Z" fill="#E9D6B8"/>
<path d="M26.6771 161.709L24.6222 161.288L23.6211 167.34L25.7287 167.708L26.6771 161.709Z" fill="#163F59"/>
<path d="M25.9427 166.287C26.2588 164.393 27.8922 163.13 29.5783 163.498L31.159 163.814C32.8451 164.13 33.5301 165.866 33.2139 167.761C32.8978 169.655 31.2644 170.918 29.5783 170.55L28.4718 170.339C26.7857 169.971 25.6265 168.182 25.9427 166.287Z" fill="#E9D6B8"/>
<path d="M329.384 241.011C329.384 241.011 331.07 241.221 330.121 250.22C329.173 259.218 325.801 272.216 325.801 272.216L326.222 251.272C326.222 251.272 326.697 243.274 329.384 241.011Z" fill="#E9D6B8"/>
<path d="M327.169 265.217C326.852 269.48 328.644 271.479 329.118 273.216C329.592 274.952 330.383 276.742 330.383 276.742C328.802 275.689 328.855 274.268 328.328 273.532C327.854 272.795 328.117 273.005 327.854 274.531C327.748 275.373 329.013 277.005 329.698 278.162C330.277 279.162 330.33 279.741 330.33 279.741C330.33 279.741 329.013 278.531 327.959 277.057C326.747 275.268 325.746 273.058 325.588 272.532C325.324 271.585 325.482 268.743 325.851 266.691C326.378 264.428 327.379 262.112 327.169 265.217Z" fill="#E9D6B8"/>
<path d="M330.172 348.835L329.645 360.57L322.216 361.149L318.949 360.78L325.483 358.728L326.22 348.94L330.172 348.835Z" fill="#E9D6B8"/>
<path d="M329.066 362.096L327.433 362.307L327.17 361.833L321.057 361.938L318.107 361.149C318.107 361.149 318.001 360.623 318.265 360.465C319.108 359.991 322.269 359.728 322.269 359.728C322.269 359.728 321.848 360.307 322.164 360.57C322.48 360.833 326.59 360.675 327.591 360.517C329.33 360.202 329.909 359.728 329.962 359.833C330.067 360.254 329.066 362.096 329.066 362.096Z" fill="#F8C44F"/>
<path d="M327.909 263.429L326.908 307.947L323.852 351.677L330.543 352.203C330.543 352.203 336.813 308.158 337.551 304.369C338.289 300.58 346.192 270.007 342.504 262.218C338.816 254.378 327.909 263.429 327.909 263.429Z" fill="#414141"/>
<path d="M354.094 238.643C357.835 243.169 359.732 261.639 359.732 261.639C359.732 261.639 358.52 268.743 351.618 244.958C349.563 237.801 353.146 237.538 354.094 238.643Z" fill="#E9D6B8"/>
<path d="M358.1 277.637L359.681 275.9L360.524 274.216L360.735 271.164C360.735 271.164 360.577 267.901 360.102 266.691C359.575 265.481 359.733 260.64 359.523 260.061C359.365 259.482 356.309 258.745 356.309 258.745C356.309 258.745 357.626 263.744 357.995 265.797C358.364 267.849 357.889 270.901 357.995 271.69C358.205 273.058 358.732 274.111 358.732 274.111C358.732 274.111 358.838 271.953 358.785 271.375C358.732 270.796 359.417 271.059 359.417 271.059C359.417 271.059 359.628 274.058 359.365 274.848C359.101 275.637 358.574 276.268 358.574 276.268L358.1 277.637Z" fill="#E9D6B8"/>
<path d="M334.177 228.277L331.754 253.378V254.851L324.535 254.43C324.535 254.43 326.643 235.065 326.959 234.118C327.275 233.171 328.013 225.067 327.907 223.593C327.802 222.12 328.118 214.858 332.913 215.595C337.708 216.279 334.177 228.277 334.177 228.277Z" fill="#B0BFDE"/>
<path d="M349.723 228.277L352.094 253.378V254.851L359.312 254.43C356.046 239.748 355.361 236.801 355.255 234.118C355.203 233.118 355.045 225.067 355.15 223.593C355.255 222.12 355.361 218.173 350.987 215.595C346.772 213.069 349.723 228.277 349.723 228.277Z" fill="#B0BFDE"/>
<path d="M341.977 347.466L342.082 362.569L348.352 360.359C348.352 360.359 350.987 358.465 348.721 358.675C345.401 359.043 346.086 357.623 345.981 354.939C345.876 352.255 346.403 347.045 346.403 347.045L341.977 347.466Z" fill="#E9D6B8"/>
<path d="M349.143 358.728C349.143 358.728 348.458 359.412 347.668 359.885C346.93 360.359 344.823 361.411 344.032 361.569C342.979 361.78 341.978 361.674 341.978 361.674C341.978 361.674 341.503 363.253 342.557 363.148C343.611 363.043 348.827 360.727 349.565 360.254C350.303 359.622 350.408 358.833 349.143 358.728Z" fill="#F8C44F"/>
<path d="M343.344 264.218L342.554 305.053L341.816 348.362L347.085 348.099C347.085 348.099 352.407 304.527 352.881 300.633C353.356 296.791 359.731 271.164 355.463 263.639C351.143 256.167 343.344 264.218 343.344 264.218Z" fill="#414141"/>
<path d="M342.292 213.595C342.292 213.595 334.073 214.174 332.123 214.963C330.174 215.805 330.595 225.382 331.86 232.486C333.124 239.59 332.545 247.484 330.753 251.904C328.962 256.324 327.539 264.796 327.539 264.796L356.308 264.375C356.308 264.375 349.774 246.747 349.774 239.906C349.774 233.065 351.566 217.541 351.46 216.015C351.355 214.595 344.136 213.595 342.292 213.595Z" fill="#D1DBEA"/>
<path d="M329.963 210.858C331.755 208.648 332.756 206.228 332.756 202.702C332.756 201.176 332.65 200.65 332.545 198.44C332.545 198.229 332.492 198.019 332.492 197.808V195.124C332.492 191.125 335.706 187.915 339.711 187.915H341.502C345.507 187.915 348.721 191.125 348.721 195.124V200.439C348.721 200.597 348.721 200.755 348.721 200.965V201.281C348.773 205.544 350.881 209.28 354.148 211.648C356.414 212.753 358.047 215.068 358.047 217.805C358.047 221.225 355.518 224.067 352.251 224.54C350.881 228.382 347.193 231.118 342.819 231.118C339.026 231.118 335.759 229.066 334.02 226.014C330.385 224.54 327.855 221.067 327.855 216.963C327.855 214.595 328.646 212.542 329.963 210.858Z" fill="#414141"/>
<path d="M346.178 57.6218C346.178 57.6218 326.683 57.6744 319.148 57.7796C313.932 57.8849 313.457 50.4125 315.512 49.3074C321.73 45.9396 341.225 44.1504 341.225 44.1504L354.45 56.3062C354.45 56.3588 353.713 56.3062 346.178 57.6218Z" fill="#565656"/>
<path d="M327.791 17.892C327.791 17.892 322.785 16.4712 320.572 23.049C317.2 33.0999 317.516 42.3089 317.99 44.2559C318.201 45.1505 318.833 48.2552 324.471 48.4131C326.737 48.4657 325.841 43.5718 325.841 43.5718C325.841 43.5718 327.316 39.4673 328.844 32.4685C330.372 25.417 327.791 17.892 327.791 17.892Z" fill="#E55A00"/>
<path d="M323.785 18.418L336.642 14.2609L346.389 13.6294L357.085 16.8394C357.085 16.8394 360.563 19.26 357.349 26.9429C354.082 34.6784 355.347 46.8342 355.347 46.8342L327.842 47.7288C327.842 47.7288 327.315 36.5202 325.471 25.3642C325.05 22.7857 324.997 19.8915 323.785 18.418Z" fill="#FF8400"/>
<path d="M342.696 47.1497H341.273C339.798 36.3621 339.851 25.2061 341.484 14.4185C341.906 14.6816 342.327 14.9447 342.749 15.1552C342.433 26.2059 343.012 37.204 342.696 47.1497Z" fill="#E55A00"/>
<path d="M337.221 17.3126C337.432 18.786 338.644 20.1016 339.908 20.1542C341.12 20.1542 342.332 20.1542 343.544 20.1542C344.808 20.1016 346.02 18.786 346.231 17.3126C346.547 14.8394 346.811 12.4187 347.127 9.94546C347.337 8.47202 346.442 5.52516 344.492 4.63058C342.701 3.84124 340.699 3.84124 338.907 4.63058C336.958 5.52516 336.115 8.47202 336.273 9.94546C336.641 12.4187 336.905 14.8394 337.221 17.3126Z" fill="#E2C59C"/>
<path d="M341.855 20.3122L344.174 24.101L348.389 18.8388L347.757 16.0498L346.387 14.8921L346.334 16.997L341.855 20.3122Z" fill="#E55A00"/>
<path d="M341.594 20.3122L339.276 24.101L335.324 19.2071L336.009 16.155L336.958 14.8921L337.379 17.3654L341.594 20.3122Z" fill="#E55A00"/>
<path d="M342.275 0C343.276 0 344.172 0.526226 344.698 1.31556H345.7C346.964 1.31556 347.965 2.31539 347.965 3.57833V9.15633H346.385V6.89356C346.385 5.99897 345.647 5.31488 344.804 5.31488H343.855H345.331H344.382C342.749 5.31488 341.484 3.99932 341.484 2.42064V0H342.275Z" fill="#163F59"/>
<path d="M345.07 11.2088C345.07 11.9456 345.703 12.577 346.44 12.577H346.546C347.283 12.577 347.916 11.9456 347.916 11.2088V9.52492C347.916 8.78821 347.283 8.15674 346.546 8.15674H346.44C345.861 8.15674 345.386 8.47247 345.176 8.9987" fill="#E2C59C"/>
<path d="M343.49 2.21015V0H342.594H340.17H338.695C337.061 0 335.797 1.31556 335.797 2.89424V5.10439H336.693H339.116H340.592C342.225 5.10439 343.49 3.78882 343.49 2.21015Z" fill="#414141"/>
<path d="M336.219 13.3134C336.219 14.4711 337.114 16.4181 338.59 17.0496C340.592 17.8915 342.963 17.8915 344.913 17.0496C346.388 16.4181 347.284 14.4711 347.284 13.3134C347.284 10.0508 347.284 6.73555 347.284 3.47295C347.284 2.31526 346.124 1.31543 344.702 1.31543C342.752 1.31543 340.803 1.31543 338.853 1.31543C337.431 1.36805 336.271 2.31526 336.271 3.47295C336.219 6.73555 336.219 10.0508 336.219 13.3134Z" fill="#E9D6B8"/>
<path d="M340.644 0C339.643 0 338.747 0.526226 338.22 1.31556H337.219C335.954 1.31556 334.953 2.31539 334.953 3.57833V9.15633H336.534V6.89356C336.534 5.99897 337.271 5.31488 338.115 5.31488H337.535H340.117C341.75 5.31488 343.015 3.99932 343.015 2.42064V0H340.644Z" fill="#414141"/>
<path d="M337.798 9.52492C337.798 8.78821 337.166 8.15674 336.428 8.15674H336.323C335.585 8.15674 334.953 8.78821 334.953 9.52492V11.2088C334.953 11.9456 335.585 12.577 336.323 12.577H336.428C337.008 12.577 337.482 12.2613 337.693 11.7351" fill="#E9D6B8"/>
<path d="M343.068 2.789C343.016 2.57851 343.016 2.42064 343.016 2.21015V0H343.911H345.071C346.704 0 347.969 1.31556 347.969 2.89424V5.10439H347.336H347.02H345.861C345.65 5.10439 345.439 5.10439 345.281 5.05177C345.071 3.89407 344.175 2.99949 343.068 2.789Z" fill="#414141"/>
<path d="M368.572 94.8786C368.888 95.247 368.677 96.1942 368.677 96.1942C368.677 96.1942 363.408 96.773 361.722 96.4047C361.301 96.2994 360.563 95.9311 359.825 95.5101C359.72 95.4575 359.509 95.0365 359.404 94.9839C359.193 94.8786 359.088 95.0891 358.877 94.9312C358.403 94.6155 358.087 94.405 358.087 94.3524C357.612 91.9318 358.245 90.9845 358.245 90.9845C358.245 90.9845 362.723 89.5111 363.566 90.5109C365.568 93.0368 367.94 94.0893 368.572 94.8786Z" fill="#161711"/>
<path d="M319.516 92.3002L319.147 96.2469L315.195 96.6153C315.195 96.6153 314.931 96.0891 314.563 96.1417C314.299 96.1943 313.983 96.7731 313.562 96.7731C312.719 96.8784 311.823 96.931 311.454 96.9836C310.716 97.0363 303.498 97.773 303.498 97.773C303.498 97.773 303.234 96.9836 303.445 96.6679C303.55 96.51 304.183 96.1943 304.604 96.0364C306.606 95.2471 312.297 92.8791 313.14 90.8268C314.088 88.3009 319.516 92.3002 319.516 92.3002Z" fill="#161711"/>
<path d="M325.522 42.0979L338.958 47.5706C338.958 47.5706 329.421 48.9388 323.467 47.7285C319.41 46.9392 325.312 41.94 325.522 42.0979Z" fill="#E9D6B8"/>
<path d="M355.977 50.4653C355.977 50.4653 357.294 62.7264 357.083 69.1989C356.925 74.0928 356.925 83.4596 358.084 91.4057C358.137 91.8793 364.407 91.5109 364.407 91.5109C364.407 91.5109 366.673 61.1477 367.305 56.1485C367.99 51.1494 366.093 47.5711 355.977 50.4653Z" fill="#565656"/>
<path d="M316.721 53.4119C316.721 53.4119 318.724 56.5693 324.256 57.3586C326.258 57.6217 321.042 92.8789 321.042 92.8789L312.875 90.2477L314.456 51.2544L316.721 53.4119Z" fill="#414141"/>
<path d="M339.22 57.3584C339.22 57.3584 349.863 58.8844 357.029 59.6211C359.664 59.8843 361.877 52.6223 362.193 52.3066C364.09 50.3069 365.987 50.5701 365.934 50.5174C364.406 48.8335 356.397 47.3075 348.072 45.3604C339.747 43.4134 338.43 44.6237 338.43 44.6237L339.22 57.3584Z" fill="#414141"/>
<path d="M348.02 45.3079C356.345 47.2549 364.354 48.8336 365.882 50.4649C365.934 50.5175 364.09 50.307 362.141 52.254C362.035 52.3593 361.561 54.6747 361.245 55.5166C362.615 53.0434 343.014 46.1498 338.746 44.3607C339.536 44.1502 341.855 43.8344 348.02 45.3079Z" fill="#414141"/>
<path d="M357.188 57.2535L357.978 81.0915L358.821 86.6169L358.926 81.0915L358.716 77.6184L360.612 72.3035L361.613 59.8846L360.191 60.4108L360.349 54.9907L357.188 57.2535Z" fill="#414141"/>
<path d="M316.986 50.4653L314.984 50.9916L314.246 79.6182L318.409 89.8796L316.406 82.8808L317.197 68.4623C317.197 68.4623 320.095 75.461 320.095 75.0927C320.095 74.7243 317.671 59.9374 317.671 59.9374C317.671 59.9374 320.411 62.2002 320.095 62.0949C319.884 62.0423 318.514 51.8335 316.986 50.4653Z" fill="#565656"/>
<path d="M351.184 16.9445C351.184 16.9445 355.452 13.5766 359.667 19.8387C365.831 28.9424 368.466 38.6776 369.467 41.4666C370.205 43.6241 369.783 49.7283 367.307 52.2016C366.727 52.8331 363.092 52.3068 363.092 52.3068L360.721 50.6755L361.722 48.7811L361.774 47.2551C361.774 47.2551 358.718 39.9405 354.977 32.9944C351.184 26.0482 351.184 16.9445 351.184 16.9445Z" fill="#FF8400"/>
<path d="M361.664 44.8871L347.754 45.6238C347.754 45.6238 361.137 51.7807 361.611 50.7282C364.088 44.6766 361.664 44.8871 361.664 44.8871Z" fill="#E9D6B8"/>
<path d="M354.025 44.4137C353.235 44.0453 353.287 43.9927 353.287 43.9927C353.287 43.9927 352.55 44.8873 351.443 45.0451C350.916 45.1504 349.177 45.1504 349.177 45.1504L346.596 45.203L345.384 45.1504C345.384 45.1504 344.699 45.0451 344.541 45.1504C344.014 45.4661 344.488 45.7292 344.488 45.7292L349.072 46.3607L344.646 46.8869C344.646 46.8869 344.066 47.0448 344.066 47.3605C344.066 47.6236 344.225 47.6236 344.225 47.6236L349.335 48.1499L347.07 48.6761C347.07 48.6761 346.543 48.834 346.49 49.1497C346.437 49.4654 346.437 49.5707 346.437 49.5707L351.18 49.0971C351.232 49.2549 354.815 44.8346 354.025 44.4137Z" fill="#E9D6B8"/>
<path d="M348.914 47.2549L345.805 47.8337C345.805 47.8337 345.12 47.8864 344.804 48.0968C344.435 48.36 344.646 48.6757 344.646 48.6757L349.388 48.2547L348.914 47.2549Z" fill="#E9D6B8"/>
<path d="M329.578 49.6758V48.7812H356.977V49.6758C356.977 49.6758 356.977 49.6758 356.977 49.7285L356.872 49.8863C356.397 50.623 355.554 50.7809 354.606 50.7809H331.897C330.948 50.7809 330.105 50.623 329.631 49.8863L329.578 49.6758Z" fill="#B6C2C9"/>
<path d="M352.397 48.9917H334.219V49.6232H352.397V48.9917Z" fill="#879BA6"/>
<path d="M329.58 48.8864L329.527 30.9421C329.527 30.4685 329.896 30.1001 330.37 30.1001H356.031C356.505 30.1001 356.874 30.4685 356.874 30.9421L356.926 48.8864H329.58Z" fill="#D7DFE2"/>
<path d="M341.594 39.4671C341.594 40.3617 342.331 41.151 343.28 41.151C344.176 41.151 344.913 40.4143 344.913 39.4671C344.913 38.5725 344.176 37.7832 343.227 37.7832C342.331 37.8358 341.594 38.5725 341.594 39.4671Z" fill="#B6C2C9"/>
<path d="M363.458 51.8332L364.406 45.729L362.825 44.0977L359.348 44.6239L360.033 51.4122L363.458 51.8332Z" fill="#E55A00"/>
<path d="M320.779 47.4131L320.41 45.2029L324.889 41.2036L327.26 42.3087L324.151 48.3077L320.779 47.4131Z" fill="#FF8400"/>
<path d="M161.462 212.963C161.462 217.857 151.556 283.057 119.468 250.641C102.976 233.96 140.702 235.959 142.23 221.383C142.704 216.542 145.76 198.913 151.767 212.542C153.822 217.384 161.462 208.069 161.462 212.963Z" fill="#414141"/>
<path d="M138.855 214.068C138.855 214.068 140.278 213.332 136.326 206.07C132.375 198.808 124.84 189.02 124.84 189.02L132.427 206.491C132.48 206.491 135.694 213.069 138.855 214.068Z" fill="#E9D6B8"/>
<path d="M145.97 223.224L135.01 202.965L134.483 201.754L128.266 204.491C128.266 204.491 136.907 220.067 137.539 220.751C138.171 221.435 141.649 228.013 142.07 229.276C142.492 230.539 145.337 236.538 149.342 234.328C153.346 232.118 145.97 223.224 145.97 223.224Z" fill="#FF8400"/>
<path d="M128.742 194.387C126.792 190.967 127.635 188.651 127.372 187.073C127.108 185.441 127.108 183.705 127.108 183.705C126.107 185.178 126.739 186.283 126.581 187.073C126.423 187.862 126.581 187.599 125.791 186.441C125.37 185.757 125.844 183.968 126.002 182.757C126.16 181.705 125.896 181.231 125.896 181.231C125.896 181.231 125.211 182.705 124.895 184.336C124.527 186.283 124.474 188.441 124.579 188.914C124.737 189.756 125.949 192.124 127.056 193.65C128.373 195.334 130.164 196.86 128.742 194.387Z" fill="#E9D6B8"/>
<path d="M169.628 213.068C169.628 213.068 168.206 212.332 172.157 205.07C176.109 197.808 183.644 188.02 183.644 188.02L176.056 205.491C176.056 205.491 172.842 212.069 169.628 213.068Z" fill="#E9D6B8"/>
<path d="M162.518 222.225L173.477 201.965L174.004 200.755L180.222 203.491C180.222 203.491 171.58 219.068 170.948 219.752C170.316 220.436 167.102 227.119 166.417 228.276C164.098 232.065 164.098 234.17 163.572 233.644C160.305 230.539 162.518 222.225 162.518 222.225Z" fill="#FF8400"/>
<path d="M179.746 193.388C181.696 189.967 180.853 187.652 181.116 186.073C181.38 184.442 181.38 182.705 181.38 182.705C182.381 184.179 181.749 185.284 181.907 186.073C182.065 186.862 181.907 186.599 182.697 185.442C183.119 184.757 182.644 182.968 182.486 181.758C182.328 180.706 182.592 180.232 182.592 180.232C182.592 180.232 183.277 181.705 183.593 183.337C183.962 185.284 184.014 187.441 183.909 187.915C183.751 188.809 182.539 191.125 181.432 192.651C180.168 194.335 178.376 195.861 179.746 193.388Z" fill="#E9D6B8"/>
<path d="M134.853 337.468L132.587 348.098C132.587 348.098 127.581 351.887 125.948 352.36C124.315 352.781 124.683 352.202 124.841 351.834C125 351.466 128.056 349.308 128.741 347.887C129.478 346.519 130.585 337.31 130.795 336.837C131.059 336.416 134.853 337.468 134.853 337.468Z" fill="#E9D6B8"/>
<path d="M169.734 340.047C169.734 340.047 171.579 346.046 171.842 348.151C172.053 350.203 171.737 350.887 172.369 351.518C173.001 352.15 177.48 357.096 178.481 357.044C179.482 356.991 179.429 356.044 179.429 356.044C179.429 356.044 175.899 352.308 175.32 350.834C174.74 349.361 174.108 340.994 174.055 340.152C173.95 339.257 169.734 340.047 169.734 340.047Z" fill="#E9D6B8"/>
<path d="M154.612 263.902L145.233 302.106L135.274 338.837L129.531 337.942C129.531 337.942 136.855 300.317 137.013 297.002C137.224 293.687 138.647 266.902 143.441 261.166C148.236 255.43 154.612 263.902 154.612 263.902Z" fill="#414141"/>
<path d="M164.255 258.903C164.255 258.903 169.155 279.584 169.892 290.845C170.577 302.106 173.844 334.995 173.844 334.995L174.213 340.731L169.734 340.836L160.092 299.159L150.977 260.85L164.255 258.903Z" fill="#414141"/>
<path d="M161.357 211.805C161.357 216.489 157.616 220.225 153.032 220.225C148.448 220.225 144.707 216.436 144.707 211.805C144.707 207.122 148.448 203.386 153.032 203.386C157.616 203.386 161.357 207.175 161.357 211.805Z" fill="#414141"/>
<path d="M151.609 214.279C151.609 214.279 152.399 218.804 151.767 220.067C151.082 221.33 146.603 224.224 145.971 225.066C145.286 225.961 147.288 232.696 153.769 231.697C160.25 230.697 162.937 227.539 162.937 226.54C162.937 225.54 165.941 223.803 163.833 223.014C161.726 222.277 158.301 221.751 157.352 220.751C156.404 219.751 155.245 217.225 155.877 214.594C156.457 212.016 151.609 214.279 151.609 214.279Z" fill="#E9D6B8"/>
<path d="M155.089 205.281C154.931 205.228 154.826 205.228 154.668 205.175C154.404 206.754 153.087 208.543 151.085 210.017C150.61 210.385 150.084 210.648 149.609 210.911V212.385C149.609 214.542 151.559 216.279 153.93 216.279C156.301 216.279 158.251 214.542 158.251 212.385V209.122C157.039 208.385 155.88 207.017 155.089 205.281Z" fill="#E9D6B8"/>
<path d="M162.409 260.639L142.703 266.06L145.759 248.905L145.074 228.803C145.074 228.803 149.026 230.276 152.504 230.434C154.769 230.592 159.669 228.803 159.669 228.803L162.409 260.639Z" fill="#FF0000"/>
<path d="M142.386 227.645C142.386 227.645 143.967 238.906 144.23 243.432C144.705 251.588 137.117 259.745 136.696 262.376C136.274 265.007 139.067 267.48 139.067 267.48C139.067 267.48 140.806 268.48 141.701 268.585C142.65 268.69 144.388 267.848 145.021 264.796C145.758 261.008 148.129 248.062 148.604 245.747C149.289 242.432 148.762 232.697 149.289 231.434C149.816 230.171 151.712 226.119 151.449 225.119C151.186 224.119 149.289 222.277 149.289 222.277C149.289 222.277 143.44 225.224 142.386 227.645Z" fill="#FF8400"/>
<path d="M160.669 221.961C160.669 221.961 158.087 223.014 157.297 223.382C156.506 223.751 156.875 227.908 157.297 228.487C157.718 229.065 158.403 241.748 158.508 244.747C158.614 247.746 158.983 259.639 159.51 261.797C159.984 263.954 159.72 266.48 162.091 267.375C164.462 268.217 168.941 264.217 168.941 264.217C168.941 264.217 165.674 257.903 165.095 255.324C164.515 252.798 163.198 249.536 162.987 245.694C162.776 241.853 163.619 235.906 164.357 232.907C165.147 229.486 165.569 224.803 165.78 224.224C165.938 223.645 161.459 222.225 160.669 221.961Z" fill="#FF8400"/>
<path d="M132.8 347.519C132.8 347.519 133.063 348.256 132.8 348.887C132.589 349.413 131.746 350.94 131.746 350.94L130.587 351.203L130.745 350.466C130.745 350.466 128.321 352.308 127.215 352.729C126.108 353.202 123.684 354.36 122.631 353.729C122.367 353.571 122.367 353.202 122.367 353.202C122.367 353.202 124.633 351.624 125.002 351.413C125.371 351.203 125.897 351.887 126.793 351.571C127.689 351.255 130.323 349.677 131.061 349.15C132.009 348.466 132.8 347.519 132.8 347.519Z" fill="#161711"/>
<path d="M171.894 350.098C171.894 350.098 171.736 350.834 171.841 351.518C171.946 352.097 172.473 352.939 172.473 352.939L173.474 353.413C173.474 353.413 175.477 355.518 176.425 356.097C177.373 356.676 179.428 358.254 180.482 357.728C180.746 357.623 180.798 357.254 180.798 357.254C180.798 357.254 178.901 355.36 178.638 355.097C178.322 354.834 177.742 355.413 176.952 354.992C176.162 354.571 173.949 352.624 173.369 351.992C172.684 351.203 171.894 350.098 171.894 350.098Z" fill="#161711"/>
<path d="M160.199 221.541L157.301 223.33C157.301 223.33 158.091 223.593 158.513 224.435C158.934 225.277 159.198 226.435 159.198 226.435L161.779 222.278C161.779 222.33 160.199 221.278 160.199 221.541Z" fill="#F8C44F"/>
<path d="M149.553 221.856L150.028 222.593L151.503 225.119C151.503 225.119 151.187 224.33 150.028 225.172C149.237 225.751 148.816 227.171 148.816 227.171L148.078 222.593L149.553 221.856Z" fill="#F8C44F"/>
<defs>
<linearGradient id="paint0_linear" x1="248.45" y1="172.597" x2="261.785" y2="182.788" gradientUnits="userSpaceOnUse">
<stop stop-color="#FF0000"/>
<stop offset="0.9106" stop-color="#840000"/>
</linearGradient>
<linearGradient id="paint1_linear" x1="245.784" y1="176.086" x2="259.119" y2="186.276" gradientUnits="userSpaceOnUse">
<stop stop-color="#FF0000"/>
<stop offset="0.9106" stop-color="#840000"/>
</linearGradient>
<linearGradient id="paint2_linear" x1="245.912" y1="175.918" x2="259.248" y2="186.108" gradientUnits="userSpaceOnUse">
<stop stop-color="#FF0000"/>
<stop offset="0.9106" stop-color="#840000"/>
</linearGradient>
<linearGradient id="paint3_linear" x1="246.095" y1="175.681" x2="259.431" y2="185.871" gradientUnits="userSpaceOnUse">
<stop stop-color="#FF0000"/>
<stop offset="0.9106" stop-color="#840000"/>
</linearGradient>
<linearGradient id="paint4_linear" x1="246.374" y1="175.312" x2="259.71" y2="185.502" gradientUnits="userSpaceOnUse">
<stop stop-color="#FF0000"/>
<stop offset="0.9106" stop-color="#840000"/>
</linearGradient>
<linearGradient id="paint5_linear" x1="248.599" y1="172.402" x2="261.934" y2="182.592" gradientUnits="userSpaceOnUse">
<stop stop-color="#FF0000"/>
<stop offset="0.9106" stop-color="#840000"/>
</linearGradient>
<linearGradient id="paint6_linear" x1="250.902" y1="169.387" x2="264.237" y2="179.577" gradientUnits="userSpaceOnUse">
<stop stop-color="#FF0000"/>
<stop offset="0.9106" stop-color="#840000"/>
</linearGradient>
<linearGradient id="paint7_linear" x1="201.547" y1="231.069" x2="287.462" y2="231.069" gradientUnits="userSpaceOnUse">
<stop stop-color="#FF0000"/>
<stop offset="0.9106" stop-color="#CA0000"/>
</linearGradient>
<linearGradient id="paint8_linear" x1="211.222" y1="271.452" x2="302.078" y2="271.452" gradientUnits="userSpaceOnUse">
<stop stop-color="#FF0000"/>
<stop offset="0.9106" stop-color="#CA0000"/>
</linearGradient>
<linearGradient id="paint9_linear" x1="261.658" y1="124.392" x2="273.244" y2="130.017" gradientUnits="userSpaceOnUse">
<stop stop-color="#FF0000"/>
<stop offset="0.9106" stop-color="#840000"/>
</linearGradient>
<linearGradient id="paint10_linear" x1="261.142" y1="125.454" x2="272.729" y2="131.078" gradientUnits="userSpaceOnUse">
<stop stop-color="#FF0000"/>
<stop offset="0.9106" stop-color="#840000"/>
</linearGradient>
<linearGradient id="paint11_linear" x1="261.96" y1="123.767" x2="273.546" y2="129.392" gradientUnits="userSpaceOnUse">
<stop stop-color="#FF0000"/>
<stop offset="0.9106" stop-color="#840000"/>
</linearGradient>
<linearGradient id="paint12_linear" x1="262.437" y1="122.784" x2="274.024" y2="128.409" gradientUnits="userSpaceOnUse">
<stop stop-color="#FF0000"/>
<stop offset="0.9106" stop-color="#840000"/>
</linearGradient>
<linearGradient id="paint13_linear" x1="262.642" y1="122.363" x2="274.228" y2="127.988" gradientUnits="userSpaceOnUse">
<stop stop-color="#FF0000"/>
<stop offset="0.9106" stop-color="#840000"/>
</linearGradient>
<linearGradient id="paint14_linear" x1="174.138" y1="53.0825" x2="382.627" y2="53.0825" gradientUnits="userSpaceOnUse">
<stop stop-color="#FF0000"/>
<stop offset="0.9106" stop-color="#840000"/>
</linearGradient>
</defs>
</svg>
