<svg width="119" height="27" viewBox="0 0 119 27" fill="none" xmlns="http://www.w3.org/2000/svg">
<path fill-rule="evenodd" clip-rule="evenodd" d="M44.8285 16.2621C44.8882 15.5349 45.1866 13.2873 45.6045 12.8907C46.2611 12.2296 48.1116 12.5601 48.7085 12.9568C48.9473 14.0145 48.7682 15.4688 48.0519 15.9977C47.455 16.3943 45.7239 16.2621 44.8285 16.2621ZM37.3669 26.112C39.3965 26.112 41.2469 25.9798 42.4408 24.9221C43.0377 24.4593 43.4556 23.666 43.754 22.8728C43.9928 22.2778 44.351 20.8235 44.4106 20.0963C48.2906 20.0963 51.5737 20.559 53.9017 16.4604C54.9762 14.5433 55.3343 10.9075 53.1854 9.38703C51.2753 8.0649 47.3356 8.46154 44.7091 8.46154C43.8137 8.46154 42.7989 8.65986 42.0826 8.92428C39.6353 9.78367 39.3368 12.9568 38.9189 15.4027L37.1879 25.0543C37.0088 25.7154 36.8297 26.112 37.3669 26.112Z" fill="#FF0000"/>
<path fill-rule="evenodd" clip-rule="evenodd" d="M12.3563 13.7504C12.2966 14.081 12.1175 14.4776 11.8191 14.742C11.5206 15.0726 11.1028 15.2048 10.5059 15.2048H8.23754L8.5957 13.2877C8.83447 12.4944 9.31201 12.2961 10.1477 12.23H10.9834C12.0579 12.2961 12.5354 12.7588 12.3563 13.7504ZM9.3717 25.9802C11.6997 25.9802 14.0874 25.8479 15.6991 24.5258C18.0868 22.6748 18.9822 17.9152 15.2215 16.8574C17.072 16.3286 18.1465 14.4776 18.0868 12.4944C17.9674 10.5112 16.7139 8.46191 13.0726 8.46191C11.2819 8.46191 9.43139 8.46191 7.64062 8.46191C4.53662 8.59413 2.92493 9.51962 2.20862 13.5521L0 25.9802C3.104 25.9802 6.2677 25.9802 9.3717 25.9802ZM11.4012 20.5594C11.3415 20.9561 11.1028 21.2866 10.8043 21.6171C10.4462 21.9477 10.0283 22.0799 9.43139 22.0799H7.0437L7.64062 18.9067H9.84924C10.5655 18.9067 11.0431 19.1051 11.2222 19.4356C11.4012 19.7661 11.4609 20.1628 11.4012 20.5594Z" fill="#FF0000"/>
<path fill-rule="evenodd" clip-rule="evenodd" d="M82.9724 20.1624C82.853 20.7574 82.6739 21.2862 82.3755 21.5506C82.077 21.8812 81.5995 22.0134 80.8832 22.0134H78.8536L79.3312 19.5013C79.5699 18.5097 80.0475 18.2453 80.9429 18.2453H81.5995C82.1964 18.2453 82.6142 18.3775 82.853 18.6419C83.0321 18.9064 83.0918 19.4352 82.9724 20.1624ZM87.6881 16.0638C86.8524 15.0061 85.4198 14.5433 83.3902 14.5433H80.4653L81.5398 8.59375H79.749C76.7047 8.72596 75.093 9.58535 74.3767 13.4856L72.1084 26.0459H81.301C82.2561 26.0459 83.3306 25.8476 84.4647 25.517C85.6586 25.1204 86.5539 24.4593 87.2106 23.4677C87.8672 22.4761 88.285 21.4184 88.4641 20.2946C88.7626 18.4436 88.5238 17.0554 87.6881 16.0638Z" fill="#FF0000"/>
<path fill-rule="evenodd" clip-rule="evenodd" d="M64.4077 25.98C67.9893 25.98 69.78 25.2528 70.556 20.9559L72.8243 8.52783H71.0336C67.9296 8.66005 66.3179 9.58554 65.6016 13.618L65.4225 14.7418H62.4379L63.572 8.52783H61.7813C58.6772 8.66005 57.0656 9.58554 56.3492 13.618L54.1406 25.98H55.2151C58.6772 25.98 60.468 25.3189 61.244 21.3525L61.7216 18.8405H64.7062L63.3929 25.98H64.4077Z" fill="#FF0000"/>
<path fill-rule="evenodd" clip-rule="evenodd" d="M89.6575 25.98C93.2987 25.98 95.0298 25.2528 95.8058 20.8237L98.0144 8.52783H96.2236C93.1196 8.66005 91.5079 9.58554 90.7916 13.618L88.583 25.98H89.6575Z" fill="#FF0000"/>
<path fill-rule="evenodd" clip-rule="evenodd" d="M107.207 25.98H108.282C111.744 25.98 113.535 25.3189 114.311 21.3525L116.639 8.52783H115.206C111.147 8.52783 110.61 9.78386 107.983 13.6841C107.983 13.6841 105.954 16.7912 104.999 18.3777C105.417 16.5928 106.969 8.52783 106.969 8.52783H105.178C102.074 8.66005 100.522 9.51943 99.8054 13.4197L97.5371 25.9139H99.2085C103.268 25.9139 103.805 24.6578 106.431 20.8237L108.938 16.8573L107.207 25.98Z" fill="#FF0000"/>
<path fill-rule="evenodd" clip-rule="evenodd" d="M118.43 0C117.236 0.594959 113.118 2.77648 110.193 3.10701C108.163 3.37143 107.387 3.23922 105.596 2.51205C105.417 2.90869 106.193 7.33783 109.476 7.27172C112.342 7.20562 117.117 2.44594 118.43 0Z" fill="#FF0000"/>
<path fill-rule="evenodd" clip-rule="evenodd" d="M29.0105 12.2296C29.6074 12.2296 30.1446 12.4279 30.4431 12.8245C30.6819 13.1551 30.8012 13.8161 30.7416 14.5433C30.7416 14.8077 30.6819 15.1383 30.2043 15.1383C29.8462 15.2044 26.2646 15.2044 26.2646 15.2044C26.6228 13.2212 27.5182 12.2296 29.0105 12.2296ZM31.7563 20.2285H31.0997C30.7415 20.2946 30.3237 20.3607 30.0252 20.6912C29.8462 20.8895 29.7865 21.0879 29.4283 21.3523C28.9508 21.7489 28.3539 21.8811 27.4585 21.8811C26.5034 21.8811 25.9065 21.6167 25.7274 21.0879C25.4886 20.559 25.4289 19.7657 25.608 18.6419H30.7416C35.0394 18.6419 37.248 18.6419 36.5317 13.6178C36.3526 12.5601 35.9348 11.5685 35.3379 10.7752C34.0843 9.12257 32.1742 8.26318 29.6671 8.26318C27.0406 8.26318 24.7723 9.12257 22.9219 10.9736C21.0117 12.7584 19.8178 14.9399 19.4 17.5842C18.9225 20.0963 19.3403 22.2117 20.6535 23.8643C21.9071 25.5831 23.9366 26.3764 26.5631 26.3764C28.9508 26.3764 30.9803 25.7814 32.592 24.5915C34.2037 23.4016 35.2185 22.2117 35.8154 20.2946L31.7563 20.2285Z" fill="#FF0000"/>
</svg>
