<svg width="119" height="27" viewBox="0 0 119 27" fill="none" xmlns="http://www.w3.org/2000/svg">
    <path fill-rule="evenodd" clip-rule="evenodd" d="M44.828 16.262c.06-.727.359-2.975.776-3.371.657-.661 2.508-.33 3.105.066.238 1.057.06 2.512-.657 3.04-.597.397-2.328.265-3.224.265zm-7.461 9.85c2.03 0 3.88-.132 5.074-1.19.597-.463 1.015-1.256 1.313-2.05.239-.594.597-2.049.657-2.776 3.88 0 7.163.463 9.49-3.636 1.075-1.917 1.433-5.553-.716-7.073-1.91-1.322-5.85-.925-8.476-.925-.895 0-1.91.198-2.626.462-2.448.86-2.746 4.033-3.164 6.479l-1.731 9.651c-.18.661-.358 1.058.179 1.058z" fill="#F00"/>
    <path fill-rule="evenodd" clip-rule="evenodd" d="M12.356 13.75c-.06.331-.239.728-.537.992-.298.33-.716.463-1.313.463H8.238l.358-1.917c.238-.794.716-.992 1.552-1.058h.835c1.075.066 1.552.529 1.373 1.52zM9.372 25.98c2.328 0 4.715-.132 6.327-1.454 2.388-1.851 3.283-6.61-.477-7.669 1.85-.528 2.925-2.38 2.865-4.363-.12-1.983-1.373-4.032-5.014-4.032H7.64c-3.104.132-4.716 1.058-5.432 5.09L0 25.98h9.372zm2.03-5.42c-.06.396-.3.727-.598 1.057-.358.33-.776.463-1.373.463H7.044l.597-3.173h2.208c.716 0 1.194.198 1.373.529.18.33.239.727.18 1.123z" fill="#F00"/>
    <path fill-rule="evenodd" clip-rule="evenodd" d="M82.972 20.162c-.119.595-.298 1.124-.596 1.389-.299.33-.776.462-1.493.462h-2.03l.478-2.512c.239-.991.716-1.256 1.612-1.256h.657c.596 0 1.014.133 1.253.397.18.264.239.793.12 1.52zm4.716-4.098c-.836-1.058-2.268-1.52-4.298-1.52h-2.925l1.075-5.95h-1.791c-3.044.132-4.656.991-5.372 4.892l-2.269 12.56h9.193c.955 0 2.03-.198 3.164-.529 1.194-.397 2.089-1.058 2.746-2.05a7.967 7.967 0 0 0 1.253-3.172c.299-1.851.06-3.24-.776-4.231z" fill="#F00"/>
    <path fill-rule="evenodd" clip-rule="evenodd" d="M64.408 25.98c3.581 0 5.372-.727 6.148-5.024l2.268-12.428h-1.79c-3.104.132-4.716 1.058-5.432 5.09l-.18 1.124h-2.984l1.134-6.214h-1.79c-3.105.132-4.716 1.058-5.433 5.09L54.141 25.98h1.074c3.462 0 5.253-.661 6.029-4.628l.478-2.512h2.984l-1.313 7.14h1.015z" fill="#F00"/>
    <path fill-rule="evenodd" clip-rule="evenodd" d="M89.657 25.98c3.642 0 5.373-.727 6.149-5.156l2.208-12.296h-1.79c-3.104.132-4.716 1.058-5.432 5.09L88.583 25.98h1.075z" fill="#F00"/>
    <path fill-rule="evenodd" clip-rule="evenodd" d="M107.207 25.98h1.075c3.462 0 5.253-.661 6.029-4.628l2.328-12.824h-1.433c-4.059 0-4.596 1.256-7.223 5.156 0 0-2.029 3.107-2.984 4.694.418-1.785 1.97-9.85 1.97-9.85h-1.791c-3.104.132-4.656.991-5.373 4.892l-2.268 12.494h1.671c4.06 0 4.597-1.256 7.223-5.09l2.507-3.967-1.731 9.123z" fill="#F00"/>
    <path fill-rule="evenodd" clip-rule="evenodd" d="M118.43 0c-1.194.595-5.312 2.776-8.237 3.107-2.03.264-2.806.132-4.597-.595-.179.397.597 4.826 3.88 4.76 2.866-.066 7.641-4.826 8.954-7.272z" fill="#F00"/>
    <path fill-rule="evenodd" clip-rule="evenodd" d="M29.01 12.23c.597 0 1.135.198 1.433.595.239.33.358.991.299 1.718 0 .265-.06.595-.538.595-.358.066-3.94.066-3.94.066.359-1.983 1.254-2.974 2.747-2.974zm2.746 7.998H31.1c-.359.067-.776.133-1.075.463-.179.199-.238.397-.597.661-.477.397-1.074.53-1.97.53-.955 0-1.551-.265-1.73-.794-.24-.529-.3-1.322-.12-2.446h5.134c4.297 0 6.506 0 5.79-5.024-.18-1.058-.597-2.05-1.194-2.843-1.254-1.652-3.164-2.512-5.67-2.512-2.627 0-4.896.86-6.746 2.71-1.91 1.785-3.104 3.967-3.522 6.611-.477 2.512-.06 4.628 1.254 6.28 1.253 1.72 3.283 2.512 5.91 2.512 2.387 0 4.416-.595 6.028-1.785 1.612-1.19 2.627-2.38 3.223-4.296l-4.059-.067z" fill="#F00"/>
</svg>
