<svg width="451" height="364" fill="none" xmlns="http://www.w3.org/2000/svg">
    <path d="M104.504 300.527c-1.686-2.683.263-4.578 7.956-4.946 8.378-.368 16.492 1.263 23.184 3.473-15.86-9.156-34.46-21.68-17.862-21.259 5.164.157 13.225 3.473 22.235 8.314-10.169-9.104-15.807-16.26-9.853-16.892 5.533-.579 17.124 7.157 29.454 17.102-7.113-7.998-11.328-14.787-8.325-17.47 2.476-2.21 7.903 1.157 14.279 6.999-.422-4.631 1.423-7.21 5.849-6.21 4.162.947 7.692 6.578 10.274 13.208 18.863-5.683 27.926 17.05 22.71 27.785l-99.901-10.104z" fill="#FF8400"/>
    <path d="M389.357 254.204c-21.551 6.999-37.042 24.049-43.048 44.361 16.86 12.893 39.412 17.576 60.962 10.577 21.551-6.998 37.041-24.048 43.048-44.36-16.861-12.893-39.465-17.576-60.962-10.578z" fill="#F8C44F"/>
    <path d="M441.997 267.097l-91.892 29.89" stroke="#fff" stroke-width="2.035" stroke-miterlimit="10"/>
    <path d="M383.082 286.522l14.068 8.472" stroke="#fff" stroke-width="2.035" stroke-miterlimit="10"/>
    <path d="M407.434 278.463l17.282 10.42" stroke="#fff" stroke-width="2.035" stroke-miterlimit="10"/>
    <path d="M391.781 283.568l28.927 17.418" stroke="#fff" stroke-width="2.035" stroke-miterlimit="10"/>
    <path d="M376.082 288.672l28.189 16.945" stroke="#fff" stroke-width="2.035" stroke-miterlimit="10"/>
    <path d="M360.434 293.776l15.649 9.42" stroke="#fff" stroke-width="2.035" stroke-miterlimit="10"/>
    <path d="M384.871 285.68l6.376-15.103" stroke="#fff" stroke-width="2.035" stroke-miterlimit="10"/>
    <path d="M409.223 277.569l9.905-23.523" stroke="#fff" stroke-width="2.035" stroke-miterlimit="10"/>
    <path d="M393.574 282.673l12.435-29.416" stroke="#fff" stroke-width="2.035" stroke-miterlimit="10"/>
    <path d="M377.871 287.778l12.804-30.258" stroke="#fff" stroke-width="2.035" stroke-miterlimit="10"/>
    <path d="M362.223 292.882l10.959-25.995" stroke="#fff" stroke-width="2.035" stroke-miterlimit="10"/>
    <path d="M347.785 254.415c-17.546 15.997-25.976 37.73-24.606 57.937 20.022 3.21 42.468-3.263 60.014-19.26 17.493-15.997 25.977-37.73 24.607-57.937-20.023-3.21-42.521 3.262-60.015 19.26z" fill="red"/>
    <path d="M402.898 241.154l-70.5 64.305" stroke="#fff" stroke-width="1.708" stroke-miterlimit="10"/>
    <path d="M388.41 254.52l15.017.684" stroke="#fff" stroke-width="1.708" stroke-miterlimit="10"/>
    <path d="M376.395 265.466l18.494.842" stroke="#fff" stroke-width="1.708" stroke-miterlimit="10"/>
    <path d="M364.383 276.411l30.876 1.421" stroke="#fff" stroke-width="1.708" stroke-miterlimit="10"/>
    <path d="M352.367 287.409l30.034 1.368" stroke="#fff" stroke-width="1.708" stroke-miterlimit="10"/>
    <path d="M340.355 298.355l16.703.737" stroke="#fff" stroke-width="1.708" stroke-miterlimit="10"/>
    <path d="M389.727 252.994l.632-14.945" stroke="#fff" stroke-width="1.708" stroke-miterlimit="10"/>
    <path d="M377.66 263.94l1.107-23.312" stroke="#fff" stroke-width="1.708" stroke-miterlimit="10"/>
    <path d="M365.648 274.937l1.318-29.205" stroke="#fff" stroke-width="1.708" stroke-miterlimit="10"/>
    <path d="M353.633 285.884l1.37-29.995" stroke="#fff" stroke-width="1.708" stroke-miterlimit="10"/>
    <path d="M341.621 296.829l1.159-25.733" stroke="#fff" stroke-width="1.708" stroke-miterlimit="10"/>
    <path d="M407.746 324.192l3.267 8.946c7.692 0 15.069-.842 21.761-2.368-.264-6.736-1.423-13.524-3.425-20.154-10.011-32.679-63.281-41.835-89.521-5.42 9.116 11.524 26.398 21.259 48.001 25.627 5.638 1.105 11.17 1.842 16.65 2.157l3.267-8.788z" fill="#414141"/>
    <path d="M432.774 330.823s-35.882-48.202-92.946-25.575" stroke="#DCD8D5" stroke-width="2.302" stroke-miterlimit="10"/>
    <path d="M390.666 328.672l-11.17 2.263" stroke="#DCD8D5" stroke-width="2.302" stroke-miterlimit="10"/>
    <path d="M426.819 304.88l-17.651 5.525" stroke="#DCD8D5" stroke-width="2.302" stroke-miterlimit="10"/>
    <path d="M420.13 295.671l-22.341 8.946" stroke="#DCD8D5" stroke-width="2.302" stroke-miterlimit="10"/>
    <path d="M409.116 287.514l-22.71 13.629" stroke="#DCD8D5" stroke-width="2.302" stroke-miterlimit="10"/>
    <path d="M397.102 283.252l-20.707 16.102" stroke="#DCD8D5" stroke-width="2.302" stroke-miterlimit="10"/>
    <path d="M381.978 281.937l-18.916 17.628" stroke="#DCD8D5" stroke-width="2.302" stroke-miterlimit="10"/>
    <path d="M366.596 284.988l-16.018 16.787" stroke="#DCD8D5" stroke-width="2.302" stroke-miterlimit="10"/>
    <path d="M380.866 345.775l-.948-14.787" stroke="#DCD8D5" stroke-width="2.302" stroke-miterlimit="10"/>
    <path d="M409.168 310.405l2.951 22.786" stroke="#DCD8D5" stroke-width="2.302" stroke-miterlimit="10"/>
    <path d="M397.789 304.617l1.581 27.838" stroke="#DCD8D5" stroke-width="2.302" stroke-miterlimit="10"/>
    <path d="M386.406 301.144l.053 29.468" stroke="#DCD8D5" stroke-width="2.302" stroke-miterlimit="10"/>
    <path d="M376.396 299.354l-.896 28.259" stroke="#DCD8D5" stroke-width="2.302" stroke-miterlimit="10"/>
    <path d="M363.062 299.565l.106 23.259" stroke="#DCD8D5" stroke-width="2.302" stroke-miterlimit="10"/>
    <path d="M350.578 301.775l1.423 14.419" stroke="#DCD8D5" stroke-width="2.302" stroke-miterlimit="10"/>
    <path d="M227.373 121.085c.053-.264.105-.527.158-.737.158-.947.369-1.895.527-2.842 0-.105.053-.158.053-.263.158-.894.369-1.736.527-2.578.052-.264.105-.474.158-.737.105-.526.21-1 .369-1.526.052-.263.105-.526.158-.737a27.97 27.97 0 01.527-2c0-.105.052-.157.052-.263.158-.526.316-1.052.474-1.526l.158-.473c.106-.316.211-.684.369-1 .053-.211.158-.369.211-.526.105-.263.211-.579.369-.842.105-.211.158-.369.263-.579.106-.263.211-.474.369-.737.106-.21.211-.368.316-.579.106-.21.264-.421.369-.631.106-.211.264-.421.369-.632.105-.21.211-.368.369-.579.158-.263.369-.526.527-.789.105-.158.263-.316.369-.473.052-.106.158-.158.21-.264.211-.263.369-.473.58-.684.053-.105.158-.157.211-.263l.527-.526.421-.421c.158-.158.369-.316.527-.474.158-.105.316-.263.422-.368.158-.158.368-.263.579-.42l.474-.317c.211-.105.369-.263.58-.368l.474-.316.632-.316c.158-.105.317-.157.475-.263.21-.105.474-.21.685-.315.158-.053.316-.158.474-.21.263-.106.527-.211.79-.264.158-.053.264-.105.422-.158.421-.105.843-.263 1.264-.316l-9.168 2.158-1.264.316c-.158.052-.264.105-.422.158-.263.105-.527.157-.79.263-.158.052-.316.158-.475.21-.21.105-.474.21-.684.316-.159.052-.317.158-.475.263l-.632.316-.474.316c-.211.105-.422.263-.58.368l-.474.316c-.211.157-.369.263-.58.42a2.987 2.987 0 00-.421.369c-.158.158-.369.316-.527.474l-.422.421-.368.368c-.053.052-.053.105-.106.105-.052.053-.158.158-.21.263a6.741 6.741 0 00-.58.684c-.053.106-.158.158-.211.263-.053.053-.105.106-.105.158-.106.106-.158.211-.211.316-.211.263-.369.526-.527.789a.739.739 0 00-.158.211c-.053.105-.158.263-.211.368-.158.211-.263.421-.369.632-.052.105-.105.158-.158.263-.052.105-.158.263-.21.421-.106.21-.211.368-.317.579-.052.105-.105.157-.158.263-.052.158-.158.315-.21.473-.106.211-.158.369-.264.579-.052.053-.053.158-.105.211-.106.21-.158.421-.264.631-.052.158-.158.369-.21.526 0 .053-.053.106-.053.158a5.24 5.24 0 00-.264.842l-.158.474c0 .052 0 .052-.052.052-.158.474-.316.948-.422 1.474v.052c0 .053-.053.106-.053.211-.158.684-.368 1.368-.526 2-.053.263-.106.473-.158.736-.106.527-.264 1-.369 1.526 0 .106-.053.211-.106.369-.052.105-.052.263-.105.368-.211.842-.369 1.737-.527 2.631 0 .105-.053.158-.053.263-.21.948-.369 1.895-.527 2.842 0 .105-.052.21-.052.316-.053.158-.053.315-.053.473l-.316 1.737c-.053.263-.105.473-.105.737-.106.789-.264 1.631-.369 2.42-4.795 30.153-9.432 60.253-14.227 90.406-.527 3.526-1.053 6.841-1.58 10.524l9.168-2.157c.527-3.631 1.054-6.999 1.58-10.525 4.795-30.152 9.432-60.253 14.227-90.405.105-.79.263-1.632.369-2.421.052-.263.105-.474.105-.737-.053-.684.053-1.263.158-1.841z" fill="#840000"/>
    <path d="M202.029 270.111c.106-.21.158-.421.264-.684.105-.21.158-.368.263-.578l.474-1.106c.053-.105.106-.157.106-.263.21-.473.421-.894.632-1.368l.158-.316c.211-.421.422-.842.632-1.21.053-.158.158-.263.211-.421l.79-1.421c.053-.158.158-.263.211-.421.106-.21.264-.421.369-.579.053-.105.105-.21.211-.315.158-.211.316-.474.474-.684.053-.106.105-.158.158-.263.053-.106.158-.158.211-.264.105-.105.211-.263.316-.368.053-.105.158-.158.211-.263.105-.105.158-.211.263-.263.211-.263.474-.474.738-.684l.053-.053c.263-.21.526-.473.79-.684.053-.053.158-.105.211-.158.21-.158.474-.316.685-.473.052-.053.105-.053.158-.106.263-.158.579-.368.895-.526.053-.053.158-.053.211-.105.264-.105.474-.263.738-.369.053-.052.158-.052.211-.105.316-.158.632-.263.948-.368.053 0 .105-.053.158-.053.264-.105.58-.21.843-.263.106-.052.158-.052.264-.105a6.975 6.975 0 011.001-.263l-9.168 2.157c-.317.106-.685.158-1.002.263-.105 0-.158.053-.263.106-.263.105-.58.158-.843.263-.053 0-.105.052-.158.052-.316.106-.632.264-.948.369-.053.052-.159.052-.211.105-.264.105-.527.211-.738.368-.053.053-.158.053-.211.106a7.722 7.722 0 00-.895.526c-.053.052-.106.052-.158.105a7.521 7.521 0 00-.685.474c-.053.052-.159.105-.211.158-.264.21-.527.421-.791.684l-.052.052c-.264.211-.474.474-.738.684l-.105.106a.701.701 0 00-.158.21c-.053.105-.158.158-.211.263-.106.105-.211.263-.316.369-.053.105-.158.157-.211.263 0 .052-.053.052-.053.105-.052.053-.052.105-.105.158-.158.21-.316.473-.474.684-.053.053-.053.105-.106.158-.052.052-.052.105-.105.158-.105.21-.264.368-.369.578-.053.053-.105.158-.158.211-.053.053-.053.105-.105.158l-.791 1.421c-.052.158-.158.263-.21.421a25.29 25.29 0 01-.633 1.21c-.052.053-.052.158-.105.21 0 0 0 .053-.053.053-.211.474-.421.895-.632 1.368-.053.105-.106.211-.106.263l-.474 1.105c0 .053-.052.106-.052.158-.053.158-.106.263-.158.421-.106.211-.159.421-.264.684-.105.211-.158.421-.263.632-.106.21-.158.421-.264.684-.053.105-.053.158-.105.263-.106.263-.211.526-.264.789-.052.106-.052.158-.105.264-.053.21-.158.368-.211.578 0 .053 0 .053-.052.106-.053.157-.106.368-.159.526 0 .052 0 .105-.052.158-.053.158-.053.263-.106.421 0 .105-.052.21-.052.315 0 .053 0 .106-.053.158-.105.421-.158.79-.263 1.211v.052c0 .105-.053.158-.053.263a11.03 11.03 0 01-.211 1.158c-.053.474-.158.947-.263 1.421l-.158.947 9.168-2.157.158-.948v-.052c.105-.474.158-.948.263-1.421.053-.368.106-.737.211-1.105 0-.105.053-.211.053-.263.052-.421.158-.79.263-1.211.053-.158.053-.315.105-.421.053-.157.053-.263.106-.421.053-.21.105-.473.211-.684 0-.052 0-.052.052-.105.106-.263.211-.579.316-.842.106-.368.264-.684.369-1.052.106-.211.158-.474.264-.684.105-.316.158-.527.263-.685z" fill="#840000"/>
    <path d="M244.18 179.549l9.168-2.158c.843-.21 2.055-.052 3.952.158l6.48.632c2.161.21 4.374.473 6.481.842l-9.168 2.157a91.4 91.4 0 00-6.481-.842l-6.481-.631c-1.949-.263-3.161-.369-3.951-.158z" fill="url(#paint0_linear)"/>
    <path d="M244.18 179.548l9.168-2.157c.052 0 .158-.053.211-.053l-9.169 2.157c-.105 0-.158 0-.21.053z" fill="url(#paint1_linear)"/>
    <path d="M244.391 179.496l9.168-2.158c.105 0 .263-.052.369-.052l-9.169 2.157c-.158 0-.263.053-.368.053z" fill="url(#paint2_linear)"/>
    <path d="M244.762 179.443l9.168-2.157h.527l-9.168 2.157h-.527z" fill="url(#paint3_linear)"/>
    <path d="M245.285 179.443l9.168-2.157c.316 0 .685 0 1.054.052l-9.168 2.158c-.369-.053-.738-.053-1.054-.053z" fill="url(#paint4_linear)"/>
    <path d="M246.34 179.496l9.168-2.158c.527.053 1.106.106 1.739.158l6.481.632c1.58.158 3.161.368 4.689.579l-9.168 2.157c-1.581-.21-3.109-.421-4.689-.579l-6.481-.631a105.75 105.75 0 01-1.739-.158z" fill="url(#paint5_linear)"/>
    <path d="M259.301 180.917l9.168-2.158c.579.106 1.212.158 1.791.263l-9.168 2.158c-.579-.105-1.212-.158-1.791-.263z" fill="url(#paint6_linear)"/>
    <path d="M278.272 234.118l9.168-2.158c-.422.105-.843.211-1.317.263-.158.053-.264.053-.422.053-.263.052-.579.105-.843.158a4.66 4.66 0 01-.843.105c-.211.053-.421.053-.632.105-.316.053-.58.053-.896.105-.263 0-.474.053-.738.053-.685.053-1.422.105-2.107.105h-.685c-.474 0-.949.053-1.423.053H271.211c-.316 0-.632 0-.948-.053-.369 0-.79-.052-1.159-.052-.316 0-.633-.053-1.001-.053-.369 0-.791-.053-1.16-.053-.316 0-.685-.052-1.001-.052-.474-.053-.948-.053-1.475-.105-8.43-.737-16.914-1.632-25.397-2.526-8.641-.895-17.229-1.895-25.818-2.789-.105 0-.158 0-.263-.053-.106 0-.211-.053-.316-.053h-.106c-.105 0-.211-.052-.316-.052-.105 0-.263-.053-.369-.053h-.105c-.106 0-.211-.052-.316-.052h-.106c-.158 0-.263-.053-.421-.053l-9.168 2.157c.158 0 .316.053.421.053h.106c.105 0 .21.053.316.053h.105c.158 0 .263.052.369.052.105 0 .211.053.316.053h.105c.106 0 .211.053.317.053.105 0 .158 0 .263.052 8.588.895 17.23 1.895 25.818 2.789 8.483.895 16.966 1.789 25.397 2.526.211 0 .421.053.579.053.264 0 .58.052.844.052.316 0 .684.053 1.001.053.368 0 .79.053 1.159.053.316 0 .632.052 1.001.052.421 0 .79.053 1.212.053.316 0 .632 0 .948.052H268.419c.474 0 .948-.052 1.422-.052h.685c.685-.053 1.423-.053 2.108-.105h.263c.159 0 .317-.053.475-.053.316-.053.632-.053.895-.105.211 0 .422-.053.633-.106.263-.052.579-.052.843-.105.052 0 .158 0 .21-.052.211-.053.422-.053.633-.106.158 0 .263-.052.421-.052.422-.053.843-.158 1.265-.263z" fill="url(#paint7_linear)"/>
    <path d="M279.326 190.967v-.578-.106-.21-.316-.21-.316-.211c0-.105 0-.157-.052-.263 0-.105-.053-.263-.053-.368v-.158c0-.053-.053-.158-.053-.21-.052-.158-.052-.369-.105-.527 0-.052 0-.158-.053-.21 0-.053-.052-.158-.052-.263 0-.106-.053-.158-.053-.263-.053-.211-.105-.369-.158-.579 0-.053-.053-.158-.053-.211v-.052c-.053-.263-.158-.474-.263-.737a8.86 8.86 0 00-.316-.684c-.053-.053-.053-.105-.106-.211-.105-.158-.158-.315-.263-.473-.053-.053-.053-.106-.106-.158a3.512 3.512 0 00-.368-.579l-.475-.631v-.053a1.59 1.59 0 00-.421-.421l-.316-.316-.053-.052c-.053-.053-.105-.053-.105-.106a11.768 11.768 0 01-.158-.158c-.053-.052-.159-.105-.211-.157-.053 0-.053-.053-.106-.106l-.052-.052c-.106-.105-.264-.158-.369-.263 0 0-.053 0-.053-.053-.053 0-.053-.053-.105-.053-.053-.052-.158-.105-.211-.157-.053-.053-.105-.053-.158-.106-.053-.052-.105-.052-.158-.105-.053 0-.053-.053-.105-.053-.106-.052-.159-.105-.264-.105-.053 0-.105-.052-.158-.052h-.053a2.406 2.406 0 00-.369-.158c-.052 0-.105-.053-.158-.053-.052 0-.158-.053-.21-.053-.106-.052-.264-.105-.369-.157h-.053c-.053 0-.105 0-.105-.053-.211-.053-.369-.105-.58-.158-.053 0-.053 0-.105-.053h-.106c-.316-.105-.632-.157-.948-.21h-.053c-.158-.053-.316-.053-.474-.105l-9.168 2.157c.158.053.369.053.527.105.316.053.632.158.948.211.053 0 .106.053.211.053.211.052.369.105.58.157.052 0 .105.053.158.053.105.053.263.105.369.158.052.053.158.053.21.105.053 0 .106.053.158.053.158.052.264.105.422.158.053 0 .105.052.158.052.105.053.263.106.369.211.053.052.105.052.158.105.105.053.263.158.369.211.052 0 .052.052.105.052l.474.316c.053 0 .053.053.106.053.105.105.263.21.369.315.052.053.105.053.105.106.158.105.263.263.421.42.158.158.264.316.422.474l.474.632c.106.157.264.368.369.578.053.053.053.106.105.158.106.158.158.316.264.474.052.052.052.105.105.21.106.211.211.474.316.684.106.264.158.527.264.842 0 .053.052.158.052.211.053.21.106.368.159.579 0 .105.052.158.052.263.053.158.053.316.106.421.052.158.052.368.105.526 0 .105.053.263.053.368 0 .106.052.264.052.369 0 .158.053.316.053.473v1.895c0 .21-.053.421-.053.631v.211c0 .21-.052.368-.105.579v.105c-.053.21-.105.473-.158.684 0 .053-.053.105-.053.158-.052.158-.105.316-.105.473 0 .053-.053.158-.053.211l-.158.474c-.053.052-.053.157-.105.21-.053.158-.106.316-.158.421-.053.105-.053.158-.106.263l-.158.316c-.053.105-.105.263-.158.368-.053.053-.053.158-.105.211l-.316.631c-.106.158-.211.369-.317.526-.105.211-.263.421-.421.632-.053.052-.053.105-.105.158-.211.315-.422.579-.633.842-.052.052-.105.105-.105.158-.105.105-.158.21-.264.315l-.158.158c-.105.105-.158.211-.263.316l-.158.158-.474.473-.053.053c-.158.158-.316.263-.422.368-.052.053-.105.106-.158.106-.105.105-.21.157-.368.263-.053.052-.106.105-.159.105-.105.105-.263.158-.421.263-.053 0-.053.053-.105.053-.159.105-.369.21-.527.315-.053 0-.106.053-.158.053a1.572 1.572 0 00-.422.211c-.053 0-.105.052-.211.052-.105.053-.263.105-.421.158-.053 0-.106.053-.158.053-.211.052-.369.105-.58.158l9.168-2.158c.211-.053.369-.105.58-.158.052 0 .105-.053.158-.053.158-.052.263-.105.421-.157.053 0 .106-.053.211-.053.158-.053.264-.105.422-.21.052 0 .105-.053.158-.053.158-.105.369-.211.527-.316.052 0 .052-.052.105-.052.158-.106.263-.158.422-.264.052-.052.105-.052.158-.105.105-.105.21-.158.368-.263.053-.053.106-.105.159-.105.158-.105.316-.263.421-.369l.053-.052.474-.474.053-.052.105-.106c.105-.105.211-.21.263-.315l.159-.158c.105-.105.158-.211.263-.316l.105-.105s0-.053.053-.053c.211-.263.422-.579.632-.842l.053-.052.053-.053c.158-.211.263-.421.421-.632.106-.157.158-.263.211-.421 0-.052.053-.052.053-.105l.316-.631c.053-.053.052-.105.105-.158v-.053c.053-.105.106-.263.158-.368.053-.105.106-.211.106-.263v-.053c.052-.105.052-.158.105-.263.053-.105.105-.263.158-.368 0-.053 0-.053.053-.106.052-.052.052-.157.105-.21.053-.105.053-.211.106-.316 0-.052.052-.105.052-.158 0-.052.053-.157.053-.21 0-.053.053-.105.053-.211.052-.105.052-.21.052-.315 0-.053.053-.106.053-.158v-.105c.053-.158.053-.369.105-.527v-.052-.106c0-.105.053-.263.053-.368v-.21-.211-.158c0-.158 0-.315.053-.421.052-.052.052-.105.052-.158z" fill="#840000"/>
    <path d="M254.984 127.979l9.169-2.158c.105-.053.263-.053.421-.105l-9.168 2.157c-.158.053-.316.053-.422.106z" fill="#6A6A6A"/>
    <path d="M255.355 127.873l9.169-2.158c.158-.052.368-.052.579-.052l-9.168 2.157c-.211 0-.369.053-.58.053z" fill="#6E6E6E"/>
    <path d="M255.93 127.82l9.168-2.157h.527l-9.168 2.157h-.527z" fill="#727272"/>
    <path d="M256.406 127.82l9.168-2.157h.106l-9.168 2.157h-.106z" fill="#767676"/>
    <path d="M300.562 270.059h-.105c-.475.105-.949.157-1.423.21-.158 0-.264 0-.422.053-.368.052-.737.052-1.106.105h-.422c-.474 0-.948.053-1.422 0-13.542-.474-27.083-1.526-40.519-1.737h-4.373c-1.107 0-2.161.053-3.267.053h-.632c-1.054.053-2.108.053-3.162.105-.211 0-.369 0-.579.053-1.054.053-2.108.105-3.109.158h-.211c-.896.052-1.791.158-2.687.21-.264 0-.474.053-.738.053-.685.053-1.422.158-2.107.21-.211 0-.475.053-.685.053l-2.688.316c-.158 0-.316.052-.474.052l-2.213.316c-.158 0-.263.053-.421.053-.211.052-.369.052-.58.105l-.79.158c-.422.052-.843.158-1.265.21l-.79.158c-.474.105-.896.158-1.37.263l-.632.158c-.685.158-1.318.316-2.003.474l-9.168 2.157c.685-.158 1.317-.315 2.002-.473l.633-.158c.474-.105.895-.211 1.37-.263l.79-.158c.422-.053.843-.158 1.265-.211l.79-.158c.316-.052.685-.105 1.001-.157.738-.106 1.475-.211 2.266-.316.158 0 .316-.053.474-.053l2.687-.315c.211-.053.474-.053.685-.053.685-.053 1.423-.158 2.108-.211.263 0 .474-.052.737-.052.896-.105 1.792-.158 2.688-.211h.21c1.054-.052 2.055-.105 3.109-.158.211 0 .369 0 .58-.052a62.956 62.956 0 013.161-.105h.632c1.054-.053 2.161-.053 3.267-.053H246.027c13.436.21 26.978 1.21 40.519 1.736h2.319c.21 0 .421-.052.632-.052.158 0 .263 0 .421-.053a88.22 88.22 0 001.37-.158h.158c.527-.105 1.002-.21 1.528-.315l9.169-2.158c-.58.053-1.054.158-1.581.211z" fill="url(#paint8_linear)"/>
    <path d="M256.512 127.82l9.168-2.157c2.687.105 5.322.263 7.956.526 1.95.21 3.899.473 5.796.947l-9.168 2.158a53.358 53.358 0 00-5.796-.948 131.582 131.582 0 00-7.956-.526z" fill="url(#paint9_linear)"/>
    <path d="M256.512 127.82l9.168-2.157c2.002.105 4.057.21 6.059.368l-9.168 2.157c-2.002-.21-4.057-.263-6.059-.368z" fill="url(#paint10_linear)"/>
    <path d="M262.57 128.188l9.168-2.157c.633.052 1.265.105 1.95.158.79.105 1.528.157 2.318.315l-9.168 2.158c-.79-.105-1.528-.211-2.318-.316-.685-.052-1.317-.158-1.95-.158z" fill="url(#paint11_linear)"/>
    <path d="M266.785 128.61l9.168-2.158c.949.158 1.844.316 2.74.474l-9.168 2.157c-.896-.158-1.791-.315-2.74-.473z" fill="url(#paint12_linear)"/>
    <path d="M269.578 129.136l9.168-2.157c.264.052.474.105.738.157l-9.168 2.158c-.264-.053-.527-.105-.738-.158z" fill="url(#paint13_linear)"/>
    <path d="M285.649 135.661v-.369c0-.158 0-.316-.052-.421v-.158c0-.21-.053-.421-.053-.631v-.158c0-.105-.053-.158-.053-.263 0-.105-.052-.211-.052-.316 0-.105-.053-.158-.053-.263-.053-.105-.053-.263-.105-.368 0-.053-.053-.106-.053-.158a.967.967 0 01-.105-.368c0-.053-.053-.106-.053-.158-.105-.263-.211-.474-.316-.737 0-.053-.053-.105-.106-.158a2.485 2.485 0 01-.263-.526.397.397 0 01-.105-.211c-.053-.052-.053-.105-.106-.158-.053-.105-.158-.157-.211-.263-.052-.052-.105-.158-.158-.21l-.052-.053a1.233 1.233 0 00-.369-.368l-.053-.053-.105-.105-.158-.158c-.106-.105-.211-.21-.316-.263l-.053-.053-.053-.052a.725.725 0 00-.211-.158c-.105-.053-.21-.158-.316-.211-.052 0-.052-.052-.105-.052l-.053-.053c-.053-.052-.105-.052-.158-.105-.105-.053-.211-.158-.369-.211-.052-.052-.105-.052-.158-.105-.052 0-.052-.052-.105-.052s-.106-.053-.106-.053c-.158-.053-.263-.105-.421-.158-.053 0-.158-.053-.211-.053-.053 0-.053-.052-.105-.052-.053 0-.106-.053-.106-.053a87.715 87.715 0 01-.474-.158c-.052 0-.158-.052-.211-.052l-9.168 2.157c.316.053.58.158.843.263.053 0 .053 0 .106.053.263.105.474.21.737.316.053 0 .053.052.106.052.211.106.474.263.685.369l.052.052c.211.158.422.263.633.421l.052.053c.211.158.369.316.527.474.053 0 .053.052.106.052.158.158.316.369.474.526.053.053.105.158.158.211.105.158.211.263.316.421a.397.397 0 01.106.21c.105.158.21.369.263.527 0 .052.053.105.105.157.106.211.211.474.316.737 0 .053.053.105.053.158.053.211.106.368.158.579.053.105.053.263.106.368.052.158.105.369.105.526 0 .053.053.158.053.211.052.263.052.526.105.842v.105c0 .263.053.526.053.789v.158c0 .316 0 .579-.053.895v.21c0 .316-.053.579-.105.895v.053l-.158 1.105c-.053.263-.106.579-.158.842 0 .105-.053.21-.053.263l-.158.631c0 .105-.053.158-.053.263-.105.263-.158.527-.263.79 0 0 0 .052-.053.052-.105.211-.158.474-.263.684-.053.106-.106.158-.106.264-.053.157-.158.315-.211.473l-.158.316c-.052.158-.158.263-.21.421-.053.105-.159.21-.211.316-.053.105-.158.21-.211.315-.105.158-.211.263-.316.421-.053.106-.158.158-.211.263-.211.264-.421.527-.632.737l-.053.053-.053.052-.474.474a.711.711 0 01-.211.158c-.105.105-.263.21-.368.316-.053.052-.158.105-.211.157-.105.106-.264.158-.369.264-.105.052-.158.105-.263.157-.106.053-.264.158-.369.211-.106.053-.158.105-.264.158-.158.052-.263.158-.421.21-.106.053-.158.053-.264.106l-.474.157c-.053.053-.158.053-.211.106-.21.052-.474.157-.737.21l9.168-2.157c.263-.053.474-.106.737-.211a.4.4 0 00.211-.105l.474-.158c.106-.053.159-.053.264-.105.158-.053.263-.105.421-.211.106-.052.158-.105.264-.158.105-.052.263-.157.369-.21.105-.053.158-.105.263-.158.106-.105.264-.158.369-.263.053-.053.158-.105.211-.158.105-.105.263-.21.369-.316.052-.052.105-.105.21-.158l.475-.473.052-.053v-.052c.211-.211.422-.474.633-.737l.105-.105c.053-.053.105-.106.105-.158.106-.158.211-.263.316-.421.053-.053.053-.105.106-.158.053-.053.053-.105.105-.158.053-.105.158-.21.211-.316.053-.052.053-.105.105-.21.053-.053.053-.158.106-.211l.158-.315c.052-.053.052-.106.105-.158l.158-.316c.053-.105.106-.158.106-.263 0-.053.052-.053.052-.105.106-.211.158-.369.211-.579 0 0 0-.053.053-.053.105-.21.158-.473.211-.684 0-.053 0-.053.052-.105 0-.053.053-.158.053-.263.053-.106.053-.211.105-.369 0-.105.053-.157.053-.263 0-.105.053-.158.053-.263 0-.052.052-.105.052-.21.053-.211.106-.421.106-.632 0-.052 0-.105.052-.158l.158-.947v-.053c.053-.21.053-.42.053-.631v-.316-.21-.158-.632-.105c-.052 0-.053 0-.053-.052z" fill="#840000"/>
    <path d="M185.642 46.94L373.43 61.62l2.055 214.964c.264 28.363-18.494 49.307-41.836 46.834l-193.057-18.892-2.055-210.753c-.263-28.363 23.764-49.307 47.105-46.834zm105.802 121.662a44.322 44.322 0 00-4.32-2.368c1.001-.315 1.475-.368 2.002-.631 14.595-4.473 23.605-20.891 21.181-39.625-1.211-9.314-5.11-17.102-12.592-21.733-4.216-2.631-8.747-4.052-13.226-4.683-6.533-.79-13.014-1.58-19.548-2.263-2.687-.263-5.427-.579-8.114-.79-5.638-.578-11.276-1.21-16.808-1.105-9.485.106-16.282 5.263-19.232 16.156-1.423 5.314-2.477 10.945-3.32 16.628-4.795 30.153-9.431 60.253-14.226 90.406-.527 3.526-1.054 6.841-1.581 10.524 1.001.106 1.686.316 2.371.369 8.589.894 17.23 1.894 25.818 2.789 8.484.894 16.967 1.789 25.397 2.526 5.849.473 11.645.578 17.388.21 8.22-.631 15.649-3.526 21.076-10.998 5.796-7.841 9.326-16.944 10.433-27.627 1.212-12.208-3.32-21.996-12.699-27.785zm3.583 102.72c3.952-1.369 6.587-4.631 8.273-9.367-.791-.211-1.265-.421-1.686-.474-8.378-1.315-16.703-2.999-25.081-3.894-12.435-1.21-24.922-2-37.357-2.631-10.38-.421-20.55.263-30.666 1.947-4.953.842-9.326 3-12.119 7.999a59.663 59.663 0 00-4.426 9.63c-.896 2.21-1.106 4.788-1.633 7.472 4.057-1.894 7.64-3.684 11.328-5.104 14.279-5.052 29.243-6.21 44.365-6.105 13.436.211 26.978 1.211 40.519 1.737 2.845.105 5.743-.263 8.483-1.21z" fill="red"/>
    <path d="M261.099 181.179c3.266.632 6.428 1.789 8.167 6.157 1.633 4.736 1.001 8.841-1.212 12.472-2.213 3.788-5.375 5.946-9.221 5.683-2.793-.105-5.533-.369-8.325-.684-3.741-.421-7.587-.895-11.539-1.316 1.054-6.262 1.897-12.261 2.845-18.26.948-6.104.948-6.104 6.27-5.578l6.481.632c2.16.21 4.373.526 6.534.894z" fill="red"/>
    <path d="M270.262 129.294c4.953 1.21 7.06 5.893 5.849 11.84-1.16 6.367-5.428 10.366-10.96 10.05-5.427-.42-10.96-1.052-16.387-1.631-.316-.052-.685-.052-1.58-.316.843-5.314 1.58-10.366 2.687-15.365.843-3.789 3.319-6.157 6.586-6.105 2.687.106 5.322.264 7.956.527 2.003.263 3.952.526 5.849 1z" fill="red"/>
    <path d="M384.655 278.11c0-.473.052-.947.052-1.473v-.211-1.052-.947l-2.055-214.964-9.168 2.158 2.055 214.963v2.263c0 .579-.053 1.158-.053 1.736-.052.632-.052 1.211-.105 1.842 0 .158 0 .369-.053.526-.052.79-.158 1.526-.263 2.316 0 .21-.053.368-.105.579-.106.578-.159 1.105-.264 1.684l-.158.789c-.105.474-.158.947-.263 1.421-.053.263-.106.579-.211.842-.106.473-.211.894-.316 1.368-.053.263-.158.526-.211.789-.158.526-.264 1-.422 1.526a2.948 2.948 0 01-.21.632 33.807 33.807 0 01-.738 2.105c-.053.105-.105.21-.105.315-.211.579-.475 1.211-.685 1.79-.106.21-.159.42-.264.631-.263.579-.474 1.105-.738 1.631l-.316.632c-.052.158-.158.316-.21.421-.211.368-.369.736-.58 1.105-.053.105-.158.263-.211.368-.263.474-.527.947-.843 1.421l-.053.053c-.316.473-.579.947-.895 1.42-.158.211-.264.421-.422.632-.211.263-.369.579-.579.842l-.475.631c-.21.263-.368.474-.579.737-.316.421-.685.842-1.001 1.263-.106.105-.158.21-.264.316-.421.526-.895 1-1.317 1.473-.369.369-.738.737-1.054 1.105-.105.053-.158.158-.263.211-.316.263-.58.579-.896.842-.105.105-.263.21-.369.315l-.948.79c-.106.052-.158.158-.264.21-.421.316-.79.632-1.212.947-.105.053-.21.158-.316.211-.316.21-.632.474-.948.684-.106.105-.264.158-.369.263-.369.211-.738.474-1.106.684a.4.4 0 01-.211.105c-.422.264-.896.527-1.318.737-.105.053-.263.105-.368.211-.316.158-.685.368-1.054.526a1.597 1.597 0 00-.422.21c-.421.211-.843.369-1.264.527-.053 0-.106.052-.158.052a15.26 15.26 0 01-1.423.526c-.158.053-.263.106-.421.158-.369.106-.738.263-1.107.369-.158.052-.263.105-.421.105-.475.158-1.002.263-1.476.368l9.168-2.157c.474-.105 1.001-.263 1.476-.369.158-.052.263-.105.421-.105.369-.105.738-.21 1.107-.368.158-.053.263-.105.421-.158.474-.158.949-.368 1.423-.526.052 0 .105-.053.158-.053.421-.158.843-.368 1.264-.526.159-.053.264-.105.422-.211a9.58 9.58 0 001.054-.526c.105-.052.263-.105.369-.21.421-.263.895-.474 1.317-.737.053-.053.158-.105.211-.158.368-.21.737-.421 1.106-.684.105-.105.264-.158.369-.263.316-.211.632-.421.948-.684.106-.053.211-.158.317-.211.421-.315.843-.631 1.211-.947.106-.053.158-.158.264-.21l.948-.79c.106-.105.264-.21.369-.315.316-.264.632-.579.896-.842.105-.053.158-.158.263-.211l1.001-1c0-.052.053-.052.053-.105a17.56 17.56 0 001.317-1.473c.106-.106.158-.211.264-.316.369-.421.685-.842 1.001-1.263l.158-.158c.158-.21.263-.368.422-.579l.474-.631c.21-.263.369-.527.579-.842.158-.211.264-.421.422-.632.053-.052.053-.105.105-.158l.791-1.263.052-.052c.264-.421.474-.789.738-1.21.053-.053.053-.106.105-.211.053-.105.158-.263.211-.368.211-.369.422-.737.58-1.105.052-.158.158-.316.21-.421.053-.106.106-.211.159-.263.052-.106.105-.264.158-.369a22.54 22.54 0 00.737-1.631c.053-.105.106-.263.158-.368.053-.106.053-.158.106-.264.263-.578.474-1.157.737-1.789.053-.105.053-.158.106-.263v-.053c.263-.684.474-1.368.737-2.104 0-.053.053-.106.053-.158l.158-.474c.158-.474.316-1 .422-1.526.052-.105.052-.21.105-.316.053-.158.053-.315.105-.473.106-.474.211-.895.317-1.368.052-.158.052-.316.105-.474.053-.105.053-.263.053-.368.105-.474.21-.948.263-1.421.053-.211.053-.369.106-.579 0-.105-.001-.158.052-.263.106-.526.158-1.105.264-1.684 0-.158.052-.316.052-.474v-.105c.106-.737.211-1.526.264-2.315v-.106c0-.157 0-.315.052-.473.053-.632.106-1.211.106-1.842 0 0 .053-.053.053-.158z" fill="#840000"/>
    <path d="M194.811 44.782c-.316-.053-.633-.053-.949-.105h-.316c-.158 0-.316 0-.527-.053-.316 0-.579-.053-.895-.053H190.174c-.263 0-.527 0-.79.053-.211 0-.422 0-.633.052h-.158c-.158 0-.316.053-.474.053-.316 0-.58.053-.896.105-.21 0-.421.053-.632.106-.263.052-.58.052-.843.105-.105 0-.158 0-.263.052-.211.053-.369.053-.58.106-.158 0-.263.052-.422.052-.421.106-.843.158-1.264.264l-9.168 2.157c.421-.105.843-.21 1.264-.263.158-.053.264-.053.422-.053.263-.052.527-.105.843-.158.263-.052.58-.105.843-.105.211-.052.421-.052.632-.105.316-.053.58-.053.896-.105.211 0 .421-.053.632-.053.211 0 .422 0 .633-.053.263 0 .526 0 .79-.052h1.897c.316 0 .579 0 .895.052.159 0 .317 0 .527.053.422.053.843.053 1.265.105l187.788 14.682 9.168-2.157-187.735-14.682z" fill="url(#paint14_linear)"/>
    <path d="M87.113 308c-.263-.316-.053-1.21-.053-1.21s4.9-.527 6.481-.158c.422.105 1.107.421 1.739.842.105.052.316.421.421.526.211.105.317-.053.475.053.421.263.737.473.737.526.422 2.263-.158 3.157-.158 3.157s-4.004 1.263-4.953.421c-2.37-2.263-4.057-3.42-4.689-4.157z" fill="#161711"/>
    <path d="M75.575 312.631l-.685 3.631h-3.74s-.212-.527-.528-.527c-.263 0-.632.527-.948.527H60.19s-.158-.79.052-1.053c.106-.158.738-.368 1.16-.473 1.896-.527 7.429-2.211 8.377-4.052 1.16-2.211 5.796 1.947 5.796 1.947z" fill="#161711"/>
    <path d="M72.625 189.862l-.896-4.42s-3.162.263-3.741-1.421c-1.212-3.368-.21-8.788.527-10.314 2.107-4.315 3.003-11.893 12.909-5.841 3.74 2.263-2.055 13.366-2.477 15.787-.421 2.42.843 5.157.843 5.157l-2.318 1.684-4.847-.632z" fill="#E9D6B8"/>
    <path d="M90.223 231.644l-1.95 13.893s7.535-5.736 8.01-12.314c.526-6.63-5.744-2.105-6.06-1.579z" fill="#E2C59C"/>
    <path d="M80.372 257.482s-1.475.631 2.845 20.891c3.056 14.577 5.69 25.206 6.955 30.048.475 1.894 1.001 1.526 1.001 1.526l4.058.473 1.949-1.684-5.796-33.047-11.012-18.207z" fill="#414141"/>
    <path d="M57.714 222.541l8.325 15.944s-15.913-11.472-14.912-17.786c1.002-6.315 6.587 1.842 6.587 1.842z" fill="#E9D6B8"/>
    <path d="M90.278 194.177s3.372 2.053 5.796 18.786c2.424 16.734.896 16.103.896 16.103l-.421 3.841-6.323.685L86.8 219.12l3.477-24.943z" fill="#D40000"/>
    <path d="M73.152 237.749s8.378 38.73 15.28 56.2c4.057 10.209 4.532-9.208 4.532-9.208l-5.322-56.096-19.443-1.421c.053 0 2.213.737 4.953 10.525z" fill="#414141"/>
    <path d="M81.582 227.382s-7.06 49.886-7.798 52.149c-2.53 7.63-6.376-2.368-7.271-4.894-.896-2.526-2.371-21.312-2.055-35.047l.316-13.734 16.808 1.526z" fill="#414141"/>
    <path d="M74.522 267.007s1.054 5.946 1.95 13.577c.632 5.578.685 21.522-.369 32.573-.052.684-7.113-1.368-7.113-1.368l-3.161-37.941c-.58-6.946 4.268-11.788 8.694-6.841z" fill="#414141"/>
    <path d="M90.488 194.177l-8.325-3.789-2.266-2.157-8.852-.211-1.528 2.526-6.85 2.947s-1.686 2.631-.21 12.524c1.633 10.893 1.95 27.416 1.95 27.416l24.131 3.368s-.474-37.309 1.95-42.624z" fill="red"/>
    <path d="M64.88 193.599s-1.528-1.737-5.322 2.946c-6.428 7.946-9.484 17.787-10.17 19.734-.684 1.894-1.527 4.631 1.107 7.788 2.003 2.421 2.635 3.263 2.635 3.263l5.743-3.579-.896-1.736-.632-.842s3.109-6.789 6.428-12.945c3.32-6.21 1.107-14.629 1.107-14.629z" fill="red"/>
    <path d="M71.306 174.97s1.106-.684 1.264.158c.159.842-.421 2.736-.948 2.947-.527.158-.685 2.473-.685 2.473l1.37 2.579h6.955s2.16-.948 2.319-2.474c.158-1.526 1.896-12.471 1.896-12.471l-4.9-2.579s-2.582-1.315-4.373-1.789c-2.793-.789-3.372.684-3.267 1.473.106.79-.79.842-1.897.842-1.106 0-2.476.842-1.897 1.369.264.21-.843.894-.421 1.736.632 1.158 2.74 1.579 2.898 3.421.105.842.474 3.683 1.686 2.315z" fill="#414141"/>
    <path d="M51.706 224.435s2.266-1.526 2.477-1.684c.21-.105.58-.263.58-.263l1.633.527-.896.789s.263.21.685.105c.474-.053 1.16-.053.948.263-.21.316-3.635 2.526-3.899 2.579-.263.105-1.897-1.579-1.528-2.316z" fill="#D40000"/>
    <path d="M29.73 304.053l.211 4.789h3.9s.21-.579.526-.579c.264 0 .633.579 1.001.579h9.906s.158-.895-.053-1.211c-.105-.157-.737-.421-1.211-.578-2.003-.632-7.746-2.579-8.747-4.684-1.212-2.578-5.532 1.684-5.532 1.684z" fill="#B0BFDE"/>
    <path d="M45.325 307.842c.105.368-.053 1-.053 1h-9.906c-.368 0-.737-.579-1-.579-.317 0-.528.579-.528.579H29.94l-.158-1h15.544z" fill="#fff"/>
    <path d="M38.11 305.947c.105.106.316 0 .58-.263.684-.579.632-.526.474-.631-.106-.053-.264-.158-.685.21-.264.263-.475.579-.37.684z" fill="#fff"/>
    <path d="M37.055 305.421c.105.105.316 0 .58-.263.737-.579.632-.526.474-.632-.105-.052-.264-.157-.685.211-.264.263-.474.579-.369.684z" fill="#fff"/>
    <path d="M36.107 304.842c.105.106.316 0 .58-.263.737-.579.632-.526.474-.631-.106-.053-.264-.158-.685.21-.317.263-.475.579-.37.684z" fill="#fff"/>
    <path d="M.174 308.841c-.316.474-.105 1.684-.105 1.684s6.007.737 7.903.211c.475-.105 1.37-.579 2.16-1.105.159-.105.37-.579.528-.684.263-.158.368.105.58-.053.526-.368.895-.684.895-.684.527-3.052-.158-4.262-.158-4.262s-3.847-1.895-4.795-.579c-2.266 3.104-6.165 4.052-7.008 5.472z" fill="#B0BFDE"/>
    <path d="M.016 309.526c1.844.263 5.743.789 6.428.632 2.95-.579 4.69-2.263 5.849-3.316-.053.421-.106.895-.159 1.421 0 .053-.369.316-.895.684-.211.158-.317-.105-.58.053-.105.105-.369.579-.527.684-.79.526-1.633 1-2.16 1.105-1.95.526-7.904-.21-7.904-.21s-.052-.579-.052-1.053z" fill="#fff"/>
    <path d="M3.285 306.632c0 .105.21.21.58.158.685-.053 1.37 0 2.055.105.316.052.632 0 .632-.158s-.263-.316-.58-.368a8.974 8.974 0 00-2.055-.106c-.316.106-.632.263-.632.369z" fill="#fff"/>
    <path d="M4.445 305.737c0 .158.211.211.58.263.685 0 1.37.105 2.055.316.316.105.632.053.632-.105s-.263-.369-.58-.421c-.684-.158-1.37-.263-2.002-.263-.369-.053-.685.105-.685.21z" fill="#fff"/>
    <path d="M5.55 304.895c0 .158.212.263.58.316.685.105 1.318.263 2.003.473.316.106.632.106.632-.052s-.264-.369-.58-.474a13.825 13.825 0 00-2.002-.473c-.316 0-.632.105-.632.21z" fill="#fff"/>
    <path d="M40.324 188.968l-.633-3.684-.21-2.105.105-2.841s.843-1.158 1.264 1.578c.053.421.633-2.736.633-2.736l.632-2.158.79-.315 1.792 1.105s-.158.999-1.634.473c-.158-.052-.263 1.842-.263 1.842l1.897 2.789s.369 1.473-.211 2.105l-.58.631-.21-.263-.158 2.789s-.211 1.105-1.16 1.579c-.948.474-.421 1.526-.421 1.526l-1.633-2.315z" fill="#E9D6B8"/>
    <path d="M36.48 210.332s-3.741-7.525-2.845-10.314c.895-2.789 4.847-12.893 4.847-12.893l4.848 2.632s-3.425 19.944-4.532 21.312c-1.053 1.315-2.002-.316-2.318-.737z" fill="#B0BFDE"/>
    <path d="M37.425 303.79l-7.956.263 1.95-83.143 16.86-5.052c0 .053-2.634 54.201-10.854 87.932z" fill="#414141"/>
    <path d="M24.938 222.541l-20.813 82.88 9.432.263 30.613-88.195-19.232 5.052z" fill="#565656"/>
    <path d="M31.42 221.489l1.37-.948 15.543-4.63s-.263 5.525-.896 14.103l-16.386 9.472.369-17.997z" fill="#565656"/>
    <path d="M24.832 222.804l.053-.263 9.431-2.473 13.91-4.157s-.052.999-.158 2.736l-23.236 4.157z" fill="#163F59"/>
    <path d="M15.141 178.706s9.063-6.367 17.282 4.262c8.167 10.63 16.703 32.784 16.703 32.784l-24.922 8.104-8.114-32.205s-4.48-10.787-.949-12.945z" fill="#D1DBEA"/>
    <path d="M15.034 179.18s-2.793-.263-1.58 8.209c1.211 8.525 4.162 25.049 5.532 29.206.316 1.052 1.686 5.841 3.846 2.947 2.16-2.947 3.636-14.156-.105-28.68-2.371-9.314-6.218-11.682-7.693-11.682z" fill="#B0BFDE"/>
    <path d="M47.335 193.335l.422.526-1.792 5.683-3.583 1.053-.843-.737 1.37-5.104 4.426-1.421z" fill="#161711"/>
    <path d="M34.844 200.808l5.269-3.052 2.107-.316-.58 1.842 2.108.789 2.108-.789 1.001-1.368.422 1.526s-.158.789-.685 1.368c-.58.631-2.477 3.999-2.477 3.999l-1.528-.316-3.477-.894-2.213 1.684-2.055-4.473z" fill="#E9D6B8"/>
    <path d="M20.407 218.12s1.106-8.525 3.372-10.103c2.266-1.579 10.907-7.104 10.907-7.104l2.423 5.314s-13.646 13.63-15.28 13.998c-1.58.368-1.422-1.579-1.422-2.105z" fill="#B0BFDE"/>
    <path d="M29.682 174.917c-1.528 4.421-2.477 6.631-2.74 6.841-1.739 1.526-6.797-2.42-6.165-3.525.632-1.105 1.633-6.683 1.58-7.525-.052-.895 8.273 1.578 7.325 4.209z" fill="#E9D6B8"/>
    <path d="M26.89 171.76c-1.476-.631-3.004-1.105-3.847-1.157-.052 1.473-.105 2.946-.052 3.946.158 2.737 2.265 4.263 3.582 5.368.264.263.633.473 1.054.631.37-.737.949-2.368 2.055-5.578.422-1.263-1.054-2.42-2.792-3.21z" fill="#DEC9A9"/>
    <path d="M33.897 162.972l-.527 12.735s-.105 2.999-1.317 3.368c-1.212.315-4.373-.158-5.69-1.263-1.318-1.105-3.373-2.579-3.583-5.368-.159-2.789.368-9.314.368-9.314s1.054-2.105 5.164-.421c4.11 1.684 5.585.263 5.585.263z" fill="#E9D6B8"/>
    <path d="M33.58 159.867c.58.211 1.528.737 1.686 1.684.21 1-.79 2.368-1.686 2.526-.896.158-6.534-.315-7.166-.579-.685-.315-1.95-.684-2.53-1.789-.368-.684 1.845-1.999 3.057-1.526 3.161 1.158 4.531-1.105 6.639-.316z" fill="#194866"/>
    <path d="M25.31 161.867l-.211 5.525-.58 2.895-.685-.053-1.212-.105s-1.686-7.736.264-8.42c1.897-.737 2.318-.263 2.424.158z" fill="#194866"/>
    <path d="M23.78 170.76c0 .474-.422.842-.949.79l-.526-.053c-.475-.053-.896-.474-.843-.947l.105-2c0-.473.421-.842.948-.789l.527.052c.474.053.896.474.843.948l-.105 1.999z" fill="#E9D6B8"/>
    <path d="M26.677 161.709l-2.055-.421-1 6.052 2.107.368.948-5.999z" fill="#163F59"/>
    <path d="M25.943 166.287c.316-1.894 1.95-3.157 3.635-2.789l1.581.316c1.686.316 2.371 2.052 2.055 3.947-.316 1.894-1.95 3.157-3.636 2.789l-1.106-.211c-1.686-.368-2.846-2.157-2.53-4.052z" fill="#E9D6B8"/>
    <path d="M329.384 241.011s1.686.21.737 9.209c-.948 8.998-4.32 21.996-4.32 21.996l.421-20.944s.475-7.998 3.162-10.261z" fill="#E9D6B8"/>
    <path d="M327.169 265.217c-.317 4.263 1.475 6.262 1.949 7.999.474 1.736 1.265 3.526 1.265 3.526-1.581-1.053-1.528-2.474-2.055-3.21-.474-.737-.211-.527-.474.999-.106.842 1.159 2.474 1.844 3.631.579 1 .632 1.579.632 1.579s-1.317-1.21-2.371-2.684c-1.212-1.789-2.213-3.999-2.371-4.525-.264-.947-.106-3.789.263-5.841.527-2.263 1.528-4.579 1.318-1.474z" fill="#E9D6B8"/>
    <path d="M330.172 348.835l-.527 11.735-7.429.579-3.267-.369 6.534-2.052.737-9.788 3.952-.105z" fill="#E9D6B8"/>
    <path d="M329.066 362.096l-1.633.211-.263-.474-6.113.105-2.95-.789s-.106-.526.158-.684c.843-.474 4.004-.737 4.004-.737s-.421.579-.105.842 4.426.105 5.427-.053c1.739-.315 2.318-.789 2.371-.684.105.421-.896 2.263-.896 2.263z" fill="#F8C44F"/>
    <path d="M327.909 263.429l-1.001 44.518-3.056 43.73 6.691.526s6.27-44.045 7.008-47.834c.738-3.789 8.641-34.362 4.953-42.151-3.688-7.84-14.595 1.211-14.595 1.211z" fill="#414141"/>
    <path d="M354.094 238.643c3.741 4.526 5.638 22.996 5.638 22.996s-1.212 7.104-8.114-16.681c-2.055-7.157 1.528-7.42 2.476-6.315z" fill="#E9D6B8"/>
    <path d="M358.1 277.637l1.581-1.737.843-1.684.211-3.052s-.158-3.263-.633-4.473c-.527-1.21-.369-6.051-.579-6.63-.158-.579-3.214-1.316-3.214-1.316s1.317 4.999 1.686 7.052c.369 2.052-.106 5.104 0 5.893a9.08 9.08 0 00.737 2.421s.106-2.158.053-2.736c-.053-.579.632-.316.632-.316s.211 2.999-.052 3.789c-.264.789-.791 1.42-.791 1.42l-.474 1.369z" fill="#E9D6B8"/>
    <path d="M334.177 228.277l-2.423 25.101v1.473l-7.219-.421s2.108-19.365 2.424-20.312c.316-.947 1.054-9.051.948-10.525-.105-1.473.211-8.735 5.006-7.998 4.795.684 1.264 12.682 1.264 12.682z" fill="#B0BFDE"/>
    <path d="M349.723 228.277l2.371 25.101v1.473l7.218-.421c-3.266-14.682-3.951-17.629-4.057-20.312-.052-1-.21-9.051-.105-10.525.105-1.473.211-5.42-4.163-7.998-4.215-2.526-1.264 12.682-1.264 12.682z" fill="#B0BFDE"/>
    <path d="M341.977 347.466l.105 15.103 6.27-2.21s2.635-1.894.369-1.684c-3.32.368-2.635-1.052-2.74-3.736-.105-2.684.422-7.894.422-7.894l-4.426.421z" fill="#E9D6B8"/>
    <path d="M349.143 358.728s-.685.684-1.475 1.157c-.738.474-2.845 1.526-3.636 1.684-1.053.211-2.054.105-2.054.105s-.475 1.579.579 1.474c1.054-.105 6.27-2.421 7.008-2.894.738-.632.843-1.421-.422-1.526z" fill="#F8C44F"/>
    <path d="M343.344 264.218l-.79 40.835-.738 43.309 5.269-.263s5.322-43.572 5.796-47.466c.475-3.842 6.85-29.469 2.582-36.994-4.32-7.472-12.119.579-12.119.579z" fill="#414141"/>
    <path d="M342.292 213.595s-8.219.579-10.169 1.368c-1.949.842-1.528 10.419-.263 17.523 1.264 7.104.685 14.998-1.107 19.418-1.791 4.42-3.214 12.892-3.214 12.892l28.769-.421s-6.534-17.628-6.534-24.469c0-6.841 1.792-22.365 1.686-23.891-.105-1.42-7.324-2.42-9.168-2.42z" fill="#D1DBEA"/>
    <path d="M329.963 210.858c1.792-2.21 2.793-4.63 2.793-8.156 0-1.526-.106-2.052-.211-4.262 0-.211-.053-.421-.053-.632v-2.684a7.191 7.191 0 017.219-7.209h1.791a7.191 7.191 0 017.219 7.209v6.157c.052 4.263 2.16 7.999 5.427 10.367 2.266 1.105 3.899 3.42 3.899 6.157 0 3.42-2.529 6.262-5.796 6.735-1.37 3.842-5.058 6.578-9.432 6.578-3.793 0-7.06-2.052-8.799-5.104-3.635-1.474-6.165-4.947-6.165-9.051 0-2.368.791-4.421 2.108-6.105z" fill="#414141"/>
    <path d="M346.178 57.622s-19.495.052-27.03.158c-5.216.105-5.691-7.367-3.636-8.473 6.218-3.367 25.713-5.157 25.713-5.157l13.225 12.156c0 .053-.737 0-8.272 1.316z" fill="#565656"/>
    <path d="M327.791 17.892s-5.006-1.42-7.219 5.157c-3.372 10.05-3.056 19.26-2.582 21.207.211.895.843 4 6.481 4.157 2.266.053 1.37-4.841 1.37-4.841s1.475-4.105 3.003-11.104c1.528-7.051-1.053-14.576-1.053-14.576z" fill="#E55A00"/>
    <path d="M323.785 18.418l12.857-4.157 9.747-.632 10.696 3.21s3.478 2.421.264 10.104c-3.267 7.735-2.002 19.891-2.002 19.891l-27.505.895s-.527-11.209-2.371-22.365c-.421-2.578-.474-5.473-1.686-6.946z" fill="#FF8400"/>
    <path d="M342.696 47.15h-1.423c-1.475-10.788-1.422-21.944.211-32.731.422.263.843.526 1.265.736-.316 11.05.263 22.049-.053 31.995z" fill="#E55A00"/>
    <path d="M337.221 17.313c.211 1.473 1.423 2.789 2.687 2.841h3.636c1.264-.052 2.476-1.368 2.687-2.841.316-2.474.58-4.894.896-7.368.21-1.473-.685-4.42-2.635-5.314a6.882 6.882 0 00-5.585 0c-1.949.894-2.792 3.841-2.634 5.314.368 2.474.632 4.894.948 7.368z" fill="#E2C59C"/>
    <path d="M341.855 20.312l2.319 3.789 4.215-5.262-.632-2.79-1.37-1.157-.053 2.105-4.479 3.315z" fill="#E55A00"/>
    <path d="M341.594 20.312l-2.318 3.789-3.952-4.894.685-3.052.949-1.263.421 2.473 4.215 2.947z" fill="#E55A00"/>
    <path d="M342.275 0c1.001 0 1.897.526 2.423 1.316h1.002c1.264 0 2.265 1 2.265 2.262v5.578h-1.58V6.894c0-.895-.738-1.58-1.581-1.58h-.949 1.476-.949a2.888 2.888 0 01-2.898-2.893V0h.791z" fill="#163F59"/>
    <path d="M345.07 11.209c0 .737.633 1.368 1.37 1.368h.106c.737 0 1.37-.631 1.37-1.368V9.525c0-.737-.633-1.368-1.37-1.368h-.106c-.579 0-1.054.315-1.264.842" fill="#E2C59C"/>
    <path d="M343.49 2.21V0h-4.795a2.887 2.887 0 00-2.898 2.894v2.21h4.795a2.888 2.888 0 002.898-2.894z" fill="#414141"/>
    <path d="M336.219 13.313c0 1.158.895 3.105 2.371 3.737 2.002.841 4.373.841 6.323 0 1.475-.632 2.371-2.579 2.371-3.737v-9.84c0-1.158-1.16-2.158-2.582-2.158h-5.849c-1.422.053-2.582 1-2.582 2.158-.052 3.263-.052 6.578-.052 9.84z" fill="#E9D6B8"/>
    <path d="M340.644 0a2.929 2.929 0 00-2.424 1.316h-1.001c-1.265 0-2.266 1-2.266 2.262v5.578h1.581V6.894c0-.895.737-1.58 1.581-1.58h-.58 2.582a2.888 2.888 0 002.898-2.893V0h-2.371z" fill="#414141"/>
    <path d="M337.798 9.525c0-.737-.632-1.368-1.37-1.368h-.105c-.738 0-1.37.631-1.37 1.368v1.684c0 .737.632 1.368 1.37 1.368h.105c.58 0 1.054-.316 1.265-.842" fill="#E9D6B8"/>
    <path d="M343.068 2.789c-.052-.21-.052-.368-.052-.579V0H345.071a2.888 2.888 0 012.898 2.894v2.21h-2.108c-.211 0-.422 0-.58-.052-.21-1.158-1.106-2.053-2.213-2.263z" fill="#414141"/>
    <path d="M368.572 94.879c.316.368.105 1.315.105 1.315s-5.269.579-6.955.21c-.421-.105-1.159-.473-1.897-.894-.105-.053-.316-.474-.421-.526-.211-.105-.316.105-.527-.053-.474-.316-.79-.526-.79-.579-.475-2.42.158-3.368.158-3.368s4.478-1.473 5.321-.473c2.002 2.526 4.374 3.578 5.006 4.368z" fill="#161711"/>
    <path d="M319.516 92.3l-.369 3.947-3.952.368s-.264-.526-.632-.473c-.264.052-.58.631-1.001.631-.843.105-1.739.158-2.108.21-.738.053-7.956.79-7.956.79s-.264-.79-.053-1.105c.105-.158.738-.474 1.159-.632 2.002-.789 7.693-3.157 8.536-5.21.948-2.525 6.376 1.474 6.376 1.474z" fill="#161711"/>
    <path d="M325.522 42.098l13.436 5.473s-9.537 1.368-15.491.157c-4.057-.789 1.845-5.788 2.055-5.63z" fill="#E9D6B8"/>
    <path d="M355.977 50.465s1.317 12.261 1.106 18.734c-.158 4.894-.158 14.26 1.001 22.207.053.473 6.323.105 6.323.105s2.266-30.363 2.898-35.362c.685-5-1.212-8.578-11.328-5.684z" fill="#565656"/>
    <path d="M316.721 53.412s2.003 3.157 7.535 3.947c2.002.263-3.214 35.52-3.214 35.52l-8.167-2.631 1.581-38.994 2.265 2.158z" fill="#414141"/>
    <path d="M339.22 57.358s10.643 1.526 17.809 2.263c2.635.263 4.848-6.999 5.164-7.314 1.897-2 3.794-1.737 3.741-1.79-1.528-1.684-9.537-3.21-17.862-5.157-8.325-1.947-9.642-.736-9.642-.736l.79 12.734z" fill="#414141"/>
    <path d="M348.02 45.308c8.325 1.947 16.334 3.526 17.862 5.157.052.052-1.792-.158-3.741 1.789-.106.105-.58 2.42-.896 3.263 1.37-2.474-18.231-9.367-22.499-11.156.79-.21 3.109-.527 9.274.947z" fill="#414141"/>
    <path d="M357.188 57.254l.79 23.837.843 5.526.105-5.526-.21-3.473 1.896-5.314 1.001-12.42-1.422.527.158-5.42-3.161 2.263z" fill="#414141"/>
    <path d="M316.986 50.465l-2.002.527-.738 28.626 4.163 10.262-2.003-7 .791-14.418s2.898 6.999 2.898 6.63c0-.368-2.424-15.155-2.424-15.155s2.74 2.263 2.424 2.158c-.211-.053-1.581-10.261-3.109-11.63z" fill="#565656"/>
    <path d="M351.184 16.945s4.268-3.368 8.483 2.894c6.164 9.103 8.799 18.839 9.8 21.628.738 2.157.316 8.261-2.16 10.735-.58.631-4.215.105-4.215.105l-2.371-1.632 1.001-1.894.052-1.526s-3.056-7.315-6.797-14.26c-3.793-6.947-3.793-16.05-3.793-16.05z" fill="#FF8400"/>
    <path d="M361.664 44.887l-13.91.737s13.383 6.157 13.857 5.104c2.477-6.051.053-5.84.053-5.84z" fill="#E9D6B8"/>
    <path d="M354.025 44.414c-.79-.369-.738-.421-.738-.421s-.737.894-1.844 1.052c-.527.105-2.266.105-2.266.105l-2.581.053-1.212-.053s-.685-.105-.843 0c-.527.316-.053.58-.053.58l4.584.63-4.426.527s-.58.158-.58.474c0 .263.159.263.159.263l5.11.526-2.265.526s-.527.158-.58.474c-.053.315-.053.42-.053.42l4.743-.473c.052.158 3.635-4.262 2.845-4.683z" fill="#E9D6B8"/>
    <path d="M348.914 47.255l-3.109.579s-.685.052-1.001.263c-.369.263-.158.579-.158.579l4.742-.421-.474-1z" fill="#E9D6B8"/>
    <path d="M329.578 49.676v-.895h27.399V49.728l-.105.158c-.475.737-1.318.895-2.266.895h-22.709c-.949 0-1.792-.158-2.266-.895l-.053-.21z" fill="#B6C2C9"/>
    <path d="M352.397 48.992h-18.178v.631h18.178v-.631z" fill="#879BA6"/>
    <path d="M329.58 48.886l-.053-17.944c0-.474.369-.842.843-.842h25.661c.474 0 .843.368.843.842l.052 17.944H329.58z" fill="#D7DFE2"/>
    <path d="M341.594 39.467c0 .895.737 1.684 1.686 1.684.896 0 1.633-.737 1.633-1.684 0-.895-.737-1.684-1.686-1.684-.896.053-1.633.79-1.633 1.684z" fill="#B6C2C9"/>
    <path d="M363.458 51.833l.948-6.104-1.581-1.631-3.477.526.685 6.788 3.425.421z" fill="#E55A00"/>
    <path d="M320.779 47.413l-.369-2.21 4.479-4 2.371 1.106-3.109 5.999-3.372-.895z" fill="#FF8400"/>
    <path d="M161.462 212.963c0 4.894-9.906 70.094-41.994 37.678-16.492-16.681 21.234-14.682 22.762-29.258.474-4.841 3.53-22.47 9.537-8.841 2.055 4.842 9.695-4.473 9.695.421z" fill="#414141"/>
    <path d="M138.855 214.068s1.423-.736-2.529-7.998c-3.951-7.262-11.486-17.05-11.486-17.05l7.587 17.471c.053 0 3.267 6.578 6.428 7.577z" fill="#E9D6B8"/>
    <path d="M145.97 223.224l-10.96-20.259-.527-1.211-6.217 2.737s8.641 15.576 9.273 16.26c.632.684 4.11 7.262 4.531 8.525.422 1.263 3.267 7.262 7.272 5.052 4.004-2.21-3.372-11.104-3.372-11.104z" fill="#FF8400"/>
    <path d="M128.742 194.387c-1.95-3.42-1.107-5.736-1.37-7.314-.264-1.632-.264-3.368-.264-3.368-1.001 1.473-.369 2.578-.527 3.368-.158.789 0 .526-.79-.632-.421-.684.053-2.473.211-3.684.158-1.052-.106-1.526-.106-1.526s-.685 1.474-1.001 3.105c-.368 1.947-.421 4.105-.316 4.578.158.842 1.37 3.21 2.477 4.736 1.317 1.684 3.108 3.21 1.686.737z" fill="#E9D6B8"/>
    <path d="M169.628 213.068s-1.422-.736 2.529-7.998c3.952-7.262 11.487-17.05 11.487-17.05l-7.588 17.471s-3.214 6.578-6.428 7.577z" fill="#E9D6B8"/>
    <path d="M162.518 222.225l10.959-20.26.527-1.21 6.218 2.736s-8.642 15.577-9.274 16.261c-.632.684-3.846 7.367-4.531 8.524-2.319 3.789-2.319 5.894-2.845 5.368-3.267-3.105-1.054-11.419-1.054-11.419z" fill="#FF8400"/>
    <path d="M179.746 193.388c1.95-3.421 1.107-5.736 1.37-7.315.264-1.631.264-3.368.264-3.368 1.001 1.474.369 2.579.527 3.368.158.789 0 .526.79-.631.422-.685-.053-2.474-.211-3.684-.158-1.052.106-1.526.106-1.526s.685 1.473 1.001 3.105c.369 1.947.421 4.104.316 4.578-.158.894-1.37 3.21-2.477 4.736-1.264 1.684-3.056 3.21-1.686.737z" fill="#E9D6B8"/>
    <path d="M134.853 337.468l-2.266 10.63s-5.006 3.789-6.639 4.262c-1.633.421-1.265-.158-1.107-.526.159-.368 3.215-2.526 3.9-3.947.737-1.368 1.844-10.577 2.054-11.05.264-.421 4.058.631 4.058.631z" fill="#E9D6B8"/>
    <path d="M169.734 340.047s1.845 5.999 2.108 8.104c.211 2.052-.105 2.736.527 3.367.632.632 5.111 5.578 6.112 5.526 1.001-.053.948-1 .948-1s-3.53-3.736-4.109-5.21c-.58-1.473-1.212-9.84-1.265-10.682-.105-.895-4.321-.105-4.321-.105z" fill="#E9D6B8"/>
    <path d="M154.612 263.902l-9.379 38.204-9.959 36.731-5.743-.895s7.324-37.625 7.482-40.94c.211-3.315 1.634-30.1 6.428-35.836 4.795-5.736 11.171 2.736 11.171 2.736z" fill="#414141"/>
    <path d="M164.255 258.903s4.9 20.681 5.637 31.942c.685 11.261 3.952 44.15 3.952 44.15l.369 5.736-4.479.105-9.642-41.677-9.115-38.309 13.278-1.947z" fill="#414141"/>
    <path d="M161.357 211.805c0 4.684-3.741 8.42-8.325 8.42s-8.325-3.789-8.325-8.42c0-4.683 3.741-8.419 8.325-8.419s8.325 3.789 8.325 8.419z" fill="#414141"/>
    <path d="M151.609 214.279s.79 4.525.158 5.788c-.685 1.263-5.164 4.157-5.796 4.999-.685.895 1.317 7.63 7.798 6.631 6.481-1 9.168-4.158 9.168-5.157 0-1 3.004-2.737.896-3.526-2.107-.737-5.532-1.263-6.481-2.263-.948-1-2.107-3.526-1.475-6.157.58-2.578-4.268-.315-4.268-.315z" fill="#E9D6B8"/>
    <path d="M155.089 205.281c-.158-.053-.263-.053-.421-.106-.264 1.579-1.581 3.368-3.583 4.842-.475.368-1.001.631-1.476.894v1.474c0 2.157 1.95 3.894 4.321 3.894 2.371 0 4.321-1.737 4.321-3.894v-3.263c-1.212-.737-2.371-2.105-3.162-3.841z" fill="#E9D6B8"/>
    <path d="M162.409 260.639l-19.706 5.421 3.056-17.155-.685-20.102s3.952 1.473 7.43 1.631c2.265.158 7.165-1.631 7.165-1.631l2.74 31.836z" fill="red"/>
    <path d="M142.386 227.645s1.581 11.261 1.844 15.787c.475 8.156-7.113 16.313-7.534 18.944-.422 2.631 2.371 5.104 2.371 5.104s1.739 1 2.634 1.105c.949.105 2.687-.737 3.32-3.789.737-3.788 3.108-16.734 3.583-19.049.685-3.315.158-13.05.685-14.313s2.423-5.315 2.16-6.315c-.263-1-2.16-2.842-2.16-2.842s-5.849 2.947-6.903 5.368z" fill="#FF8400"/>
    <path d="M160.669 221.961s-2.582 1.053-3.372 1.421c-.791.369-.422 4.526 0 5.105.421.578 1.106 13.261 1.211 16.26.106 2.999.475 14.892 1.002 17.05.474 2.157.21 4.683 2.581 5.578 2.371.842 6.85-3.158 6.85-3.158s-3.267-6.314-3.846-8.893c-.58-2.526-1.897-5.788-2.108-9.63-.211-3.841.632-9.788 1.37-12.787.79-3.421 1.212-8.104 1.423-8.683.158-.579-4.321-1.999-5.111-2.263z" fill="#FF8400"/>
    <path d="M132.8 347.519s.263.737 0 1.368c-.211.526-1.054 2.053-1.054 2.053l-1.159.263.158-.737s-2.424 1.842-3.53 2.263c-1.107.473-3.531 1.631-4.584 1-.264-.158-.264-.527-.264-.527s2.266-1.578 2.635-1.789c.369-.21.895.474 1.791.158.896-.316 3.53-1.894 4.268-2.421.948-.684 1.739-1.631 1.739-1.631z" fill="#161711"/>
    <path d="M171.894 350.098s-.158.736-.053 1.42c.105.579.632 1.421.632 1.421l1.001.474s2.003 2.105 2.951 2.684c.948.579 3.003 2.157 4.057 1.631.264-.105.316-.474.316-.474l-2.16-2.157c-.316-.263-.896.316-1.686-.105-.79-.421-3.003-2.368-3.583-3-.685-.789-1.475-1.894-1.475-1.894z" fill="#161711"/>
    <path d="M160.199 221.541l-2.898 1.789s.79.263 1.212 1.105c.421.842.685 2 .685 2l2.581-4.157c0 .052-1.58-1-1.58-.737z" fill="#F8C44F"/>
    <path d="M149.553 221.856l.475.737 1.475 2.526s-.316-.789-1.475.053c-.791.579-1.212 1.999-1.212 1.999l-.738-4.578 1.475-.737z" fill="#F8C44F"/>
    <defs>
        <linearGradient id="paint7_linear" x1="201.547" y1="231.069" x2="287.462" y2="231.069" gradientUnits="userSpaceOnUse">
            <stop stop-color="red"/>
            <stop offset=".911" stop-color="#CA0000"/>
        </linearGradient>
        <linearGradient id="paint0_linear" x1="248.45" y1="172.597" x2="261.785" y2="182.788" gradientUnits="userSpaceOnUse">
            <stop stop-color="red"/>
            <stop offset=".911" stop-color="#840000"/>
        </linearGradient>
        <linearGradient id="paint2_linear" x1="245.912" y1="175.918" x2="259.248" y2="186.108" gradientUnits="userSpaceOnUse">
            <stop stop-color="red"/>
            <stop offset=".911" stop-color="#840000"/>
        </linearGradient>
        <linearGradient id="paint3_linear" x1="246.095" y1="175.681" x2="259.431" y2="185.871" gradientUnits="userSpaceOnUse">
            <stop stop-color="red"/>
            <stop offset=".911" stop-color="#840000"/>
        </linearGradient>
        <linearGradient id="paint4_linear" x1="246.374" y1="175.312" x2="259.71" y2="185.502" gradientUnits="userSpaceOnUse">
            <stop stop-color="red"/>
            <stop offset=".911" stop-color="#840000"/>
        </linearGradient>
        <linearGradient id="paint5_linear" x1="248.599" y1="172.402" x2="261.934" y2="182.592" gradientUnits="userSpaceOnUse">
            <stop stop-color="red"/>
            <stop offset=".911" stop-color="#840000"/>
        </linearGradient>
        <linearGradient id="paint6_linear" x1="250.902" y1="169.387" x2="264.237" y2="179.577" gradientUnits="userSpaceOnUse">
            <stop stop-color="red"/>
            <stop offset=".911" stop-color="#840000"/>
        </linearGradient>
        <linearGradient id="paint1_linear" x1="245.784" y1="176.086" x2="259.119" y2="186.276" gradientUnits="userSpaceOnUse">
            <stop stop-color="red"/>
            <stop offset=".911" stop-color="#840000"/>
        </linearGradient>
        <linearGradient id="paint8_linear" x1="211.222" y1="271.452" x2="302.078" y2="271.452" gradientUnits="userSpaceOnUse">
            <stop stop-color="red"/>
            <stop offset=".911" stop-color="#CA0000"/>
        </linearGradient>
        <linearGradient id="paint9_linear" x1="261.658" y1="124.392" x2="273.244" y2="130.017" gradientUnits="userSpaceOnUse">
            <stop stop-color="red"/>
            <stop offset=".911" stop-color="#840000"/>
        </linearGradient>
        <linearGradient id="paint10_linear" x1="261.142" y1="125.454" x2="272.729" y2="131.078" gradientUnits="userSpaceOnUse">
            <stop stop-color="red"/>
            <stop offset=".911" stop-color="#840000"/>
        </linearGradient>
        <linearGradient id="paint11_linear" x1="261.96" y1="123.767" x2="273.546" y2="129.392" gradientUnits="userSpaceOnUse">
            <stop stop-color="red"/>
            <stop offset=".911" stop-color="#840000"/>
        </linearGradient>
        <linearGradient id="paint12_linear" x1="262.437" y1="122.784" x2="274.024" y2="128.409" gradientUnits="userSpaceOnUse">
            <stop stop-color="red"/>
            <stop offset=".911" stop-color="#840000"/>
        </linearGradient>
        <linearGradient id="paint13_linear" x1="262.642" y1="122.363" x2="274.228" y2="127.988" gradientUnits="userSpaceOnUse">
            <stop stop-color="red"/>
            <stop offset=".911" stop-color="#840000"/>
        </linearGradient>
        <linearGradient id="paint14_linear" x1="174.138" y1="53.083" x2="382.627" y2="53.083" gradientUnits="userSpaceOnUse">
            <stop stop-color="red"/>
            <stop offset=".911" stop-color="#840000"/>
        </linearGradient>
    </defs>
</svg>
