<svg width="147" height="82" viewBox="0 0 147 82" fill="none" xmlns="http://www.w3.org/2000/svg">
<path d="M17.2161 61.4793L15.5594 60.5207L14.7747 60.8693L14.9491 61.8279L12.1589 62.6993L11.0254 62.5251L10.415 63.0479L11.7229 66.3595L11.8101 67.9281L13.118 69.671L14.6875 71.2396L15.0362 73.0697L16.8673 74.8126L16.6929 75.7712L17.9136 78.4728L19.7446 78.037L19.6574 75.3355L20.791 73.1569L20.2678 72.2854L22.0988 71.7625L22.4476 70.7168L23.5811 71.5011L25.5865 71.4139L25.6737 68.1895L24.7146 67.3181L25.1506 66.4466L24.7146 65.6623L28.0279 63.3965L28.4639 64.7908L28.9871 64.878L29.7718 63.8322L32.9107 63.4837L35.1777 65.4009L35.8753 67.3181L36.9216 68.2767L38.2295 67.9281L40.1477 68.9739V69.671L41.1068 70.5425L43.1994 70.8039L43.7226 69.9325L42.6763 68.7124L42.8507 68.1024L43.8098 68.0152L43.7226 67.1438L44.6817 66.9695L45.5536 67.2309L45.2049 65.2266L46.4256 65.7495L49.7389 66.2723L53.4882 66.1852L53.7497 65.8366L56.3655 66.9695L56.0167 68.5381L56.5399 68.9739L58.7197 69.671L58.1966 70.5425L58.9813 70.8911L62.3818 69.4967L62.2946 70.281L61.7715 70.4553L62.033 71.0654L63.3409 72.4597L64.8232 77.2527L65.3463 77.0784L65.7823 76.3813L66.2183 76.5556L66.3055 77.3399L68.1365 77.7756L68.7469 77.3399L69.8804 78.037L70.3163 78.9956L71.0139 79.6057L71.1011 80.0414L72.1474 80.39L73.1937 80.0414L73.6296 81L76.071 80.5643L79.2972 78.3856L79.9947 77.9499L82.2617 78.6471L82.7849 79.2571L86.011 79.8671L87.1445 78.8214V78.2113L86.4469 77.0784L87.6676 75.0741L89.9346 75.6841L91.5913 76.1198L92.0273 77.0784L93.3352 77.6885L94.9046 77.1656L95.515 76.6427L98.9155 76.9913L99.5258 77.6885L102.926 77.427L105.368 75.5098L105.542 74.8998L106.937 73.854L107.809 74.1155L108.768 73.5054L110.425 73.6797L111.994 72.3725L112.43 72.1111V71.5011L111.733 70.7168L112.343 67.2309L111.122 67.1438L111.035 66.3595L111.646 65.3137L113.477 64.0065L116.092 63.5708L117.226 63.7451L121.324 67.4052L122.196 67.841C122.196 67.841 126.032 67.3181 126.032 67.4052C126.032 67.4924 126.643 68.1024 126.643 68.1024L126.817 68.6253L127.602 68.8867L129.171 67.5795V66.8823L130.218 65.2266L130.741 65.1394L131.351 66.6209L132.397 71.5882L131.961 71.8497L131.264 71.9368L130.915 72.3725L131.002 72.8083L130.392 73.4183L130.566 73.854L132.223 75.5098L132.049 77.5142L132.659 77.6885C132.659 77.6885 134.054 75.5098 134.141 75.5098C134.228 75.5098 135.188 75.2484 135.188 75.2484L136.408 73.244L136.583 68.1024L135.885 64.0065L135.624 62.3508L135.798 60.6078L132.659 56.2505L132.397 54.2462L130.828 53.6362L130.915 53.0261L130.566 52.6776L127.776 52.7647L127.689 54.8562L126.904 55.2919L125.858 55.3791L125.422 54.4205L123.504 55.0305L124.201 50.3246L123.94 44.3987L126.381 40.9129L128.299 39.0828L128.561 37.8627L130.13 36.7298L131.177 36.9041L132.136 34.2026L130.741 34.1155L129.52 29.4967L130.828 27.3181L131.787 28.8867L132.921 28.5381L132.31 25.5752L134.228 28.0152L136.06 35.0741L138.588 38.8214L145.999 42.4815L145.825 39.5185L144.343 38.1242L143.645 33.4183L141.029 30.3682L138.065 29.5839L136.06 26.5338L137.28 20.9564L138.501 20.4335L136.495 14.4205L135.798 12.6776L137.455 11.8932L136.757 10.5861L133.182 11.2832L131.525 8.66885L129.956 8.05882L132.049 7.62309L132.397 6.05447L133.705 5.88017L135.1 3.70152L132.746 3.0915L132.223 1L129.433 3.44009L130.13 4.66013L128.648 4.83442L123.417 8.49455L120.975 12.4161L122.632 13.9847L121.586 14.7691L120.19 14.4205L118.359 18.9521L117.052 19.3878L115.133 18.7778L112.779 22.0893L109.291 22.0022L108.507 24.5294L107.373 23.3094L104.845 25.0523L106.24 27.0566L104.147 29.4967L102.403 29.3224L102.665 31.6754L100.398 30.6296L98.9155 28.2767L95.9509 28.6253L96.1253 30.6296L93.4223 31.0654L92.812 30.4553L88.4524 31.8497L85.9238 34.3769L89.4115 27.5795L87.4933 25.6623L85.2262 26.4466L83.744 24.5294L82.4361 25.4009L82.2617 27.0566L80.605 28.451H78.5996L74.9375 32.1111L75.1991 32.8954L73.0193 33.3312L71.4498 33.1569L71.1882 34.5512L72.3217 37.2527L70.4035 35.7712L68.4853 36.3813L68.1365 37.8627L67.6133 34.7255L65.4335 42.3072L64.9976 44.7473L63.6025 44.573L64.6488 37.7756L65.6951 33.9412L63.6897 33.854L61.3355 37.5142L61.5099 42.1329L60.6379 41.3486L57.6734 37.3399L56.2783 38.037L55.3192 39.5185L50.6108 36.4684C50.6108 36.4684 47.0359 36.7298 46.9487 36.7298C46.8615 36.7298 45.9896 37.1656 45.9896 37.1656L44.9433 35.4227L46.2512 34.1155L44.7689 33.7669L42.6763 36.9913C42.6763 36.9913 41.8915 35.6841 41.8044 35.6841C41.7172 35.6841 39.363 35.7712 39.363 35.7712L38.5782 37.2527L37.3575 34.5512L36.5728 34.8126L35.5265 35.8584L37.2703 29.8453L39.1014 33.6797L41.3684 34.4641L43.0251 32.024L40.1477 24.7908L35.0905 28.451L31.4284 32.3725L30.7309 34.6383L25.325 35.0741L25.6737 37.3399L23.9299 36.5556L20.355 38.5599L19.2215 40.7386L19.7446 43.0044L18.2624 47.6231L16.5185 47.4488L15.9954 48.9303L17.7392 50.1503L16.6057 52.329L17.1289 54.5076L19.5703 58.9521L17.2161 61.4793Z" stroke="white" stroke-miterlimit="10" stroke-linejoin="round"/>
<path d="M9.47403 61.9368L7.84435 60.4631L7.19248 58.6947L5.00211 57L1 59.2842L2.30374 59.8736C2.30374 59.8736 3.16404 60.968 3.21974 61.0189C3.27544 61.0698 2.62938 63.1158 2.62938 63.1158L3.93312 64L5.00211 62.95L6.21467 62.5263L7.19248 61.6421L8.17058 62.5263L9.47403 61.9368Z" stroke="white" stroke-miterlimit="10" stroke-linejoin="round"/>
<path fill-rule="evenodd" clip-rule="evenodd" d="M64.9828 53.788C65.0161 53.3951 65.1824 52.1804 65.4153 51.9661C65.7812 51.6089 66.8124 51.7875 67.1451 52.0018C67.2781 52.5734 67.1783 53.3593 66.7792 53.6451C66.4465 53.8595 65.4818 53.788 64.9828 53.788ZM60.8246 59.1108C61.9556 59.1108 62.9869 59.0394 63.6522 58.4678C63.9848 58.2177 64.2177 57.7891 64.384 57.3604C64.5171 57.0389 64.7167 56.2529 64.7499 55.86C66.9122 55.86 68.7418 56.1101 70.0392 53.8952C70.638 52.8592 70.8376 50.8944 69.64 50.0728C68.5755 49.3583 66.38 49.5726 64.9163 49.5726C64.4173 49.5726 63.8518 49.6798 63.4526 49.8227C62.0887 50.2871 61.9224 52.0018 61.6895 53.3236L60.7248 58.5393C60.625 58.8965 60.5252 59.1108 60.8246 59.1108Z" fill="white"/>
<path fill-rule="evenodd" clip-rule="evenodd" d="M46.886 52.4307C46.8528 52.6093 46.753 52.8237 46.5866 52.9666C46.4203 53.1452 46.1875 53.2166 45.8548 53.2166H44.5907L44.7903 52.1806C44.9233 51.7519 45.1895 51.6448 45.6552 51.609H46.1209C46.7197 51.6448 46.9858 51.8948 46.886 52.4307ZM45.2227 59.0397C46.5201 59.0397 47.8507 58.9682 48.7489 58.2537C50.0796 57.2535 50.5785 54.6813 48.4828 54.1097C49.514 53.8239 50.1128 52.8237 50.0796 51.7519C50.013 50.6802 49.3144 49.5728 47.2852 49.5728C46.2873 49.5728 45.256 49.5728 44.258 49.5728C42.5282 49.6442 41.63 50.1443 41.2308 52.3235L40 59.0397C41.7298 59.0397 43.4929 59.0397 45.2227 59.0397ZM46.3538 56.1103C46.3205 56.3246 46.1875 56.5033 46.0211 56.6819C45.8215 56.8605 45.5887 56.9319 45.256 56.9319H43.9254L44.258 55.2172H45.4889C45.8881 55.2172 46.1542 55.3244 46.254 55.503C46.3538 55.6816 46.387 55.8959 46.3538 56.1103Z" fill="white"/>
<path fill-rule="evenodd" clip-rule="evenodd" d="M86.24 55.8958C86.1734 56.2173 86.0736 56.5031 85.9073 56.646C85.741 56.8246 85.4748 56.896 85.0756 56.896H83.9446L84.2107 55.5385C84.3438 55.0027 84.6099 54.8598 85.1089 54.8598H85.4748C85.8075 54.8598 86.0404 54.9312 86.1734 55.0741C86.2732 55.217 86.3065 55.5028 86.24 55.8958ZM88.868 53.6809C88.4022 53.1093 87.6039 52.8592 86.4728 52.8592H84.8428L85.4416 49.644H84.4436C82.747 49.7155 81.8488 50.1799 81.4497 52.2876L80.1855 59.0752H85.3085C85.8408 59.0752 86.4396 58.968 87.0716 58.7894C87.7369 58.5751 88.2359 58.2178 88.6018 57.682C88.9678 57.1461 89.2006 56.5745 89.3004 55.9672C89.4668 54.9669 89.3337 54.2167 88.868 53.6809Z" fill="white"/>
<path fill-rule="evenodd" clip-rule="evenodd" d="M75.8936 59.0396C77.8896 59.0396 78.8876 58.6466 79.3201 56.3245L80.5842 49.6084H79.5862C77.8563 49.6798 76.9582 50.18 76.559 52.3592L76.4592 52.9665H74.7959L75.4279 49.6084H74.4299C72.7001 49.6798 71.8019 50.18 71.4027 52.3592L70.1719 59.0396H70.7707C72.7001 59.0396 73.6981 58.6823 74.1305 56.5389L74.3967 55.1814H76.06L75.3281 59.0396H75.8936Z" fill="white"/>
<path fill-rule="evenodd" clip-rule="evenodd" d="M89.966 59.0396C91.9952 59.0396 92.9599 58.6466 93.3924 56.2531L94.6232 49.6084H93.6252C91.8954 49.6798 90.9972 50.18 90.598 52.3592L89.3672 59.0396H89.966Z" fill="white"/>
<path fill-rule="evenodd" clip-rule="evenodd" d="M99.7455 59.0396H100.344C102.274 59.0396 103.272 58.6823 103.704 56.5389L105.002 49.6084H104.203C101.941 49.6084 101.642 50.2872 100.178 52.3949C100.178 52.3949 99.0469 54.0739 98.5147 54.9313C98.7475 53.9667 99.6125 49.6084 99.6125 49.6084H98.6145C96.8847 49.6798 96.0197 50.1443 95.6206 52.252L94.3564 59.0038H95.2879C97.55 59.0038 97.8494 58.3251 99.3131 56.2531L100.71 54.1096L99.7455 59.0396Z" fill="white"/>
<path fill-rule="evenodd" clip-rule="evenodd" d="M106 45C105.335 45.3215 103.04 46.5004 101.41 46.679C100.279 46.8219 99.8463 46.7505 98.8484 46.3575C98.7486 46.5719 99.181 48.9654 101.011 48.9297C102.607 48.8939 105.269 46.3218 106 45Z" fill="white"/>
<path fill-rule="evenodd" clip-rule="evenodd" d="M56.1663 51.6088C56.499 51.6088 56.7984 51.716 56.9647 51.9303C57.0978 52.1089 57.1643 52.4662 57.1311 52.8591C57.1311 53.002 57.0978 53.1807 56.8317 53.1807C56.6321 53.2164 54.6361 53.2164 54.6361 53.2164C54.8357 52.1447 55.3347 51.6088 56.1663 51.6088ZM57.6966 55.9314H57.3307C57.1311 55.9672 56.8982 56.0029 56.7319 56.1815C56.6321 56.2887 56.5988 56.3958 56.3992 56.5387C56.1331 56.7531 55.8004 56.8245 55.3014 56.8245C54.7692 56.8245 54.4365 56.6816 54.3367 56.3958C54.2037 56.11 54.1704 55.6814 54.2702 55.074H57.1311C59.5262 55.074 60.757 55.074 60.3578 52.359C60.258 51.7874 60.0252 51.2515 59.6925 50.8229C58.9939 49.9297 57.9294 49.4653 56.5323 49.4653C55.0686 49.4653 53.8045 49.9297 52.7732 50.93C51.7087 51.8946 51.0434 53.0735 50.8106 54.5025C50.5444 55.86 50.7773 57.0032 51.5091 57.8963C52.2077 58.8251 53.3388 59.2538 54.8024 59.2538C56.1331 59.2538 57.2641 58.9323 58.1623 58.2892C59.0605 57.6462 59.626 57.0032 59.9587 55.9672L57.6966 55.9314Z" fill="white"/>
</svg>
